%TF.GenerationSoftware,KiCad,Pcbnew,(5.1.10)-1*%
%TF.CreationDate,2022-02-01T13:34:57+01:00*%
%TF.ProjectId,TA8-FDC,5441382d-4644-4432-9e6b-696361645f70,rev?*%
%TF.SameCoordinates,Original*%
%TF.FileFunction,Copper,L1,Top*%
%TF.FilePolarity,Positive*%
%FSLAX46Y46*%
G04 Gerber Fmt 4.6, Leading zero omitted, Abs format (unit mm)*
G04 Created by KiCad (PCBNEW (5.1.10)-1) date 2022-02-01 13:34:57*
%MOMM*%
%LPD*%
G01*
G04 APERTURE LIST*
%TA.AperFunction,ComponentPad*%
%ADD10O,1.600000X1.600000*%
%TD*%
%TA.AperFunction,ComponentPad*%
%ADD11C,1.600000*%
%TD*%
%TA.AperFunction,ComponentPad*%
%ADD12O,2.400000X1.600000*%
%TD*%
%TA.AperFunction,ComponentPad*%
%ADD13R,2.400000X1.600000*%
%TD*%
%TA.AperFunction,ComponentPad*%
%ADD14O,1.700000X1.700000*%
%TD*%
%TA.AperFunction,ComponentPad*%
%ADD15R,1.700000X1.700000*%
%TD*%
%TA.AperFunction,ComponentPad*%
%ADD16R,1.600000X1.600000*%
%TD*%
%TA.AperFunction,ComponentPad*%
%ADD17O,2.400000X2.400000*%
%TD*%
%TA.AperFunction,ComponentPad*%
%ADD18R,2.400000X2.400000*%
%TD*%
%TA.AperFunction,ComponentPad*%
%ADD19C,1.500000*%
%TD*%
%TA.AperFunction,ComponentPad*%
%ADD20C,1.200000*%
%TD*%
%TA.AperFunction,ComponentPad*%
%ADD21R,1.200000X1.200000*%
%TD*%
%TA.AperFunction,ComponentPad*%
%ADD22O,1.600000X2.400000*%
%TD*%
%TA.AperFunction,ComponentPad*%
%ADD23R,1.600000X2.400000*%
%TD*%
%TA.AperFunction,ViaPad*%
%ADD24C,0.800000*%
%TD*%
%TA.AperFunction,Conductor*%
%ADD25C,0.250000*%
%TD*%
G04 APERTURE END LIST*
D10*
%TO.P,R4,2*%
%TO.N,/~DRIVE1*%
X250190000Y-137160000D03*
D11*
%TO.P,R4,1*%
%TO.N,Net-(C5-Pad2)*%
X260350000Y-137160000D03*
%TD*%
D10*
%TO.P,R3,2*%
%TO.N,/~DRIVE3*%
X254000000Y-133350000D03*
D11*
%TO.P,R3,1*%
%TO.N,Net-(C7-Pad2)*%
X264160000Y-133350000D03*
%TD*%
D10*
%TO.P,R2,2*%
%TO.N,/~DRIVE2*%
X245110000Y-44450000D03*
D11*
%TO.P,R2,1*%
%TO.N,Net-(C6-Pad2)*%
X234950000Y-44450000D03*
%TD*%
D10*
%TO.P,R1,2*%
%TO.N,/~DRIVE0*%
X245110000Y-40640000D03*
D11*
%TO.P,R1,1*%
%TO.N,Net-(C4-Pad2)*%
X234950000Y-40640000D03*
%TD*%
%TO.P,C7,2*%
%TO.N,Net-(C7-Pad2)*%
X262930000Y-137160000D03*
%TO.P,C7,1*%
%TO.N,GND*%
X265430000Y-137160000D03*
%TD*%
%TO.P,C6,2*%
%TO.N,Net-(C6-Pad2)*%
X232370000Y-44450000D03*
%TO.P,C6,1*%
%TO.N,GND*%
X229870000Y-44450000D03*
%TD*%
%TO.P,C5,2*%
%TO.N,Net-(C5-Pad2)*%
X262930000Y-102870000D03*
%TO.P,C5,1*%
%TO.N,GND*%
X265430000Y-102870000D03*
%TD*%
%TO.P,C4,2*%
%TO.N,Net-(C4-Pad2)*%
X232370000Y-40640000D03*
%TO.P,C4,1*%
%TO.N,GND*%
X229870000Y-40640000D03*
%TD*%
D12*
%TO.P,U4,4*%
%TO.N,Net-(J2-Pad7)*%
X262890000Y-127000000D03*
%TO.P,U4,2*%
%TO.N,Net-(C7-Pad2)*%
X255270000Y-129540000D03*
%TO.P,U4,3*%
%TO.N,GND*%
X262890000Y-129540000D03*
D13*
%TO.P,U4,1*%
%TO.N,+5V*%
X255270000Y-127000000D03*
%TD*%
D12*
%TO.P,U3,4*%
%TO.N,Net-(J2-Pad3)*%
X262890000Y-120650000D03*
%TO.P,U3,2*%
%TO.N,Net-(C5-Pad2)*%
X255270000Y-123190000D03*
%TO.P,U3,3*%
%TO.N,GND*%
X262890000Y-123190000D03*
D13*
%TO.P,U3,1*%
%TO.N,+5V*%
X255270000Y-120650000D03*
%TD*%
D12*
%TO.P,U2,4*%
%TO.N,Net-(J2-Pad1)*%
X262890000Y-114300000D03*
%TO.P,U2,2*%
%TO.N,Net-(C4-Pad2)*%
X255270000Y-116840000D03*
%TO.P,U2,3*%
%TO.N,GND*%
X262890000Y-116840000D03*
D13*
%TO.P,U2,1*%
%TO.N,+5V*%
X255270000Y-114300000D03*
%TD*%
D14*
%TO.P,J2,8*%
%TO.N,/~READY*%
X262890000Y-91440000D03*
%TO.P,J2,7*%
%TO.N,Net-(J2-Pad7)*%
X260350000Y-91440000D03*
%TO.P,J2,6*%
%TO.N,/~READY*%
X262890000Y-93980000D03*
%TO.P,J2,5*%
%TO.N,Net-(J2-Pad5)*%
X260350000Y-93980000D03*
%TO.P,J2,4*%
%TO.N,/~READY*%
X262890000Y-96520000D03*
%TO.P,J2,3*%
%TO.N,Net-(J2-Pad3)*%
X260350000Y-96520000D03*
%TO.P,J2,2*%
%TO.N,/~READY*%
X262890000Y-99060000D03*
D15*
%TO.P,J2,1*%
%TO.N,Net-(J2-Pad1)*%
X260350000Y-99060000D03*
%TD*%
D12*
%TO.P,U5,4*%
%TO.N,Net-(J2-Pad5)*%
X262890000Y-107950000D03*
%TO.P,U5,2*%
%TO.N,Net-(C6-Pad2)*%
X255270000Y-110490000D03*
%TO.P,U5,3*%
%TO.N,GND*%
X262890000Y-110490000D03*
D13*
%TO.P,U5,1*%
%TO.N,+5V*%
X255270000Y-107950000D03*
%TD*%
D12*
%TO.P,IC105,14*%
%TO.N,+5V*%
X218440000Y-113030000D03*
%TO.P,IC105,7*%
%TO.N,GND*%
X210820000Y-128270000D03*
%TO.P,IC105,13*%
%TO.N,Net-(IC105-Pad13)*%
X218440000Y-115570000D03*
%TO.P,IC105,6*%
%TO.N,Net-(IC105-Pad6)*%
X210820000Y-125730000D03*
%TO.P,IC105,12*%
%TO.N,Net-(IC105-Pad12)*%
X218440000Y-118110000D03*
%TO.P,IC105,5*%
%TO.N,Net-(IC105-Pad5)*%
X210820000Y-123190000D03*
%TO.P,IC105,11*%
%TO.N,Net-(IC105-Pad11)*%
X218440000Y-120650000D03*
%TO.P,IC105,4*%
%TO.N,Net-(IC105-Pad4)*%
X210820000Y-120650000D03*
%TO.P,IC105,10*%
%TO.N,Net-(IC105-Pad10)*%
X218440000Y-123190000D03*
%TO.P,IC105,3*%
%TO.N,Net-(IC105-Pad3)*%
X210820000Y-118110000D03*
%TO.P,IC105,9*%
%TO.N,Net-(IC105-Pad9)*%
X218440000Y-125730000D03*
%TO.P,IC105,2*%
%TO.N,Net-(IC102-Pad1)*%
X210820000Y-115570000D03*
%TO.P,IC105,8*%
%TO.N,Net-(IC105-Pad8)*%
X218440000Y-128270000D03*
D13*
%TO.P,IC105,1*%
%TO.N,Net-(IC102-Pad1)*%
X210820000Y-113030000D03*
%TD*%
D12*
%TO.P,IC10,24*%
%TO.N,+5V*%
X220980000Y-55880000D03*
%TO.P,IC10,12*%
%TO.N,GND*%
X205740000Y-83820000D03*
%TO.P,IC10,23*%
%TO.N,Net-(IC10-Pad23)*%
X220980000Y-58420000D03*
%TO.P,IC10,11*%
%TO.N,Net-(IC10-Pad11)*%
X205740000Y-81280000D03*
%TO.P,IC10,22*%
%TO.N,Net-(IC10-Pad22)*%
X220980000Y-60960000D03*
%TO.P,IC10,10*%
%TO.N,Net-(IC10-Pad10)*%
X205740000Y-78740000D03*
%TO.P,IC10,21*%
%TO.N,N/C*%
X220980000Y-63500000D03*
%TO.P,IC10,9*%
%TO.N,Net-(IC10-Pad9)*%
X205740000Y-76200000D03*
%TO.P,IC10,20*%
%TO.N,Net-(C101-Pad1)*%
X220980000Y-66040000D03*
%TO.P,IC10,8*%
%TO.N,Net-(IC10-Pad8)*%
X205740000Y-73660000D03*
%TO.P,IC10,19*%
%TO.N,Net-(IC10-Pad19)*%
X220980000Y-68580000D03*
%TO.P,IC10,7*%
%TO.N,Net-(IC10-Pad7)*%
X205740000Y-71120000D03*
%TO.P,IC10,18*%
%TO.N,N/C*%
X220980000Y-71120000D03*
%TO.P,IC10,6*%
%TO.N,Net-(IC10-Pad6)*%
X205740000Y-68580000D03*
%TO.P,IC10,17*%
%TO.N,Net-(IC10-Pad17)*%
X220980000Y-73660000D03*
%TO.P,IC10,5*%
%TO.N,Net-(IC10-Pad5)*%
X205740000Y-66040000D03*
%TO.P,IC10,16*%
%TO.N,Net-(IC10-Pad16)*%
X220980000Y-76200000D03*
%TO.P,IC10,4*%
%TO.N,Net-(IC10-Pad11)*%
X205740000Y-63500000D03*
%TO.P,IC10,15*%
%TO.N,Net-(C103-Pad1)*%
X220980000Y-78740000D03*
%TO.P,IC10,3*%
%TO.N,Net-(IC10-Pad3)*%
X205740000Y-60960000D03*
%TO.P,IC10,14*%
%TO.N,Net-(C105-Pad2)*%
X220980000Y-81280000D03*
%TO.P,IC10,2*%
%TO.N,Net-(C104-Pad1)*%
X205740000Y-58420000D03*
%TO.P,IC10,13*%
%TO.N,GND*%
X220980000Y-83820000D03*
D13*
%TO.P,IC10,1*%
%TO.N,Net-(C107-Pad1)*%
X205740000Y-55880000D03*
%TD*%
D14*
%TO.P,J1,34*%
%TO.N,/~READY*%
X261620000Y-83820000D03*
%TO.P,J1,33*%
%TO.N,GND*%
X264160000Y-83820000D03*
%TO.P,J1,32*%
%TO.N,/~SIDE*%
X261620000Y-81280000D03*
%TO.P,J1,31*%
%TO.N,GND*%
X264160000Y-81280000D03*
%TO.P,J1,30*%
%TO.N,/~READ_DATA*%
X261620000Y-78740000D03*
%TO.P,J1,29*%
%TO.N,GND*%
X264160000Y-78740000D03*
%TO.P,J1,28*%
%TO.N,/~PROTECT*%
X261620000Y-76200000D03*
%TO.P,J1,27*%
%TO.N,GND*%
X264160000Y-76200000D03*
%TO.P,J1,26*%
%TO.N,/~TRACK_0*%
X261620000Y-73660000D03*
%TO.P,J1,25*%
%TO.N,GND*%
X264160000Y-73660000D03*
%TO.P,J1,24*%
%TO.N,/~WRITE_GATE*%
X261620000Y-71120000D03*
%TO.P,J1,23*%
%TO.N,GND*%
X264160000Y-71120000D03*
%TO.P,J1,22*%
%TO.N,/~WRITE_DATA*%
X261620000Y-68580000D03*
%TO.P,J1,21*%
%TO.N,GND*%
X264160000Y-68580000D03*
%TO.P,J1,20*%
%TO.N,/~STEP*%
X261620000Y-66040000D03*
%TO.P,J1,19*%
%TO.N,GND*%
X264160000Y-66040000D03*
%TO.P,J1,18*%
%TO.N,/~DIRECTION*%
X261620000Y-63500000D03*
%TO.P,J1,17*%
%TO.N,GND*%
X264160000Y-63500000D03*
%TO.P,J1,16*%
%TO.N,/~MOTOR_ON*%
X261620000Y-60960000D03*
%TO.P,J1,15*%
%TO.N,GND*%
X264160000Y-60960000D03*
%TO.P,J1,14*%
%TO.N,/~DRIVE2*%
X261620000Y-58420000D03*
%TO.P,J1,13*%
%TO.N,GND*%
X264160000Y-58420000D03*
%TO.P,J1,12*%
%TO.N,/~DRIVE1*%
X261620000Y-55880000D03*
%TO.P,J1,11*%
%TO.N,GND*%
X264160000Y-55880000D03*
%TO.P,J1,10*%
%TO.N,/~DRIVE0*%
X261620000Y-53340000D03*
%TO.P,J1,9*%
%TO.N,GND*%
X264160000Y-53340000D03*
%TO.P,J1,8*%
%TO.N,/~INDEX*%
X261620000Y-50800000D03*
%TO.P,J1,7*%
%TO.N,GND*%
X264160000Y-50800000D03*
%TO.P,J1,6*%
%TO.N,/~DRIVE3*%
X261620000Y-48260000D03*
%TO.P,J1,5*%
%TO.N,GND*%
X264160000Y-48260000D03*
%TO.P,J1,4*%
%TO.N,N/C*%
X261620000Y-45720000D03*
%TO.P,J1,3*%
%TO.N,GND*%
X264160000Y-45720000D03*
%TO.P,J1,2*%
%TO.N,N/C*%
X261620000Y-43180000D03*
D15*
%TO.P,J1,1*%
%TO.N,GND*%
X264160000Y-43180000D03*
%TD*%
D12*
%TO.P,IC109,14*%
%TO.N,+5V*%
X234950000Y-68580000D03*
%TO.P,IC109,7*%
%TO.N,GND*%
X227330000Y-83820000D03*
%TO.P,IC109,13*%
%TO.N,Net-(IC109-Pad13)*%
X234950000Y-71120000D03*
%TO.P,IC109,6*%
%TO.N,N/C*%
X227330000Y-81280000D03*
%TO.P,IC109,12*%
%TO.N,Net-(IC108-Pad6)*%
X234950000Y-73660000D03*
%TO.P,IC109,5*%
%TO.N,N/C*%
X227330000Y-78740000D03*
%TO.P,IC109,11*%
%TO.N,Net-(IC109-Pad11)*%
X234950000Y-76200000D03*
%TO.P,IC109,4*%
%TO.N,N/C*%
X227330000Y-76200000D03*
%TO.P,IC109,10*%
%TO.N,Net-(IC108-Pad6)*%
X234950000Y-78740000D03*
%TO.P,IC109,3*%
X227330000Y-73660000D03*
%TO.P,IC109,9*%
%TO.N,Net-(IC109-Pad9)*%
X234950000Y-81280000D03*
%TO.P,IC109,2*%
%TO.N,Net-(IC109-Pad1)*%
X227330000Y-71120000D03*
%TO.P,IC109,8*%
%TO.N,Net-(IC109-Pad8)*%
X234950000Y-83820000D03*
D13*
%TO.P,IC109,1*%
%TO.N,Net-(IC109-Pad1)*%
X227330000Y-68580000D03*
%TD*%
D12*
%TO.P,IC102,14*%
%TO.N,+5V*%
X234950000Y-48260000D03*
%TO.P,IC102,7*%
%TO.N,GND*%
X227330000Y-63500000D03*
%TO.P,IC102,13*%
%TO.N,+5V*%
X234950000Y-50800000D03*
%TO.P,IC102,6*%
%TO.N,Net-(IC10-Pad22)*%
X227330000Y-60960000D03*
%TO.P,IC102,12*%
%TO.N,Net-(IC102-Pad12)*%
X234950000Y-53340000D03*
%TO.P,IC102,5*%
%TO.N,N/C*%
X227330000Y-58420000D03*
%TO.P,IC102,11*%
%TO.N,Net-(IC102-Pad11)*%
X234950000Y-55880000D03*
%TO.P,IC102,4*%
%TO.N,+5V*%
X227330000Y-55880000D03*
%TO.P,IC102,10*%
X234950000Y-58420000D03*
%TO.P,IC102,3*%
%TO.N,Net-(IC102-Pad11)*%
X227330000Y-53340000D03*
%TO.P,IC102,9*%
%TO.N,Net-(IC102-Pad1)*%
X234950000Y-60960000D03*
%TO.P,IC102,2*%
%TO.N,Net-(IC102-Pad2)*%
X227330000Y-50800000D03*
%TO.P,IC102,8*%
%TO.N,N/C*%
X234950000Y-63500000D03*
D13*
%TO.P,IC102,1*%
%TO.N,Net-(IC102-Pad1)*%
X227330000Y-48260000D03*
%TD*%
D12*
%TO.P,IC108,16*%
%TO.N,+5V*%
X204470000Y-110490000D03*
%TO.P,IC108,8*%
%TO.N,GND*%
X196850000Y-128270000D03*
%TO.P,IC108,15*%
%TO.N,Net-(IC103-Pad8)*%
X204470000Y-113030000D03*
%TO.P,IC108,7*%
%TO.N,Net-(IC108-Pad7)*%
X196850000Y-125730000D03*
%TO.P,IC108,14*%
%TO.N,Net-(IC10-Pad23)*%
X204470000Y-115570000D03*
%TO.P,IC108,6*%
%TO.N,Net-(IC108-Pad6)*%
X196850000Y-123190000D03*
%TO.P,IC108,13*%
%TO.N,Net-(IC102-Pad12)*%
X204470000Y-118110000D03*
%TO.P,IC108,5*%
%TO.N,Net-(IC108-Pad5)*%
X196850000Y-120650000D03*
%TO.P,IC108,12*%
%TO.N,Net-(IC108-Pad12)*%
X204470000Y-120650000D03*
%TO.P,IC108,4*%
X196850000Y-118110000D03*
%TO.P,IC108,11*%
%TO.N,Net-(IC102-Pad2)*%
X204470000Y-123190000D03*
%TO.P,IC108,3*%
%TO.N,Net-(IC108-Pad3)*%
X196850000Y-115570000D03*
%TO.P,IC108,10*%
%TO.N,Net-(IC103-Pad12)*%
X204470000Y-125730000D03*
%TO.P,IC108,2*%
%TO.N,Net-(IC103-Pad9)*%
X196850000Y-113030000D03*
%TO.P,IC108,9*%
%TO.N,Net-(IC108-Pad9)*%
X204470000Y-128270000D03*
D13*
%TO.P,IC108,1*%
%TO.N,GND*%
X196850000Y-110490000D03*
%TD*%
D12*
%TO.P,U16,20*%
%TO.N,+5V*%
X153670000Y-110490000D03*
%TO.P,U16,10*%
%TO.N,GND*%
X146050000Y-133350000D03*
%TO.P,U16,19*%
X153670000Y-113030000D03*
%TO.P,U16,9*%
%TO.N,Net-(IC105-Pad3)*%
X146050000Y-130810000D03*
%TO.P,U16,18*%
%TO.N,Net-(IC105-Pad13)*%
X153670000Y-115570000D03*
%TO.P,U16,8*%
%TO.N,/A5*%
X146050000Y-128270000D03*
%TO.P,U16,17*%
%TO.N,/~WR*%
X153670000Y-118110000D03*
%TO.P,U16,7*%
%TO.N,Net-(IC105-Pad10)*%
X146050000Y-125730000D03*
%TO.P,U16,16*%
%TO.N,Net-(IC103-Pad9)*%
X153670000Y-120650000D03*
%TO.P,U16,6*%
%TO.N,/A7*%
X146050000Y-123190000D03*
%TO.P,U16,15*%
%TO.N,/~DACK2*%
X153670000Y-123190000D03*
%TO.P,U16,5*%
%TO.N,Net-(IC110-Pad2)*%
X146050000Y-120650000D03*
%TO.P,U16,14*%
%TO.N,Net-(IC105-Pad11)*%
X153670000Y-125730000D03*
%TO.P,U16,4*%
%TO.N,/~RD*%
X146050000Y-118110000D03*
%TO.P,U16,13*%
%TO.N,/A6*%
X153670000Y-128270000D03*
%TO.P,U16,3*%
%TO.N,Net-(IC103-Pad12)*%
X146050000Y-115570000D03*
%TO.P,U16,12*%
%TO.N,Net-(IC105-Pad9)*%
X153670000Y-130810000D03*
%TO.P,U16,2*%
%TO.N,/~RESET*%
X146050000Y-113030000D03*
%TO.P,U16,11*%
%TO.N,/A4*%
X153670000Y-133350000D03*
D13*
%TO.P,U16,1*%
%TO.N,GND*%
X146050000Y-110490000D03*
%TD*%
D12*
%TO.P,U1,14*%
%TO.N,+5V*%
X231140000Y-113030000D03*
%TO.P,U1,7*%
%TO.N,GND*%
X223520000Y-128270000D03*
%TO.P,U1,13*%
%TO.N,N/C*%
X231140000Y-115570000D03*
%TO.P,U1,6*%
%TO.N,GND*%
X223520000Y-125730000D03*
%TO.P,U1,12*%
%TO.N,N/C*%
X231140000Y-118110000D03*
%TO.P,U1,5*%
%TO.N,+5V*%
X223520000Y-123190000D03*
%TO.P,U1,11*%
%TO.N,N/C*%
X231140000Y-120650000D03*
%TO.P,U1,4*%
%TO.N,+5V*%
X223520000Y-120650000D03*
%TO.P,U1,10*%
%TO.N,Net-(IC112-Pad10)*%
X231140000Y-123190000D03*
%TO.P,U1,3*%
%TO.N,+5V*%
X223520000Y-118110000D03*
%TO.P,U1,9*%
%TO.N,Net-(IC10-Pad3)*%
X231140000Y-125730000D03*
%TO.P,U1,2*%
%TO.N,+5V*%
X223520000Y-115570000D03*
%TO.P,U1,8*%
X231140000Y-128270000D03*
D13*
%TO.P,U1,1*%
%TO.N,Net-(IC10-Pad5)*%
X223520000Y-113030000D03*
%TD*%
D12*
%TO.P,IC116,14*%
%TO.N,+5V*%
X156210000Y-72390000D03*
%TO.P,IC116,7*%
%TO.N,GND*%
X148590000Y-87630000D03*
%TO.P,IC116,13*%
%TO.N,/A0*%
X156210000Y-74930000D03*
%TO.P,IC116,6*%
%TO.N,Net-(IC110-Pad9)*%
X148590000Y-85090000D03*
%TO.P,IC116,12*%
%TO.N,Net-(IC116-Pad12)*%
X156210000Y-77470000D03*
%TO.P,IC116,5*%
%TO.N,/~SIOR*%
X148590000Y-82550000D03*
%TO.P,IC116,11*%
%TO.N,/~IORQ*%
X156210000Y-80010000D03*
%TO.P,IC116,4*%
%TO.N,Net-(IC110-Pad5)*%
X148590000Y-80010000D03*
%TO.P,IC116,10*%
%TO.N,Net-(IC105-Pad5)*%
X156210000Y-82550000D03*
%TO.P,IC116,3*%
%TO.N,/~TC*%
X148590000Y-77470000D03*
%TO.P,IC116,9*%
%TO.N,/~SIOW*%
X156210000Y-85090000D03*
%TO.P,IC116,2*%
%TO.N,Net-(IC106-Pad2)*%
X148590000Y-74930000D03*
%TO.P,IC116,8*%
%TO.N,Net-(IC110-Pad11)*%
X156210000Y-87630000D03*
D13*
%TO.P,IC116,1*%
%TO.N,/A3*%
X148590000Y-72390000D03*
%TD*%
D10*
%TO.P,RN1,8*%
%TO.N,N/C*%
X248920000Y-59690000D03*
%TO.P,RN1,7*%
X248920000Y-57150000D03*
%TO.P,RN1,6*%
%TO.N,/~READY*%
X248920000Y-54610000D03*
%TO.P,RN1,5*%
%TO.N,/~INDEX*%
X248920000Y-52070000D03*
%TO.P,RN1,4*%
%TO.N,/~TRACK_0*%
X248920000Y-49530000D03*
%TO.P,RN1,3*%
%TO.N,/~PROTECT*%
X248920000Y-46990000D03*
%TO.P,RN1,2*%
%TO.N,/~READ_DATA*%
X248920000Y-44450000D03*
D16*
%TO.P,RN1,1*%
%TO.N,+5V*%
X248920000Y-41910000D03*
%TD*%
D10*
%TO.P,R107,2*%
%TO.N,Net-(C105-Pad2)*%
X223520000Y-87630000D03*
D11*
%TO.P,R107,1*%
%TO.N,Net-(IC10-Pad16)*%
X213360000Y-87630000D03*
%TD*%
D10*
%TO.P,R142,2*%
%TO.N,/OUTDV2*%
X110490000Y-52070000D03*
D11*
%TO.P,R142,1*%
%TO.N,+5V*%
X120650000Y-52070000D03*
%TD*%
D10*
%TO.P,R108,2*%
%TO.N,Net-(C107-Pad1)*%
X203200000Y-44450000D03*
D11*
%TO.P,R108,1*%
%TO.N,Net-(C104-Pad1)*%
X213360000Y-44450000D03*
%TD*%
D10*
%TO.P,R106,2*%
%TO.N,Net-(D101-Pad2)*%
X250190000Y-68580000D03*
D11*
%TO.P,R106,1*%
%TO.N,Net-(C105-Pad2)*%
X240030000Y-68580000D03*
%TD*%
D10*
%TO.P,R105,2*%
%TO.N,Net-(C105-Pad2)*%
X240030000Y-72390000D03*
D11*
%TO.P,R105,1*%
%TO.N,Net-(IC10-Pad17)*%
X250190000Y-72390000D03*
%TD*%
D10*
%TO.P,R104,2*%
%TO.N,Net-(C105-Pad1)*%
X240030000Y-76200000D03*
D11*
%TO.P,R104,1*%
%TO.N,Net-(IC10-Pad17)*%
X250190000Y-76200000D03*
%TD*%
D10*
%TO.P,R103,2*%
%TO.N,+5V*%
X250190000Y-64770000D03*
D11*
%TO.P,R103,1*%
%TO.N,Net-(C101-Pad1)*%
X240030000Y-64770000D03*
%TD*%
D10*
%TO.P,R102,2*%
%TO.N,Net-(C102-Pad2)*%
X189230000Y-44450000D03*
D11*
%TO.P,R102,1*%
%TO.N,Net-(IC10-Pad6)*%
X199390000Y-44450000D03*
%TD*%
D10*
%TO.P,R101,2*%
%TO.N,+5V*%
X189230000Y-48260000D03*
D11*
%TO.P,R101,1*%
%TO.N,Net-(IC10-Pad11)*%
X199390000Y-48260000D03*
%TD*%
D17*
%TO.P,D101,2*%
%TO.N,Net-(D101-Pad2)*%
X175260000Y-44450000D03*
D18*
%TO.P,D101,1*%
%TO.N,Net-(C102-Pad2)*%
X185420000Y-44450000D03*
%TD*%
D19*
%TO.P,CY101,2*%
%TO.N,Net-(C104-Pad1)*%
X210620000Y-49530000D03*
%TO.P,CY101,1*%
%TO.N,Net-(C107-Pad1)*%
X205740000Y-49530000D03*
%TD*%
D11*
%TO.P,C107,2*%
%TO.N,GND*%
X220940000Y-46990000D03*
%TO.P,C107,1*%
%TO.N,Net-(C107-Pad1)*%
X218440000Y-46990000D03*
%TD*%
%TO.P,C106,2*%
%TO.N,GND*%
X173990000Y-112990000D03*
%TO.P,C106,1*%
%TO.N,+5V*%
X173990000Y-110490000D03*
%TD*%
%TO.P,C105,2*%
%TO.N,Net-(C105-Pad2)*%
X241300000Y-80050000D03*
%TO.P,C105,1*%
%TO.N,Net-(C105-Pad1)*%
X241300000Y-82550000D03*
%TD*%
%TO.P,C104,2*%
%TO.N,GND*%
X220940000Y-49530000D03*
%TO.P,C104,1*%
%TO.N,Net-(C104-Pad1)*%
X218440000Y-49530000D03*
%TD*%
%TO.P,C103,2*%
%TO.N,GND*%
X243840000Y-107950000D03*
%TO.P,C103,1*%
%TO.N,Net-(C103-Pad1)*%
X241340000Y-107950000D03*
%TD*%
%TO.P,C102,2*%
%TO.N,Net-(C102-Pad2)*%
X199390000Y-55920000D03*
%TO.P,C102,1*%
%TO.N,GND*%
X199390000Y-58420000D03*
%TD*%
D20*
%TO.P,C101,2*%
%TO.N,GND*%
X174530000Y-50800000D03*
D21*
%TO.P,C101,1*%
%TO.N,Net-(C101-Pad1)*%
X176530000Y-50800000D03*
%TD*%
D20*
%TO.P,C3,2*%
%TO.N,GND*%
X256000000Y-44450000D03*
D21*
%TO.P,C3,1*%
%TO.N,+5V*%
X254000000Y-44450000D03*
%TD*%
D11*
%TO.P,C2,2*%
%TO.N,GND*%
X171410000Y-44450000D03*
%TO.P,C2,1*%
%TO.N,+5V*%
X168910000Y-44450000D03*
%TD*%
D20*
%TO.P,C1,2*%
%TO.N,/~RESET*%
X122650000Y-127000000D03*
D21*
%TO.P,C1,1*%
%TO.N,+5V*%
X120650000Y-127000000D03*
%TD*%
D10*
%TO.P,RA106,9*%
%TO.N,/A7*%
X134620000Y-87630000D03*
%TO.P,RA106,8*%
%TO.N,/~IORQ*%
X134620000Y-85090000D03*
%TO.P,RA106,7*%
%TO.N,/~WR*%
X134620000Y-82550000D03*
%TO.P,RA106,6*%
%TO.N,/~SIOW*%
X134620000Y-80010000D03*
%TO.P,RA106,5*%
%TO.N,/~RD*%
X134620000Y-77470000D03*
%TO.P,RA106,4*%
%TO.N,/~SIOR*%
X134620000Y-74930000D03*
%TO.P,RA106,3*%
%TO.N,/~TC*%
X134620000Y-72390000D03*
%TO.P,RA106,2*%
%TO.N,/~DACK2*%
X134620000Y-69850000D03*
D16*
%TO.P,RA106,1*%
%TO.N,GND*%
X134620000Y-67310000D03*
%TD*%
D10*
%TO.P,RA102,9*%
%TO.N,/D7*%
X134620000Y-63500000D03*
%TO.P,RA102,8*%
%TO.N,/D6*%
X134620000Y-60960000D03*
%TO.P,RA102,7*%
%TO.N,/D5*%
X134620000Y-58420000D03*
%TO.P,RA102,6*%
%TO.N,/D4*%
X134620000Y-55880000D03*
%TO.P,RA102,5*%
%TO.N,/D3*%
X134620000Y-53340000D03*
%TO.P,RA102,4*%
%TO.N,/D2*%
X134620000Y-50800000D03*
%TO.P,RA102,3*%
%TO.N,/D1*%
X134620000Y-48260000D03*
%TO.P,RA102,2*%
%TO.N,/D0*%
X134620000Y-45720000D03*
D16*
%TO.P,RA102,1*%
%TO.N,+5V*%
X134620000Y-43180000D03*
%TD*%
D10*
%TO.P,RA101,9*%
%TO.N,Net-(IC102-Pad12)*%
X160020000Y-66040000D03*
%TO.P,RA101,8*%
%TO.N,Net-(IC102-Pad2)*%
X160020000Y-63500000D03*
%TO.P,RA101,7*%
%TO.N,Net-(IC107-Pad13)*%
X160020000Y-60960000D03*
%TO.P,RA101,6*%
%TO.N,Net-(IC107-Pad14)*%
X160020000Y-58420000D03*
%TO.P,RA101,5*%
%TO.N,Net-(IC107-Pad15)*%
X160020000Y-55880000D03*
%TO.P,RA101,4*%
%TO.N,Net-(IC107-Pad16)*%
X160020000Y-53340000D03*
%TO.P,RA101,3*%
%TO.N,Net-(IC107-Pad17)*%
X160020000Y-50800000D03*
%TO.P,RA101,2*%
%TO.N,Net-(IC107-Pad18)*%
X160020000Y-48260000D03*
D16*
%TO.P,RA101,1*%
%TO.N,+5V*%
X160020000Y-45720000D03*
%TD*%
D10*
%TO.P,RA3,9*%
%TO.N,/A7*%
X138430000Y-87630000D03*
%TO.P,RA3,8*%
%TO.N,/~IORQ*%
X138430000Y-85090000D03*
%TO.P,RA3,7*%
%TO.N,/~WR*%
X138430000Y-82550000D03*
%TO.P,RA3,6*%
%TO.N,/~SIOW*%
X138430000Y-80010000D03*
%TO.P,RA3,5*%
%TO.N,/~RD*%
X138430000Y-77470000D03*
%TO.P,RA3,4*%
%TO.N,/~SIOR*%
X138430000Y-74930000D03*
%TO.P,RA3,3*%
%TO.N,/~TC*%
X138430000Y-72390000D03*
%TO.P,RA3,2*%
%TO.N,/~DACK2*%
X138430000Y-69850000D03*
D16*
%TO.P,RA3,1*%
%TO.N,+5V*%
X138430000Y-67310000D03*
%TD*%
D10*
%TO.P,RA2,9*%
%TO.N,N/C*%
X130810000Y-132080000D03*
%TO.P,RA2,8*%
X130810000Y-129540000D03*
%TO.P,RA2,7*%
%TO.N,/~RESET*%
X130810000Y-127000000D03*
%TO.P,RA2,6*%
%TO.N,/A0*%
X130810000Y-124460000D03*
%TO.P,RA2,5*%
%TO.N,/A3*%
X130810000Y-121920000D03*
%TO.P,RA2,4*%
%TO.N,/A4*%
X130810000Y-119380000D03*
%TO.P,RA2,3*%
%TO.N,/A5*%
X130810000Y-116840000D03*
%TO.P,RA2,2*%
%TO.N,/A6*%
X130810000Y-114300000D03*
D16*
%TO.P,RA2,1*%
%TO.N,+5V*%
X130810000Y-111760000D03*
%TD*%
D10*
%TO.P,RA1,9*%
%TO.N,N/C*%
X134620000Y-132080000D03*
%TO.P,RA1,8*%
X134620000Y-129540000D03*
%TO.P,RA1,7*%
%TO.N,/~RESET*%
X134620000Y-127000000D03*
%TO.P,RA1,6*%
%TO.N,/A0*%
X134620000Y-124460000D03*
%TO.P,RA1,5*%
%TO.N,/A3*%
X134620000Y-121920000D03*
%TO.P,RA1,4*%
%TO.N,/A4*%
X134620000Y-119380000D03*
%TO.P,RA1,3*%
%TO.N,/A5*%
X134620000Y-116840000D03*
%TO.P,RA1,2*%
%TO.N,/A6*%
X134620000Y-114300000D03*
D16*
%TO.P,RA1,1*%
%TO.N,GND*%
X134620000Y-111760000D03*
%TD*%
D12*
%TO.P,LSI101,40*%
%TO.N,+5V*%
X194310000Y-54610000D03*
%TO.P,LSI101,20*%
%TO.N,GND*%
X179070000Y-102870000D03*
%TO.P,LSI101,39*%
%TO.N,Net-(IC109-Pad1)*%
X194310000Y-57150000D03*
%TO.P,LSI101,19*%
%TO.N,Net-(IC10-Pad3)*%
X179070000Y-100330000D03*
%TO.P,LSI101,38*%
%TO.N,Net-(IC109-Pad13)*%
X194310000Y-59690000D03*
%TO.P,LSI101,18*%
%TO.N,Net-(IC108-Pad12)*%
X179070000Y-97790000D03*
%TO.P,LSI101,37*%
%TO.N,Net-(IC109-Pad9)*%
X194310000Y-62230000D03*
%TO.P,LSI101,17*%
%TO.N,Net-(IC113-Pad10)*%
X179070000Y-95250000D03*
%TO.P,LSI101,36*%
%TO.N,N/C*%
X194310000Y-64770000D03*
%TO.P,LSI101,16*%
%TO.N,Net-(IC110-Pad1)*%
X179070000Y-92710000D03*
%TO.P,LSI101,35*%
%TO.N,Net-(IC113-Pad12)*%
X194310000Y-67310000D03*
%TO.P,LSI101,15*%
%TO.N,Net-(IC110-Pad2)*%
X179070000Y-90170000D03*
%TO.P,LSI101,34*%
%TO.N,Net-(IC112-Pad6)*%
X194310000Y-69850000D03*
%TO.P,LSI101,14*%
%TO.N,Net-(IC10-Pad5)*%
X179070000Y-87630000D03*
%TO.P,LSI101,33*%
%TO.N,Net-(IC112-Pad3)*%
X194310000Y-72390000D03*
%TO.P,LSI101,13*%
%TO.N,Net-(IC102-Pad12)*%
X179070000Y-85090000D03*
%TO.P,LSI101,32*%
%TO.N,N/C*%
X194310000Y-74930000D03*
%TO.P,LSI101,12*%
%TO.N,Net-(IC102-Pad2)*%
X179070000Y-82550000D03*
%TO.P,LSI101,31*%
%TO.N,N/C*%
X194310000Y-77470000D03*
%TO.P,LSI101,11*%
%TO.N,Net-(IC107-Pad13)*%
X179070000Y-80010000D03*
%TO.P,LSI101,30*%
%TO.N,Net-(IC117-Pad5)*%
X194310000Y-80010000D03*
%TO.P,LSI101,10*%
%TO.N,Net-(IC107-Pad14)*%
X179070000Y-77470000D03*
%TO.P,LSI101,29*%
%TO.N,Net-(IC106-Pad13)*%
X194310000Y-82550000D03*
%TO.P,LSI101,9*%
%TO.N,Net-(IC107-Pad15)*%
X179070000Y-74930000D03*
%TO.P,LSI101,28*%
%TO.N,Net-(IC106-Pad14)*%
X194310000Y-85090000D03*
%TO.P,LSI101,8*%
%TO.N,Net-(IC107-Pad16)*%
X179070000Y-72390000D03*
%TO.P,LSI101,27*%
%TO.N,Net-(IC117-Pad1)*%
X194310000Y-87630000D03*
%TO.P,LSI101,7*%
%TO.N,Net-(IC107-Pad17)*%
X179070000Y-69850000D03*
%TO.P,LSI101,26*%
%TO.N,Net-(IC10-Pad10)*%
X194310000Y-90170000D03*
%TO.P,LSI101,6*%
%TO.N,Net-(IC107-Pad18)*%
X179070000Y-67310000D03*
%TO.P,LSI101,25*%
%TO.N,Net-(IC117-Pad3)*%
X194310000Y-92710000D03*
%TO.P,LSI101,5*%
%TO.N,Net-(IC116-Pad12)*%
X179070000Y-64770000D03*
%TO.P,LSI101,24*%
%TO.N,Net-(IC10-Pad6)*%
X194310000Y-95250000D03*
%TO.P,LSI101,4*%
%TO.N,Net-(IC106-Pad6)*%
X179070000Y-62230000D03*
%TO.P,LSI101,23*%
%TO.N,Net-(IC10-Pad9)*%
X194310000Y-97790000D03*
%TO.P,LSI101,3*%
%TO.N,Net-(IC110-Pad13)*%
X179070000Y-59690000D03*
%TO.P,LSI101,22*%
%TO.N,Net-(IC10-Pad8)*%
X194310000Y-100330000D03*
%TO.P,LSI101,2*%
%TO.N,Net-(IC107-Pad1)*%
X179070000Y-57150000D03*
%TO.P,LSI101,21*%
%TO.N,Net-(IC10-Pad19)*%
X194310000Y-102870000D03*
D13*
%TO.P,LSI101,1*%
%TO.N,Net-(IC105-Pad12)*%
X179070000Y-54610000D03*
%TD*%
D14*
%TO.P,JCNB103,50*%
%TO.N,/A0*%
X116840000Y-120650000D03*
%TO.P,JCNB103,49*%
%TO.N,N/C*%
X119380000Y-120650000D03*
%TO.P,JCNB103,48*%
X116840000Y-118110000D03*
%TO.P,JCNB103,47*%
%TO.N,/A3*%
X119380000Y-118110000D03*
%TO.P,JCNB103,46*%
%TO.N,/A4*%
X116840000Y-115570000D03*
%TO.P,JCNB103,45*%
%TO.N,/A5*%
X119380000Y-115570000D03*
%TO.P,JCNB103,44*%
%TO.N,/A6*%
X116840000Y-113030000D03*
%TO.P,JCNB103,43*%
%TO.N,/A7*%
X119380000Y-113030000D03*
%TO.P,JCNB103,42*%
%TO.N,N/C*%
X116840000Y-110490000D03*
%TO.P,JCNB103,41*%
X119380000Y-110490000D03*
%TO.P,JCNB103,40*%
X116840000Y-107950000D03*
%TO.P,JCNB103,39*%
X119380000Y-107950000D03*
%TO.P,JCNB103,38*%
X116840000Y-105410000D03*
%TO.P,JCNB103,37*%
X119380000Y-105410000D03*
%TO.P,JCNB103,36*%
X116840000Y-102870000D03*
%TO.P,JCNB103,35*%
X119380000Y-102870000D03*
%TO.P,JCNB103,34*%
X116840000Y-100330000D03*
%TO.P,JCNB103,33*%
X119380000Y-100330000D03*
%TO.P,JCNB103,32*%
%TO.N,/~DACK2*%
X116840000Y-97790000D03*
%TO.P,JCNB103,31*%
%TO.N,/~TC*%
X119380000Y-97790000D03*
%TO.P,JCNB103,30*%
%TO.N,/DRQ2*%
X116840000Y-95250000D03*
%TO.P,JCNB103,29*%
%TO.N,N/C*%
X119380000Y-95250000D03*
%TO.P,JCNB103,28*%
X116840000Y-92710000D03*
%TO.P,JCNB103,27*%
X119380000Y-92710000D03*
%TO.P,JCNB103,26*%
X116840000Y-90170000D03*
%TO.P,JCNB103,25*%
X119380000Y-90170000D03*
%TO.P,JCNB103,24*%
%TO.N,/~EXTINT1*%
X116840000Y-87630000D03*
%TO.P,JCNB103,23*%
%TO.N,N/C*%
X119380000Y-87630000D03*
%TO.P,JCNB103,22*%
%TO.N,/OUTDV2*%
X116840000Y-85090000D03*
%TO.P,JCNB103,21*%
%TO.N,N/C*%
X119380000Y-85090000D03*
%TO.P,JCNB103,20*%
%TO.N,/~RD*%
X116840000Y-82550000D03*
%TO.P,JCNB103,19*%
%TO.N,/~IORQ*%
X119380000Y-82550000D03*
%TO.P,JCNB103,18*%
%TO.N,N/C*%
X116840000Y-80010000D03*
%TO.P,JCNB103,17*%
%TO.N,/~WR*%
X119380000Y-80010000D03*
%TO.P,JCNB103,16*%
%TO.N,/~SIOR*%
X116840000Y-77470000D03*
%TO.P,JCNB103,15*%
%TO.N,/~SIOW*%
X119380000Y-77470000D03*
%TO.P,JCNB103,14*%
%TO.N,N/C*%
X116840000Y-74930000D03*
%TO.P,JCNB103,13*%
X119380000Y-74930000D03*
%TO.P,JCNB103,12*%
%TO.N,/~RESET*%
X116840000Y-72390000D03*
%TO.P,JCNB103,11*%
%TO.N,N/C*%
X119380000Y-72390000D03*
%TO.P,JCNB103,10*%
%TO.N,/D7*%
X116840000Y-69850000D03*
%TO.P,JCNB103,9*%
%TO.N,/D6*%
X119380000Y-69850000D03*
%TO.P,JCNB103,8*%
%TO.N,/D5*%
X116840000Y-67310000D03*
%TO.P,JCNB103,7*%
%TO.N,/D4*%
X119380000Y-67310000D03*
%TO.P,JCNB103,6*%
%TO.N,/D3*%
X116840000Y-64770000D03*
%TO.P,JCNB103,5*%
%TO.N,/D2*%
X119380000Y-64770000D03*
%TO.P,JCNB103,4*%
%TO.N,/D1*%
X116840000Y-62230000D03*
%TO.P,JCNB103,3*%
%TO.N,/D0*%
X119380000Y-62230000D03*
%TO.P,JCNB103,2*%
%TO.N,GND*%
X116840000Y-59690000D03*
D15*
%TO.P,JCNB103,1*%
X119380000Y-59690000D03*
%TD*%
D12*
%TO.P,IC119,14*%
%TO.N,+5V*%
X189230000Y-113030000D03*
%TO.P,IC119,7*%
%TO.N,GND*%
X181610000Y-128270000D03*
%TO.P,IC119,13*%
%TO.N,Net-(IC106-Pad11)*%
X189230000Y-115570000D03*
%TO.P,IC119,6*%
%TO.N,/DRQ2*%
X181610000Y-125730000D03*
%TO.P,IC119,12*%
%TO.N,/~DRIVE1*%
X189230000Y-118110000D03*
%TO.P,IC119,5*%
%TO.N,Net-(IC112-Pad8)*%
X181610000Y-123190000D03*
%TO.P,IC119,11*%
%TO.N,Net-(IC106-Pad10)*%
X189230000Y-120650000D03*
%TO.P,IC119,4*%
%TO.N,/~EXTINT1*%
X181610000Y-120650000D03*
%TO.P,IC119,10*%
%TO.N,/~DRIVE2*%
X189230000Y-123190000D03*
%TO.P,IC119,3*%
%TO.N,Net-(IC108-Pad5)*%
X181610000Y-118110000D03*
%TO.P,IC119,9*%
%TO.N,Net-(IC106-Pad9)*%
X189230000Y-125730000D03*
%TO.P,IC119,2*%
%TO.N,/~DRIVE0*%
X181610000Y-115570000D03*
%TO.P,IC119,8*%
%TO.N,/~DRIVE3*%
X189230000Y-128270000D03*
D13*
%TO.P,IC119,1*%
%TO.N,Net-(IC106-Pad12)*%
X181610000Y-113030000D03*
%TD*%
D22*
%TO.P,IC117,14*%
%TO.N,+5V*%
X204470000Y-93980000D03*
%TO.P,IC117,7*%
%TO.N,GND*%
X219710000Y-101600000D03*
%TO.P,IC117,13*%
%TO.N,Net-(IC10-Pad23)*%
X207010000Y-93980000D03*
%TO.P,IC117,6*%
%TO.N,/~WRITE_DATA*%
X217170000Y-101600000D03*
%TO.P,IC117,12*%
%TO.N,/~MOTOR_ON*%
X209550000Y-93980000D03*
%TO.P,IC117,5*%
%TO.N,Net-(IC117-Pad5)*%
X214630000Y-101600000D03*
%TO.P,IC117,11*%
%TO.N,Net-(IC109-Pad11)*%
X212090000Y-93980000D03*
%TO.P,IC117,4*%
%TO.N,/~WRITE_GATE*%
X212090000Y-101600000D03*
%TO.P,IC117,10*%
%TO.N,/~DIRECTION*%
X214630000Y-93980000D03*
%TO.P,IC117,3*%
%TO.N,Net-(IC117-Pad3)*%
X209550000Y-101600000D03*
%TO.P,IC117,9*%
%TO.N,Net-(IC109-Pad8)*%
X217170000Y-93980000D03*
%TO.P,IC117,2*%
%TO.N,/~SIDE*%
X207010000Y-101600000D03*
%TO.P,IC117,8*%
%TO.N,/~STEP*%
X219710000Y-93980000D03*
D23*
%TO.P,IC117,1*%
%TO.N,Net-(IC117-Pad1)*%
X204470000Y-101600000D03*
%TD*%
D22*
%TO.P,IC113,14*%
%TO.N,+5V*%
X153670000Y-95250000D03*
%TO.P,IC113,7*%
%TO.N,GND*%
X168910000Y-102870000D03*
%TO.P,IC113,13*%
%TO.N,/~READY*%
X156210000Y-95250000D03*
%TO.P,IC113,6*%
%TO.N,Net-(IC112-Pad1)*%
X166370000Y-102870000D03*
%TO.P,IC113,12*%
%TO.N,Net-(IC113-Pad12)*%
X158750000Y-95250000D03*
%TO.P,IC113,5*%
%TO.N,/~TRACK_0*%
X163830000Y-102870000D03*
%TO.P,IC113,11*%
%TO.N,/~INDEX*%
X161290000Y-95250000D03*
%TO.P,IC113,4*%
%TO.N,Net-(IC112-Pad4)*%
X161290000Y-102870000D03*
%TO.P,IC113,10*%
%TO.N,Net-(IC113-Pad10)*%
X163830000Y-95250000D03*
%TO.P,IC113,3*%
%TO.N,/~PROTECT*%
X158750000Y-102870000D03*
%TO.P,IC113,9*%
%TO.N,Net-(IC105-Pad8)*%
X166370000Y-95250000D03*
%TO.P,IC113,2*%
%TO.N,Net-(IC10-Pad7)*%
X156210000Y-102870000D03*
%TO.P,IC113,8*%
%TO.N,Net-(IC105-Pad4)*%
X168910000Y-95250000D03*
D23*
%TO.P,IC113,1*%
%TO.N,/~READ_DATA*%
X153670000Y-102870000D03*
%TD*%
D12*
%TO.P,IC112,14*%
%TO.N,+5V*%
X245110000Y-113030000D03*
%TO.P,IC112,7*%
%TO.N,GND*%
X237490000Y-128270000D03*
%TO.P,IC112,13*%
%TO.N,Net-(IC105-Pad6)*%
X245110000Y-115570000D03*
%TO.P,IC112,6*%
%TO.N,Net-(IC112-Pad6)*%
X237490000Y-125730000D03*
%TO.P,IC112,12*%
%TO.N,Net-(IC110-Pad2)*%
X245110000Y-118110000D03*
%TO.P,IC112,5*%
%TO.N,Net-(IC108-Pad7)*%
X237490000Y-123190000D03*
%TO.P,IC112,11*%
%TO.N,Net-(IC107-Pad19)*%
X245110000Y-120650000D03*
%TO.P,IC112,4*%
%TO.N,Net-(IC112-Pad4)*%
X237490000Y-120650000D03*
%TO.P,IC112,10*%
%TO.N,Net-(IC112-Pad10)*%
X245110000Y-123190000D03*
%TO.P,IC112,3*%
%TO.N,Net-(IC112-Pad3)*%
X237490000Y-118110000D03*
%TO.P,IC112,9*%
%TO.N,Net-(IC10-Pad5)*%
X245110000Y-125730000D03*
%TO.P,IC112,2*%
%TO.N,Net-(IC108-Pad6)*%
X237490000Y-115570000D03*
%TO.P,IC112,8*%
%TO.N,Net-(IC112-Pad8)*%
X245110000Y-128270000D03*
D13*
%TO.P,IC112,1*%
%TO.N,Net-(IC112-Pad1)*%
X237490000Y-113030000D03*
%TD*%
D22*
%TO.P,IC110,14*%
%TO.N,+5V*%
X132080000Y-95250000D03*
%TO.P,IC110,7*%
%TO.N,GND*%
X147320000Y-102870000D03*
%TO.P,IC110,13*%
%TO.N,Net-(IC110-Pad13)*%
X134620000Y-95250000D03*
%TO.P,IC110,6*%
%TO.N,Net-(IC110-Pad5)*%
X144780000Y-102870000D03*
%TO.P,IC110,12*%
%TO.N,Net-(IC108-Pad9)*%
X137160000Y-95250000D03*
%TO.P,IC110,5*%
%TO.N,Net-(IC110-Pad5)*%
X142240000Y-102870000D03*
%TO.P,IC110,11*%
%TO.N,Net-(IC110-Pad11)*%
X139700000Y-95250000D03*
%TO.P,IC110,4*%
%TO.N,Net-(IC110-Pad3)*%
X139700000Y-102870000D03*
%TO.P,IC110,10*%
%TO.N,Net-(IC107-Pad1)*%
X142240000Y-95250000D03*
%TO.P,IC110,3*%
%TO.N,Net-(IC110-Pad3)*%
X137160000Y-102870000D03*
%TO.P,IC110,9*%
%TO.N,Net-(IC110-Pad9)*%
X144780000Y-95250000D03*
%TO.P,IC110,2*%
%TO.N,Net-(IC110-Pad2)*%
X134620000Y-102870000D03*
%TO.P,IC110,8*%
%TO.N,Net-(IC108-Pad3)*%
X147320000Y-95250000D03*
D23*
%TO.P,IC110,1*%
%TO.N,Net-(IC110-Pad1)*%
X132080000Y-102870000D03*
%TD*%
D12*
%TO.P,IC107,20*%
%TO.N,+5V*%
X156210000Y-43180000D03*
%TO.P,IC107,10*%
%TO.N,GND*%
X148590000Y-66040000D03*
%TO.P,IC107,19*%
%TO.N,Net-(IC107-Pad19)*%
X156210000Y-45720000D03*
%TO.P,IC107,9*%
%TO.N,/D7*%
X148590000Y-63500000D03*
%TO.P,IC107,18*%
%TO.N,Net-(IC107-Pad18)*%
X156210000Y-48260000D03*
%TO.P,IC107,8*%
%TO.N,/D6*%
X148590000Y-60960000D03*
%TO.P,IC107,17*%
%TO.N,Net-(IC107-Pad17)*%
X156210000Y-50800000D03*
%TO.P,IC107,7*%
%TO.N,/D5*%
X148590000Y-58420000D03*
%TO.P,IC107,16*%
%TO.N,Net-(IC107-Pad16)*%
X156210000Y-53340000D03*
%TO.P,IC107,6*%
%TO.N,/D4*%
X148590000Y-55880000D03*
%TO.P,IC107,15*%
%TO.N,Net-(IC107-Pad15)*%
X156210000Y-55880000D03*
%TO.P,IC107,5*%
%TO.N,/D3*%
X148590000Y-53340000D03*
%TO.P,IC107,14*%
%TO.N,Net-(IC107-Pad14)*%
X156210000Y-58420000D03*
%TO.P,IC107,4*%
%TO.N,/D2*%
X148590000Y-50800000D03*
%TO.P,IC107,13*%
%TO.N,Net-(IC107-Pad13)*%
X156210000Y-60960000D03*
%TO.P,IC107,3*%
%TO.N,/D1*%
X148590000Y-48260000D03*
%TO.P,IC107,12*%
%TO.N,Net-(IC102-Pad2)*%
X156210000Y-63500000D03*
%TO.P,IC107,2*%
%TO.N,/D0*%
X148590000Y-45720000D03*
%TO.P,IC107,11*%
%TO.N,Net-(IC102-Pad12)*%
X156210000Y-66040000D03*
D13*
%TO.P,IC107,1*%
%TO.N,Net-(IC107-Pad1)*%
X148590000Y-43180000D03*
%TD*%
D12*
%TO.P,IC106,16*%
%TO.N,+5V*%
X170180000Y-110490000D03*
%TO.P,IC106,8*%
%TO.N,GND*%
X162560000Y-128270000D03*
%TO.P,IC106,15*%
X170180000Y-113030000D03*
%TO.P,IC106,7*%
%TO.N,Net-(IC103-Pad10)*%
X162560000Y-125730000D03*
%TO.P,IC106,14*%
%TO.N,Net-(IC106-Pad14)*%
X170180000Y-115570000D03*
%TO.P,IC106,6*%
%TO.N,Net-(IC106-Pad6)*%
X162560000Y-123190000D03*
%TO.P,IC106,13*%
%TO.N,Net-(IC106-Pad13)*%
X170180000Y-118110000D03*
%TO.P,IC106,5*%
%TO.N,N/C*%
X162560000Y-120650000D03*
%TO.P,IC106,12*%
%TO.N,Net-(IC106-Pad12)*%
X170180000Y-120650000D03*
%TO.P,IC106,4*%
%TO.N,N/C*%
X162560000Y-118110000D03*
%TO.P,IC106,11*%
%TO.N,Net-(IC106-Pad11)*%
X170180000Y-123190000D03*
%TO.P,IC106,3*%
%TO.N,+5V*%
X162560000Y-115570000D03*
%TO.P,IC106,10*%
%TO.N,Net-(IC106-Pad10)*%
X170180000Y-125730000D03*
%TO.P,IC106,2*%
%TO.N,Net-(IC106-Pad2)*%
X162560000Y-113030000D03*
%TO.P,IC106,9*%
%TO.N,Net-(IC106-Pad9)*%
X170180000Y-128270000D03*
D13*
%TO.P,IC106,1*%
%TO.N,Net-(IC105-Pad6)*%
X162560000Y-110490000D03*
%TD*%
D22*
%TO.P,IC103,14*%
%TO.N,+5V*%
X224790000Y-93980000D03*
%TO.P,IC103,7*%
%TO.N,GND*%
X240030000Y-101600000D03*
%TO.P,IC103,13*%
%TO.N,Net-(IC103-Pad10)*%
X227330000Y-93980000D03*
%TO.P,IC103,6*%
%TO.N,N/C*%
X237490000Y-101600000D03*
%TO.P,IC103,12*%
%TO.N,Net-(IC103-Pad12)*%
X229870000Y-93980000D03*
%TO.P,IC103,5*%
%TO.N,N/C*%
X234950000Y-101600000D03*
%TO.P,IC103,11*%
%TO.N,Net-(IC102-Pad11)*%
X232410000Y-93980000D03*
%TO.P,IC103,4*%
%TO.N,N/C*%
X232410000Y-101600000D03*
%TO.P,IC103,10*%
%TO.N,Net-(IC103-Pad10)*%
X234950000Y-93980000D03*
%TO.P,IC103,3*%
%TO.N,N/C*%
X229870000Y-101600000D03*
%TO.P,IC103,9*%
%TO.N,Net-(IC103-Pad9)*%
X237490000Y-93980000D03*
%TO.P,IC103,2*%
%TO.N,N/C*%
X227330000Y-101600000D03*
%TO.P,IC103,8*%
%TO.N,Net-(IC103-Pad8)*%
X240030000Y-93980000D03*
D23*
%TO.P,IC103,1*%
%TO.N,N/C*%
X224790000Y-101600000D03*
%TD*%
D24*
%TO.N,+5V*%
X128270000Y-43180000D03*
X128270000Y-52070000D03*
X127000000Y-68580000D03*
X129540000Y-68580000D03*
X245110000Y-109220000D03*
X231140000Y-109220000D03*
X218440000Y-109220000D03*
X227330000Y-128270000D03*
X227330000Y-115570000D03*
X227330000Y-113030000D03*
X204470000Y-109220000D03*
X189230000Y-110490000D03*
X157480000Y-115570000D03*
X157480000Y-110490000D03*
X152400000Y-72390000D03*
X152400000Y-67310000D03*
X121920000Y-123190000D03*
X121920000Y-111760000D03*
X130810000Y-95250000D03*
X231140000Y-55880000D03*
X231140000Y-50800000D03*
X231140000Y-58420000D03*
X166370000Y-115570000D03*
X166370000Y-110490000D03*
X194310000Y-48260000D03*
X237490000Y-68580000D03*
X237490000Y-58420000D03*
X242570000Y-58420000D03*
X242570000Y-64770000D03*
X222250000Y-109220000D03*
X222250000Y-93980000D03*
X132080000Y-97790000D03*
X152400000Y-97790000D03*
X168910000Y-49530000D03*
X257810000Y-114300000D03*
X257810000Y-120650000D03*
X257810000Y-127000000D03*
X257810000Y-107950000D03*
%TO.N,Net-(IC10-Pad23)*%
X210820000Y-57150000D03*
X208280000Y-115570000D03*
X207010000Y-87630000D03*
X210820000Y-87630000D03*
%TO.N,Net-(IC10-Pad11)*%
X198120000Y-63500000D03*
X203200000Y-81280000D03*
X203200000Y-63500000D03*
%TO.N,Net-(IC10-Pad10)*%
X200660000Y-78740000D03*
X200660000Y-90170000D03*
%TO.N,Net-(IC10-Pad9)*%
X201930000Y-76200000D03*
X201930000Y-97790000D03*
%TO.N,Net-(C101-Pad1)*%
X200660000Y-64770000D03*
X200660000Y-50800000D03*
%TO.N,Net-(IC10-Pad8)*%
X200660000Y-73660000D03*
X200660000Y-100330000D03*
%TO.N,Net-(IC10-Pad19)*%
X190500000Y-66040000D03*
X189230000Y-102870000D03*
%TO.N,Net-(IC10-Pad7)*%
X160020000Y-71120000D03*
X156210000Y-100330000D03*
X160020000Y-100330000D03*
%TO.N,Net-(IC10-Pad6)*%
X199390000Y-95250000D03*
X200660000Y-68580000D03*
%TO.N,Net-(IC10-Pad5)*%
X184150000Y-63500000D03*
X184150000Y-87630000D03*
X226060000Y-124460000D03*
X226060000Y-113030000D03*
X226060000Y-88900000D03*
%TO.N,Net-(IC10-Pad16)*%
X213360000Y-76200000D03*
%TO.N,Net-(C103-Pad1)*%
X220980000Y-107950000D03*
%TO.N,Net-(IC10-Pad3)*%
X203200000Y-99060000D03*
X228600000Y-125730000D03*
X224790000Y-97790000D03*
%TO.N,Net-(C105-Pad2)*%
X223480000Y-80050000D03*
%TO.N,Net-(C104-Pad1)*%
X209550000Y-58420000D03*
X209550000Y-49530000D03*
X213360000Y-49530000D03*
%TO.N,Net-(C107-Pad1)*%
X205740000Y-44450000D03*
X218440000Y-43180000D03*
%TO.N,GND*%
X132080000Y-59690000D03*
X132080000Y-67310000D03*
X140970000Y-66040000D03*
X140970000Y-59690000D03*
X173990000Y-64770000D03*
X219710000Y-104140000D03*
X240030000Y-104140000D03*
X245110000Y-104140000D03*
X250190000Y-104140000D03*
X162560000Y-132080000D03*
X237490000Y-132080000D03*
X223520000Y-132080000D03*
X210820000Y-132080000D03*
X181610000Y-132080000D03*
X196850000Y-132080000D03*
X200660000Y-132080000D03*
X173990000Y-132080000D03*
X153670000Y-87630000D03*
X153670000Y-64770000D03*
X176530000Y-113030000D03*
X176530000Y-102870000D03*
X229870000Y-83820000D03*
X229870000Y-63500000D03*
X220980000Y-52070000D03*
X224790000Y-63500000D03*
X224790000Y-52070000D03*
X198120000Y-52070000D03*
X198120000Y-58420000D03*
X250190000Y-87630000D03*
X264160000Y-87630000D03*
X148590000Y-102870000D03*
X179070000Y-109220000D03*
X228600000Y-104140000D03*
X246380000Y-130810000D03*
X265430000Y-110490000D03*
X265430000Y-116840000D03*
X265430000Y-123190000D03*
X265430000Y-129540000D03*
X265430000Y-104140000D03*
X224790000Y-44450000D03*
%TO.N,Net-(IC105-Pad3)*%
X149860000Y-130810000D03*
X149860000Y-119380000D03*
%TO.N,Net-(IC105-Pad13)*%
X149860000Y-115570000D03*
X149860000Y-105410000D03*
X156210000Y-105410000D03*
X156210000Y-133350000D03*
X215900000Y-115570000D03*
X215900000Y-107950000D03*
%TO.N,/A5*%
X139700000Y-116840000D03*
X140970000Y-129540000D03*
%TO.N,/~WR*%
X123190000Y-80010000D03*
X123190000Y-82550000D03*
X142240000Y-82550000D03*
X140970000Y-116840000D03*
%TO.N,Net-(IC103-Pad9)*%
X237490000Y-97790000D03*
X247650000Y-97790000D03*
X247650000Y-121920000D03*
X199390000Y-121920000D03*
X199390000Y-113030000D03*
%TO.N,/A7*%
X126180010Y-123190000D03*
X125730000Y-113030000D03*
X127000000Y-87630000D03*
%TO.N,/~DACK2*%
X128270000Y-69850000D03*
X128270000Y-96520000D03*
X128270000Y-118110000D03*
%TO.N,Net-(IC110-Pad2)*%
X133350000Y-120650000D03*
X133350000Y-90170000D03*
X242570000Y-118110000D03*
X232410000Y-130810000D03*
X148590000Y-123190000D03*
X158750000Y-130810000D03*
X158750000Y-128270000D03*
X148590000Y-125730000D03*
%TO.N,Net-(IC105-Pad11)*%
X215900000Y-127000000D03*
X215900000Y-120650000D03*
%TO.N,/~RD*%
X130810000Y-81280000D03*
X130810000Y-77470000D03*
X129540000Y-105410000D03*
X148590000Y-118110000D03*
X148590000Y-105410000D03*
%TO.N,/A6*%
X137160000Y-128270000D03*
X137160000Y-114300000D03*
%TO.N,Net-(IC103-Pad12)*%
X207010000Y-125730000D03*
X207010000Y-116840000D03*
X229870000Y-87630000D03*
X227330000Y-87630000D03*
X224790000Y-74930000D03*
X212090000Y-76200000D03*
X213360000Y-116840000D03*
%TO.N,Net-(IC105-Pad9)*%
X220980000Y-125730000D03*
X220980000Y-130810000D03*
%TO.N,/~RESET*%
X125730000Y-71120000D03*
X125730000Y-107950000D03*
X142240000Y-113030000D03*
X142240000Y-107950000D03*
X142240000Y-127000000D03*
%TO.N,/A4*%
X139700000Y-119380000D03*
X139700000Y-134620000D03*
%TO.N,Net-(IC102-Pad12)*%
X163830000Y-85090000D03*
X163830000Y-66040000D03*
X243840000Y-53340000D03*
X208280000Y-82550000D03*
X208280000Y-118110000D03*
X208280000Y-85090000D03*
X243840000Y-85090000D03*
%TO.N,Net-(IC102-Pad11)*%
X232410000Y-53340000D03*
X232410000Y-55880000D03*
%TO.N,Net-(IC102-Pad1)*%
X229870000Y-48260000D03*
X229870000Y-60960000D03*
X210820000Y-106680000D03*
X231140000Y-106680000D03*
%TO.N,Net-(IC102-Pad2)*%
X165100000Y-82550000D03*
X165100000Y-63500000D03*
X223520000Y-50800000D03*
X223520000Y-77470000D03*
X186690000Y-82550000D03*
X186690000Y-76200000D03*
X201930000Y-123190000D03*
X201930000Y-128270000D03*
X186690000Y-133350000D03*
X194310000Y-132899990D03*
X194310000Y-129540000D03*
%TO.N,Net-(IC103-Pad10)*%
X165100000Y-125730000D03*
X167640000Y-105410000D03*
X233680000Y-106680000D03*
X227330000Y-96520000D03*
X233680000Y-96520000D03*
%TO.N,Net-(IC103-Pad8)*%
X243840000Y-93980000D03*
X207010000Y-113030000D03*
%TO.N,Net-(IC105-Pad6)*%
X160020000Y-110490000D03*
X160020000Y-133350000D03*
X213360000Y-133350000D03*
X213360000Y-125730000D03*
X248920000Y-133350000D03*
X248920000Y-115570000D03*
%TO.N,Net-(IC105-Pad12)*%
X185420000Y-54610000D03*
X214630000Y-118110000D03*
X214630000Y-110490000D03*
X207010000Y-110490000D03*
X206045011Y-106680000D03*
X184150000Y-104140000D03*
%TO.N,Net-(IC105-Pad5)*%
X151130000Y-82550000D03*
X151130000Y-135890000D03*
X214630000Y-123190000D03*
X214630000Y-135890000D03*
%TO.N,Net-(IC105-Pad4)*%
X208280000Y-120650000D03*
X168910000Y-92710000D03*
X172720000Y-92710000D03*
X172720000Y-83820000D03*
X182880000Y-83820000D03*
X200660000Y-110490000D03*
X182880000Y-109220000D03*
%TO.N,Net-(IC105-Pad8)*%
X166370000Y-97790000D03*
X171450000Y-97790000D03*
X171450000Y-78740000D03*
X189230000Y-78740000D03*
X189230000Y-92710000D03*
X222250000Y-92710000D03*
X220980000Y-124460000D03*
%TO.N,Net-(IC106-Pad14)*%
X186690000Y-85090000D03*
X175260000Y-115570000D03*
X175260000Y-88900000D03*
X186690000Y-88900000D03*
%TO.N,Net-(IC106-Pad6)*%
X163830000Y-62230000D03*
X165100000Y-123190000D03*
%TO.N,Net-(IC106-Pad13)*%
X175260000Y-118110000D03*
X175260000Y-106680000D03*
X191770000Y-106680000D03*
X191770000Y-82550000D03*
%TO.N,Net-(IC106-Pad12)*%
X176530000Y-120650000D03*
X176530000Y-115570000D03*
%TO.N,Net-(IC106-Pad11)*%
X179070000Y-123190000D03*
X179070000Y-114300000D03*
%TO.N,Net-(IC106-Pad10)*%
X185420000Y-120650000D03*
X166370000Y-125730000D03*
X185420000Y-133350000D03*
X166370000Y-133350000D03*
%TO.N,Net-(IC106-Pad2)*%
X144780000Y-73660000D03*
X143510000Y-106680000D03*
X158750000Y-106680000D03*
X158750000Y-113030000D03*
%TO.N,Net-(IC106-Pad9)*%
X186690000Y-125730000D03*
X186690000Y-129540000D03*
%TO.N,Net-(IC107-Pad19)*%
X245110000Y-48260000D03*
%TO.N,/D7*%
X124460000Y-63500000D03*
X124460000Y-68580000D03*
%TO.N,Net-(IC107-Pad18)*%
X172720000Y-67310000D03*
X172720000Y-48260000D03*
%TO.N,/D6*%
X125730000Y-60960000D03*
X125730000Y-69850000D03*
%TO.N,Net-(IC107-Pad17)*%
X171450000Y-69850000D03*
X171450000Y-50800000D03*
%TO.N,/D5*%
X130810000Y-58420000D03*
X130810000Y-66040000D03*
%TO.N,Net-(IC107-Pad16)*%
X170180000Y-72390000D03*
X170180000Y-53340000D03*
%TO.N,/D4*%
X128270000Y-55880000D03*
X128270000Y-67310000D03*
%TO.N,Net-(IC107-Pad15)*%
X168910000Y-74930000D03*
X168910000Y-55880000D03*
%TO.N,/D3*%
X123190000Y-53340000D03*
X123190000Y-63500000D03*
%TO.N,Net-(IC107-Pad14)*%
X167640000Y-77470000D03*
X167640000Y-58420000D03*
%TO.N,/D2*%
X129540000Y-64770000D03*
X129540000Y-50800000D03*
%TO.N,Net-(IC107-Pad13)*%
X166370000Y-80010000D03*
X166370000Y-60960000D03*
%TO.N,/D1*%
X124460000Y-48260000D03*
X124460000Y-60960000D03*
%TO.N,/D0*%
X127000000Y-45720000D03*
X127000000Y-62230000D03*
%TO.N,Net-(IC107-Pad1)*%
X152400000Y-43180000D03*
X152400000Y-57150000D03*
X142240000Y-57150000D03*
%TO.N,Net-(IC108-Pad7)*%
X240030000Y-123190000D03*
X240030000Y-130810000D03*
X200660000Y-125730000D03*
X201930000Y-129540000D03*
%TO.N,Net-(IC108-Pad6)*%
X237490000Y-78740000D03*
X237490000Y-73660000D03*
X237490000Y-88900000D03*
X199390000Y-123190000D03*
X199390000Y-133350000D03*
X251460000Y-116840000D03*
X254000000Y-88900000D03*
X252730000Y-134620000D03*
%TO.N,Net-(IC108-Pad5)*%
X185420000Y-118110000D03*
X194310000Y-120650000D03*
X194310000Y-114300000D03*
X187140010Y-114300000D03*
%TO.N,Net-(IC108-Pad12)*%
X201930000Y-120650000D03*
X201930000Y-118110000D03*
X193040000Y-118110000D03*
X190500000Y-97790000D03*
%TO.N,Net-(IC108-Pad3)*%
X147320000Y-100330000D03*
X172720000Y-100330000D03*
X172720000Y-107950000D03*
X193040000Y-115570000D03*
X193040000Y-107950000D03*
%TO.N,Net-(IC108-Pad9)*%
X138430000Y-135890000D03*
X180340000Y-137160000D03*
X180340000Y-134620000D03*
X204470000Y-135439990D03*
%TO.N,Net-(IC109-Pad13)*%
X232410000Y-59690000D03*
X231140000Y-71120000D03*
%TO.N,Net-(IC109-Pad11)*%
X212090000Y-90170000D03*
X232410000Y-90170000D03*
X231140000Y-76200000D03*
%TO.N,Net-(IC109-Pad9)*%
X232410000Y-62230000D03*
X232410000Y-81280000D03*
%TO.N,Net-(IC109-Pad1)*%
X195580000Y-57150000D03*
X196850000Y-68580000D03*
%TO.N,Net-(IC109-Pad8)*%
X234950000Y-87630000D03*
X217170000Y-87630000D03*
%TO.N,Net-(IC110-Pad13)*%
X143510000Y-59690000D03*
X143510000Y-90170000D03*
X134620000Y-90170000D03*
%TO.N,Net-(IC110-Pad5)*%
X146050000Y-80010000D03*
%TO.N,Net-(IC110-Pad11)*%
X156210000Y-92710000D03*
X139700000Y-97790000D03*
X149860000Y-97790000D03*
X149860000Y-92710000D03*
%TO.N,Net-(IC110-Pad9)*%
X140970000Y-85090000D03*
X140970000Y-92710000D03*
X144780000Y-92710000D03*
%TO.N,Net-(IC110-Pad1)*%
X132080000Y-99060000D03*
X181610000Y-99060000D03*
X181610000Y-92710000D03*
%TO.N,Net-(IC112-Pad6)*%
X199390000Y-69850000D03*
X201930000Y-114300000D03*
X234950000Y-125730000D03*
X234950000Y-114300000D03*
%TO.N,Net-(IC112-Pad4)*%
X161290000Y-100330000D03*
X200660000Y-102870000D03*
X201930000Y-109220000D03*
X238760000Y-120650000D03*
X238760000Y-109220000D03*
%TO.N,Net-(IC112-Pad3)*%
X241300000Y-118110000D03*
X236220000Y-130810000D03*
X194310000Y-128270000D03*
X191770000Y-72390000D03*
%TO.N,Net-(IC112-Pad8)*%
X184150000Y-123190000D03*
X184150000Y-134620000D03*
X245110000Y-134620000D03*
%TO.N,Net-(IC112-Pad1)*%
X237490000Y-106680000D03*
X166370000Y-106680000D03*
%TO.N,/~READY*%
X257810000Y-54610000D03*
X257810000Y-83820000D03*
X238760000Y-54610000D03*
X158750000Y-81280000D03*
%TO.N,Net-(IC113-Pad12)*%
X186690000Y-67310000D03*
X187960000Y-95250000D03*
%TO.N,/~TRACK_0*%
X256540000Y-73660000D03*
X256540000Y-49530000D03*
X255270000Y-85090000D03*
X162560000Y-91440000D03*
X245110000Y-91440000D03*
X245110000Y-86360000D03*
%TO.N,/~INDEX*%
X256540000Y-50800000D03*
X256540000Y-52070000D03*
X238760000Y-50800000D03*
X236220000Y-87630000D03*
X161290000Y-86360000D03*
%TO.N,Net-(IC113-Pad10)*%
X173990000Y-95250000D03*
X163830000Y-88900000D03*
X173990000Y-88900000D03*
%TO.N,/~PROTECT*%
X257810000Y-76200000D03*
X257810000Y-48260000D03*
X160020000Y-106680000D03*
X195580000Y-107950000D03*
X257810000Y-86360000D03*
X248920000Y-86360000D03*
X248920000Y-100330000D03*
X196850000Y-102870000D03*
%TO.N,/~READ_DATA*%
X256540000Y-78740000D03*
X256540000Y-46990000D03*
X153670000Y-97790000D03*
X176530000Y-97790000D03*
X247650000Y-78740000D03*
X247650000Y-96520000D03*
X176530000Y-93980000D03*
%TO.N,/A0*%
X152400000Y-74930000D03*
X143510000Y-124460000D03*
X143510000Y-107950000D03*
X154940000Y-107950000D03*
%TO.N,Net-(IC116-Pad12)*%
X162560000Y-77470000D03*
X162560000Y-67310000D03*
%TO.N,/~SIOR*%
X144780000Y-74930000D03*
X144780000Y-82550000D03*
%TO.N,/~IORQ*%
X152400000Y-80010000D03*
X152400000Y-86360000D03*
X130810000Y-85090000D03*
X130810000Y-83820000D03*
%TO.N,/~TC*%
X146050000Y-72390000D03*
X129540000Y-72390000D03*
X146050000Y-77470000D03*
X129540000Y-97790000D03*
%TO.N,/~SIOW*%
X124460000Y-77470000D03*
X124460000Y-80010000D03*
X153670000Y-85090000D03*
X153670000Y-81280000D03*
%TO.N,/A3*%
X142240000Y-69850000D03*
X138430000Y-121920000D03*
%TO.N,Net-(IC117-Pad5)*%
X199390000Y-80010000D03*
X199390000Y-105410000D03*
X214630000Y-105410000D03*
%TO.N,Net-(IC117-Pad3)*%
X200660000Y-92710000D03*
X201930000Y-104140000D03*
X209550000Y-104140000D03*
%TO.N,Net-(IC117-Pad1)*%
X198120000Y-87630000D03*
X198120000Y-101600000D03*
%TO.N,/DRQ2*%
X127000000Y-93980000D03*
X127000000Y-125730000D03*
X143510000Y-125730000D03*
X143510000Y-135890000D03*
X177800000Y-125730000D03*
X177800000Y-134620000D03*
%TO.N,/~EXTINT1*%
X127000000Y-86360000D03*
X128270000Y-109220000D03*
X177800000Y-109220000D03*
X177800000Y-120650000D03*
%TO.N,/OUTDV2*%
X110490000Y-85090000D03*
%TO.N,Net-(C102-Pad2)*%
X190540000Y-55920000D03*
X190500000Y-44450000D03*
%TO.N,Net-(D101-Pad2)*%
X215900000Y-46990000D03*
X215900000Y-67310000D03*
%TO.N,/~MOTOR_ON*%
X240030000Y-60960000D03*
X209550000Y-90170000D03*
X238760000Y-90170000D03*
%TO.N,/~DRIVE1*%
X191770000Y-118110000D03*
X191770000Y-137160000D03*
X252730000Y-57150000D03*
X250190000Y-137160000D03*
X250190000Y-123190000D03*
%TO.N,/~DRIVE2*%
X193040000Y-123190000D03*
X193040000Y-137160000D03*
X252730000Y-58420000D03*
X248920000Y-135890000D03*
X248920000Y-114300000D03*
X251460000Y-45720000D03*
%TO.N,/~DRIVE0*%
X185420000Y-115570000D03*
X187960000Y-137160000D03*
X252730000Y-55880000D03*
X251460000Y-134620000D03*
X252730000Y-116840000D03*
X251460000Y-118110000D03*
X257810000Y-40640000D03*
%TO.N,Net-(IC112-Pad10)*%
X233680000Y-123190000D03*
X241300000Y-123190000D03*
X241300000Y-127000000D03*
X233680000Y-127000000D03*
%TO.N,/~WRITE_DATA*%
X247650000Y-69850000D03*
X248920000Y-102870000D03*
X217170000Y-104140000D03*
%TO.N,/~WRITE_GATE*%
X212090000Y-99060000D03*
X241300000Y-99060000D03*
X238760000Y-71120000D03*
%TO.N,/~DIRECTION*%
X240030000Y-62230000D03*
X242570000Y-96520000D03*
X214630000Y-96520000D03*
%TO.N,/~SIDE*%
X256540000Y-81280000D03*
X256540000Y-105410000D03*
%TO.N,/~STEP*%
X247650000Y-66040000D03*
X250190000Y-82550000D03*
X238760000Y-81280000D03*
X219710000Y-88900000D03*
X240030000Y-87630000D03*
%TO.N,/~DRIVE3*%
X247650000Y-130810000D03*
X254000000Y-132080000D03*
%TO.N,Net-(C4-Pad2)*%
X242570000Y-111760000D03*
X226060000Y-97790000D03*
X236220000Y-97790000D03*
%TO.N,Net-(C5-Pad2)*%
X260350000Y-123190000D03*
X260350000Y-110490000D03*
X262890000Y-105410000D03*
X260350000Y-105410000D03*
%TO.N,Net-(C6-Pad2)*%
X241300000Y-110490000D03*
X240849990Y-86360000D03*
X243840000Y-87630000D03*
X242570000Y-44450000D03*
%TD*%
D25*
%TO.N,+5V*%
X128995001Y-52795001D02*
X128270000Y-52070000D01*
X128995001Y-56228001D02*
X128995001Y-52795001D01*
X128720010Y-56502992D02*
X128995001Y-56228001D01*
X128995001Y-66765001D02*
X128720010Y-66490010D01*
X128995001Y-67658001D02*
X128995001Y-66765001D01*
X128720010Y-66490010D02*
X128720010Y-56502992D01*
X128073002Y-68580000D02*
X128995001Y-67658001D01*
X127000000Y-68580000D02*
X128073002Y-68580000D01*
X128270000Y-52070000D02*
X128270000Y-43180000D01*
X130810000Y-86163002D02*
X131535001Y-85438001D01*
X130810000Y-111760000D02*
X130810000Y-95250000D01*
X130990002Y-68580000D02*
X131535001Y-69124999D01*
X129540000Y-68580000D02*
X130990002Y-68580000D01*
X131535001Y-85438001D02*
X131535001Y-69124999D01*
X245110000Y-113030000D02*
X245110000Y-110490000D01*
X245110000Y-110490000D02*
X245110000Y-109220000D01*
X218440000Y-113030000D02*
X218440000Y-109220000D01*
X231140000Y-113030000D02*
X231140000Y-109220000D01*
X245110000Y-109220000D02*
X245110000Y-109220000D01*
X231140000Y-109220000D02*
X231140000Y-109220000D01*
X218440000Y-109220000D02*
X218440000Y-109220000D01*
X227330000Y-128270000D02*
X227330000Y-115570000D01*
X223520000Y-123190000D02*
X223520000Y-115570000D01*
X227330000Y-115570000D02*
X227330000Y-113030000D01*
X227330000Y-113030000D02*
X227330000Y-113030000D01*
X204470000Y-110490000D02*
X204470000Y-109220000D01*
X204470000Y-109220000D02*
X204470000Y-109220000D01*
X189230000Y-110490000D02*
X189230000Y-113030000D01*
X157480000Y-115570000D02*
X157480000Y-110490000D01*
X152400000Y-67310000D02*
X152400000Y-72390000D01*
X121920000Y-123190000D02*
X121920000Y-111760000D01*
X130810000Y-95250000D02*
X130810000Y-86163002D01*
X153670000Y-95250000D02*
X152400000Y-96520000D01*
X152400000Y-96520000D02*
X152400000Y-97790000D01*
X152400000Y-110490000D02*
X153670000Y-110490000D01*
X231140000Y-50800000D02*
X231140000Y-58420000D01*
X166370000Y-115570000D02*
X166370000Y-110490000D01*
X194310000Y-48260000D02*
X194310000Y-54610000D01*
X242570000Y-58420000D02*
X242570000Y-64770000D01*
X237490000Y-68580000D02*
X237490000Y-58420000D01*
X222250000Y-109220000D02*
X222250000Y-93980000D01*
X222250000Y-93980000D02*
X222250000Y-93980000D01*
X132080000Y-95250000D02*
X132080000Y-97790000D01*
X132080000Y-97790000D02*
X132080000Y-97790000D01*
X152400000Y-97790000D02*
X152400000Y-110490000D01*
X168910000Y-49530000D02*
X168910000Y-44450000D01*
X205595001Y-103995001D02*
X205595001Y-95105001D01*
X204470000Y-105120002D02*
X205595001Y-103995001D01*
X205595001Y-95105001D02*
X204470000Y-93980000D01*
X204470000Y-109220000D02*
X204470000Y-105120002D01*
X242875011Y-90278013D02*
X242875011Y-68885011D01*
X245835001Y-108494999D02*
X245835001Y-93238003D01*
X245835001Y-93238003D02*
X242875011Y-90278013D01*
X245110000Y-109220000D02*
X245835001Y-108494999D01*
X242570000Y-68580000D02*
X242570000Y-64770000D01*
X242875011Y-68885011D02*
X242570000Y-68580000D01*
X234950000Y-48260000D02*
X234950000Y-50800000D01*
X257810000Y-127000000D02*
X257810000Y-107950000D01*
%TO.N,Net-(IC10-Pad23)*%
X210820000Y-57150000D02*
X210820000Y-85090000D01*
X207010000Y-93980000D02*
X208135010Y-95105010D01*
X208280000Y-115570000D02*
X208280000Y-115570000D01*
X207010000Y-93980000D02*
X207010000Y-87630000D01*
X210820000Y-85090000D02*
X210820000Y-87630000D01*
X207010000Y-87630000D02*
X207010000Y-87630000D01*
X210820000Y-87630000D02*
X210820000Y-87630000D01*
X208280000Y-110779980D02*
X208135010Y-110634990D01*
X208280000Y-115570000D02*
X208280000Y-110779980D01*
X208135010Y-95105010D02*
X208135010Y-110634990D01*
%TO.N,Net-(IC10-Pad11)*%
X197394999Y-50255001D02*
X197394999Y-61504999D01*
X199390000Y-48260000D02*
X197394999Y-50255001D01*
X197394999Y-61504999D02*
X198120000Y-62230000D01*
X198120000Y-62230000D02*
X198120000Y-63500000D01*
X198120000Y-63500000D02*
X198120000Y-63500000D01*
X203200000Y-81280000D02*
X203200000Y-63500000D01*
X203200000Y-63500000D02*
X203200000Y-63500000D01*
%TO.N,Net-(IC10-Pad10)*%
X201110009Y-79190009D02*
X200660000Y-78740000D01*
X201110009Y-89719991D02*
X201110009Y-79190009D01*
X200660000Y-90170000D02*
X201110009Y-89719991D01*
%TO.N,Net-(IC10-Pad9)*%
X201930000Y-76200000D02*
X201930000Y-97790000D01*
%TO.N,Net-(C101-Pad1)*%
X200660000Y-64770000D02*
X200660000Y-50800000D01*
%TO.N,Net-(IC10-Pad8)*%
X200660000Y-80206998D02*
X199934999Y-80931999D01*
X199934999Y-79481997D02*
X200660000Y-80206998D01*
X200660000Y-95446998D02*
X200660000Y-100330000D01*
X199934999Y-74385001D02*
X199934999Y-79481997D01*
X200660000Y-73660000D02*
X199934999Y-74385001D01*
X199934999Y-93435001D02*
X200115001Y-93435001D01*
X199934999Y-80931999D02*
X199934999Y-93435001D01*
X200660000Y-93980000D02*
X200660000Y-95446998D01*
X200115001Y-93435001D02*
X200660000Y-93980000D01*
%TO.N,Net-(IC10-Pad19)*%
X188496501Y-95786501D02*
X190500000Y-93783002D01*
X188496501Y-102136501D02*
X188496501Y-95786501D01*
X189230000Y-102870000D02*
X188496501Y-102136501D01*
X190500000Y-93783002D02*
X190500000Y-66040000D01*
%TO.N,Net-(IC10-Pad7)*%
X160020000Y-71120000D02*
X160020000Y-100330000D01*
X156210000Y-102870000D02*
X156210000Y-100330000D01*
X156210000Y-100330000D02*
X156210000Y-100330000D01*
X160020000Y-100330000D02*
X160020000Y-100330000D01*
%TO.N,Net-(IC10-Pad6)*%
X200660000Y-68580000D02*
X200660000Y-68580000D01*
X198570010Y-94430010D02*
X199390000Y-95250000D01*
X198570010Y-88449990D02*
X198570010Y-94430010D01*
X198664999Y-86708001D02*
X198845001Y-86888003D01*
X198664999Y-71648003D02*
X198664999Y-86708001D01*
X200660000Y-69653002D02*
X198664999Y-71648003D01*
X198845001Y-88174999D02*
X198570010Y-88449990D01*
X198845001Y-86888003D02*
X198845001Y-88174999D01*
X200660000Y-68580000D02*
X200660000Y-69653002D01*
X201385001Y-67854999D02*
X200660000Y-68580000D01*
X201385001Y-46445001D02*
X201385001Y-67854999D01*
X199390000Y-44450000D02*
X201385001Y-46445001D01*
%TO.N,Net-(IC10-Pad17)*%
X250190000Y-76200000D02*
X250190000Y-72390000D01*
%TO.N,Net-(IC10-Pad5)*%
X184150000Y-87630000D02*
X184150000Y-63500000D01*
X226060000Y-113030000D02*
X226060000Y-124460000D01*
X223520000Y-101600000D02*
X223520000Y-113030000D01*
X223520000Y-92710000D02*
X223520000Y-90170000D01*
X223520000Y-91440000D02*
X223520000Y-92710000D01*
X223520000Y-92710000D02*
X223520000Y-101600000D01*
X224790000Y-88900000D02*
X226060000Y-88900000D01*
X223520000Y-90170000D02*
X224790000Y-88900000D01*
%TO.N,Net-(IC10-Pad16)*%
X213360000Y-76200000D02*
X213360000Y-87630000D01*
%TO.N,Net-(C103-Pad1)*%
X222505010Y-80265010D02*
X220980000Y-78740000D01*
X222505010Y-84285994D02*
X222505010Y-80265010D01*
X220980000Y-85811004D02*
X222505010Y-84285994D01*
X220980000Y-107950000D02*
X220980000Y-85811004D01*
X241300000Y-107950000D02*
X241340000Y-107950000D01*
%TO.N,Net-(IC10-Pad3)*%
X203925001Y-62774999D02*
X205740000Y-60960000D01*
X203925001Y-81628001D02*
X203925001Y-62774999D01*
X203200000Y-82353002D02*
X203925001Y-81628001D01*
X203200000Y-99060000D02*
X203200000Y-82353002D01*
X225915001Y-102528003D02*
X225915001Y-98915001D01*
X228600000Y-105213002D02*
X225915001Y-102528003D01*
X228600000Y-125730000D02*
X228600000Y-105213002D01*
X225915001Y-98915001D02*
X224790000Y-97790000D01*
X224790000Y-97790000D02*
X224790000Y-97790000D01*
%TO.N,Net-(C105-Pad2)*%
X240030000Y-68580000D02*
X240030000Y-72390000D01*
X241300000Y-80050000D02*
X241300000Y-72390000D01*
X241300000Y-72390000D02*
X240030000Y-72390000D01*
X223480000Y-87590000D02*
X223520000Y-87630000D01*
X223480000Y-80050000D02*
X223480000Y-87590000D01*
%TO.N,Net-(C104-Pad1)*%
X209550000Y-58420000D02*
X209550000Y-49530000D01*
X213360000Y-49530000D02*
X213360000Y-44450000D01*
%TO.N,Net-(C107-Pad1)*%
X205740000Y-55880000D02*
X205740000Y-49530000D01*
X205740000Y-49530000D02*
X205740000Y-44450000D01*
X205740000Y-44450000D02*
X205740000Y-44450000D01*
X218440000Y-43180000D02*
X218440000Y-46990000D01*
%TO.N,GND*%
X140970000Y-66040000D02*
X140970000Y-59690000D01*
X132080000Y-67310000D02*
X132080000Y-59690000D01*
X174530000Y-47570000D02*
X171410000Y-44450000D01*
X174530000Y-50800000D02*
X174530000Y-47570000D01*
X174530000Y-50800000D02*
X174530000Y-64230000D01*
X174530000Y-64230000D02*
X173990000Y-64770000D01*
X173990000Y-64770000D02*
X173990000Y-64770000D01*
X240030000Y-101600000D02*
X240030000Y-104140000D01*
X245110000Y-107950000D02*
X243840000Y-107950000D01*
X219710000Y-101600000D02*
X219710000Y-104140000D01*
X219710000Y-104140000D02*
X219710000Y-104140000D01*
X240030000Y-104140000D02*
X240030000Y-104140000D01*
X245110000Y-104140000D02*
X245110000Y-107950000D01*
X250190000Y-104140000D02*
X250190000Y-104140000D01*
X237490000Y-128270000D02*
X237490000Y-132080000D01*
X223520000Y-128270000D02*
X223520000Y-132080000D01*
X223520000Y-125730000D02*
X223520000Y-128270000D01*
X210820000Y-128270000D02*
X210820000Y-132080000D01*
X181610000Y-128270000D02*
X181610000Y-132080000D01*
X181610000Y-130810000D02*
X181610000Y-132080000D01*
X162560000Y-128270000D02*
X162560000Y-132080000D01*
X162560000Y-132080000D02*
X162560000Y-132080000D01*
X196850000Y-128270000D02*
X196850000Y-132080000D01*
X196850000Y-132080000D02*
X196850000Y-132080000D01*
X173990000Y-113030000D02*
X173990000Y-113030000D01*
X200660000Y-132080000D02*
X200660000Y-132080000D01*
X173990000Y-132080000D02*
X173990000Y-132080000D01*
X153670000Y-87630000D02*
X153670000Y-86360000D01*
X154395001Y-85634999D02*
X154395001Y-65495001D01*
X153670000Y-86360000D02*
X154395001Y-85634999D01*
X154395001Y-65495001D02*
X153670000Y-64770000D01*
X147320000Y-109220000D02*
X146050000Y-110490000D01*
X147320000Y-102870000D02*
X147320000Y-109220000D01*
X176530000Y-102870000D02*
X176530000Y-113030000D01*
X229870000Y-83820000D02*
X229870000Y-63500000D01*
X220940000Y-46990000D02*
X220940000Y-49530000D01*
X220940000Y-49530000D02*
X220940000Y-52030000D01*
X220940000Y-52030000D02*
X220980000Y-52070000D01*
X220980000Y-52070000D02*
X220980000Y-52070000D01*
X224790000Y-52070000D02*
X224790000Y-63500000D01*
X198120000Y-52070000D02*
X198120000Y-56315002D01*
X198120000Y-56315002D02*
X198120000Y-58420000D01*
X198120000Y-58420000D02*
X198120000Y-58420000D01*
X250190000Y-104140000D02*
X250190000Y-87630000D01*
X250190000Y-87630000D02*
X250190000Y-87630000D01*
X264160000Y-83820000D02*
X264160000Y-87630000D01*
X264160000Y-87630000D02*
X264160000Y-87630000D01*
X148590000Y-87630000D02*
X148590000Y-102870000D01*
X179070000Y-102870000D02*
X179070000Y-109220000D01*
X179070000Y-109220000D02*
X179070000Y-109220000D01*
X229870000Y-83820000D02*
X228600000Y-85090000D01*
X228600000Y-85090000D02*
X228600000Y-104140000D01*
X228600000Y-104140000D02*
X228600000Y-104140000D01*
X199390000Y-124460000D02*
X199390000Y-128270000D01*
X200660000Y-123190000D02*
X199390000Y-124460000D01*
X200660000Y-113226998D02*
X200660000Y-123190000D01*
X199738001Y-112304999D02*
X200660000Y-113226998D01*
X198664999Y-112304999D02*
X199738001Y-112304999D01*
X200660000Y-129540000D02*
X200660000Y-132080000D01*
X199390000Y-128270000D02*
X200660000Y-129540000D01*
X196850000Y-110490000D02*
X198664999Y-112304999D01*
X248100010Y-121297008D02*
X248469990Y-121666988D01*
X248100010Y-106229990D02*
X248100010Y-121297008D01*
X250190000Y-104140000D02*
X248100010Y-106229990D01*
X248469990Y-128720010D02*
X246380000Y-130810000D01*
X248469990Y-127819990D02*
X248469990Y-128720010D01*
X248469990Y-121666988D02*
X248469990Y-127819990D01*
X265430000Y-129540000D02*
X265430000Y-110490000D01*
X265430000Y-110490000D02*
X265430000Y-104140000D01*
X265430000Y-104140000D02*
X265430000Y-104140000D01*
X265430000Y-129540000D02*
X265430000Y-137160000D01*
X265430000Y-102870000D02*
X265430000Y-104140000D01*
X224790000Y-52070000D02*
X224790000Y-44450000D01*
X229870000Y-44450000D02*
X229870000Y-40640000D01*
X224790000Y-44450000D02*
X224790000Y-44450000D01*
X173990000Y-112990000D02*
X172720000Y-114260000D01*
X172720000Y-114260000D02*
X172720000Y-130810000D01*
X172720000Y-130810000D02*
X173990000Y-132080000D01*
%TO.N,Net-(IC105-Pad3)*%
X149860000Y-130810000D02*
X149860000Y-119380000D01*
X149860000Y-119380000D02*
X149860000Y-119380000D01*
%TO.N,Net-(IC105-Pad13)*%
X149860000Y-115570000D02*
X149860000Y-105410000D01*
X149860000Y-105410000D02*
X149860000Y-105410000D01*
X156210000Y-105410000D02*
X156210000Y-133350000D01*
X156210000Y-133350000D02*
X156210000Y-133350000D01*
X215900000Y-115570000D02*
X215900000Y-107950000D01*
%TO.N,/A5*%
X140970000Y-118110000D02*
X139700000Y-116840000D01*
X140970000Y-129540000D02*
X140970000Y-118110000D01*
%TO.N,/~WR*%
X123190000Y-80010000D02*
X123190000Y-82550000D01*
X140970000Y-116840000D02*
X140970000Y-116840000D01*
X140970000Y-93980000D02*
X140970000Y-116840000D01*
X141789990Y-93160010D02*
X140970000Y-93980000D01*
X141789990Y-83000010D02*
X141789990Y-93160010D01*
X142240000Y-82550000D02*
X141789990Y-83000010D01*
%TO.N,Net-(IC103-Pad9)*%
X237490000Y-93980000D02*
X237490000Y-96520000D01*
X247650000Y-101600000D02*
X247650000Y-97790000D01*
X237490000Y-96520000D02*
X237490000Y-97790000D01*
X237490000Y-97790000D02*
X237490000Y-97790000D01*
X247650000Y-97790000D02*
X247650000Y-97790000D01*
X247650000Y-111760000D02*
X247650000Y-121920000D01*
X247650000Y-111760000D02*
X247650000Y-101600000D01*
X247650000Y-121920000D02*
X247650000Y-121920000D01*
X199390000Y-121920000D02*
X199390000Y-113030000D01*
%TO.N,/A7*%
X126180010Y-113480010D02*
X125730000Y-113030000D01*
X126180010Y-123190000D02*
X126180010Y-113480010D01*
X126274999Y-94328001D02*
X126274999Y-88355001D01*
X126455001Y-94508003D02*
X126274999Y-94328001D01*
X126455001Y-112304999D02*
X126455001Y-94508003D01*
X125730000Y-113030000D02*
X126455001Y-112304999D01*
X126274999Y-88355001D02*
X127000000Y-87630000D01*
X127000000Y-87630000D02*
X127000000Y-87630000D01*
%TO.N,/~DACK2*%
X128270000Y-69850000D02*
X128270000Y-96520000D01*
X128270000Y-96520000D02*
X128270000Y-96520000D01*
X128270000Y-108146998D02*
X128995001Y-108871999D01*
X128270000Y-96520000D02*
X128270000Y-108146998D01*
X128995001Y-117384999D02*
X128270000Y-118110000D01*
X128995001Y-108871999D02*
X128995001Y-117384999D01*
%TO.N,Net-(IC110-Pad2)*%
X133350000Y-104140000D02*
X134620000Y-102870000D01*
X133350000Y-120650000D02*
X133350000Y-104140000D01*
X133350000Y-96520000D02*
X134620000Y-97790000D01*
X133350000Y-90170000D02*
X133350000Y-96520000D01*
X134620000Y-97790000D02*
X134620000Y-102870000D01*
X239294401Y-133255011D02*
X234855011Y-133255011D01*
X242570000Y-129979412D02*
X239294401Y-133255011D01*
X242570000Y-118110000D02*
X242570000Y-129979412D01*
X234855011Y-133255011D02*
X232410000Y-130810000D01*
X232410000Y-130810000D02*
X232410000Y-130810000D01*
X148590000Y-123190000D02*
X148590000Y-125730000D01*
X158750000Y-130810000D02*
X158750000Y-128270000D01*
X158750000Y-128270000D02*
X158750000Y-128270000D01*
X148590000Y-125730000D02*
X148590000Y-125730000D01*
%TO.N,Net-(IC105-Pad11)*%
X215900000Y-127000000D02*
X215900000Y-120650000D01*
%TO.N,/~RD*%
X130810000Y-77470000D02*
X130810000Y-81280000D01*
X130359990Y-95872992D02*
X130359990Y-104590010D01*
X130084999Y-95598001D02*
X130359990Y-95872992D01*
X130084999Y-82005001D02*
X130084999Y-95598001D01*
X130810000Y-81280000D02*
X130084999Y-82005001D01*
X130359990Y-104590010D02*
X129540000Y-105410000D01*
X129540000Y-105410000D02*
X129540000Y-105410000D01*
X148590000Y-118110000D02*
X148590000Y-105410000D01*
%TO.N,/A6*%
X137160000Y-128270000D02*
X137160000Y-114300000D01*
%TO.N,Net-(IC103-Pad12)*%
X229870000Y-93980000D02*
X229870000Y-87630000D01*
X229870000Y-87630000D02*
X229870000Y-87630000D01*
X227330000Y-87630000D02*
X224790000Y-85090000D01*
X224790000Y-85090000D02*
X224790000Y-74930000D01*
X224790000Y-74930000D02*
X224790000Y-74930000D01*
X212090000Y-88025002D02*
X213360000Y-89295002D01*
X212090000Y-76200000D02*
X212090000Y-88025002D01*
X213360000Y-89295002D02*
X213360000Y-116840000D01*
X213360000Y-116840000D02*
X213360000Y-116840000D01*
X207010000Y-116840000D02*
X207010000Y-120650000D01*
X207010000Y-120650000D02*
X208280000Y-121920000D01*
X208280000Y-124460000D02*
X207010000Y-125730000D01*
X208280000Y-121920000D02*
X208280000Y-124460000D01*
%TO.N,Net-(IC105-Pad9)*%
X220980000Y-125730000D02*
X220980000Y-130810000D01*
%TO.N,/~RESET*%
X125730000Y-71120000D02*
X125730000Y-107950000D01*
X125730000Y-107950000D02*
X125730000Y-107950000D01*
X142240000Y-113030000D02*
X142240000Y-107950000D01*
X142240000Y-127000000D02*
X142240000Y-113030000D01*
%TO.N,/A4*%
X139700000Y-134620000D02*
X139700000Y-119380000D01*
%TO.N,Net-(IC102-Pad12)*%
X163830000Y-66040000D02*
X163830000Y-85090000D01*
X208280000Y-118110000D02*
X208280000Y-118110000D01*
X209550000Y-87919980D02*
X208280000Y-87919980D01*
X210675010Y-89044990D02*
X209550000Y-87919980D01*
X208280000Y-87919980D02*
X208280000Y-83820000D01*
X210675010Y-105751988D02*
X210675010Y-89044990D01*
X208280000Y-83820000D02*
X208280000Y-82550000D01*
X209005001Y-107421997D02*
X210675010Y-105751988D01*
X209005001Y-117384999D02*
X209005001Y-107421997D01*
X208280000Y-118110000D02*
X209005001Y-117384999D01*
X243840000Y-85090000D02*
X243840000Y-53340000D01*
%TO.N,Net-(IC102-Pad11)*%
X232410000Y-53340000D02*
X232410000Y-55880000D01*
X233135001Y-56605001D02*
X232410000Y-55880000D01*
X233135001Y-93254999D02*
X233135001Y-56605001D01*
X232410000Y-93980000D02*
X233135001Y-93254999D01*
%TO.N,Net-(IC102-Pad1)*%
X229870000Y-48260000D02*
X229870000Y-60960000D01*
X230595001Y-83471999D02*
X230595001Y-88174999D01*
X230414999Y-83291997D02*
X230595001Y-83471999D01*
X230414999Y-70771999D02*
X230414999Y-83291997D01*
X230689990Y-70497008D02*
X230414999Y-70771999D01*
X230689990Y-61779990D02*
X230689990Y-70497008D01*
X229870000Y-60960000D02*
X230689990Y-61779990D01*
X231284990Y-88864988D02*
X231284990Y-96375010D01*
X230595001Y-88174999D02*
X231284990Y-88864988D01*
X231284990Y-102465994D02*
X231140000Y-102610984D01*
X231284990Y-96375010D02*
X231284990Y-102465994D01*
X231140000Y-102610984D02*
X231140000Y-106680000D01*
X210820000Y-113030000D02*
X210820000Y-106680000D01*
X210820000Y-115570000D02*
X210820000Y-113030000D01*
X210820000Y-106680000D02*
X210820000Y-106680000D01*
X231140000Y-106680000D02*
X231140000Y-106680000D01*
%TO.N,Net-(IC102-Pad2)*%
X165100000Y-66236998D02*
X165100000Y-63500000D01*
X165100000Y-82550000D02*
X165100000Y-66236998D01*
X223520000Y-50800000D02*
X223520000Y-77470000D01*
X223520000Y-77470000D02*
X223520000Y-77470000D01*
X186690000Y-82550000D02*
X186690000Y-76200000D01*
X185870010Y-121920000D02*
X185870010Y-132530010D01*
X186690000Y-82550000D02*
X185870010Y-83369990D01*
X184694999Y-115221999D02*
X184694999Y-116311997D01*
X185870010Y-83369990D02*
X185870010Y-111956998D01*
X187488011Y-115025001D02*
X185948003Y-115025001D01*
X185870010Y-111956998D02*
X187865011Y-113951999D01*
X187865011Y-113951999D02*
X187865011Y-114648001D01*
X187865011Y-114648001D02*
X187488011Y-115025001D01*
X185948003Y-115025001D02*
X185768001Y-114844999D01*
X184694999Y-116311997D02*
X186145001Y-117761999D01*
X185768001Y-114844999D02*
X185071999Y-114844999D01*
X186145001Y-121645009D02*
X185870010Y-121920000D01*
X185071999Y-114844999D02*
X184694999Y-115221999D01*
X186145001Y-117761999D02*
X186145001Y-121645009D01*
X185870010Y-132530010D02*
X186690000Y-133350000D01*
X201930000Y-128270000D02*
X201930000Y-128270000D01*
X186690000Y-133350000D02*
X186690000Y-133350000D01*
X194310000Y-129540000D02*
X194310000Y-132899990D01*
X201930000Y-123190000D02*
X201930000Y-128270000D01*
%TO.N,Net-(IC103-Pad10)*%
X167095001Y-123734999D02*
X167095001Y-107224999D01*
X165100000Y-125730000D02*
X167095001Y-123734999D01*
X167095001Y-107224999D02*
X167640000Y-106680000D01*
X167640000Y-106680000D02*
X167640000Y-105410000D01*
X167640000Y-105410000D02*
X167640000Y-105410000D01*
X233680000Y-95250000D02*
X233680000Y-96520000D01*
X234950000Y-93980000D02*
X233680000Y-95250000D01*
X227330000Y-96520000D02*
X227330000Y-96520000D01*
X233680000Y-96520000D02*
X233680000Y-106680000D01*
X227330000Y-93980000D02*
X227330000Y-96520000D01*
%TO.N,Net-(IC103-Pad8)*%
X207010000Y-113030000D02*
X206284999Y-113755001D01*
X206284999Y-113755001D02*
X206284999Y-122645001D01*
X205995010Y-125474990D02*
X205995010Y-128525010D01*
X206284999Y-122645001D02*
X206559990Y-122919992D01*
X214085001Y-136615001D02*
X241844999Y-136615001D01*
X206559990Y-122919992D02*
X206559990Y-124910010D01*
X243584990Y-109359992D02*
X242714999Y-108490001D01*
X206559990Y-124910010D02*
X205995010Y-125474990D01*
X205995010Y-128525010D02*
X214085001Y-136615001D01*
X241844999Y-136615001D02*
X243584990Y-134875010D01*
X243584990Y-134875010D02*
X243584990Y-109359992D01*
X243840000Y-99060000D02*
X243840000Y-93980000D01*
X243695001Y-99204999D02*
X243840000Y-99060000D01*
X243695001Y-99204999D02*
X243695001Y-104574997D01*
X243695001Y-104574997D02*
X242714999Y-105554999D01*
X242714999Y-108490001D02*
X242714999Y-105554999D01*
%TO.N,Net-(IC105-Pad6)*%
X160020000Y-110490000D02*
X160020000Y-133350000D01*
X160020000Y-133350000D02*
X160020000Y-133350000D01*
X213360000Y-125730000D02*
X213360000Y-133350000D01*
X248920000Y-115570000D02*
X248920000Y-133350000D01*
%TO.N,Net-(IC105-Pad12)*%
X214630000Y-118110000D02*
X214630000Y-110490000D01*
X214630000Y-110490000D02*
X214630000Y-110490000D01*
X207010000Y-110490000D02*
X206045011Y-109525011D01*
X206045011Y-109525011D02*
X206045011Y-108281399D01*
X206045011Y-108281399D02*
X206045011Y-106680000D01*
X206045011Y-106680000D02*
X206045011Y-106680000D01*
X185420000Y-102870000D02*
X184150000Y-104140000D01*
X185420000Y-101600000D02*
X185420000Y-102870000D01*
X185420000Y-54610000D02*
X185420000Y-101600000D01*
%TO.N,Net-(IC105-Pad5)*%
X151130000Y-91440000D02*
X151130000Y-82550000D01*
X151130000Y-135890000D02*
X151130000Y-91440000D01*
X214630000Y-135890000D02*
X214630000Y-123190000D01*
%TO.N,Net-(IC105-Pad4)*%
X168910000Y-95250000D02*
X168910000Y-92710000D01*
X168910000Y-92710000D02*
X168910000Y-92710000D01*
X172720000Y-92710000D02*
X172720000Y-83820000D01*
X172720000Y-83820000D02*
X172720000Y-83820000D01*
X207743499Y-116106501D02*
X207010000Y-115373002D01*
X207743499Y-117179503D02*
X207743499Y-116106501D01*
X207554999Y-117368003D02*
X207743499Y-117179503D01*
X207554999Y-119924999D02*
X207554999Y-117368003D01*
X208280000Y-120650000D02*
X207554999Y-119924999D01*
X207010000Y-115373002D02*
X207010000Y-114300000D01*
X207735001Y-112681999D02*
X206813002Y-111760000D01*
X207735001Y-113574999D02*
X207735001Y-112681999D01*
X207010000Y-114300000D02*
X207735001Y-113574999D01*
X206813002Y-111760000D02*
X203200000Y-111760000D01*
X203200000Y-111760000D02*
X201930000Y-111760000D01*
X201930000Y-111760000D02*
X200660000Y-110490000D01*
X200660000Y-110490000D02*
X200660000Y-110490000D01*
X200660000Y-110490000D02*
X200660000Y-110490000D01*
X182880000Y-109220000D02*
X182880000Y-109220000D01*
X183279999Y-108820001D02*
X182880000Y-109220000D01*
X183279999Y-84219999D02*
X183279999Y-108820001D01*
X182880000Y-83820000D02*
X183279999Y-84219999D01*
%TO.N,Net-(IC105-Pad8)*%
X166370000Y-95250000D02*
X166370000Y-97790000D01*
X166370000Y-97790000D02*
X166370000Y-97790000D01*
X171450000Y-97790000D02*
X171450000Y-78740000D01*
X171450000Y-78740000D02*
X171450000Y-78740000D01*
X189230000Y-78740000D02*
X189230000Y-92710000D01*
X189230000Y-92710000D02*
X189230000Y-92710000D01*
X221799990Y-108597008D02*
X220980000Y-109416998D01*
X221799990Y-101149990D02*
X221799990Y-108597008D01*
X221430010Y-93529990D02*
X221430010Y-100780010D01*
X221430010Y-100780010D02*
X221799990Y-101149990D01*
X222250000Y-92710000D02*
X221430010Y-93529990D01*
X220980000Y-109416998D02*
X220980000Y-124460000D01*
X220980000Y-124460000D02*
X220980000Y-124460000D01*
%TO.N,Net-(IC106-Pad14)*%
X177074999Y-109568001D02*
X177074999Y-103595001D01*
X177263499Y-109756501D02*
X177074999Y-109568001D01*
X175260000Y-93980000D02*
X175260000Y-88900000D01*
X177074999Y-103595001D02*
X177544990Y-103125010D01*
X177263499Y-113566501D02*
X177263499Y-109756501D01*
X175260000Y-115570000D02*
X177263499Y-113566501D01*
X175260000Y-88900000D02*
X175260000Y-88900000D01*
X186690000Y-88900000D02*
X186690000Y-85090000D01*
X177544990Y-102811988D02*
X176530000Y-101796998D01*
X177544990Y-103125010D02*
X177544990Y-102811988D01*
X177255001Y-101071997D02*
X177255001Y-99785001D01*
X176530000Y-101796998D02*
X177255001Y-101071997D01*
X175804999Y-94524999D02*
X175260000Y-93980000D01*
X175804999Y-98334999D02*
X175804999Y-94524999D01*
X177255001Y-99785001D02*
X175804999Y-98334999D01*
%TO.N,Net-(IC106-Pad6)*%
X164374999Y-82898001D02*
X165100000Y-83623002D01*
X164374999Y-66568003D02*
X164374999Y-82898001D01*
X164555001Y-66388001D02*
X164374999Y-66568003D01*
X164555001Y-65691999D02*
X164555001Y-66388001D01*
X163830000Y-64966998D02*
X164555001Y-65691999D01*
X163830000Y-62230000D02*
X163830000Y-64966998D01*
X165100000Y-83623002D02*
X165100000Y-123190000D01*
X165100000Y-123190000D02*
X165100000Y-123190000D01*
%TO.N,Net-(IC106-Pad13)*%
X174534999Y-114110003D02*
X175260000Y-113385002D01*
X174534999Y-117384999D02*
X174534999Y-114110003D01*
X175260000Y-118110000D02*
X174534999Y-117384999D01*
X175260000Y-113385002D02*
X175260000Y-106680000D01*
X175260000Y-106680000D02*
X175260000Y-106680000D01*
X191770000Y-106680000D02*
X191770000Y-82550000D01*
X191770000Y-82550000D02*
X191770000Y-82550000D01*
%TO.N,Net-(IC106-Pad12)*%
X176530000Y-120650000D02*
X176530000Y-115570000D01*
X176530000Y-115570000D02*
X176530000Y-115570000D01*
%TO.N,Net-(IC106-Pad11)*%
X179070000Y-123190000D02*
X179070000Y-114300000D01*
%TO.N,Net-(IC106-Pad10)*%
X166370000Y-125730000D02*
X166370000Y-133350000D01*
X185420000Y-120650000D02*
X185420000Y-133350000D01*
X185420000Y-133350000D02*
X185420000Y-133350000D01*
X166370000Y-133350000D02*
X166370000Y-133350000D01*
%TO.N,Net-(IC106-Pad2)*%
X145324999Y-82005001D02*
X145505001Y-82185003D01*
X145324999Y-75655001D02*
X145324999Y-82005001D01*
X145505001Y-75474999D02*
X145324999Y-75655001D01*
X145505001Y-82185003D02*
X145505001Y-84364999D01*
X145505001Y-74385001D02*
X145505001Y-75474999D01*
X144780000Y-73660000D02*
X145505001Y-74385001D01*
X145505001Y-84364999D02*
X143960010Y-85909990D01*
X144235001Y-86184981D02*
X144235001Y-90714999D01*
X143960010Y-85909990D02*
X144235001Y-86184981D01*
X144235001Y-90714999D02*
X143510000Y-91440000D01*
X143510000Y-91440000D02*
X143510000Y-106680000D01*
X143510000Y-106680000D02*
X143510000Y-106680000D01*
X158750000Y-113030000D02*
X158750000Y-106680000D01*
%TO.N,Net-(IC106-Pad9)*%
X186690000Y-125730000D02*
X186690000Y-129540000D01*
%TO.N,Net-(IC107-Pad19)*%
X246380000Y-120650000D02*
X245110000Y-120650000D01*
X246635010Y-119124990D02*
X245110000Y-120650000D01*
X246635010Y-49785010D02*
X246635010Y-119124990D01*
X245110000Y-48260000D02*
X246635010Y-49785010D01*
%TO.N,/D7*%
X124460000Y-68580000D02*
X124460000Y-63500000D01*
%TO.N,Net-(IC107-Pad18)*%
X172720000Y-67310000D02*
X172720000Y-48260000D01*
%TO.N,/D6*%
X125730000Y-69850000D02*
X125730000Y-60960000D01*
%TO.N,Net-(IC107-Pad17)*%
X171450000Y-50800000D02*
X171450000Y-69850000D01*
%TO.N,/D5*%
X130810000Y-66040000D02*
X130810000Y-58420000D01*
%TO.N,Net-(IC107-Pad16)*%
X170180000Y-72390000D02*
X170180000Y-53340000D01*
%TO.N,/D4*%
X128270000Y-55880000D02*
X128270000Y-67310000D01*
%TO.N,Net-(IC107-Pad15)*%
X168910000Y-55880000D02*
X168910000Y-74930000D01*
%TO.N,/D3*%
X123190000Y-63500000D02*
X123190000Y-53340000D01*
%TO.N,Net-(IC107-Pad14)*%
X167640000Y-77470000D02*
X167640000Y-58420000D01*
%TO.N,/D2*%
X129540000Y-64770000D02*
X129540000Y-50800000D01*
X129540000Y-50800000D02*
X129540000Y-50800000D01*
%TO.N,Net-(IC107-Pad13)*%
X166370000Y-60960000D02*
X166370000Y-80010000D01*
%TO.N,/D1*%
X124460000Y-48260000D02*
X124460000Y-60960000D01*
%TO.N,/D0*%
X127000000Y-62230000D02*
X127000000Y-45720000D01*
%TO.N,Net-(IC107-Pad1)*%
X152400000Y-43180000D02*
X152400000Y-57150000D01*
X152400000Y-57150000D02*
X152400000Y-57150000D01*
X142240000Y-83623002D02*
X142240000Y-95250000D01*
X143059990Y-82803012D02*
X142240000Y-83623002D01*
X142784999Y-60038001D02*
X143059990Y-60312992D01*
X142784999Y-59341999D02*
X142784999Y-60038001D01*
X143161999Y-58964999D02*
X142784999Y-59341999D01*
X143858001Y-58964999D02*
X143161999Y-58964999D01*
X143059990Y-60312992D02*
X143059990Y-82803012D01*
X144235001Y-59341999D02*
X143858001Y-58964999D01*
X144235001Y-59145001D02*
X144235001Y-59341999D01*
X142240000Y-57150000D02*
X144235001Y-59145001D01*
%TO.N,Net-(IC108-Pad7)*%
X240030000Y-123190000D02*
X240030000Y-130810000D01*
X240030000Y-130810000D02*
X240030000Y-130810000D01*
X200660000Y-128270000D02*
X201930000Y-129540000D01*
X200660000Y-125730000D02*
X200660000Y-128270000D01*
%TO.N,Net-(IC108-Pad6)*%
X237490000Y-78740000D02*
X237490000Y-73660000D01*
X237490000Y-78740000D02*
X237490000Y-88900000D01*
X237490000Y-88900000D02*
X237490000Y-88900000D01*
X199390000Y-133350000D02*
X199390000Y-133350000D01*
X198375010Y-124204990D02*
X199390000Y-123190000D01*
X198375010Y-128525010D02*
X198375010Y-124204990D01*
X199390000Y-129540000D02*
X198375010Y-128525010D01*
X199390000Y-133350000D02*
X199390000Y-129540000D01*
X251460000Y-116840000D02*
X251460000Y-116840000D01*
X251460000Y-116840000D02*
X251460000Y-107950000D01*
X251460000Y-107950000D02*
X254000000Y-105410000D01*
X254000000Y-105410000D02*
X254000000Y-88900000D01*
X254000000Y-88900000D02*
X254000000Y-88900000D01*
X252730000Y-134620000D02*
X252730000Y-134620000D01*
X252730000Y-118110000D02*
X251460000Y-116840000D01*
X252730000Y-134620000D02*
X252730000Y-118110000D01*
%TO.N,Net-(IC108-Pad5)*%
X194310000Y-120650000D02*
X194310000Y-114300000D01*
X185420000Y-118110000D02*
X184150000Y-116840000D01*
X184150000Y-116840000D02*
X184150000Y-114300000D01*
X194310000Y-114300000D02*
X194310000Y-114300000D01*
X184150000Y-114300000D02*
X187140010Y-114300000D01*
%TO.N,Net-(IC108-Pad12)*%
X201930000Y-120650000D02*
X201930000Y-118110000D01*
X191044999Y-116114999D02*
X191044999Y-98334999D01*
X193040000Y-118110000D02*
X191044999Y-116114999D01*
X191044999Y-98334999D02*
X190500000Y-97790000D01*
%TO.N,Net-(IC108-Pad3)*%
X147320000Y-95250000D02*
X147320000Y-100330000D01*
X147320000Y-100330000D02*
X147320000Y-100330000D01*
X172720000Y-100330000D02*
X172720000Y-107950000D01*
X172720000Y-107950000D02*
X172720000Y-107950000D01*
X193040000Y-107950000D02*
X193040000Y-115570000D01*
%TO.N,Net-(IC108-Pad9)*%
X137704999Y-127741997D02*
X138430000Y-128466998D01*
X137704999Y-121571999D02*
X137704999Y-127741997D01*
X137979990Y-121297008D02*
X137704999Y-121571999D01*
X137979990Y-110039990D02*
X137979990Y-121297008D01*
X135745010Y-107805010D02*
X137979990Y-110039990D01*
X135745010Y-96664990D02*
X135745010Y-107805010D01*
X137160000Y-95250000D02*
X135745010Y-96664990D01*
X138430000Y-128466998D02*
X138430000Y-135890000D01*
X138430000Y-135890000D02*
X138430000Y-135890000D01*
X180340000Y-137160000D02*
X180340000Y-134620000D01*
X180340000Y-134620000D02*
X180340000Y-134620000D01*
X204470000Y-135439990D02*
X204470000Y-128270000D01*
%TO.N,Net-(IC109-Pad13)*%
X231140000Y-71120000D02*
X231140000Y-71120000D01*
X231140000Y-62426998D02*
X231140000Y-71120000D01*
X232410000Y-59690000D02*
X231140000Y-60960000D01*
X231140000Y-60960000D02*
X231140000Y-62426998D01*
%TO.N,Net-(IC109-Pad11)*%
X212090000Y-93980000D02*
X212090000Y-90170000D01*
X212090000Y-90170000D02*
X212090000Y-90170000D01*
X232410000Y-89353588D02*
X232410000Y-90170000D01*
X231140000Y-88083588D02*
X232410000Y-89353588D01*
X231140000Y-76200000D02*
X231140000Y-88083588D01*
%TO.N,Net-(IC109-Pad9)*%
X232410000Y-62230000D02*
X232410000Y-81280000D01*
X232410000Y-81280000D02*
X232410000Y-81280000D01*
%TO.N,Net-(IC109-Pad1)*%
X195580000Y-57150000D02*
X196850000Y-58420000D01*
X196850000Y-58420000D02*
X196850000Y-68580000D01*
X196850000Y-68580000D02*
X196850000Y-68580000D01*
X227330000Y-68580000D02*
X227330000Y-71120000D01*
%TO.N,Net-(IC109-Pad8)*%
X217170000Y-93980000D02*
X217170000Y-87630000D01*
X234950000Y-83820000D02*
X234950000Y-87630000D01*
X234950000Y-87630000D02*
X234950000Y-87630000D01*
X217170000Y-87630000D02*
X217170000Y-87630000D01*
%TO.N,Net-(IC110-Pad13)*%
X143510000Y-59690000D02*
X143510000Y-90170000D01*
X143510000Y-90170000D02*
X143510000Y-90170000D01*
X134620000Y-95250000D02*
X134620000Y-90170000D01*
%TO.N,Net-(IC110-Pad5)*%
X146050000Y-101600000D02*
X144780000Y-102870000D01*
X146050000Y-80010000D02*
X146050000Y-101600000D01*
%TO.N,Net-(IC110-Pad11)*%
X139700000Y-95250000D02*
X139700000Y-97790000D01*
X156210000Y-87630000D02*
X156210000Y-92710000D01*
X156210000Y-92710000D02*
X156210000Y-92710000D01*
X139700000Y-97790000D02*
X139700000Y-97790000D01*
X149860000Y-97790000D02*
X149860000Y-92710000D01*
%TO.N,Net-(IC110-Pad9)*%
X140970000Y-85090000D02*
X140970000Y-91440000D01*
X140970000Y-91440000D02*
X140970000Y-92710000D01*
X144780000Y-95250000D02*
X144780000Y-92710000D01*
X140970000Y-92710000D02*
X140970000Y-92710000D01*
X144780000Y-92710000D02*
X144780000Y-92710000D01*
%TO.N,Net-(IC110-Pad1)*%
X132080000Y-102870000D02*
X132080000Y-99060000D01*
X132080000Y-99060000D02*
X132080000Y-99060000D01*
X181610000Y-99060000D02*
X181610000Y-92710000D01*
%TO.N,Net-(IC112-Pad6)*%
X201930000Y-114300000D02*
X201930000Y-114300000D01*
X234950000Y-125730000D02*
X234950000Y-114300000D01*
X197394999Y-102144999D02*
X197394999Y-71845001D01*
X198021501Y-106778499D02*
X198021501Y-102771501D01*
X197394999Y-71845001D02*
X199390000Y-69850000D01*
X198021501Y-102771501D02*
X197394999Y-102144999D01*
X199390000Y-108146998D02*
X198021501Y-106778499D01*
X199390000Y-111194315D02*
X199390000Y-108146998D01*
X201930000Y-113734315D02*
X199390000Y-111194315D01*
X201930000Y-114300000D02*
X201930000Y-113734315D01*
%TO.N,Net-(IC112-Pad4)*%
X161290000Y-102870000D02*
X161290000Y-100330000D01*
X161290000Y-100330000D02*
X161290000Y-100330000D01*
X200660000Y-102870000D02*
X200660000Y-106680000D01*
X200660000Y-106680000D02*
X200660000Y-107950000D01*
X200660000Y-107950000D02*
X201930000Y-109220000D01*
X201930000Y-109220000D02*
X201930000Y-109220000D01*
X239159999Y-120250001D02*
X238760000Y-120650000D01*
X239159999Y-109619999D02*
X239159999Y-120250001D01*
X238760000Y-109220000D02*
X239159999Y-109619999D01*
%TO.N,Net-(IC112-Pad3)*%
X237141999Y-132805001D02*
X236220000Y-131883002D01*
X239108001Y-132805001D02*
X237141999Y-132805001D01*
X242025001Y-129888001D02*
X239108001Y-132805001D01*
X242025001Y-118835001D02*
X242025001Y-129888001D01*
X241300000Y-118110000D02*
X242025001Y-118835001D01*
X236220000Y-131883002D02*
X236220000Y-130810000D01*
X236220000Y-130810000D02*
X236220000Y-130810000D01*
X192784990Y-80475994D02*
X191770000Y-79461004D01*
X192784990Y-85555994D02*
X192784990Y-80475994D01*
X193040000Y-86360000D02*
X193040000Y-85811004D01*
X192784990Y-86615010D02*
X193040000Y-86360000D01*
X193040000Y-90891004D02*
X192784990Y-90635994D01*
X192784990Y-95715994D02*
X192784990Y-91695010D01*
X193040000Y-95971004D02*
X192784990Y-95715994D01*
X193040000Y-96520000D02*
X193040000Y-95971004D01*
X193040000Y-91440000D02*
X193040000Y-90891004D01*
X194310000Y-128270000D02*
X195035001Y-127544999D01*
X192784990Y-106621988D02*
X192784990Y-96775010D01*
X195035001Y-127544999D02*
X195035001Y-122448003D01*
X195035001Y-122448003D02*
X193584999Y-120998001D01*
X193040000Y-85811004D02*
X192784990Y-85555994D01*
X193584999Y-120998001D02*
X193584999Y-120105001D01*
X193584999Y-120105001D02*
X193859990Y-119830010D01*
X193859990Y-119830010D02*
X193859990Y-114922992D01*
X192784990Y-96775010D02*
X193040000Y-96520000D01*
X192784990Y-90635994D02*
X192784990Y-86615010D01*
X193859990Y-114922992D02*
X193584999Y-114648001D01*
X193584999Y-114648001D02*
X193584999Y-108478003D01*
X192784990Y-91695010D02*
X193040000Y-91440000D01*
X193765001Y-108298001D02*
X193765001Y-107601999D01*
X193584999Y-108478003D02*
X193765001Y-108298001D01*
X193765001Y-107601999D02*
X192784990Y-106621988D01*
X191770000Y-79461004D02*
X191770000Y-72390000D01*
X191770000Y-72390000D02*
X191770000Y-72390000D01*
%TO.N,Net-(IC112-Pad8)*%
X184150000Y-123190000D02*
X184150000Y-134620000D01*
X184150000Y-134620000D02*
X184150000Y-134620000D01*
X245110000Y-134620000D02*
X245110000Y-128270000D01*
%TO.N,Net-(IC112-Pad1)*%
X237490000Y-113030000D02*
X237490000Y-106680000D01*
X237490000Y-106680000D02*
X237490000Y-106680000D01*
X166370000Y-106680000D02*
X166370000Y-102870000D01*
%TO.N,/~READY*%
X259080000Y-80010000D02*
X257810000Y-81280000D01*
X259080000Y-76200000D02*
X259080000Y-80010000D01*
X257810000Y-74930000D02*
X259080000Y-76200000D01*
X257810000Y-81280000D02*
X257810000Y-83820000D01*
X257810000Y-54610000D02*
X257810000Y-74930000D01*
X157735010Y-93724990D02*
X157735010Y-82294990D01*
X156210000Y-95250000D02*
X157735010Y-93724990D01*
X157735010Y-82294990D02*
X158750000Y-81280000D01*
X158750000Y-81280000D02*
X158750000Y-81280000D01*
X262890000Y-99060000D02*
X262890000Y-91440000D01*
X261620000Y-90170000D02*
X262890000Y-91440000D01*
X261620000Y-83820000D02*
X261620000Y-90170000D01*
%TO.N,Net-(IC113-Pad12)*%
X186690000Y-67310000D02*
X187960000Y-68580000D01*
X187960000Y-68580000D02*
X187960000Y-95250000D01*
X187960000Y-95250000D02*
X187960000Y-95250000D01*
%TO.N,/~TRACK_0*%
X257265001Y-50255001D02*
X256540000Y-49530000D01*
X257265001Y-52418001D02*
X257265001Y-50255001D01*
X256540000Y-53143002D02*
X257265001Y-52418001D01*
X256540000Y-73660000D02*
X256540000Y-53143002D01*
X257265001Y-78391999D02*
X257265001Y-79284999D01*
X256540000Y-77666998D02*
X257265001Y-78391999D01*
X256540000Y-73660000D02*
X256540000Y-77666998D01*
X254900020Y-81649980D02*
X254900020Y-84720020D01*
X257265001Y-79284999D02*
X254900020Y-81649980D01*
X254900020Y-84720020D02*
X255270000Y-85090000D01*
X255270000Y-85090000D02*
X255270000Y-85090000D01*
X163830000Y-102870000D02*
X162560000Y-101600000D01*
X162560000Y-101600000D02*
X162560000Y-92710000D01*
X162560000Y-92710000D02*
X162560000Y-91440000D01*
X245110000Y-86360000D02*
X245110000Y-91440000D01*
%TO.N,/~INDEX*%
X256540000Y-50800000D02*
X256540000Y-52070000D01*
X236764999Y-52795001D02*
X236764999Y-87085001D01*
X238760000Y-50800000D02*
X236764999Y-52795001D01*
X236764999Y-87085001D02*
X236220000Y-87630000D01*
X236220000Y-87630000D02*
X236220000Y-87630000D01*
X161290000Y-86360000D02*
X161290000Y-95250000D01*
%TO.N,Net-(IC113-Pad10)*%
X173990000Y-95250000D02*
X173990000Y-88900000D01*
X163830000Y-95250000D02*
X163830000Y-88900000D01*
X163830000Y-88900000D02*
X163830000Y-88900000D01*
X173990000Y-88900000D02*
X173990000Y-88900000D01*
%TO.N,/~PROTECT*%
X257359990Y-55232992D02*
X257359990Y-75749990D01*
X257359990Y-75749990D02*
X257810000Y-76200000D01*
X257084999Y-54958001D02*
X257359990Y-55232992D01*
X257084999Y-54261999D02*
X257084999Y-54958001D01*
X257810000Y-53536998D02*
X257810000Y-52070000D01*
X257084999Y-54261999D02*
X257810000Y-53536998D01*
X257810000Y-48260000D02*
X257810000Y-52070000D01*
X158750000Y-102870000D02*
X158750000Y-105410000D01*
X158750000Y-105410000D02*
X160020000Y-106680000D01*
X160020000Y-106680000D02*
X160020000Y-106680000D01*
X256990010Y-83566988D02*
X256990010Y-85540010D01*
X257359990Y-83197008D02*
X256990010Y-83566988D01*
X257810000Y-80643590D02*
X257359990Y-81093600D01*
X257359990Y-81093600D02*
X257359990Y-83197008D01*
X257810000Y-76200000D02*
X257810000Y-80643590D01*
X256990010Y-85540010D02*
X257810000Y-86360000D01*
X257810000Y-86360000D02*
X257810000Y-86360000D01*
X248920000Y-86360000D02*
X248920000Y-100330000D01*
X248920000Y-100330000D02*
X248920000Y-100330000D01*
X195580000Y-107950000D02*
X195580000Y-104140000D01*
X195580000Y-104140000D02*
X196850000Y-102870000D01*
X196850000Y-102870000D02*
X196850000Y-102870000D01*
%TO.N,/~READ_DATA*%
X256540000Y-46990000D02*
X255270000Y-48260000D01*
X255270000Y-77470000D02*
X256540000Y-78740000D01*
X255270000Y-48260000D02*
X255270000Y-77470000D01*
X153670000Y-102870000D02*
X153670000Y-97790000D01*
X153670000Y-97790000D02*
X153670000Y-97790000D01*
X247650000Y-78740000D02*
X247650000Y-95250000D01*
X247650000Y-95250000D02*
X247650000Y-96520000D01*
X247650000Y-96520000D02*
X247650000Y-96520000D01*
X176530000Y-93980000D02*
X176530000Y-97790000D01*
%TO.N,/A0*%
X143510000Y-124460000D02*
X143510000Y-107950000D01*
X143510000Y-107950000D02*
X143510000Y-107950000D01*
X153125001Y-86708001D02*
X152748001Y-87085001D01*
X153125001Y-86011999D02*
X153125001Y-86708001D01*
X152850010Y-85737008D02*
X153125001Y-86011999D01*
X152850010Y-80632992D02*
X152850010Y-85737008D01*
X152748001Y-87085001D02*
X152748001Y-92336997D01*
X153125001Y-80358001D02*
X152850010Y-80632992D01*
X153125001Y-75655001D02*
X153125001Y-80358001D01*
X152748001Y-92336997D02*
X154940000Y-94528996D01*
X152400000Y-74930000D02*
X153125001Y-75655001D01*
X154940000Y-94528996D02*
X154940000Y-107950000D01*
X154940000Y-107950000D02*
X154940000Y-107950000D01*
%TO.N,Net-(IC116-Pad12)*%
X162560000Y-67310000D02*
X162560000Y-77470000D01*
%TO.N,/~SIOR*%
X144780000Y-74930000D02*
X144780000Y-82550000D01*
%TO.N,/~IORQ*%
X152400000Y-86360000D02*
X152400000Y-80010000D01*
X130810000Y-83820000D02*
X130810000Y-85090000D01*
%TO.N,/~TC*%
X146050000Y-72390000D02*
X146050000Y-77470000D01*
X146050000Y-77470000D02*
X146050000Y-77470000D01*
X129540000Y-72390000D02*
X129540000Y-97790000D01*
X129540000Y-97790000D02*
X129540000Y-97790000D01*
%TO.N,/~SIOW*%
X124460000Y-77470000D02*
X124460000Y-80010000D01*
X153670000Y-85090000D02*
X153670000Y-81280000D01*
%TO.N,/A3*%
X139555001Y-93403995D02*
X138430000Y-94528996D01*
X139555001Y-72534999D02*
X139555001Y-93403995D01*
X142240000Y-69850000D02*
X139555001Y-72534999D01*
X138430000Y-94528996D02*
X138430000Y-121920000D01*
X138430000Y-121920000D02*
X138430000Y-121920000D01*
%TO.N,Net-(IC117-Pad5)*%
X200115001Y-99801997D02*
X199390000Y-100526998D01*
X200115001Y-94901999D02*
X200115001Y-99801997D01*
X199390000Y-94176998D02*
X200115001Y-94901999D01*
X199390000Y-80010000D02*
X199390000Y-94176998D01*
X199390000Y-100526998D02*
X199390000Y-105410000D01*
X214630000Y-101600000D02*
X214630000Y-105410000D01*
X199390000Y-105410000D02*
X199390000Y-105410000D01*
X214630000Y-105410000D02*
X214630000Y-105410000D01*
%TO.N,Net-(IC117-Pad3)*%
X201110010Y-99707008D02*
X201930000Y-100526998D01*
X201110010Y-93160010D02*
X201110010Y-99707008D01*
X200660000Y-92710000D02*
X201110010Y-93160010D01*
X201930000Y-100526998D02*
X201930000Y-104140000D01*
X209550000Y-101600000D02*
X209550000Y-104140000D01*
X201930000Y-104140000D02*
X201930000Y-104140000D01*
X209550000Y-104140000D02*
X209550000Y-104140000D01*
%TO.N,Net-(IC117-Pad1)*%
X198120000Y-87630000D02*
X198120000Y-101600000D01*
X198120000Y-101600000D02*
X198120000Y-101600000D01*
%TO.N,/DRQ2*%
X127000000Y-93980000D02*
X127000000Y-125730000D01*
X127000000Y-125730000D02*
X127000000Y-125730000D01*
X143510000Y-125730000D02*
X143510000Y-135890000D01*
X143510000Y-135890000D02*
X143510000Y-135890000D01*
X177800000Y-125730000D02*
X177800000Y-133350000D01*
X177800000Y-133350000D02*
X177800000Y-134620000D01*
%TO.N,/~EXTINT1*%
X127544999Y-96171999D02*
X127544999Y-108494999D01*
X127819990Y-95897008D02*
X127544999Y-96171999D01*
X127819990Y-87179990D02*
X127819990Y-95897008D01*
X127000000Y-86360000D02*
X127819990Y-87179990D01*
X127544999Y-108494999D02*
X128270000Y-109220000D01*
X128270000Y-109220000D02*
X128270000Y-109220000D01*
X177800000Y-120650000D02*
X177800000Y-109220000D01*
%TO.N,/OUTDV2*%
X110490000Y-85090000D02*
X110490000Y-52070000D01*
%TO.N,Net-(C102-Pad2)*%
X190500000Y-44450000D02*
X190500000Y-55880000D01*
X190500000Y-55880000D02*
X190540000Y-55920000D01*
%TO.N,Net-(C105-Pad1)*%
X240030000Y-81280000D02*
X241300000Y-82550000D01*
X240030000Y-76200000D02*
X240030000Y-81280000D01*
%TO.N,Net-(D101-Pad2)*%
X215900000Y-46990000D02*
X215900000Y-67310000D01*
%TO.N,/~MOTOR_ON*%
X209550000Y-93980000D02*
X209550000Y-90170000D01*
X209550000Y-90170000D02*
X209550000Y-90170000D01*
X238760000Y-62230000D02*
X240030000Y-60960000D01*
X237838001Y-72934999D02*
X237838001Y-69501999D01*
X238215001Y-73311999D02*
X237838001Y-72934999D01*
X238760000Y-68580000D02*
X238760000Y-62230000D01*
X238215001Y-79284999D02*
X238215001Y-73311999D01*
X237838001Y-69501999D02*
X238760000Y-68580000D01*
X237940010Y-79559990D02*
X238215001Y-79284999D01*
X237940010Y-85540010D02*
X237940010Y-79559990D01*
X238760000Y-86360000D02*
X237940010Y-85540010D01*
X238760000Y-90170000D02*
X238760000Y-86360000D01*
%TO.N,/~DRIVE1*%
X191770000Y-118110000D02*
X191770000Y-137160000D01*
X191770000Y-137160000D02*
X191770000Y-137160000D01*
X252730000Y-59690000D02*
X254000000Y-58420000D01*
X254000000Y-58420000D02*
X252730000Y-57150000D01*
X252730000Y-57150000D02*
X252730000Y-57150000D01*
X250190000Y-130370588D02*
X250190000Y-106680000D01*
X250190000Y-106680000D02*
X252730000Y-104140000D01*
X252730000Y-104140000D02*
X252730000Y-59690000D01*
X250190000Y-130370588D02*
X250190000Y-137160000D01*
%TO.N,/~DRIVE2*%
X193040000Y-123190000D02*
X193040000Y-137160000D01*
X193040000Y-137160000D02*
X193040000Y-137160000D01*
X252730000Y-58420000D02*
X252730000Y-58420000D01*
X249645001Y-116565009D02*
X249370010Y-116840000D01*
X249645001Y-115025001D02*
X249645001Y-116565009D01*
X248920000Y-114300000D02*
X248920000Y-114300000D01*
X249370010Y-116840000D02*
X249370010Y-130359990D01*
X248920000Y-106680000D02*
X248920000Y-114300000D01*
X251460000Y-104140000D02*
X248920000Y-106680000D01*
X251460000Y-59690000D02*
X251460000Y-104140000D01*
X252730000Y-58420000D02*
X251460000Y-59690000D01*
X249645001Y-135164999D02*
X248920000Y-135890000D01*
X249645001Y-130634981D02*
X249645001Y-135164999D01*
X249370010Y-130359990D02*
X249645001Y-130634981D01*
X248920000Y-114300000D02*
X249645001Y-115025001D01*
X252004999Y-57694999D02*
X252004999Y-46264999D01*
X252730000Y-58420000D02*
X252004999Y-57694999D01*
X252004999Y-46264999D02*
X251460000Y-45720000D01*
X251460000Y-45720000D02*
X251460000Y-45720000D01*
%TO.N,/~DRIVE0*%
X187415001Y-117565001D02*
X187415001Y-136615001D01*
X185420000Y-115570000D02*
X187415001Y-117565001D01*
X187415001Y-136615001D02*
X187960000Y-137160000D01*
X187960000Y-137160000D02*
X187960000Y-137160000D01*
X252730000Y-55880000D02*
X252730000Y-55880000D01*
X253366410Y-55880000D02*
X252730000Y-55880000D01*
X254450010Y-56963600D02*
X253366410Y-55880000D01*
X255270000Y-86729980D02*
X254450010Y-85909990D01*
X255270000Y-104140000D02*
X255270000Y-86729980D01*
X254450010Y-104959990D02*
X255270000Y-104140000D01*
X254450010Y-85909990D02*
X254450010Y-56963600D01*
X254450010Y-106229990D02*
X252730000Y-107950000D01*
X254450010Y-106229990D02*
X254450010Y-104959990D01*
X252730000Y-107950000D02*
X252730000Y-116840000D01*
X252730000Y-116840000D02*
X252730000Y-116840000D01*
X251460000Y-118110000D02*
X251460000Y-134620000D01*
X262184001Y-47084999D02*
X262795001Y-47695999D01*
X261245997Y-47084999D02*
X262184001Y-47084999D01*
X262795001Y-47695999D02*
X262795001Y-52164999D01*
X257810000Y-43649002D02*
X261245997Y-47084999D01*
X262795001Y-52164999D02*
X261620000Y-53340000D01*
X257810000Y-40640000D02*
X257810000Y-43649002D01*
%TO.N,Net-(IC112-Pad10)*%
X241300000Y-123190000D02*
X241300000Y-127000000D01*
X233680000Y-123190000D02*
X233680000Y-127000000D01*
X241300000Y-127000000D02*
X241300000Y-127000000D01*
X233680000Y-127000000D02*
X233680000Y-127000000D01*
%TO.N,/~WRITE_DATA*%
X248375001Y-99801997D02*
X248194999Y-99981999D01*
X248194999Y-99981999D02*
X248194999Y-102144999D01*
X248375001Y-96171999D02*
X248375001Y-99801997D01*
X248100010Y-95897008D02*
X248375001Y-96171999D01*
X248100010Y-83369990D02*
X248100010Y-95897008D01*
X248375001Y-83094999D02*
X248100010Y-83369990D01*
X248375001Y-70575001D02*
X248375001Y-83094999D01*
X247650000Y-69850000D02*
X248375001Y-70575001D01*
X248194999Y-102144999D02*
X248920000Y-102870000D01*
X248920000Y-102870000D02*
X248920000Y-102870000D01*
X217170000Y-104140000D02*
X217170000Y-101600000D01*
%TO.N,/~WRITE_GATE*%
X212090000Y-101600000D02*
X212090000Y-99060000D01*
X212090000Y-99060000D02*
X212090000Y-99060000D01*
X238760000Y-71120000D02*
X238760000Y-71120000D01*
X238760000Y-80010000D02*
X238760000Y-71994998D01*
X239579990Y-80829990D02*
X238760000Y-80010000D01*
X239579990Y-82494992D02*
X239579990Y-80829990D01*
X241974991Y-84889993D02*
X239579990Y-82494992D01*
X238760000Y-71994998D02*
X238760000Y-71120000D01*
X241974991Y-89495009D02*
X241974991Y-84889993D01*
X241300000Y-90170000D02*
X241974991Y-89495009D01*
X241300000Y-99060000D02*
X241300000Y-90170000D01*
%TO.N,/~DIRECTION*%
X241844999Y-78929997D02*
X242425001Y-79509999D01*
X242425001Y-79509999D02*
X242425001Y-89044999D01*
X241844999Y-64044999D02*
X241844999Y-78929997D01*
X240030000Y-62230000D02*
X241844999Y-64044999D01*
X214630000Y-93980000D02*
X214630000Y-96520000D01*
X242425001Y-89044999D02*
X242425001Y-96375001D01*
X242425001Y-96375001D02*
X242570000Y-96520000D01*
X242570000Y-96520000D02*
X242570000Y-96520000D01*
X214630000Y-96520000D02*
X214630000Y-96520000D01*
%TO.N,/~SIDE*%
X256540000Y-81280000D02*
X256540000Y-105410000D01*
X256540000Y-105410000D02*
X256540000Y-105410000D01*
%TO.N,/~STEP*%
X248825011Y-67215011D02*
X248825011Y-81185011D01*
X247650000Y-66040000D02*
X248825011Y-67215011D01*
X248825011Y-81185011D02*
X250190000Y-82550000D01*
X250190000Y-82550000D02*
X250190000Y-82550000D01*
X219710000Y-93980000D02*
X219710000Y-88900000D01*
X219710000Y-88900000D02*
X219710000Y-88900000D01*
X240030000Y-87630000D02*
X240030000Y-86360000D01*
X238760000Y-85090000D02*
X238760000Y-81280000D01*
X240030000Y-86360000D02*
X238760000Y-85090000D01*
%TO.N,/~DRIVE3*%
X242918001Y-137885001D02*
X189955001Y-137885001D01*
X247650000Y-133153002D02*
X242918001Y-137885001D01*
X247650000Y-130810000D02*
X247650000Y-133153002D01*
X189230000Y-137160000D02*
X189230000Y-128270000D01*
X189955001Y-137885001D02*
X189230000Y-137160000D01*
X254000000Y-132080000D02*
X254000000Y-132080000D01*
X259530009Y-48710009D02*
X259980018Y-48260000D01*
X259530009Y-85712993D02*
X259530009Y-48710009D01*
X258158001Y-87085001D02*
X259530009Y-85712993D01*
X254000000Y-132080000D02*
X253600001Y-131680001D01*
X254693995Y-109075001D02*
X256730001Y-109075001D01*
X253600001Y-131680001D02*
X253600001Y-110168995D01*
X253600001Y-110168995D02*
X254693995Y-109075001D01*
X256730001Y-109075001D02*
X256795001Y-109010001D01*
X256795001Y-109010001D02*
X256795001Y-106228001D01*
X256795001Y-106228001D02*
X257711501Y-105311501D01*
X257711501Y-105311501D02*
X257711501Y-104041501D01*
X257711501Y-104041501D02*
X256990010Y-103320010D01*
X256990010Y-103320010D02*
X256990010Y-97790000D01*
X256990010Y-97790000D02*
X257236002Y-97790000D01*
X259980018Y-48260000D02*
X261620000Y-48260000D01*
X257236002Y-97790000D02*
X258158001Y-96868001D01*
X258158001Y-96868001D02*
X258158001Y-87085001D01*
%TO.N,Net-(J2-Pad7)*%
X258227423Y-97434989D02*
X258724989Y-97434989D01*
X258724989Y-97434989D02*
X258724989Y-93065011D01*
X257810000Y-97852412D02*
X258227423Y-97434989D01*
X257810000Y-102870000D02*
X257810000Y-97852412D01*
X258724989Y-93065011D02*
X260350000Y-91440000D01*
X258724989Y-103784989D02*
X257810000Y-102870000D01*
X258724989Y-117754989D02*
X258724989Y-103784989D01*
X261364990Y-124204990D02*
X261364990Y-120394990D01*
X261364990Y-120394990D02*
X258724989Y-117754989D01*
X262890000Y-125730000D02*
X261364990Y-124204990D01*
X262890000Y-127000000D02*
X262890000Y-125730000D01*
%TO.N,Net-(J2-Pad3)*%
X259174999Y-97695001D02*
X260350000Y-96520000D01*
X259174999Y-116934999D02*
X259174999Y-97695001D01*
X262890000Y-120650000D02*
X259174999Y-116934999D01*
%TO.N,Net-(J2-Pad1)*%
X260350000Y-102870000D02*
X260350000Y-100840020D01*
X261364990Y-103884990D02*
X260350000Y-102870000D01*
X261364990Y-112774990D02*
X261364990Y-103884990D01*
X260350000Y-100840020D02*
X260350000Y-99060000D01*
X262890000Y-114300000D02*
X261364990Y-112774990D01*
%TO.N,Net-(C4-Pad2)*%
X239764990Y-107223598D02*
X238904990Y-106363598D01*
X240951999Y-111215001D02*
X239764990Y-110027992D01*
X241648001Y-111215001D02*
X240951999Y-111215001D01*
X242025001Y-110838001D02*
X241648001Y-111215001D01*
X242025001Y-110141999D02*
X242025001Y-110838001D01*
X242570000Y-110686998D02*
X242025001Y-110141999D01*
X239764990Y-110027992D02*
X239764990Y-107223598D01*
X242570000Y-111760000D02*
X242570000Y-110686998D01*
X232410000Y-40640000D02*
X232370000Y-40640000D01*
X228055001Y-91263995D02*
X226060000Y-93258996D01*
X225804990Y-85031988D02*
X228055001Y-87281999D01*
X228055001Y-87281999D02*
X228055001Y-91263995D01*
X228995002Y-49180000D02*
X228790001Y-49385001D01*
X226600001Y-49385001D02*
X225804990Y-50180012D01*
X228995002Y-46990000D02*
X228995002Y-49180000D01*
X225804990Y-50180012D02*
X225804990Y-85031988D01*
X230995001Y-44990001D02*
X228995002Y-46990000D01*
X228790001Y-49385001D02*
X226600001Y-49385001D01*
X230995001Y-42014999D02*
X230995001Y-44990001D01*
X232370000Y-40640000D02*
X230995001Y-42014999D01*
X226060000Y-93258996D02*
X226060000Y-97790000D01*
X226060000Y-97790000D02*
X226060000Y-97790000D01*
X237634990Y-99204990D02*
X236220000Y-97790000D01*
X238904990Y-99204990D02*
X237634990Y-99204990D01*
X238904990Y-106363598D02*
X238904990Y-99204990D01*
%TO.N,Net-(C5-Pad2)*%
X260350000Y-137160000D02*
X260350000Y-125730000D01*
X260350000Y-125730000D02*
X260350000Y-123190000D01*
X260350000Y-123190000D02*
X260350000Y-123190000D01*
X262930000Y-102870000D02*
X262930000Y-105370000D01*
X262930000Y-105370000D02*
X262890000Y-105410000D01*
X262890000Y-105410000D02*
X262890000Y-105410000D01*
X260350000Y-105410000D02*
X260350000Y-110490000D01*
%TO.N,Net-(C6-Pad2)*%
X240214999Y-109404999D02*
X240214999Y-107409999D01*
X240214999Y-107409999D02*
X240944998Y-106680000D01*
X241300000Y-110490000D02*
X240214999Y-109404999D01*
X240944998Y-106680000D02*
X240944998Y-105765002D01*
X242025001Y-104684999D02*
X242025001Y-101055001D01*
X241300000Y-105410000D02*
X242025001Y-104684999D01*
X240944998Y-105765002D02*
X241300000Y-105410000D01*
X238615010Y-97645010D02*
X238615010Y-91387992D01*
X238615010Y-91387992D02*
X240849990Y-89153012D01*
X242025001Y-101055001D02*
X238615010Y-97645010D01*
X240849990Y-89153012D02*
X240849990Y-86360000D01*
X240849990Y-86360000D02*
X240849990Y-86360000D01*
X243840000Y-87630000D02*
X243840000Y-86360000D01*
X244565001Y-48788003D02*
X242570000Y-46793002D01*
X244565001Y-85634999D02*
X244565001Y-48788003D01*
X243840000Y-86360000D02*
X244565001Y-85634999D01*
X242570000Y-46793002D02*
X242570000Y-44450000D01*
X242570000Y-44450000D02*
X242570000Y-44450000D01*
%TO.N,Net-(J2-Pad5)*%
X261815000Y-106875000D02*
X262890000Y-107950000D01*
X261815000Y-103698590D02*
X261815000Y-106875000D01*
X261714999Y-103598589D02*
X261815000Y-103698590D01*
X261714999Y-95344999D02*
X261714999Y-103598589D01*
X260350000Y-93980000D02*
X261714999Y-95344999D01*
%TD*%
M02*
