M48
; DRILL file {KiCad (5.1.10)-1} date 02/01/22 13:34:43
; FORMAT={-:-/ absolute / inch / decimal}
; #@! TF.CreationDate,2022-02-01T13:34:43+01:00
; #@! TF.GenerationSoftware,Kicad,Pcbnew,(5.1.10)-1
; #@! TF.FileFunction,Plated,1,2,PTH
FMAT,2
INCH
T1C0.0157
T2C0.0236
T3C0.0315
T4C0.0394
T5C0.0472
%
G90
G05
T1
X4.35Y-3.35
X4.8Y-4.4
X4.8Y-4.85
X4.85Y-2.1
X4.85Y-2.5
X4.85Y-3.15
X4.85Y-3.25
X4.9Y-1.9
X4.9Y-2.4
X4.9Y-2.5
X4.9Y-2.7
X4.9Y-3.05
X4.9Y-3.15
X4.95Y-2.4
X4.95Y-2.75
X4.95Y-2.8
X4.95Y-4.25
X4.95Y-4.45
X4.9677Y-4.85
X5.0Y-1.8
X5.0Y-2.45
X5.0Y-2.7
X5.0Y-3.4
X5.0Y-3.45
X5.0Y-3.7
X5.0Y-4.95
X5.05Y-1.7
X5.05Y-2.05
X5.05Y-2.2
X5.05Y-2.65
X5.05Y-2.75
X5.05Y-3.8
X5.05Y-4.3
X5.05Y-4.65
X5.1Y-2.0
X5.1Y-2.55
X5.1Y-2.7
X5.1Y-2.85
X5.1Y-3.85
X5.1Y-4.15
X5.15Y-2.3
X5.15Y-2.6
X5.15Y-3.05
X5.15Y-3.2
X5.15Y-3.3
X5.15Y-3.35
X5.15Y-3.75
X5.2Y-2.35
X5.2Y-2.65
X5.2Y-3.85
X5.2Y-3.9
X5.25Y-3.55
X5.25Y-4.75
X5.3Y-3.55
X5.4Y-4.5
X5.4Y-5.05
X5.45Y-4.8
X5.45Y-5.35
X5.5Y-3.85
X5.5Y-4.6
X5.5Y-4.7
X5.5Y-5.3
X5.55Y-2.35
X5.55Y-2.6
X5.55Y-3.35
X5.55Y-3.65
X5.55Y-4.6
X5.55Y-5.1
X5.6Y-2.25
X5.6Y-2.75
X5.6Y-3.25
X5.6Y-4.25
X5.6Y-4.45
X5.6Y-5.0
X5.65Y-2.35
X5.65Y-3.55
X5.65Y-4.2
X5.65Y-4.25
X5.65Y-4.9
X5.65Y-4.95
X5.65Y-5.35
X5.7Y-2.9
X5.7Y-2.95
X5.7Y-3.25
X5.7Y-3.65
X5.75Y-2.85
X5.75Y-3.05
X5.75Y-3.15
X5.8Y-3.95
X5.85Y-4.05
X5.85Y-4.15
X5.85Y-4.65
X5.85Y-4.85
X5.85Y-4.95
X5.9Y-3.65
X5.9Y-3.85
X5.9Y-4.15
X5.9Y-4.55
X5.9Y-4.7
X5.9Y-5.15
X5.95Y-3.25
X5.95Y-5.35
X6.0Y-1.7
X6.0Y-2.25
X6.0Y-2.65
X6.0Y-2.85
X6.0Y-2.95
X6.0Y-3.15
X6.0Y-3.4
X6.0Y-3.85
X6.05Y-2.55
X6.05Y-3.2
X6.05Y-3.35
X6.05Y-3.45
X6.05Y-3.85
X6.1Y-4.25
X6.15Y-3.65
X6.15Y-3.95
X6.15Y-4.15
X6.15Y-5.25
X6.2Y-4.35
X6.2Y-4.55
X6.25Y-3.2
X6.25Y-4.2
X6.25Y-4.45
X6.25Y-5.05
X6.25Y-5.15
X6.3Y-2.8
X6.3Y-3.95
X6.3Y-4.2
X6.3Y-4.35
X6.3Y-5.25
X6.35Y-3.4
X6.35Y-3.95
X6.4Y-2.65
X6.4Y-3.05
X6.4Y-3.6
X6.4Y-5.2
X6.45Y-2.45
X6.45Y-2.6
X6.45Y-3.35
X6.45Y-3.5
X6.5Y-2.5
X6.5Y-3.25
X6.5Y-4.85
X6.5Y-4.95
X6.55Y-2.4
X6.55Y-3.15
X6.55Y-3.85
X6.55Y-4.2
X6.55Y-4.35
X6.55Y-4.55
X6.55Y-4.95
X6.55Y-5.25
X6.6Y-2.3
X6.6Y-3.05
X6.6Y-4.15
X6.65Y-1.95
X6.65Y-2.2
X6.65Y-2.95
X6.65Y-3.65
X6.7Y-2.1
X6.7Y-2.85
X6.75Y-2.0
X6.75Y-2.75
X6.75Y-3.1
X6.75Y-3.85
X6.8Y-1.9
X6.8Y-2.65
X6.8Y-3.3
X6.8Y-3.65
X6.8Y-3.95
X6.8Y-4.25
X6.85Y-2.55
X6.85Y-3.5
X6.85Y-3.75
X6.85Y-5.2
X6.9Y-3.5
X6.9Y-4.2
X6.9Y-4.55
X6.9Y-4.65
X6.95Y-3.7
X6.95Y-3.85
X6.95Y-4.05
X6.95Y-4.45
X6.95Y-4.55
X6.95Y-4.75
X7.0Y-4.3
X7.0Y-4.75
X7.0Y-4.95
X7.0Y-5.3
X7.05Y-4.3
X7.05Y-4.5
X7.05Y-4.85
X7.1Y-5.3
X7.1Y-5.4
X7.15Y-3.65
X7.15Y-3.9
X7.15Y-5.2
X7.2Y-3.3
X7.2Y-4.3
X7.25Y-2.5
X7.25Y-3.45
X7.25Y-4.1
X7.25Y-4.85
X7.25Y-5.3
X7.3Y-2.15
X7.3Y-4.55
X7.3Y-4.65
X7.3Y-4.75
X7.3Y-5.25
X7.35Y-2.65
X7.35Y-3.0
X7.35Y-3.25
X7.35Y-3.35
X7.35Y-3.5
X7.35Y-4.95
X7.35Y-5.1
X7.35Y-5.25
X7.3677Y-4.5
X7.4Y-3.75
X7.4Y-5.4
X7.45Y-3.1
X7.45Y-3.65
X7.45Y-4.05
X7.45Y-4.35
X7.5Y-1.75
X7.5Y-2.6
X7.5Y-3.85
X7.5016Y-2.2016
X7.55Y-2.85
X7.55Y-3.25
X7.55Y-4.2
X7.55Y-4.65
X7.55Y-5.4
X7.6Y-4.25
X7.6Y-4.55
X7.6Y-4.65
X7.6Y-4.85
X7.6Y-5.4
X7.65Y-1.9
X7.65Y-4.5
X7.65Y-4.75
X7.65Y-5.05
X7.65Y-5.1
X7.65Y-5.2323
X7.7Y-2.25
X7.7Y-4.25
X7.75Y-2.7
X7.75Y-4.05
X7.75Y-5.2
X7.8Y-2.05
X7.8Y-2.3
X7.8Y-2.5
X7.8Y-3.45
X7.8Y-4.0
X7.85Y-2.75
X7.85Y-3.15
X7.85Y-3.75
X7.85Y-4.15
X7.85Y-4.45
X7.85Y-4.8
X7.85Y-4.85
X7.85Y-5.25
X7.9Y-2.0
X7.9Y-2.55
X7.9Y-2.7
X7.9Y-2.9
X7.9Y-3.1
X7.9Y-3.55
X7.9Y-3.65
X7.9Y-3.95
X7.9Y-4.05
X7.9Y-4.35
X7.9Y-4.95
X7.9Y-5.2
X7.95Y-3.0
X7.95Y-3.85
X7.95Y-4.1
X7.95Y-4.3
X7.95Y-4.5
X7.95Y-4.65
X7.95Y-4.75
X7.95Y-4.85
X7.95Y-5.05
X7.95Y-5.1
X8.0Y-2.5
X8.0Y-3.2
X8.0Y-3.9
X8.05Y-4.3
X8.05Y-5.3323
X8.1Y-1.75
X8.112Y-4.2
X8.15Y-3.45
X8.15Y-4.35
X8.15Y-4.45
X8.15Y-4.6
X8.15Y-4.95
X8.2Y-3.25
X8.2Y-3.35
X8.2Y-4.55
X8.2Y-4.65
X8.2Y-4.75
X8.25Y-1.95
X8.25Y-2.3
X8.25Y-3.55
X8.25Y-4.1
X8.3Y-2.25
X8.3Y-3.45
X8.3Y-4.2
X8.3Y-5.2
X8.35Y-3.0
X8.35Y-3.55
X8.35Y-3.9
X8.4Y-1.95
X8.4Y-3.0
X8.4Y-4.6
X8.4Y-4.95
X8.4Y-5.25
X8.45Y-3.8
X8.45Y-4.15
X8.45Y-4.35
X8.45Y-4.65
X8.45Y-4.85
X8.45Y-5.35
X8.5Y-1.85
X8.5Y-2.65
X8.5Y-4.25
X8.5Y-4.55
X8.5Y-4.75
X8.5Y-5.0
X8.55Y-3.45
X8.55Y-4.1
X8.6Y-1.7
X8.6Y-4.3
X8.65Y-3.5
X8.65Y-4.1
X8.7Y-2.05
X8.7Y-4.25
X8.7Y-4.9
X8.7Y-4.95
X8.7Y-5.15
X8.75Y-3.65
X8.75Y-3.7
X8.75Y-4.3
X8.7984Y-3.1516
X8.8Y-2.0
X8.8Y-3.05
X8.8Y-5.2
X8.85Y-1.75
X8.85Y-2.05
X8.85Y-2.5
X8.85Y-2.95
X8.85Y-3.85
X8.9Y-3.5
X8.9Y-3.85
X8.9Y-4.45
X8.9Y-4.9
X8.95Y-3.45
X8.95Y-3.8
X8.95Y-4.45
X8.95Y-4.55
X8.95Y-5.05
X9.0Y-4.1
X9.0Y-4.95
X9.05Y-1.9
X9.05Y-2.4
X9.05Y-2.5
X9.05Y-3.3
X9.05Y-3.45
X9.1Y-2.0
X9.1Y-2.2
X9.1Y-2.3
X9.1Y-2.8
X9.1Y-3.0
X9.1Y-4.2
X9.1Y-4.3
X9.15Y-2.1
X9.15Y-2.2
X9.15Y-2.35
X9.15Y-2.45
X9.15Y-3.2
X9.15Y-3.55
X9.15Y-5.15
X9.2Y-3.8
X9.2Y-4.2
X9.2Y-4.85
X9.2Y-5.0
X9.25Y-3.45
X9.25Y-4.5
X9.25Y-4.95
X9.3Y-3.45
X9.3Y-3.85
X9.3Y-5.15
X9.35Y-2.3
X9.35Y-2.7
X9.35Y-2.9
X9.35Y-3.1
X9.35Y-3.5
X9.35Y-3.85
X9.35Y-4.2
X9.35Y-5.2
X9.4Y-2.0
X9.4Y-2.15
X9.4Y-2.8
X9.4Y-3.2
X9.4Y-3.55
X9.4Y-4.3
X9.4Y-4.75
X9.45Y-2.4
X9.45Y-2.45
X9.45Y-3.45
X9.45Y-4.1
X9.45Y-4.85
X9.45Y-5.15
X9.4823Y-3.4
X9.5Y-3.9
X9.5Y-4.35
X9.5Y-4.65
X9.5Y-4.85
X9.5Y-5.0
X9.55Y-1.75
X9.55Y-2.3
X9.55Y-2.55
X9.55Y-3.8
X9.55Y-4.4
X9.55Y-4.65
X9.6Y-2.1
X9.6Y-3.35
X9.6Y-3.45
X9.6Y-3.7
X9.65Y-1.9
X9.65Y-3.4
X9.65Y-3.6
X9.65Y-4.1
X9.65Y-4.3
X9.65Y-5.3
X9.7Y-5.15
X9.75Y-2.6
X9.75Y-2.75
X9.75Y-3.1
X9.75Y-3.8
X9.75Y-3.85
X9.75Y-4.8
X9.75Y-5.15
X9.8Y-3.4
X9.8Y-3.95
X9.8Y-4.05
X9.8Y-4.5
X9.8Y-4.55
X9.8Y-5.25
X9.8Y-5.35
X9.85Y-3.25
X9.85Y-3.45
X9.85Y-4.1
X9.85Y-4.85
X9.85Y-5.4
X9.9Y-1.8
X9.9Y-4.6
X9.9Y-4.65
X9.9Y-5.3
X9.95Y-2.2
X9.95Y-2.25
X9.95Y-2.3
X9.95Y-4.6
X9.95Y-5.3
X10.0Y-3.5
X10.0Y-5.2
X10.05Y-3.35
X10.1Y-1.85
X10.1Y-1.95
X10.1Y-2.0
X10.1Y-2.05
X10.1Y-2.9
X10.1Y-3.1
X10.1Y-3.2
X10.1Y-4.15
X10.15Y-1.6
X10.15Y-1.9
X10.15Y-2.15
X10.15Y-3.0
X10.15Y-3.3
X10.15Y-3.4
X10.15Y-4.25
X10.15Y-4.5
X10.15Y-4.75
X10.15Y-5.0
X10.25Y-4.15
X10.25Y-4.35
X10.25Y-4.85
X10.35Y-4.15
X10.4Y-3.45
X10.45Y-4.1
X10.45Y-4.35
X10.45Y-4.6
X10.45Y-4.85
X10.45Y-5.1
T2
X4.75Y-5.0
X4.8287Y-5.0
X6.8713Y-2.0
X6.95Y-2.0
X10.0Y-1.75
X10.0787Y-1.75
T3
X4.35Y-2.05
X4.75Y-2.05
X5.15Y-4.4
X5.15Y-4.5
X5.15Y-4.6
X5.15Y-4.7
X5.15Y-4.8
X5.15Y-4.9
X5.15Y-5.0
X5.15Y-5.1
X5.15Y-5.2
X5.2Y-3.75
X5.2Y-4.05
X5.3Y-1.7
X5.3Y-1.8
X5.3Y-1.9
X5.3Y-2.0
X5.3Y-2.1
X5.3Y-2.2
X5.3Y-2.3
X5.3Y-2.4
X5.3Y-2.5
X5.3Y-2.65
X5.3Y-2.75
X5.3Y-2.85
X5.3Y-2.95
X5.3Y-3.05
X5.3Y-3.15
X5.3Y-3.25
X5.3Y-3.35
X5.3Y-3.45
X5.3Y-3.75
X5.3Y-4.05
X5.3Y-4.4
X5.3Y-4.5
X5.3Y-4.6
X5.3Y-4.7
X5.3Y-4.8
X5.3Y-4.9
X5.3Y-5.0
X5.3Y-5.1
X5.3Y-5.2
X5.4Y-3.75
X5.4Y-4.05
X5.45Y-2.65
X5.45Y-2.75
X5.45Y-2.85
X5.45Y-2.95
X5.45Y-3.05
X5.45Y-3.15
X5.45Y-3.25
X5.45Y-3.35
X5.45Y-3.45
X5.5Y-3.75
X5.5Y-4.05
X5.6Y-3.75
X5.6Y-4.05
X5.7Y-3.75
X5.7Y-4.05
X5.75Y-4.35
X5.75Y-4.45
X5.75Y-4.55
X5.75Y-4.65
X5.75Y-4.75
X5.75Y-4.85
X5.75Y-4.95
X5.75Y-5.05
X5.75Y-5.15
X5.75Y-5.25
X5.8Y-3.75
X5.8Y-4.05
X5.85Y-1.7
X5.85Y-1.8
X5.85Y-1.9
X5.85Y-2.0
X5.85Y-2.1
X5.85Y-2.2
X5.85Y-2.3
X5.85Y-2.4
X5.85Y-2.5
X5.85Y-2.6
X5.85Y-2.85
X5.85Y-2.95
X5.85Y-3.05
X5.85Y-3.15
X5.85Y-3.25
X5.85Y-3.35
X5.85Y-3.45
X6.05Y-3.75
X6.05Y-4.05
X6.05Y-4.35
X6.05Y-4.45
X6.05Y-4.55
X6.05Y-4.65
X6.05Y-4.75
X6.05Y-4.85
X6.05Y-4.95
X6.05Y-5.05
X6.05Y-5.15
X6.05Y-5.25
X6.15Y-1.7
X6.15Y-1.8
X6.15Y-1.9
X6.15Y-2.0
X6.15Y-2.1
X6.15Y-2.2
X6.15Y-2.3
X6.15Y-2.4
X6.15Y-2.5
X6.15Y-2.6
X6.15Y-2.85
X6.15Y-2.95
X6.15Y-3.05
X6.15Y-3.15
X6.15Y-3.25
X6.15Y-3.35
X6.15Y-3.45
X6.15Y-3.75
X6.15Y-4.05
X6.25Y-3.75
X6.25Y-4.05
X6.3Y-1.8
X6.3Y-1.9
X6.3Y-2.0
X6.3Y-2.1
X6.3Y-2.2
X6.3Y-2.3
X6.3Y-2.4
X6.3Y-2.5
X6.3Y-2.6
X6.35Y-3.75
X6.35Y-4.05
X6.4Y-4.35
X6.4Y-4.45
X6.4Y-4.55
X6.4Y-4.65
X6.4Y-4.75
X6.4Y-4.85
X6.4Y-4.95
X6.4Y-5.05
X6.45Y-3.75
X6.45Y-4.05
X6.55Y-3.75
X6.55Y-4.05
X6.65Y-1.75
X6.65Y-3.75
X6.65Y-4.05
X6.7Y-4.35
X6.7Y-4.45
X6.7Y-4.55
X6.7Y-4.65
X6.7Y-4.75
X6.7Y-4.85
X6.7Y-4.95
X6.7Y-5.05
X6.7484Y-1.75
X6.85Y-4.35
X6.85Y-4.4484
X7.05Y-2.15
X7.05Y-2.25
X7.05Y-2.35
X7.05Y-2.45
X7.05Y-2.55
X7.05Y-2.65
X7.05Y-2.75
X7.05Y-2.85
X7.05Y-2.95
X7.05Y-3.05
X7.05Y-3.15
X7.05Y-3.25
X7.05Y-3.35
X7.05Y-3.45
X7.05Y-3.55
X7.05Y-3.65
X7.05Y-3.75
X7.05Y-3.85
X7.05Y-3.95
X7.05Y-4.05
X7.15Y-4.45
X7.15Y-4.55
X7.15Y-4.65
X7.15Y-4.75
X7.15Y-4.85
X7.15Y-4.95
X7.15Y-5.05
X7.45Y-1.75
X7.45Y-1.9
X7.45Y-4.45
X7.45Y-4.55
X7.45Y-4.65
X7.45Y-4.75
X7.45Y-4.85
X7.45Y-4.95
X7.45Y-5.05
X7.65Y-2.15
X7.65Y-2.25
X7.65Y-2.35
X7.65Y-2.45
X7.65Y-2.55
X7.65Y-2.65
X7.65Y-2.75
X7.65Y-2.85
X7.65Y-2.95
X7.65Y-3.05
X7.65Y-3.15
X7.65Y-3.25
X7.65Y-3.35
X7.65Y-3.45
X7.65Y-3.55
X7.65Y-3.65
X7.65Y-3.75
X7.65Y-3.85
X7.65Y-3.95
X7.65Y-4.05
X7.75Y-4.35
X7.75Y-4.45
X7.75Y-4.55
X7.75Y-4.65
X7.75Y-4.75
X7.75Y-4.85
X7.75Y-4.95
X7.75Y-5.05
X7.85Y-1.75
X7.85Y-1.9
X7.85Y-2.2016
X7.85Y-2.3
X8.0Y-1.75
X8.05Y-3.7
X8.05Y-4.0
X8.05Y-4.35
X8.05Y-4.45
X8.05Y-4.55
X8.05Y-4.65
X8.05Y-4.75
X8.05Y-4.85
X8.05Y-4.95
X8.05Y-5.05
X8.1Y-1.95
X8.1Y-2.2
X8.1Y-2.3
X8.1Y-2.4
X8.1Y-2.5
X8.1Y-2.6
X8.1Y-2.7
X8.1Y-2.8
X8.1Y-2.9
X8.1Y-3.0
X8.1Y-3.1
X8.1Y-3.2
X8.1Y-3.3
X8.15Y-3.7
X8.15Y-4.0
X8.25Y-3.7
X8.25Y-4.0
X8.2921Y-1.95
X8.3Y-4.45
X8.3Y-4.55
X8.3Y-4.65
X8.3Y-4.75
X8.3Y-4.85
X8.3Y-4.95
X8.3Y-5.05
X8.35Y-3.7
X8.35Y-4.0
X8.4Y-1.75
X8.4Y-3.45
X8.45Y-3.7
X8.45Y-4.0
X8.55Y-3.7
X8.55Y-4.0
X8.6Y-1.85
X8.6Y-1.95
X8.6Y-4.45
X8.6Y-4.55
X8.6Y-4.65
X8.6Y-4.75
X8.6Y-4.85
X8.6Y-4.95
X8.6Y-5.05
X8.65Y-3.7
X8.65Y-4.0
X8.6984Y-1.85
X8.6984Y-1.95
X8.7Y-2.2
X8.7Y-2.3
X8.7Y-2.4
X8.7Y-2.5
X8.7Y-2.6
X8.7Y-2.7
X8.7Y-2.8
X8.7Y-2.9
X8.7Y-3.0
X8.7Y-3.1
X8.7Y-3.2
X8.7Y-3.3
X8.8Y-3.45
X8.8Y-4.45
X8.8Y-4.55
X8.8Y-4.65
X8.8Y-4.75
X8.8Y-4.85
X8.8Y-4.95
X8.8Y-5.05
X8.85Y-3.7
X8.85Y-4.0
X8.95Y-1.9
X8.95Y-2.0
X8.95Y-2.1
X8.95Y-2.2
X8.95Y-2.3
X8.95Y-2.4
X8.95Y-2.5
X8.95Y-2.7
X8.95Y-2.8
X8.95Y-2.9
X8.95Y-3.0
X8.95Y-3.1
X8.95Y-3.2
X8.95Y-3.3
X8.95Y-3.7
X8.95Y-4.0
X9.05Y-1.6
X9.05Y-1.75
X9.05Y-3.7
X9.05Y-4.0
X9.1Y-4.45
X9.1Y-4.55
X9.1Y-4.65
X9.1Y-4.75
X9.1Y-4.85
X9.1Y-4.95
X9.1Y-5.05
X9.1484Y-1.6
X9.1484Y-1.75
X9.15Y-3.7
X9.15Y-4.0
X9.25Y-1.6
X9.25Y-1.75
X9.25Y-1.9
X9.25Y-2.0
X9.25Y-2.1
X9.25Y-2.2
X9.25Y-2.3
X9.25Y-2.4
X9.25Y-2.5
X9.25Y-2.7
X9.25Y-2.8
X9.25Y-2.9
X9.25Y-3.0
X9.25Y-3.1
X9.25Y-3.2
X9.25Y-3.3
X9.25Y-3.7
X9.25Y-4.0
X9.35Y-3.7
X9.35Y-4.0
X9.35Y-4.45
X9.35Y-4.55
X9.35Y-4.65
X9.35Y-4.75
X9.35Y-4.85
X9.35Y-4.95
X9.35Y-5.05
X9.45Y-2.55
X9.45Y-2.7
X9.45Y-2.85
X9.45Y-3.0
X9.45Y-3.7
X9.45Y-4.0
X9.5Y-3.1516
X9.5Y-3.25
X9.5016Y-4.25
X9.6Y-4.25
X9.65Y-1.6
X9.65Y-1.75
X9.65Y-4.45
X9.65Y-4.55
X9.65Y-4.65
X9.65Y-4.75
X9.65Y-4.85
X9.65Y-4.95
X9.65Y-5.05
X9.8Y-1.65
X9.8Y-1.75
X9.8Y-1.85
X9.8Y-1.95
X9.8Y-2.05
X9.8Y-2.15
X9.8Y-2.25
X9.8Y-2.35
X9.85Y-2.55
X9.85Y-2.7
X9.85Y-2.85
X9.85Y-3.0
X9.85Y-5.4
X10.0Y-5.25
X10.05Y-4.25
X10.05Y-4.35
X10.05Y-4.5
X10.05Y-4.6
X10.05Y-4.75
X10.05Y-4.85
X10.05Y-5.0
X10.05Y-5.1
X10.25Y-5.4
X10.35Y-4.25
X10.35Y-4.35
X10.35Y-4.5
X10.35Y-4.6
X10.35Y-4.75
X10.35Y-4.85
X10.35Y-5.0
X10.35Y-5.1
X10.3516Y-4.05
X10.3516Y-5.4
X10.4Y-5.25
X10.45Y-4.05
X10.45Y-5.4
T4
X4.6Y-2.35
X4.6Y-2.45
X4.6Y-2.55
X4.6Y-2.65
X4.6Y-2.75
X4.6Y-2.85
X4.6Y-2.95
X4.6Y-3.05
X4.6Y-3.15
X4.6Y-3.25
X4.6Y-3.35
X4.6Y-3.45
X4.6Y-3.55
X4.6Y-3.65
X4.6Y-3.75
X4.6Y-3.85
X4.6Y-3.95
X4.6Y-4.05
X4.6Y-4.15
X4.6Y-4.25
X4.6Y-4.35
X4.6Y-4.45
X4.6Y-4.55
X4.6Y-4.65
X4.6Y-4.75
X4.7Y-2.35
X4.7Y-2.45
X4.7Y-2.55
X4.7Y-2.65
X4.7Y-2.75
X4.7Y-2.85
X4.7Y-2.95
X4.7Y-3.05
X4.7Y-3.15
X4.7Y-3.25
X4.7Y-3.35
X4.7Y-3.45
X4.7Y-3.55
X4.7Y-3.65
X4.7Y-3.75
X4.7Y-3.85
X4.7Y-3.95
X4.7Y-4.05
X4.7Y-4.15
X4.7Y-4.25
X4.7Y-4.35
X4.7Y-4.45
X4.7Y-4.55
X4.7Y-4.65
X4.7Y-4.75
X10.25Y-3.6
X10.25Y-3.7
X10.25Y-3.8
X10.25Y-3.9
X10.3Y-1.7
X10.3Y-1.8
X10.3Y-1.9
X10.3Y-2.0
X10.3Y-2.1
X10.3Y-2.2
X10.3Y-2.3
X10.3Y-2.4
X10.3Y-2.5
X10.3Y-2.6
X10.3Y-2.7
X10.3Y-2.8
X10.3Y-2.9
X10.3Y-3.0
X10.3Y-3.1
X10.3Y-3.2
X10.3Y-3.3
X10.35Y-3.6
X10.35Y-3.7
X10.35Y-3.8
X10.35Y-3.9
X10.4Y-1.7
X10.4Y-1.8
X10.4Y-1.9
X10.4Y-2.0
X10.4Y-2.1
X10.4Y-2.2
X10.4Y-2.3
X10.4Y-2.4
X10.4Y-2.5
X10.4Y-2.6
X10.4Y-2.7
X10.4Y-2.8
X10.4Y-2.9
X10.4Y-3.0
X10.4Y-3.1
X10.4Y-3.2
X10.4Y-3.3
T5
X6.9Y-1.75
X7.3Y-1.75
T0
M30
