%TF.GenerationSoftware,KiCad,Pcbnew,(5.1.10)-1*%
%TF.CreationDate,2022-02-01T13:34:57+01:00*%
%TF.ProjectId,TA8-FDC,5441382d-4644-4432-9e6b-696361645f70,rev?*%
%TF.SameCoordinates,Original*%
%TF.FileFunction,Legend,Top*%
%TF.FilePolarity,Positive*%
%FSLAX46Y46*%
G04 Gerber Fmt 4.6, Leading zero omitted, Abs format (unit mm)*
G04 Created by KiCad (PCBNEW (5.1.10)-1) date 2022-02-01 13:34:57*
%MOMM*%
%LPD*%
G01*
G04 APERTURE LIST*
%ADD10C,0.120000*%
%ADD11C,0.150000*%
G04 APERTURE END LIST*
D10*
%TO.C,R4*%
X258540000Y-138530000D02*
X258540000Y-135790000D01*
X258540000Y-135790000D02*
X252000000Y-135790000D01*
X252000000Y-135790000D02*
X252000000Y-138530000D01*
X252000000Y-138530000D02*
X258540000Y-138530000D01*
X259310000Y-137160000D02*
X258540000Y-137160000D01*
X251230000Y-137160000D02*
X252000000Y-137160000D01*
%TO.C,R3*%
X262350000Y-134720000D02*
X262350000Y-131980000D01*
X262350000Y-131980000D02*
X255810000Y-131980000D01*
X255810000Y-131980000D02*
X255810000Y-134720000D01*
X255810000Y-134720000D02*
X262350000Y-134720000D01*
X263120000Y-133350000D02*
X262350000Y-133350000D01*
X255040000Y-133350000D02*
X255810000Y-133350000D01*
%TO.C,R2*%
X236760000Y-43080000D02*
X236760000Y-45820000D01*
X236760000Y-45820000D02*
X243300000Y-45820000D01*
X243300000Y-45820000D02*
X243300000Y-43080000D01*
X243300000Y-43080000D02*
X236760000Y-43080000D01*
X235990000Y-44450000D02*
X236760000Y-44450000D01*
X244070000Y-44450000D02*
X243300000Y-44450000D01*
%TO.C,R1*%
X236760000Y-39270000D02*
X236760000Y-42010000D01*
X236760000Y-42010000D02*
X243300000Y-42010000D01*
X243300000Y-42010000D02*
X243300000Y-39270000D01*
X243300000Y-39270000D02*
X236760000Y-39270000D01*
X235990000Y-40640000D02*
X236760000Y-40640000D01*
X244070000Y-40640000D02*
X243300000Y-40640000D01*
%TO.C,C7*%
X265800000Y-138280000D02*
X262560000Y-138280000D01*
X265800000Y-136040000D02*
X262560000Y-136040000D01*
X265800000Y-138280000D02*
X265800000Y-138215000D01*
X265800000Y-136105000D02*
X265800000Y-136040000D01*
X262560000Y-138280000D02*
X262560000Y-138215000D01*
X262560000Y-136105000D02*
X262560000Y-136040000D01*
%TO.C,C6*%
X229500000Y-43330000D02*
X232740000Y-43330000D01*
X229500000Y-45570000D02*
X232740000Y-45570000D01*
X229500000Y-43330000D02*
X229500000Y-43395000D01*
X229500000Y-45505000D02*
X229500000Y-45570000D01*
X232740000Y-43330000D02*
X232740000Y-43395000D01*
X232740000Y-45505000D02*
X232740000Y-45570000D01*
%TO.C,C5*%
X265800000Y-103990000D02*
X262560000Y-103990000D01*
X265800000Y-101750000D02*
X262560000Y-101750000D01*
X265800000Y-103990000D02*
X265800000Y-103925000D01*
X265800000Y-101815000D02*
X265800000Y-101750000D01*
X262560000Y-103990000D02*
X262560000Y-103925000D01*
X262560000Y-101815000D02*
X262560000Y-101750000D01*
%TO.C,C4*%
X229500000Y-39520000D02*
X232740000Y-39520000D01*
X229500000Y-41760000D02*
X232740000Y-41760000D01*
X229500000Y-39520000D02*
X229500000Y-39585000D01*
X229500000Y-41695000D02*
X229500000Y-41760000D01*
X232740000Y-39520000D02*
X232740000Y-39585000D01*
X232740000Y-41695000D02*
X232740000Y-41760000D01*
%TO.C,U4*%
X261330000Y-125670000D02*
X260080000Y-125670000D01*
X261330000Y-130870000D02*
X261330000Y-125670000D01*
X256830000Y-130870000D02*
X261330000Y-130870000D01*
X256830000Y-125670000D02*
X256830000Y-130870000D01*
X258080000Y-125670000D02*
X256830000Y-125670000D01*
X260080000Y-125670000D02*
G75*
G02*
X258080000Y-125670000I-1000000J0D01*
G01*
%TO.C,U3*%
X261330000Y-119320000D02*
X260080000Y-119320000D01*
X261330000Y-124520000D02*
X261330000Y-119320000D01*
X256830000Y-124520000D02*
X261330000Y-124520000D01*
X256830000Y-119320000D02*
X256830000Y-124520000D01*
X258080000Y-119320000D02*
X256830000Y-119320000D01*
X260080000Y-119320000D02*
G75*
G02*
X258080000Y-119320000I-1000000J0D01*
G01*
%TO.C,U2*%
X261330000Y-112970000D02*
X260080000Y-112970000D01*
X261330000Y-118170000D02*
X261330000Y-112970000D01*
X256830000Y-118170000D02*
X261330000Y-118170000D01*
X256830000Y-112970000D02*
X256830000Y-118170000D01*
X258080000Y-112970000D02*
X256830000Y-112970000D01*
X260080000Y-112970000D02*
G75*
G02*
X258080000Y-112970000I-1000000J0D01*
G01*
%TO.C,J2*%
X260350000Y-100390000D02*
X259020000Y-100390000D01*
X259020000Y-100390000D02*
X259020000Y-99060000D01*
X261620000Y-100390000D02*
X261620000Y-97790000D01*
X261620000Y-97790000D02*
X259020000Y-97790000D01*
X259020000Y-97790000D02*
X259020000Y-90110000D01*
X264220000Y-90110000D02*
X259020000Y-90110000D01*
X264220000Y-100390000D02*
X264220000Y-90110000D01*
X264220000Y-100390000D02*
X261620000Y-100390000D01*
%TO.C,U5*%
X261330000Y-106620000D02*
X260080000Y-106620000D01*
X261330000Y-111820000D02*
X261330000Y-106620000D01*
X256830000Y-111820000D02*
X261330000Y-111820000D01*
X256830000Y-106620000D02*
X256830000Y-111820000D01*
X258080000Y-106620000D02*
X256830000Y-106620000D01*
X260080000Y-106620000D02*
G75*
G02*
X258080000Y-106620000I-1000000J0D01*
G01*
%TO.C,IC105*%
X216880000Y-111700000D02*
X215630000Y-111700000D01*
X216880000Y-129600000D02*
X216880000Y-111700000D01*
X212380000Y-129600000D02*
X216880000Y-129600000D01*
X212380000Y-111700000D02*
X212380000Y-129600000D01*
X213630000Y-111700000D02*
X212380000Y-111700000D01*
X215630000Y-111700000D02*
G75*
G02*
X213630000Y-111700000I-1000000J0D01*
G01*
%TO.C,IC10*%
X219420000Y-54550000D02*
X214360000Y-54550000D01*
X219420000Y-85150000D02*
X219420000Y-54550000D01*
X207300000Y-85150000D02*
X219420000Y-85150000D01*
X207300000Y-54550000D02*
X207300000Y-85150000D01*
X212360000Y-54550000D02*
X207300000Y-54550000D01*
X214360000Y-54550000D02*
G75*
G02*
X212360000Y-54550000I-1000000J0D01*
G01*
%TO.C,J1*%
X260290000Y-41850000D02*
X262890000Y-41850000D01*
X260290000Y-41850000D02*
X260290000Y-85150000D01*
X260290000Y-85150000D02*
X265490000Y-85150000D01*
X265490000Y-44450000D02*
X265490000Y-85150000D01*
X262890000Y-44450000D02*
X265490000Y-44450000D01*
X262890000Y-41850000D02*
X262890000Y-44450000D01*
X265490000Y-41850000D02*
X265490000Y-43180000D01*
X264160000Y-41850000D02*
X265490000Y-41850000D01*
%TO.C,IC109*%
X233390000Y-67250000D02*
X232140000Y-67250000D01*
X233390000Y-85150000D02*
X233390000Y-67250000D01*
X228890000Y-85150000D02*
X233390000Y-85150000D01*
X228890000Y-67250000D02*
X228890000Y-85150000D01*
X230140000Y-67250000D02*
X228890000Y-67250000D01*
X232140000Y-67250000D02*
G75*
G02*
X230140000Y-67250000I-1000000J0D01*
G01*
%TO.C,IC102*%
X233390000Y-46930000D02*
X232140000Y-46930000D01*
X233390000Y-64830000D02*
X233390000Y-46930000D01*
X228890000Y-64830000D02*
X233390000Y-64830000D01*
X228890000Y-46930000D02*
X228890000Y-64830000D01*
X230140000Y-46930000D02*
X228890000Y-46930000D01*
X232140000Y-46930000D02*
G75*
G02*
X230140000Y-46930000I-1000000J0D01*
G01*
%TO.C,IC108*%
X202910000Y-109160000D02*
X201660000Y-109160000D01*
X202910000Y-129600000D02*
X202910000Y-109160000D01*
X198410000Y-129600000D02*
X202910000Y-129600000D01*
X198410000Y-109160000D02*
X198410000Y-129600000D01*
X199660000Y-109160000D02*
X198410000Y-109160000D01*
X201660000Y-109160000D02*
G75*
G02*
X199660000Y-109160000I-1000000J0D01*
G01*
%TO.C,U16*%
X152110000Y-109160000D02*
X150860000Y-109160000D01*
X152110000Y-134680000D02*
X152110000Y-109160000D01*
X147610000Y-134680000D02*
X152110000Y-134680000D01*
X147610000Y-109160000D02*
X147610000Y-134680000D01*
X148860000Y-109160000D02*
X147610000Y-109160000D01*
X150860000Y-109160000D02*
G75*
G02*
X148860000Y-109160000I-1000000J0D01*
G01*
%TO.C,U1*%
X229580000Y-111700000D02*
X228330000Y-111700000D01*
X229580000Y-129600000D02*
X229580000Y-111700000D01*
X225080000Y-129600000D02*
X229580000Y-129600000D01*
X225080000Y-111700000D02*
X225080000Y-129600000D01*
X226330000Y-111700000D02*
X225080000Y-111700000D01*
X228330000Y-111700000D02*
G75*
G02*
X226330000Y-111700000I-1000000J0D01*
G01*
%TO.C,IC116*%
X154650000Y-71060000D02*
X153400000Y-71060000D01*
X154650000Y-88960000D02*
X154650000Y-71060000D01*
X150150000Y-88960000D02*
X154650000Y-88960000D01*
X150150000Y-71060000D02*
X150150000Y-88960000D01*
X151400000Y-71060000D02*
X150150000Y-71060000D01*
X153400000Y-71060000D02*
G75*
G02*
X151400000Y-71060000I-1000000J0D01*
G01*
%TO.C,RN1*%
X250320000Y-40470000D02*
X247520000Y-40470000D01*
X247520000Y-40470000D02*
X247520000Y-61130000D01*
X247520000Y-61130000D02*
X250320000Y-61130000D01*
X250320000Y-61130000D02*
X250320000Y-40470000D01*
X250320000Y-43180000D02*
X247520000Y-43180000D01*
%TO.C,R107*%
X222480000Y-87630000D02*
X221710000Y-87630000D01*
X214400000Y-87630000D02*
X215170000Y-87630000D01*
X221710000Y-86260000D02*
X215170000Y-86260000D01*
X221710000Y-89000000D02*
X221710000Y-86260000D01*
X215170000Y-89000000D02*
X221710000Y-89000000D01*
X215170000Y-86260000D02*
X215170000Y-89000000D01*
%TO.C,R142*%
X111530000Y-52070000D02*
X112300000Y-52070000D01*
X119610000Y-52070000D02*
X118840000Y-52070000D01*
X112300000Y-53440000D02*
X118840000Y-53440000D01*
X112300000Y-50700000D02*
X112300000Y-53440000D01*
X118840000Y-50700000D02*
X112300000Y-50700000D01*
X118840000Y-53440000D02*
X118840000Y-50700000D01*
%TO.C,R108*%
X204240000Y-44450000D02*
X205010000Y-44450000D01*
X212320000Y-44450000D02*
X211550000Y-44450000D01*
X205010000Y-45820000D02*
X211550000Y-45820000D01*
X205010000Y-43080000D02*
X205010000Y-45820000D01*
X211550000Y-43080000D02*
X205010000Y-43080000D01*
X211550000Y-45820000D02*
X211550000Y-43080000D01*
%TO.C,R106*%
X249150000Y-68580000D02*
X248380000Y-68580000D01*
X241070000Y-68580000D02*
X241840000Y-68580000D01*
X248380000Y-67210000D02*
X241840000Y-67210000D01*
X248380000Y-69950000D02*
X248380000Y-67210000D01*
X241840000Y-69950000D02*
X248380000Y-69950000D01*
X241840000Y-67210000D02*
X241840000Y-69950000D01*
%TO.C,R105*%
X241070000Y-72390000D02*
X241840000Y-72390000D01*
X249150000Y-72390000D02*
X248380000Y-72390000D01*
X241840000Y-73760000D02*
X248380000Y-73760000D01*
X241840000Y-71020000D02*
X241840000Y-73760000D01*
X248380000Y-71020000D02*
X241840000Y-71020000D01*
X248380000Y-73760000D02*
X248380000Y-71020000D01*
%TO.C,R104*%
X241070000Y-76200000D02*
X241840000Y-76200000D01*
X249150000Y-76200000D02*
X248380000Y-76200000D01*
X241840000Y-77570000D02*
X248380000Y-77570000D01*
X241840000Y-74830000D02*
X241840000Y-77570000D01*
X248380000Y-74830000D02*
X241840000Y-74830000D01*
X248380000Y-77570000D02*
X248380000Y-74830000D01*
%TO.C,R103*%
X249150000Y-64770000D02*
X248380000Y-64770000D01*
X241070000Y-64770000D02*
X241840000Y-64770000D01*
X248380000Y-63400000D02*
X241840000Y-63400000D01*
X248380000Y-66140000D02*
X248380000Y-63400000D01*
X241840000Y-66140000D02*
X248380000Y-66140000D01*
X241840000Y-63400000D02*
X241840000Y-66140000D01*
%TO.C,R102*%
X190270000Y-44450000D02*
X191040000Y-44450000D01*
X198350000Y-44450000D02*
X197580000Y-44450000D01*
X191040000Y-45820000D02*
X197580000Y-45820000D01*
X191040000Y-43080000D02*
X191040000Y-45820000D01*
X197580000Y-43080000D02*
X191040000Y-43080000D01*
X197580000Y-45820000D02*
X197580000Y-43080000D01*
%TO.C,R101*%
X190270000Y-48260000D02*
X191040000Y-48260000D01*
X198350000Y-48260000D02*
X197580000Y-48260000D01*
X191040000Y-49630000D02*
X197580000Y-49630000D01*
X191040000Y-46890000D02*
X191040000Y-49630000D01*
X197580000Y-46890000D02*
X191040000Y-46890000D01*
X197580000Y-49630000D02*
X197580000Y-46890000D01*
%TO.C,D101*%
X183120000Y-46370000D02*
X183120000Y-42530000D01*
X182880000Y-46370000D02*
X182880000Y-42530000D01*
X183000000Y-46370000D02*
X183000000Y-42530000D01*
X176420000Y-42530000D02*
X176420000Y-43010000D01*
X184260000Y-42530000D02*
X176420000Y-42530000D01*
X184260000Y-43010000D02*
X184260000Y-42530000D01*
X176420000Y-46370000D02*
X176420000Y-45890000D01*
X184260000Y-46370000D02*
X176420000Y-46370000D01*
X184260000Y-45890000D02*
X184260000Y-46370000D01*
%TO.C,CY101*%
X204980000Y-52055000D02*
X211380000Y-52055000D01*
X204980000Y-47005000D02*
X211380000Y-47005000D01*
X211380000Y-52055000D02*
G75*
G03*
X211380000Y-47005000I0J2525000D01*
G01*
X204980000Y-52055000D02*
G75*
G02*
X204980000Y-47005000I0J2525000D01*
G01*
%TO.C,C107*%
X221310000Y-48045000D02*
X221310000Y-48110000D01*
X221310000Y-45870000D02*
X221310000Y-45935000D01*
X218070000Y-48045000D02*
X218070000Y-48110000D01*
X218070000Y-45870000D02*
X218070000Y-45935000D01*
X218070000Y-48110000D02*
X221310000Y-48110000D01*
X218070000Y-45870000D02*
X221310000Y-45870000D01*
%TO.C,C106*%
X172935000Y-113360000D02*
X172870000Y-113360000D01*
X175110000Y-113360000D02*
X175045000Y-113360000D01*
X172935000Y-110120000D02*
X172870000Y-110120000D01*
X175110000Y-110120000D02*
X175045000Y-110120000D01*
X172870000Y-110120000D02*
X172870000Y-113360000D01*
X175110000Y-110120000D02*
X175110000Y-113360000D01*
%TO.C,C105*%
X242355000Y-79680000D02*
X242420000Y-79680000D01*
X240180000Y-79680000D02*
X240245000Y-79680000D01*
X242355000Y-82920000D02*
X242420000Y-82920000D01*
X240180000Y-82920000D02*
X240245000Y-82920000D01*
X242420000Y-82920000D02*
X242420000Y-79680000D01*
X240180000Y-82920000D02*
X240180000Y-79680000D01*
%TO.C,C104*%
X221310000Y-50585000D02*
X221310000Y-50650000D01*
X221310000Y-48410000D02*
X221310000Y-48475000D01*
X218070000Y-50585000D02*
X218070000Y-50650000D01*
X218070000Y-48410000D02*
X218070000Y-48475000D01*
X218070000Y-50650000D02*
X221310000Y-50650000D01*
X218070000Y-48410000D02*
X221310000Y-48410000D01*
%TO.C,C103*%
X244210000Y-109005000D02*
X244210000Y-109070000D01*
X244210000Y-106830000D02*
X244210000Y-106895000D01*
X240970000Y-109005000D02*
X240970000Y-109070000D01*
X240970000Y-106830000D02*
X240970000Y-106895000D01*
X240970000Y-109070000D02*
X244210000Y-109070000D01*
X240970000Y-106830000D02*
X244210000Y-106830000D01*
%TO.C,C102*%
X200445000Y-55550000D02*
X200510000Y-55550000D01*
X198270000Y-55550000D02*
X198335000Y-55550000D01*
X200445000Y-58790000D02*
X200510000Y-58790000D01*
X198270000Y-58790000D02*
X198335000Y-58790000D01*
X200510000Y-58790000D02*
X200510000Y-55550000D01*
X198270000Y-58790000D02*
X198270000Y-55550000D01*
%TO.C,C101*%
X177599801Y-52195000D02*
X177599801Y-51795000D01*
X177799801Y-51995000D02*
X177399801Y-51995000D01*
X173449000Y-51170000D02*
X173449000Y-50430000D01*
X173489000Y-51337000D02*
X173489000Y-50263000D01*
X173529000Y-51464000D02*
X173529000Y-50136000D01*
X173569000Y-51568000D02*
X173569000Y-50032000D01*
X173609000Y-51659000D02*
X173609000Y-49941000D01*
X173649000Y-51740000D02*
X173649000Y-49860000D01*
X173689000Y-51813000D02*
X173689000Y-49787000D01*
X173729000Y-49960000D02*
X173729000Y-49720000D01*
X173729000Y-51880000D02*
X173729000Y-51640000D01*
X173769000Y-49960000D02*
X173769000Y-49658000D01*
X173769000Y-51942000D02*
X173769000Y-51640000D01*
X173809000Y-49960000D02*
X173809000Y-49600000D01*
X173809000Y-52000000D02*
X173809000Y-51640000D01*
X173849000Y-49960000D02*
X173849000Y-49546000D01*
X173849000Y-52054000D02*
X173849000Y-51640000D01*
X173889000Y-49960000D02*
X173889000Y-49496000D01*
X173889000Y-52104000D02*
X173889000Y-51640000D01*
X173929000Y-49960000D02*
X173929000Y-49449000D01*
X173929000Y-52151000D02*
X173929000Y-51640000D01*
X173969000Y-49960000D02*
X173969000Y-49404000D01*
X173969000Y-52196000D02*
X173969000Y-51640000D01*
X174009000Y-49960000D02*
X174009000Y-49362000D01*
X174009000Y-52238000D02*
X174009000Y-51640000D01*
X174049000Y-49960000D02*
X174049000Y-49322000D01*
X174049000Y-52278000D02*
X174049000Y-51640000D01*
X174089000Y-49960000D02*
X174089000Y-49284000D01*
X174089000Y-52316000D02*
X174089000Y-51640000D01*
X174129000Y-49960000D02*
X174129000Y-49248000D01*
X174129000Y-52352000D02*
X174129000Y-51640000D01*
X174169000Y-49960000D02*
X174169000Y-49213000D01*
X174169000Y-52387000D02*
X174169000Y-51640000D01*
X174209000Y-49960000D02*
X174209000Y-49181000D01*
X174209000Y-52419000D02*
X174209000Y-51640000D01*
X174249000Y-49960000D02*
X174249000Y-49150000D01*
X174249000Y-52450000D02*
X174249000Y-51640000D01*
X174289000Y-49960000D02*
X174289000Y-49120000D01*
X174289000Y-52480000D02*
X174289000Y-51640000D01*
X174329000Y-49960000D02*
X174329000Y-49092000D01*
X174329000Y-52508000D02*
X174329000Y-51640000D01*
X174369000Y-49960000D02*
X174369000Y-49065000D01*
X174369000Y-52535000D02*
X174369000Y-51640000D01*
X174409000Y-49960000D02*
X174409000Y-49040000D01*
X174409000Y-52560000D02*
X174409000Y-51640000D01*
X174449000Y-49960000D02*
X174449000Y-49015000D01*
X174449000Y-52585000D02*
X174449000Y-51640000D01*
X174489000Y-49960000D02*
X174489000Y-48992000D01*
X174489000Y-52608000D02*
X174489000Y-51640000D01*
X174529000Y-49960000D02*
X174529000Y-48970000D01*
X174529000Y-52630000D02*
X174529000Y-51640000D01*
X174569000Y-49960000D02*
X174569000Y-48949000D01*
X174569000Y-52651000D02*
X174569000Y-51640000D01*
X174609000Y-49960000D02*
X174609000Y-48930000D01*
X174609000Y-52670000D02*
X174609000Y-51640000D01*
X174649000Y-49960000D02*
X174649000Y-48911000D01*
X174649000Y-52689000D02*
X174649000Y-51640000D01*
X174689000Y-49960000D02*
X174689000Y-48893000D01*
X174689000Y-52707000D02*
X174689000Y-51640000D01*
X174729000Y-49960000D02*
X174729000Y-48876000D01*
X174729000Y-52724000D02*
X174729000Y-51640000D01*
X174769000Y-49960000D02*
X174769000Y-48860000D01*
X174769000Y-52740000D02*
X174769000Y-51640000D01*
X174809000Y-49960000D02*
X174809000Y-48846000D01*
X174809000Y-52754000D02*
X174809000Y-51640000D01*
X174850000Y-49960000D02*
X174850000Y-48832000D01*
X174850000Y-52768000D02*
X174850000Y-51640000D01*
X174890000Y-49960000D02*
X174890000Y-48818000D01*
X174890000Y-52782000D02*
X174890000Y-51640000D01*
X174930000Y-49960000D02*
X174930000Y-48806000D01*
X174930000Y-52794000D02*
X174930000Y-51640000D01*
X174970000Y-49960000D02*
X174970000Y-48795000D01*
X174970000Y-52805000D02*
X174970000Y-51640000D01*
X175010000Y-49960000D02*
X175010000Y-48784000D01*
X175010000Y-52816000D02*
X175010000Y-51640000D01*
X175050000Y-49960000D02*
X175050000Y-48775000D01*
X175050000Y-52825000D02*
X175050000Y-51640000D01*
X175090000Y-49960000D02*
X175090000Y-48766000D01*
X175090000Y-52834000D02*
X175090000Y-51640000D01*
X175130000Y-49960000D02*
X175130000Y-48758000D01*
X175130000Y-52842000D02*
X175130000Y-51640000D01*
X175170000Y-49960000D02*
X175170000Y-48750000D01*
X175170000Y-52850000D02*
X175170000Y-51640000D01*
X175210000Y-49960000D02*
X175210000Y-48744000D01*
X175210000Y-52856000D02*
X175210000Y-51640000D01*
X175250000Y-49960000D02*
X175250000Y-48738000D01*
X175250000Y-52862000D02*
X175250000Y-51640000D01*
X175290000Y-49960000D02*
X175290000Y-48733000D01*
X175290000Y-52867000D02*
X175290000Y-51640000D01*
X175330000Y-49960000D02*
X175330000Y-48729000D01*
X175330000Y-52871000D02*
X175330000Y-51640000D01*
X175370000Y-52874000D02*
X175370000Y-48726000D01*
X175410000Y-52877000D02*
X175410000Y-48723000D01*
X175450000Y-52879000D02*
X175450000Y-48721000D01*
X175490000Y-52880000D02*
X175490000Y-48720000D01*
X175530000Y-52880000D02*
X175530000Y-48720000D01*
X177650000Y-50800000D02*
G75*
G03*
X177650000Y-50800000I-2120000J0D01*
G01*
%TO.C,C3*%
X252930199Y-43055000D02*
X252930199Y-43455000D01*
X252730199Y-43255000D02*
X253130199Y-43255000D01*
X257081000Y-44080000D02*
X257081000Y-44820000D01*
X257041000Y-43913000D02*
X257041000Y-44987000D01*
X257001000Y-43786000D02*
X257001000Y-45114000D01*
X256961000Y-43682000D02*
X256961000Y-45218000D01*
X256921000Y-43591000D02*
X256921000Y-45309000D01*
X256881000Y-43510000D02*
X256881000Y-45390000D01*
X256841000Y-43437000D02*
X256841000Y-45463000D01*
X256801000Y-45290000D02*
X256801000Y-45530000D01*
X256801000Y-43370000D02*
X256801000Y-43610000D01*
X256761000Y-45290000D02*
X256761000Y-45592000D01*
X256761000Y-43308000D02*
X256761000Y-43610000D01*
X256721000Y-45290000D02*
X256721000Y-45650000D01*
X256721000Y-43250000D02*
X256721000Y-43610000D01*
X256681000Y-45290000D02*
X256681000Y-45704000D01*
X256681000Y-43196000D02*
X256681000Y-43610000D01*
X256641000Y-45290000D02*
X256641000Y-45754000D01*
X256641000Y-43146000D02*
X256641000Y-43610000D01*
X256601000Y-45290000D02*
X256601000Y-45801000D01*
X256601000Y-43099000D02*
X256601000Y-43610000D01*
X256561000Y-45290000D02*
X256561000Y-45846000D01*
X256561000Y-43054000D02*
X256561000Y-43610000D01*
X256521000Y-45290000D02*
X256521000Y-45888000D01*
X256521000Y-43012000D02*
X256521000Y-43610000D01*
X256481000Y-45290000D02*
X256481000Y-45928000D01*
X256481000Y-42972000D02*
X256481000Y-43610000D01*
X256441000Y-45290000D02*
X256441000Y-45966000D01*
X256441000Y-42934000D02*
X256441000Y-43610000D01*
X256401000Y-45290000D02*
X256401000Y-46002000D01*
X256401000Y-42898000D02*
X256401000Y-43610000D01*
X256361000Y-45290000D02*
X256361000Y-46037000D01*
X256361000Y-42863000D02*
X256361000Y-43610000D01*
X256321000Y-45290000D02*
X256321000Y-46069000D01*
X256321000Y-42831000D02*
X256321000Y-43610000D01*
X256281000Y-45290000D02*
X256281000Y-46100000D01*
X256281000Y-42800000D02*
X256281000Y-43610000D01*
X256241000Y-45290000D02*
X256241000Y-46130000D01*
X256241000Y-42770000D02*
X256241000Y-43610000D01*
X256201000Y-45290000D02*
X256201000Y-46158000D01*
X256201000Y-42742000D02*
X256201000Y-43610000D01*
X256161000Y-45290000D02*
X256161000Y-46185000D01*
X256161000Y-42715000D02*
X256161000Y-43610000D01*
X256121000Y-45290000D02*
X256121000Y-46210000D01*
X256121000Y-42690000D02*
X256121000Y-43610000D01*
X256081000Y-45290000D02*
X256081000Y-46235000D01*
X256081000Y-42665000D02*
X256081000Y-43610000D01*
X256041000Y-45290000D02*
X256041000Y-46258000D01*
X256041000Y-42642000D02*
X256041000Y-43610000D01*
X256001000Y-45290000D02*
X256001000Y-46280000D01*
X256001000Y-42620000D02*
X256001000Y-43610000D01*
X255961000Y-45290000D02*
X255961000Y-46301000D01*
X255961000Y-42599000D02*
X255961000Y-43610000D01*
X255921000Y-45290000D02*
X255921000Y-46320000D01*
X255921000Y-42580000D02*
X255921000Y-43610000D01*
X255881000Y-45290000D02*
X255881000Y-46339000D01*
X255881000Y-42561000D02*
X255881000Y-43610000D01*
X255841000Y-45290000D02*
X255841000Y-46357000D01*
X255841000Y-42543000D02*
X255841000Y-43610000D01*
X255801000Y-45290000D02*
X255801000Y-46374000D01*
X255801000Y-42526000D02*
X255801000Y-43610000D01*
X255761000Y-45290000D02*
X255761000Y-46390000D01*
X255761000Y-42510000D02*
X255761000Y-43610000D01*
X255721000Y-45290000D02*
X255721000Y-46404000D01*
X255721000Y-42496000D02*
X255721000Y-43610000D01*
X255680000Y-45290000D02*
X255680000Y-46418000D01*
X255680000Y-42482000D02*
X255680000Y-43610000D01*
X255640000Y-45290000D02*
X255640000Y-46432000D01*
X255640000Y-42468000D02*
X255640000Y-43610000D01*
X255600000Y-45290000D02*
X255600000Y-46444000D01*
X255600000Y-42456000D02*
X255600000Y-43610000D01*
X255560000Y-45290000D02*
X255560000Y-46455000D01*
X255560000Y-42445000D02*
X255560000Y-43610000D01*
X255520000Y-45290000D02*
X255520000Y-46466000D01*
X255520000Y-42434000D02*
X255520000Y-43610000D01*
X255480000Y-45290000D02*
X255480000Y-46475000D01*
X255480000Y-42425000D02*
X255480000Y-43610000D01*
X255440000Y-45290000D02*
X255440000Y-46484000D01*
X255440000Y-42416000D02*
X255440000Y-43610000D01*
X255400000Y-45290000D02*
X255400000Y-46492000D01*
X255400000Y-42408000D02*
X255400000Y-43610000D01*
X255360000Y-45290000D02*
X255360000Y-46500000D01*
X255360000Y-42400000D02*
X255360000Y-43610000D01*
X255320000Y-45290000D02*
X255320000Y-46506000D01*
X255320000Y-42394000D02*
X255320000Y-43610000D01*
X255280000Y-45290000D02*
X255280000Y-46512000D01*
X255280000Y-42388000D02*
X255280000Y-43610000D01*
X255240000Y-45290000D02*
X255240000Y-46517000D01*
X255240000Y-42383000D02*
X255240000Y-43610000D01*
X255200000Y-45290000D02*
X255200000Y-46521000D01*
X255200000Y-42379000D02*
X255200000Y-43610000D01*
X255160000Y-42376000D02*
X255160000Y-46524000D01*
X255120000Y-42373000D02*
X255120000Y-46527000D01*
X255080000Y-42371000D02*
X255080000Y-46529000D01*
X255040000Y-42370000D02*
X255040000Y-46530000D01*
X255000000Y-42370000D02*
X255000000Y-46530000D01*
X257120000Y-44450000D02*
G75*
G03*
X257120000Y-44450000I-2120000J0D01*
G01*
%TO.C,C2*%
X171780000Y-45505000D02*
X171780000Y-45570000D01*
X171780000Y-43330000D02*
X171780000Y-43395000D01*
X168540000Y-45505000D02*
X168540000Y-45570000D01*
X168540000Y-43330000D02*
X168540000Y-43395000D01*
X168540000Y-45570000D02*
X171780000Y-45570000D01*
X168540000Y-43330000D02*
X171780000Y-43330000D01*
%TO.C,C1*%
X119580199Y-125605000D02*
X119580199Y-126005000D01*
X119380199Y-125805000D02*
X119780199Y-125805000D01*
X123731000Y-126630000D02*
X123731000Y-127370000D01*
X123691000Y-126463000D02*
X123691000Y-127537000D01*
X123651000Y-126336000D02*
X123651000Y-127664000D01*
X123611000Y-126232000D02*
X123611000Y-127768000D01*
X123571000Y-126141000D02*
X123571000Y-127859000D01*
X123531000Y-126060000D02*
X123531000Y-127940000D01*
X123491000Y-125987000D02*
X123491000Y-128013000D01*
X123451000Y-127840000D02*
X123451000Y-128080000D01*
X123451000Y-125920000D02*
X123451000Y-126160000D01*
X123411000Y-127840000D02*
X123411000Y-128142000D01*
X123411000Y-125858000D02*
X123411000Y-126160000D01*
X123371000Y-127840000D02*
X123371000Y-128200000D01*
X123371000Y-125800000D02*
X123371000Y-126160000D01*
X123331000Y-127840000D02*
X123331000Y-128254000D01*
X123331000Y-125746000D02*
X123331000Y-126160000D01*
X123291000Y-127840000D02*
X123291000Y-128304000D01*
X123291000Y-125696000D02*
X123291000Y-126160000D01*
X123251000Y-127840000D02*
X123251000Y-128351000D01*
X123251000Y-125649000D02*
X123251000Y-126160000D01*
X123211000Y-127840000D02*
X123211000Y-128396000D01*
X123211000Y-125604000D02*
X123211000Y-126160000D01*
X123171000Y-127840000D02*
X123171000Y-128438000D01*
X123171000Y-125562000D02*
X123171000Y-126160000D01*
X123131000Y-127840000D02*
X123131000Y-128478000D01*
X123131000Y-125522000D02*
X123131000Y-126160000D01*
X123091000Y-127840000D02*
X123091000Y-128516000D01*
X123091000Y-125484000D02*
X123091000Y-126160000D01*
X123051000Y-127840000D02*
X123051000Y-128552000D01*
X123051000Y-125448000D02*
X123051000Y-126160000D01*
X123011000Y-127840000D02*
X123011000Y-128587000D01*
X123011000Y-125413000D02*
X123011000Y-126160000D01*
X122971000Y-127840000D02*
X122971000Y-128619000D01*
X122971000Y-125381000D02*
X122971000Y-126160000D01*
X122931000Y-127840000D02*
X122931000Y-128650000D01*
X122931000Y-125350000D02*
X122931000Y-126160000D01*
X122891000Y-127840000D02*
X122891000Y-128680000D01*
X122891000Y-125320000D02*
X122891000Y-126160000D01*
X122851000Y-127840000D02*
X122851000Y-128708000D01*
X122851000Y-125292000D02*
X122851000Y-126160000D01*
X122811000Y-127840000D02*
X122811000Y-128735000D01*
X122811000Y-125265000D02*
X122811000Y-126160000D01*
X122771000Y-127840000D02*
X122771000Y-128760000D01*
X122771000Y-125240000D02*
X122771000Y-126160000D01*
X122731000Y-127840000D02*
X122731000Y-128785000D01*
X122731000Y-125215000D02*
X122731000Y-126160000D01*
X122691000Y-127840000D02*
X122691000Y-128808000D01*
X122691000Y-125192000D02*
X122691000Y-126160000D01*
X122651000Y-127840000D02*
X122651000Y-128830000D01*
X122651000Y-125170000D02*
X122651000Y-126160000D01*
X122611000Y-127840000D02*
X122611000Y-128851000D01*
X122611000Y-125149000D02*
X122611000Y-126160000D01*
X122571000Y-127840000D02*
X122571000Y-128870000D01*
X122571000Y-125130000D02*
X122571000Y-126160000D01*
X122531000Y-127840000D02*
X122531000Y-128889000D01*
X122531000Y-125111000D02*
X122531000Y-126160000D01*
X122491000Y-127840000D02*
X122491000Y-128907000D01*
X122491000Y-125093000D02*
X122491000Y-126160000D01*
X122451000Y-127840000D02*
X122451000Y-128924000D01*
X122451000Y-125076000D02*
X122451000Y-126160000D01*
X122411000Y-127840000D02*
X122411000Y-128940000D01*
X122411000Y-125060000D02*
X122411000Y-126160000D01*
X122371000Y-127840000D02*
X122371000Y-128954000D01*
X122371000Y-125046000D02*
X122371000Y-126160000D01*
X122330000Y-127840000D02*
X122330000Y-128968000D01*
X122330000Y-125032000D02*
X122330000Y-126160000D01*
X122290000Y-127840000D02*
X122290000Y-128982000D01*
X122290000Y-125018000D02*
X122290000Y-126160000D01*
X122250000Y-127840000D02*
X122250000Y-128994000D01*
X122250000Y-125006000D02*
X122250000Y-126160000D01*
X122210000Y-127840000D02*
X122210000Y-129005000D01*
X122210000Y-124995000D02*
X122210000Y-126160000D01*
X122170000Y-127840000D02*
X122170000Y-129016000D01*
X122170000Y-124984000D02*
X122170000Y-126160000D01*
X122130000Y-127840000D02*
X122130000Y-129025000D01*
X122130000Y-124975000D02*
X122130000Y-126160000D01*
X122090000Y-127840000D02*
X122090000Y-129034000D01*
X122090000Y-124966000D02*
X122090000Y-126160000D01*
X122050000Y-127840000D02*
X122050000Y-129042000D01*
X122050000Y-124958000D02*
X122050000Y-126160000D01*
X122010000Y-127840000D02*
X122010000Y-129050000D01*
X122010000Y-124950000D02*
X122010000Y-126160000D01*
X121970000Y-127840000D02*
X121970000Y-129056000D01*
X121970000Y-124944000D02*
X121970000Y-126160000D01*
X121930000Y-127840000D02*
X121930000Y-129062000D01*
X121930000Y-124938000D02*
X121930000Y-126160000D01*
X121890000Y-127840000D02*
X121890000Y-129067000D01*
X121890000Y-124933000D02*
X121890000Y-126160000D01*
X121850000Y-127840000D02*
X121850000Y-129071000D01*
X121850000Y-124929000D02*
X121850000Y-126160000D01*
X121810000Y-124926000D02*
X121810000Y-129074000D01*
X121770000Y-124923000D02*
X121770000Y-129077000D01*
X121730000Y-124921000D02*
X121730000Y-129079000D01*
X121690000Y-124920000D02*
X121690000Y-129080000D01*
X121650000Y-124920000D02*
X121650000Y-129080000D01*
X123770000Y-127000000D02*
G75*
G03*
X123770000Y-127000000I-2120000J0D01*
G01*
%TO.C,RA106*%
X136020000Y-68580000D02*
X133220000Y-68580000D01*
X136020000Y-89070000D02*
X136020000Y-65870000D01*
X133220000Y-89070000D02*
X136020000Y-89070000D01*
X133220000Y-65870000D02*
X133220000Y-89070000D01*
X136020000Y-65870000D02*
X133220000Y-65870000D01*
%TO.C,RA102*%
X136020000Y-44450000D02*
X133220000Y-44450000D01*
X136020000Y-64940000D02*
X136020000Y-41740000D01*
X133220000Y-64940000D02*
X136020000Y-64940000D01*
X133220000Y-41740000D02*
X133220000Y-64940000D01*
X136020000Y-41740000D02*
X133220000Y-41740000D01*
%TO.C,RA101*%
X161420000Y-46990000D02*
X158620000Y-46990000D01*
X161420000Y-67480000D02*
X161420000Y-44280000D01*
X158620000Y-67480000D02*
X161420000Y-67480000D01*
X158620000Y-44280000D02*
X158620000Y-67480000D01*
X161420000Y-44280000D02*
X158620000Y-44280000D01*
%TO.C,RA3*%
X139830000Y-68580000D02*
X137030000Y-68580000D01*
X139830000Y-89070000D02*
X139830000Y-65870000D01*
X137030000Y-89070000D02*
X139830000Y-89070000D01*
X137030000Y-65870000D02*
X137030000Y-89070000D01*
X139830000Y-65870000D02*
X137030000Y-65870000D01*
%TO.C,RA2*%
X132210000Y-113030000D02*
X129410000Y-113030000D01*
X132210000Y-133520000D02*
X132210000Y-110320000D01*
X129410000Y-133520000D02*
X132210000Y-133520000D01*
X129410000Y-110320000D02*
X129410000Y-133520000D01*
X132210000Y-110320000D02*
X129410000Y-110320000D01*
%TO.C,RA1*%
X136020000Y-113030000D02*
X133220000Y-113030000D01*
X136020000Y-133520000D02*
X136020000Y-110320000D01*
X133220000Y-133520000D02*
X136020000Y-133520000D01*
X133220000Y-110320000D02*
X133220000Y-133520000D01*
X136020000Y-110320000D02*
X133220000Y-110320000D01*
%TO.C,LSI101*%
X192750000Y-53280000D02*
X187690000Y-53280000D01*
X192750000Y-104200000D02*
X192750000Y-53280000D01*
X180630000Y-104200000D02*
X192750000Y-104200000D01*
X180630000Y-53280000D02*
X180630000Y-104200000D01*
X185690000Y-53280000D02*
X180630000Y-53280000D01*
X187690000Y-53280000D02*
G75*
G02*
X185690000Y-53280000I-1000000J0D01*
G01*
%TO.C,JCNB103*%
X119380000Y-58360000D02*
X120490000Y-58360000D01*
X120490000Y-58360000D02*
X120490000Y-59690000D01*
X106750000Y-58360000D02*
X106750000Y-121980000D01*
X106750000Y-121980000D02*
X115380000Y-121980000D01*
X115380000Y-58360000D02*
X115380000Y-121980000D01*
X106750000Y-58360000D02*
X115380000Y-58360000D01*
X106750000Y-119380000D02*
X115380000Y-119380000D01*
X106750000Y-116840000D02*
X115380000Y-116840000D01*
X106750000Y-114300000D02*
X115380000Y-114300000D01*
X106750000Y-111760000D02*
X115380000Y-111760000D01*
X106750000Y-109220000D02*
X115380000Y-109220000D01*
X106750000Y-106680000D02*
X115380000Y-106680000D01*
X106750000Y-104140000D02*
X115380000Y-104140000D01*
X106750000Y-101600000D02*
X115380000Y-101600000D01*
X106750000Y-99060000D02*
X115380000Y-99060000D01*
X106750000Y-96520000D02*
X115380000Y-96520000D01*
X106750000Y-93980000D02*
X115380000Y-93980000D01*
X106750000Y-91440000D02*
X115380000Y-91440000D01*
X106750000Y-88900000D02*
X115380000Y-88900000D01*
X106750000Y-86360000D02*
X115380000Y-86360000D01*
X106750000Y-83820000D02*
X115380000Y-83820000D01*
X106750000Y-81280000D02*
X115380000Y-81280000D01*
X106750000Y-78740000D02*
X115380000Y-78740000D01*
X106750000Y-76200000D02*
X115380000Y-76200000D01*
X106750000Y-73660000D02*
X115380000Y-73660000D01*
X106750000Y-71120000D02*
X115380000Y-71120000D01*
X106750000Y-68580000D02*
X115380000Y-68580000D01*
X106750000Y-66040000D02*
X115380000Y-66040000D01*
X106750000Y-63500000D02*
X115380000Y-63500000D01*
X106750000Y-60960000D02*
X115380000Y-60960000D01*
X117890000Y-121010000D02*
X118330000Y-121010000D01*
X115380000Y-121010000D02*
X115790000Y-121010000D01*
X117890000Y-120290000D02*
X118330000Y-120290000D01*
X115380000Y-120290000D02*
X115790000Y-120290000D01*
X117890000Y-118470000D02*
X118330000Y-118470000D01*
X115380000Y-118470000D02*
X115790000Y-118470000D01*
X117890000Y-117750000D02*
X118330000Y-117750000D01*
X115380000Y-117750000D02*
X115790000Y-117750000D01*
X117890000Y-115930000D02*
X118330000Y-115930000D01*
X115380000Y-115930000D02*
X115790000Y-115930000D01*
X117890000Y-115210000D02*
X118330000Y-115210000D01*
X115380000Y-115210000D02*
X115790000Y-115210000D01*
X117890000Y-113390000D02*
X118330000Y-113390000D01*
X115380000Y-113390000D02*
X115790000Y-113390000D01*
X117890000Y-112670000D02*
X118330000Y-112670000D01*
X115380000Y-112670000D02*
X115790000Y-112670000D01*
X117890000Y-110850000D02*
X118330000Y-110850000D01*
X115380000Y-110850000D02*
X115790000Y-110850000D01*
X117890000Y-110130000D02*
X118330000Y-110130000D01*
X115380000Y-110130000D02*
X115790000Y-110130000D01*
X117890000Y-108310000D02*
X118330000Y-108310000D01*
X115380000Y-108310000D02*
X115790000Y-108310000D01*
X117890000Y-107590000D02*
X118330000Y-107590000D01*
X115380000Y-107590000D02*
X115790000Y-107590000D01*
X117890000Y-105770000D02*
X118330000Y-105770000D01*
X115380000Y-105770000D02*
X115790000Y-105770000D01*
X117890000Y-105050000D02*
X118330000Y-105050000D01*
X115380000Y-105050000D02*
X115790000Y-105050000D01*
X117890000Y-103230000D02*
X118330000Y-103230000D01*
X115380000Y-103230000D02*
X115790000Y-103230000D01*
X117890000Y-102510000D02*
X118330000Y-102510000D01*
X115380000Y-102510000D02*
X115790000Y-102510000D01*
X117890000Y-100690000D02*
X118330000Y-100690000D01*
X115380000Y-100690000D02*
X115790000Y-100690000D01*
X117890000Y-99970000D02*
X118330000Y-99970000D01*
X115380000Y-99970000D02*
X115790000Y-99970000D01*
X117890000Y-98150000D02*
X118330000Y-98150000D01*
X115380000Y-98150000D02*
X115790000Y-98150000D01*
X117890000Y-97430000D02*
X118330000Y-97430000D01*
X115380000Y-97430000D02*
X115790000Y-97430000D01*
X117890000Y-95610000D02*
X118330000Y-95610000D01*
X115380000Y-95610000D02*
X115790000Y-95610000D01*
X117890000Y-94890000D02*
X118330000Y-94890000D01*
X115380000Y-94890000D02*
X115790000Y-94890000D01*
X117890000Y-93070000D02*
X118330000Y-93070000D01*
X115380000Y-93070000D02*
X115790000Y-93070000D01*
X117890000Y-92350000D02*
X118330000Y-92350000D01*
X115380000Y-92350000D02*
X115790000Y-92350000D01*
X117890000Y-90530000D02*
X118330000Y-90530000D01*
X115380000Y-90530000D02*
X115790000Y-90530000D01*
X117890000Y-89810000D02*
X118330000Y-89810000D01*
X115380000Y-89810000D02*
X115790000Y-89810000D01*
X117890000Y-87990000D02*
X118330000Y-87990000D01*
X115380000Y-87990000D02*
X115790000Y-87990000D01*
X117890000Y-87270000D02*
X118330000Y-87270000D01*
X115380000Y-87270000D02*
X115790000Y-87270000D01*
X117890000Y-85450000D02*
X118330000Y-85450000D01*
X115380000Y-85450000D02*
X115790000Y-85450000D01*
X117890000Y-84730000D02*
X118330000Y-84730000D01*
X115380000Y-84730000D02*
X115790000Y-84730000D01*
X117890000Y-82910000D02*
X118330000Y-82910000D01*
X115380000Y-82910000D02*
X115790000Y-82910000D01*
X117890000Y-82190000D02*
X118330000Y-82190000D01*
X115380000Y-82190000D02*
X115790000Y-82190000D01*
X117890000Y-80370000D02*
X118330000Y-80370000D01*
X115380000Y-80370000D02*
X115790000Y-80370000D01*
X117890000Y-79650000D02*
X118330000Y-79650000D01*
X115380000Y-79650000D02*
X115790000Y-79650000D01*
X117890000Y-77830000D02*
X118330000Y-77830000D01*
X115380000Y-77830000D02*
X115790000Y-77830000D01*
X117890000Y-77110000D02*
X118330000Y-77110000D01*
X115380000Y-77110000D02*
X115790000Y-77110000D01*
X117890000Y-75290000D02*
X118330000Y-75290000D01*
X115380000Y-75290000D02*
X115790000Y-75290000D01*
X117890000Y-74570000D02*
X118330000Y-74570000D01*
X115380000Y-74570000D02*
X115790000Y-74570000D01*
X117890000Y-72750000D02*
X118330000Y-72750000D01*
X115380000Y-72750000D02*
X115790000Y-72750000D01*
X117890000Y-72030000D02*
X118330000Y-72030000D01*
X115380000Y-72030000D02*
X115790000Y-72030000D01*
X117890000Y-70210000D02*
X118330000Y-70210000D01*
X115380000Y-70210000D02*
X115790000Y-70210000D01*
X117890000Y-69490000D02*
X118330000Y-69490000D01*
X115380000Y-69490000D02*
X115790000Y-69490000D01*
X117890000Y-67670000D02*
X118330000Y-67670000D01*
X115380000Y-67670000D02*
X115790000Y-67670000D01*
X117890000Y-66950000D02*
X118330000Y-66950000D01*
X115380000Y-66950000D02*
X115790000Y-66950000D01*
X117890000Y-65130000D02*
X118330000Y-65130000D01*
X115380000Y-65130000D02*
X115790000Y-65130000D01*
X117890000Y-64410000D02*
X118330000Y-64410000D01*
X115380000Y-64410000D02*
X115790000Y-64410000D01*
X117890000Y-62590000D02*
X118330000Y-62590000D01*
X115380000Y-62590000D02*
X115790000Y-62590000D01*
X117890000Y-61870000D02*
X118330000Y-61870000D01*
X115380000Y-61870000D02*
X115790000Y-61870000D01*
X117890000Y-60050000D02*
X118270000Y-60050000D01*
X115380000Y-60050000D02*
X115790000Y-60050000D01*
X117890000Y-59330000D02*
X118270000Y-59330000D01*
X115380000Y-59330000D02*
X115790000Y-59330000D01*
X106750000Y-60841900D02*
X115380000Y-60841900D01*
X106750000Y-60723805D02*
X115380000Y-60723805D01*
X106750000Y-60605710D02*
X115380000Y-60605710D01*
X106750000Y-60487615D02*
X115380000Y-60487615D01*
X106750000Y-60369520D02*
X115380000Y-60369520D01*
X106750000Y-60251425D02*
X115380000Y-60251425D01*
X106750000Y-60133330D02*
X115380000Y-60133330D01*
X106750000Y-60015235D02*
X115380000Y-60015235D01*
X106750000Y-59897140D02*
X115380000Y-59897140D01*
X106750000Y-59779045D02*
X115380000Y-59779045D01*
X106750000Y-59660950D02*
X115380000Y-59660950D01*
X106750000Y-59542855D02*
X115380000Y-59542855D01*
X106750000Y-59424760D02*
X115380000Y-59424760D01*
X106750000Y-59306665D02*
X115380000Y-59306665D01*
X106750000Y-59188570D02*
X115380000Y-59188570D01*
X106750000Y-59070475D02*
X115380000Y-59070475D01*
X106750000Y-58952380D02*
X115380000Y-58952380D01*
X106750000Y-58834285D02*
X115380000Y-58834285D01*
X106750000Y-58716190D02*
X115380000Y-58716190D01*
X106750000Y-58598095D02*
X115380000Y-58598095D01*
X106750000Y-58480000D02*
X115380000Y-58480000D01*
%TO.C,IC119*%
X187670000Y-111700000D02*
X186420000Y-111700000D01*
X187670000Y-129600000D02*
X187670000Y-111700000D01*
X183170000Y-129600000D02*
X187670000Y-129600000D01*
X183170000Y-111700000D02*
X183170000Y-129600000D01*
X184420000Y-111700000D02*
X183170000Y-111700000D01*
X186420000Y-111700000D02*
G75*
G02*
X184420000Y-111700000I-1000000J0D01*
G01*
%TO.C,IC117*%
X203140000Y-95540000D02*
X203140000Y-96790000D01*
X221040000Y-95540000D02*
X203140000Y-95540000D01*
X221040000Y-100040000D02*
X221040000Y-95540000D01*
X203140000Y-100040000D02*
X221040000Y-100040000D01*
X203140000Y-98790000D02*
X203140000Y-100040000D01*
X203140000Y-96790000D02*
G75*
G02*
X203140000Y-98790000I0J-1000000D01*
G01*
%TO.C,IC113*%
X152340000Y-96810000D02*
X152340000Y-98060000D01*
X170240000Y-96810000D02*
X152340000Y-96810000D01*
X170240000Y-101310000D02*
X170240000Y-96810000D01*
X152340000Y-101310000D02*
X170240000Y-101310000D01*
X152340000Y-100060000D02*
X152340000Y-101310000D01*
X152340000Y-98060000D02*
G75*
G02*
X152340000Y-100060000I0J-1000000D01*
G01*
%TO.C,IC112*%
X243550000Y-111700000D02*
X242300000Y-111700000D01*
X243550000Y-129600000D02*
X243550000Y-111700000D01*
X239050000Y-129600000D02*
X243550000Y-129600000D01*
X239050000Y-111700000D02*
X239050000Y-129600000D01*
X240300000Y-111700000D02*
X239050000Y-111700000D01*
X242300000Y-111700000D02*
G75*
G02*
X240300000Y-111700000I-1000000J0D01*
G01*
%TO.C,IC110*%
X130750000Y-96810000D02*
X130750000Y-98060000D01*
X148650000Y-96810000D02*
X130750000Y-96810000D01*
X148650000Y-101310000D02*
X148650000Y-96810000D01*
X130750000Y-101310000D02*
X148650000Y-101310000D01*
X130750000Y-100060000D02*
X130750000Y-101310000D01*
X130750000Y-98060000D02*
G75*
G02*
X130750000Y-100060000I0J-1000000D01*
G01*
%TO.C,IC107*%
X154650000Y-41850000D02*
X153400000Y-41850000D01*
X154650000Y-67370000D02*
X154650000Y-41850000D01*
X150150000Y-67370000D02*
X154650000Y-67370000D01*
X150150000Y-41850000D02*
X150150000Y-67370000D01*
X151400000Y-41850000D02*
X150150000Y-41850000D01*
X153400000Y-41850000D02*
G75*
G02*
X151400000Y-41850000I-1000000J0D01*
G01*
%TO.C,IC106*%
X168620000Y-109160000D02*
X167370000Y-109160000D01*
X168620000Y-129600000D02*
X168620000Y-109160000D01*
X164120000Y-129600000D02*
X168620000Y-129600000D01*
X164120000Y-109160000D02*
X164120000Y-129600000D01*
X165370000Y-109160000D02*
X164120000Y-109160000D01*
X167370000Y-109160000D02*
G75*
G02*
X165370000Y-109160000I-1000000J0D01*
G01*
%TO.C,IC103*%
X223460000Y-95540000D02*
X223460000Y-96790000D01*
X241360000Y-95540000D02*
X223460000Y-95540000D01*
X241360000Y-100040000D02*
X241360000Y-95540000D01*
X223460000Y-100040000D02*
X241360000Y-100040000D01*
X223460000Y-98790000D02*
X223460000Y-100040000D01*
X223460000Y-96790000D02*
G75*
G02*
X223460000Y-98790000I0J-1000000D01*
G01*
%TO.C,R4*%
D11*
X255103333Y-139982380D02*
X254770000Y-139506190D01*
X254531904Y-139982380D02*
X254531904Y-138982380D01*
X254912857Y-138982380D01*
X255008095Y-139030000D01*
X255055714Y-139077619D01*
X255103333Y-139172857D01*
X255103333Y-139315714D01*
X255055714Y-139410952D01*
X255008095Y-139458571D01*
X254912857Y-139506190D01*
X254531904Y-139506190D01*
X255960476Y-139315714D02*
X255960476Y-139982380D01*
X255722380Y-138934761D02*
X255484285Y-139649047D01*
X256103333Y-139649047D01*
%TO.C,R3*%
X258913333Y-136172380D02*
X258580000Y-135696190D01*
X258341904Y-136172380D02*
X258341904Y-135172380D01*
X258722857Y-135172380D01*
X258818095Y-135220000D01*
X258865714Y-135267619D01*
X258913333Y-135362857D01*
X258913333Y-135505714D01*
X258865714Y-135600952D01*
X258818095Y-135648571D01*
X258722857Y-135696190D01*
X258341904Y-135696190D01*
X259246666Y-135172380D02*
X259865714Y-135172380D01*
X259532380Y-135553333D01*
X259675238Y-135553333D01*
X259770476Y-135600952D01*
X259818095Y-135648571D01*
X259865714Y-135743809D01*
X259865714Y-135981904D01*
X259818095Y-136077142D01*
X259770476Y-136124761D01*
X259675238Y-136172380D01*
X259389523Y-136172380D01*
X259294285Y-136124761D01*
X259246666Y-136077142D01*
%TO.C,R2*%
X239863333Y-42532380D02*
X239530000Y-42056190D01*
X239291904Y-42532380D02*
X239291904Y-41532380D01*
X239672857Y-41532380D01*
X239768095Y-41580000D01*
X239815714Y-41627619D01*
X239863333Y-41722857D01*
X239863333Y-41865714D01*
X239815714Y-41960952D01*
X239768095Y-42008571D01*
X239672857Y-42056190D01*
X239291904Y-42056190D01*
X240244285Y-41627619D02*
X240291904Y-41580000D01*
X240387142Y-41532380D01*
X240625238Y-41532380D01*
X240720476Y-41580000D01*
X240768095Y-41627619D01*
X240815714Y-41722857D01*
X240815714Y-41818095D01*
X240768095Y-41960952D01*
X240196666Y-42532380D01*
X240815714Y-42532380D01*
%TO.C,R1*%
X239863333Y-38722380D02*
X239530000Y-38246190D01*
X239291904Y-38722380D02*
X239291904Y-37722380D01*
X239672857Y-37722380D01*
X239768095Y-37770000D01*
X239815714Y-37817619D01*
X239863333Y-37912857D01*
X239863333Y-38055714D01*
X239815714Y-38150952D01*
X239768095Y-38198571D01*
X239672857Y-38246190D01*
X239291904Y-38246190D01*
X240815714Y-38722380D02*
X240244285Y-38722380D01*
X240530000Y-38722380D02*
X240530000Y-37722380D01*
X240434761Y-37865238D01*
X240339523Y-37960476D01*
X240244285Y-38008095D01*
%TO.C,C7*%
X264013333Y-139767142D02*
X263965714Y-139814761D01*
X263822857Y-139862380D01*
X263727619Y-139862380D01*
X263584761Y-139814761D01*
X263489523Y-139719523D01*
X263441904Y-139624285D01*
X263394285Y-139433809D01*
X263394285Y-139290952D01*
X263441904Y-139100476D01*
X263489523Y-139005238D01*
X263584761Y-138910000D01*
X263727619Y-138862380D01*
X263822857Y-138862380D01*
X263965714Y-138910000D01*
X264013333Y-138957619D01*
X264346666Y-138862380D02*
X265013333Y-138862380D01*
X264584761Y-139862380D01*
%TO.C,C6*%
X230953333Y-42557142D02*
X230905714Y-42604761D01*
X230762857Y-42652380D01*
X230667619Y-42652380D01*
X230524761Y-42604761D01*
X230429523Y-42509523D01*
X230381904Y-42414285D01*
X230334285Y-42223809D01*
X230334285Y-42080952D01*
X230381904Y-41890476D01*
X230429523Y-41795238D01*
X230524761Y-41700000D01*
X230667619Y-41652380D01*
X230762857Y-41652380D01*
X230905714Y-41700000D01*
X230953333Y-41747619D01*
X231810476Y-41652380D02*
X231620000Y-41652380D01*
X231524761Y-41700000D01*
X231477142Y-41747619D01*
X231381904Y-41890476D01*
X231334285Y-42080952D01*
X231334285Y-42461904D01*
X231381904Y-42557142D01*
X231429523Y-42604761D01*
X231524761Y-42652380D01*
X231715238Y-42652380D01*
X231810476Y-42604761D01*
X231858095Y-42557142D01*
X231905714Y-42461904D01*
X231905714Y-42223809D01*
X231858095Y-42128571D01*
X231810476Y-42080952D01*
X231715238Y-42033333D01*
X231524761Y-42033333D01*
X231429523Y-42080952D01*
X231381904Y-42128571D01*
X231334285Y-42223809D01*
%TO.C,C5*%
X264013333Y-105477142D02*
X263965714Y-105524761D01*
X263822857Y-105572380D01*
X263727619Y-105572380D01*
X263584761Y-105524761D01*
X263489523Y-105429523D01*
X263441904Y-105334285D01*
X263394285Y-105143809D01*
X263394285Y-105000952D01*
X263441904Y-104810476D01*
X263489523Y-104715238D01*
X263584761Y-104620000D01*
X263727619Y-104572380D01*
X263822857Y-104572380D01*
X263965714Y-104620000D01*
X264013333Y-104667619D01*
X264918095Y-104572380D02*
X264441904Y-104572380D01*
X264394285Y-105048571D01*
X264441904Y-105000952D01*
X264537142Y-104953333D01*
X264775238Y-104953333D01*
X264870476Y-105000952D01*
X264918095Y-105048571D01*
X264965714Y-105143809D01*
X264965714Y-105381904D01*
X264918095Y-105477142D01*
X264870476Y-105524761D01*
X264775238Y-105572380D01*
X264537142Y-105572380D01*
X264441904Y-105524761D01*
X264394285Y-105477142D01*
%TO.C,C4*%
X230953333Y-38747142D02*
X230905714Y-38794761D01*
X230762857Y-38842380D01*
X230667619Y-38842380D01*
X230524761Y-38794761D01*
X230429523Y-38699523D01*
X230381904Y-38604285D01*
X230334285Y-38413809D01*
X230334285Y-38270952D01*
X230381904Y-38080476D01*
X230429523Y-37985238D01*
X230524761Y-37890000D01*
X230667619Y-37842380D01*
X230762857Y-37842380D01*
X230905714Y-37890000D01*
X230953333Y-37937619D01*
X231810476Y-38175714D02*
X231810476Y-38842380D01*
X231572380Y-37794761D02*
X231334285Y-38509047D01*
X231953333Y-38509047D01*
%TO.C,U4*%
X258318095Y-124122380D02*
X258318095Y-124931904D01*
X258365714Y-125027142D01*
X258413333Y-125074761D01*
X258508571Y-125122380D01*
X258699047Y-125122380D01*
X258794285Y-125074761D01*
X258841904Y-125027142D01*
X258889523Y-124931904D01*
X258889523Y-124122380D01*
X259794285Y-124455714D02*
X259794285Y-125122380D01*
X259556190Y-124074761D02*
X259318095Y-124789047D01*
X259937142Y-124789047D01*
%TO.C,U3*%
X258318095Y-117772380D02*
X258318095Y-118581904D01*
X258365714Y-118677142D01*
X258413333Y-118724761D01*
X258508571Y-118772380D01*
X258699047Y-118772380D01*
X258794285Y-118724761D01*
X258841904Y-118677142D01*
X258889523Y-118581904D01*
X258889523Y-117772380D01*
X259270476Y-117772380D02*
X259889523Y-117772380D01*
X259556190Y-118153333D01*
X259699047Y-118153333D01*
X259794285Y-118200952D01*
X259841904Y-118248571D01*
X259889523Y-118343809D01*
X259889523Y-118581904D01*
X259841904Y-118677142D01*
X259794285Y-118724761D01*
X259699047Y-118772380D01*
X259413333Y-118772380D01*
X259318095Y-118724761D01*
X259270476Y-118677142D01*
%TO.C,U2*%
X258318095Y-111422380D02*
X258318095Y-112231904D01*
X258365714Y-112327142D01*
X258413333Y-112374761D01*
X258508571Y-112422380D01*
X258699047Y-112422380D01*
X258794285Y-112374761D01*
X258841904Y-112327142D01*
X258889523Y-112231904D01*
X258889523Y-111422380D01*
X259318095Y-111517619D02*
X259365714Y-111470000D01*
X259460952Y-111422380D01*
X259699047Y-111422380D01*
X259794285Y-111470000D01*
X259841904Y-111517619D01*
X259889523Y-111612857D01*
X259889523Y-111708095D01*
X259841904Y-111850952D01*
X259270476Y-112422380D01*
X259889523Y-112422380D01*
%TO.C,J2*%
X261286666Y-101282380D02*
X261286666Y-101996666D01*
X261239047Y-102139523D01*
X261143809Y-102234761D01*
X261000952Y-102282380D01*
X260905714Y-102282380D01*
X261715238Y-101377619D02*
X261762857Y-101330000D01*
X261858095Y-101282380D01*
X262096190Y-101282380D01*
X262191428Y-101330000D01*
X262239047Y-101377619D01*
X262286666Y-101472857D01*
X262286666Y-101568095D01*
X262239047Y-101710952D01*
X261667619Y-102282380D01*
X262286666Y-102282380D01*
%TO.C,U5*%
X258318095Y-105072380D02*
X258318095Y-105881904D01*
X258365714Y-105977142D01*
X258413333Y-106024761D01*
X258508571Y-106072380D01*
X258699047Y-106072380D01*
X258794285Y-106024761D01*
X258841904Y-105977142D01*
X258889523Y-105881904D01*
X258889523Y-105072380D01*
X259841904Y-105072380D02*
X259365714Y-105072380D01*
X259318095Y-105548571D01*
X259365714Y-105500952D01*
X259460952Y-105453333D01*
X259699047Y-105453333D01*
X259794285Y-105500952D01*
X259841904Y-105548571D01*
X259889523Y-105643809D01*
X259889523Y-105881904D01*
X259841904Y-105977142D01*
X259794285Y-106024761D01*
X259699047Y-106072380D01*
X259460952Y-106072380D01*
X259365714Y-106024761D01*
X259318095Y-105977142D01*
%TO.C,IC105*%
X212701428Y-111152380D02*
X212701428Y-110152380D01*
X213749047Y-111057142D02*
X213701428Y-111104761D01*
X213558571Y-111152380D01*
X213463333Y-111152380D01*
X213320476Y-111104761D01*
X213225238Y-111009523D01*
X213177619Y-110914285D01*
X213130000Y-110723809D01*
X213130000Y-110580952D01*
X213177619Y-110390476D01*
X213225238Y-110295238D01*
X213320476Y-110200000D01*
X213463333Y-110152380D01*
X213558571Y-110152380D01*
X213701428Y-110200000D01*
X213749047Y-110247619D01*
X214701428Y-111152380D02*
X214130000Y-111152380D01*
X214415714Y-111152380D02*
X214415714Y-110152380D01*
X214320476Y-110295238D01*
X214225238Y-110390476D01*
X214130000Y-110438095D01*
X215320476Y-110152380D02*
X215415714Y-110152380D01*
X215510952Y-110200000D01*
X215558571Y-110247619D01*
X215606190Y-110342857D01*
X215653809Y-110533333D01*
X215653809Y-110771428D01*
X215606190Y-110961904D01*
X215558571Y-111057142D01*
X215510952Y-111104761D01*
X215415714Y-111152380D01*
X215320476Y-111152380D01*
X215225238Y-111104761D01*
X215177619Y-111057142D01*
X215130000Y-110961904D01*
X215082380Y-110771428D01*
X215082380Y-110533333D01*
X215130000Y-110342857D01*
X215177619Y-110247619D01*
X215225238Y-110200000D01*
X215320476Y-110152380D01*
X216558571Y-110152380D02*
X216082380Y-110152380D01*
X216034761Y-110628571D01*
X216082380Y-110580952D01*
X216177619Y-110533333D01*
X216415714Y-110533333D01*
X216510952Y-110580952D01*
X216558571Y-110628571D01*
X216606190Y-110723809D01*
X216606190Y-110961904D01*
X216558571Y-111057142D01*
X216510952Y-111104761D01*
X216415714Y-111152380D01*
X216177619Y-111152380D01*
X216082380Y-111104761D01*
X216034761Y-111057142D01*
%TO.C,IC10*%
X211907619Y-54002380D02*
X211907619Y-53002380D01*
X212955238Y-53907142D02*
X212907619Y-53954761D01*
X212764761Y-54002380D01*
X212669523Y-54002380D01*
X212526666Y-53954761D01*
X212431428Y-53859523D01*
X212383809Y-53764285D01*
X212336190Y-53573809D01*
X212336190Y-53430952D01*
X212383809Y-53240476D01*
X212431428Y-53145238D01*
X212526666Y-53050000D01*
X212669523Y-53002380D01*
X212764761Y-53002380D01*
X212907619Y-53050000D01*
X212955238Y-53097619D01*
X213907619Y-54002380D02*
X213336190Y-54002380D01*
X213621904Y-54002380D02*
X213621904Y-53002380D01*
X213526666Y-53145238D01*
X213431428Y-53240476D01*
X213336190Y-53288095D01*
X214526666Y-53002380D02*
X214621904Y-53002380D01*
X214717142Y-53050000D01*
X214764761Y-53097619D01*
X214812380Y-53192857D01*
X214860000Y-53383333D01*
X214860000Y-53621428D01*
X214812380Y-53811904D01*
X214764761Y-53907142D01*
X214717142Y-53954761D01*
X214621904Y-54002380D01*
X214526666Y-54002380D01*
X214431428Y-53954761D01*
X214383809Y-53907142D01*
X214336190Y-53811904D01*
X214288571Y-53621428D01*
X214288571Y-53383333D01*
X214336190Y-53192857D01*
X214383809Y-53097619D01*
X214431428Y-53050000D01*
X214526666Y-53002380D01*
%TO.C,J1*%
X262556666Y-39862380D02*
X262556666Y-40576666D01*
X262509047Y-40719523D01*
X262413809Y-40814761D01*
X262270952Y-40862380D01*
X262175714Y-40862380D01*
X263556666Y-40862380D02*
X262985238Y-40862380D01*
X263270952Y-40862380D02*
X263270952Y-39862380D01*
X263175714Y-40005238D01*
X263080476Y-40100476D01*
X262985238Y-40148095D01*
%TO.C,IC109*%
X229211428Y-66702380D02*
X229211428Y-65702380D01*
X230259047Y-66607142D02*
X230211428Y-66654761D01*
X230068571Y-66702380D01*
X229973333Y-66702380D01*
X229830476Y-66654761D01*
X229735238Y-66559523D01*
X229687619Y-66464285D01*
X229640000Y-66273809D01*
X229640000Y-66130952D01*
X229687619Y-65940476D01*
X229735238Y-65845238D01*
X229830476Y-65750000D01*
X229973333Y-65702380D01*
X230068571Y-65702380D01*
X230211428Y-65750000D01*
X230259047Y-65797619D01*
X231211428Y-66702380D02*
X230640000Y-66702380D01*
X230925714Y-66702380D02*
X230925714Y-65702380D01*
X230830476Y-65845238D01*
X230735238Y-65940476D01*
X230640000Y-65988095D01*
X231830476Y-65702380D02*
X231925714Y-65702380D01*
X232020952Y-65750000D01*
X232068571Y-65797619D01*
X232116190Y-65892857D01*
X232163809Y-66083333D01*
X232163809Y-66321428D01*
X232116190Y-66511904D01*
X232068571Y-66607142D01*
X232020952Y-66654761D01*
X231925714Y-66702380D01*
X231830476Y-66702380D01*
X231735238Y-66654761D01*
X231687619Y-66607142D01*
X231640000Y-66511904D01*
X231592380Y-66321428D01*
X231592380Y-66083333D01*
X231640000Y-65892857D01*
X231687619Y-65797619D01*
X231735238Y-65750000D01*
X231830476Y-65702380D01*
X232640000Y-66702380D02*
X232830476Y-66702380D01*
X232925714Y-66654761D01*
X232973333Y-66607142D01*
X233068571Y-66464285D01*
X233116190Y-66273809D01*
X233116190Y-65892857D01*
X233068571Y-65797619D01*
X233020952Y-65750000D01*
X232925714Y-65702380D01*
X232735238Y-65702380D01*
X232640000Y-65750000D01*
X232592380Y-65797619D01*
X232544761Y-65892857D01*
X232544761Y-66130952D01*
X232592380Y-66226190D01*
X232640000Y-66273809D01*
X232735238Y-66321428D01*
X232925714Y-66321428D01*
X233020952Y-66273809D01*
X233068571Y-66226190D01*
X233116190Y-66130952D01*
%TO.C,IC102*%
X229211428Y-46382380D02*
X229211428Y-45382380D01*
X230259047Y-46287142D02*
X230211428Y-46334761D01*
X230068571Y-46382380D01*
X229973333Y-46382380D01*
X229830476Y-46334761D01*
X229735238Y-46239523D01*
X229687619Y-46144285D01*
X229640000Y-45953809D01*
X229640000Y-45810952D01*
X229687619Y-45620476D01*
X229735238Y-45525238D01*
X229830476Y-45430000D01*
X229973333Y-45382380D01*
X230068571Y-45382380D01*
X230211428Y-45430000D01*
X230259047Y-45477619D01*
X231211428Y-46382380D02*
X230640000Y-46382380D01*
X230925714Y-46382380D02*
X230925714Y-45382380D01*
X230830476Y-45525238D01*
X230735238Y-45620476D01*
X230640000Y-45668095D01*
X231830476Y-45382380D02*
X231925714Y-45382380D01*
X232020952Y-45430000D01*
X232068571Y-45477619D01*
X232116190Y-45572857D01*
X232163809Y-45763333D01*
X232163809Y-46001428D01*
X232116190Y-46191904D01*
X232068571Y-46287142D01*
X232020952Y-46334761D01*
X231925714Y-46382380D01*
X231830476Y-46382380D01*
X231735238Y-46334761D01*
X231687619Y-46287142D01*
X231640000Y-46191904D01*
X231592380Y-46001428D01*
X231592380Y-45763333D01*
X231640000Y-45572857D01*
X231687619Y-45477619D01*
X231735238Y-45430000D01*
X231830476Y-45382380D01*
X232544761Y-45477619D02*
X232592380Y-45430000D01*
X232687619Y-45382380D01*
X232925714Y-45382380D01*
X233020952Y-45430000D01*
X233068571Y-45477619D01*
X233116190Y-45572857D01*
X233116190Y-45668095D01*
X233068571Y-45810952D01*
X232497142Y-46382380D01*
X233116190Y-46382380D01*
%TO.C,IC108*%
X198731428Y-108612380D02*
X198731428Y-107612380D01*
X199779047Y-108517142D02*
X199731428Y-108564761D01*
X199588571Y-108612380D01*
X199493333Y-108612380D01*
X199350476Y-108564761D01*
X199255238Y-108469523D01*
X199207619Y-108374285D01*
X199160000Y-108183809D01*
X199160000Y-108040952D01*
X199207619Y-107850476D01*
X199255238Y-107755238D01*
X199350476Y-107660000D01*
X199493333Y-107612380D01*
X199588571Y-107612380D01*
X199731428Y-107660000D01*
X199779047Y-107707619D01*
X200731428Y-108612380D02*
X200160000Y-108612380D01*
X200445714Y-108612380D02*
X200445714Y-107612380D01*
X200350476Y-107755238D01*
X200255238Y-107850476D01*
X200160000Y-107898095D01*
X201350476Y-107612380D02*
X201445714Y-107612380D01*
X201540952Y-107660000D01*
X201588571Y-107707619D01*
X201636190Y-107802857D01*
X201683809Y-107993333D01*
X201683809Y-108231428D01*
X201636190Y-108421904D01*
X201588571Y-108517142D01*
X201540952Y-108564761D01*
X201445714Y-108612380D01*
X201350476Y-108612380D01*
X201255238Y-108564761D01*
X201207619Y-108517142D01*
X201160000Y-108421904D01*
X201112380Y-108231428D01*
X201112380Y-107993333D01*
X201160000Y-107802857D01*
X201207619Y-107707619D01*
X201255238Y-107660000D01*
X201350476Y-107612380D01*
X202255238Y-108040952D02*
X202160000Y-107993333D01*
X202112380Y-107945714D01*
X202064761Y-107850476D01*
X202064761Y-107802857D01*
X202112380Y-107707619D01*
X202160000Y-107660000D01*
X202255238Y-107612380D01*
X202445714Y-107612380D01*
X202540952Y-107660000D01*
X202588571Y-107707619D01*
X202636190Y-107802857D01*
X202636190Y-107850476D01*
X202588571Y-107945714D01*
X202540952Y-107993333D01*
X202445714Y-108040952D01*
X202255238Y-108040952D01*
X202160000Y-108088571D01*
X202112380Y-108136190D01*
X202064761Y-108231428D01*
X202064761Y-108421904D01*
X202112380Y-108517142D01*
X202160000Y-108564761D01*
X202255238Y-108612380D01*
X202445714Y-108612380D01*
X202540952Y-108564761D01*
X202588571Y-108517142D01*
X202636190Y-108421904D01*
X202636190Y-108231428D01*
X202588571Y-108136190D01*
X202540952Y-108088571D01*
X202445714Y-108040952D01*
%TO.C,U16*%
X148621904Y-107612380D02*
X148621904Y-108421904D01*
X148669523Y-108517142D01*
X148717142Y-108564761D01*
X148812380Y-108612380D01*
X149002857Y-108612380D01*
X149098095Y-108564761D01*
X149145714Y-108517142D01*
X149193333Y-108421904D01*
X149193333Y-107612380D01*
X150193333Y-108612380D02*
X149621904Y-108612380D01*
X149907619Y-108612380D02*
X149907619Y-107612380D01*
X149812380Y-107755238D01*
X149717142Y-107850476D01*
X149621904Y-107898095D01*
X151050476Y-107612380D02*
X150860000Y-107612380D01*
X150764761Y-107660000D01*
X150717142Y-107707619D01*
X150621904Y-107850476D01*
X150574285Y-108040952D01*
X150574285Y-108421904D01*
X150621904Y-108517142D01*
X150669523Y-108564761D01*
X150764761Y-108612380D01*
X150955238Y-108612380D01*
X151050476Y-108564761D01*
X151098095Y-108517142D01*
X151145714Y-108421904D01*
X151145714Y-108183809D01*
X151098095Y-108088571D01*
X151050476Y-108040952D01*
X150955238Y-107993333D01*
X150764761Y-107993333D01*
X150669523Y-108040952D01*
X150621904Y-108088571D01*
X150574285Y-108183809D01*
%TO.C,U1*%
X226568095Y-110152380D02*
X226568095Y-110961904D01*
X226615714Y-111057142D01*
X226663333Y-111104761D01*
X226758571Y-111152380D01*
X226949047Y-111152380D01*
X227044285Y-111104761D01*
X227091904Y-111057142D01*
X227139523Y-110961904D01*
X227139523Y-110152380D01*
X228139523Y-111152380D02*
X227568095Y-111152380D01*
X227853809Y-111152380D02*
X227853809Y-110152380D01*
X227758571Y-110295238D01*
X227663333Y-110390476D01*
X227568095Y-110438095D01*
%TO.C,IC116*%
X150471428Y-70512380D02*
X150471428Y-69512380D01*
X151519047Y-70417142D02*
X151471428Y-70464761D01*
X151328571Y-70512380D01*
X151233333Y-70512380D01*
X151090476Y-70464761D01*
X150995238Y-70369523D01*
X150947619Y-70274285D01*
X150900000Y-70083809D01*
X150900000Y-69940952D01*
X150947619Y-69750476D01*
X150995238Y-69655238D01*
X151090476Y-69560000D01*
X151233333Y-69512380D01*
X151328571Y-69512380D01*
X151471428Y-69560000D01*
X151519047Y-69607619D01*
X152471428Y-70512380D02*
X151900000Y-70512380D01*
X152185714Y-70512380D02*
X152185714Y-69512380D01*
X152090476Y-69655238D01*
X151995238Y-69750476D01*
X151900000Y-69798095D01*
X153423809Y-70512380D02*
X152852380Y-70512380D01*
X153138095Y-70512380D02*
X153138095Y-69512380D01*
X153042857Y-69655238D01*
X152947619Y-69750476D01*
X152852380Y-69798095D01*
X154280952Y-69512380D02*
X154090476Y-69512380D01*
X153995238Y-69560000D01*
X153947619Y-69607619D01*
X153852380Y-69750476D01*
X153804761Y-69940952D01*
X153804761Y-70321904D01*
X153852380Y-70417142D01*
X153900000Y-70464761D01*
X153995238Y-70512380D01*
X154185714Y-70512380D01*
X154280952Y-70464761D01*
X154328571Y-70417142D01*
X154376190Y-70321904D01*
X154376190Y-70083809D01*
X154328571Y-69988571D01*
X154280952Y-69940952D01*
X154185714Y-69893333D01*
X153995238Y-69893333D01*
X153900000Y-69940952D01*
X153852380Y-69988571D01*
X153804761Y-70083809D01*
%TO.C,RN1*%
X251772380Y-52760476D02*
X251296190Y-53093809D01*
X251772380Y-53331904D02*
X250772380Y-53331904D01*
X250772380Y-52950952D01*
X250820000Y-52855714D01*
X250867619Y-52808095D01*
X250962857Y-52760476D01*
X251105714Y-52760476D01*
X251200952Y-52808095D01*
X251248571Y-52855714D01*
X251296190Y-52950952D01*
X251296190Y-53331904D01*
X251772380Y-52331904D02*
X250772380Y-52331904D01*
X251772380Y-51760476D01*
X250772380Y-51760476D01*
X251772380Y-50760476D02*
X251772380Y-51331904D01*
X251772380Y-51046190D02*
X250772380Y-51046190D01*
X250915238Y-51141428D01*
X251010476Y-51236666D01*
X251058095Y-51331904D01*
%TO.C,R107*%
X217320952Y-88082380D02*
X216987619Y-87606190D01*
X216749523Y-88082380D02*
X216749523Y-87082380D01*
X217130476Y-87082380D01*
X217225714Y-87130000D01*
X217273333Y-87177619D01*
X217320952Y-87272857D01*
X217320952Y-87415714D01*
X217273333Y-87510952D01*
X217225714Y-87558571D01*
X217130476Y-87606190D01*
X216749523Y-87606190D01*
X218273333Y-88082380D02*
X217701904Y-88082380D01*
X217987619Y-88082380D02*
X217987619Y-87082380D01*
X217892380Y-87225238D01*
X217797142Y-87320476D01*
X217701904Y-87368095D01*
X218892380Y-87082380D02*
X218987619Y-87082380D01*
X219082857Y-87130000D01*
X219130476Y-87177619D01*
X219178095Y-87272857D01*
X219225714Y-87463333D01*
X219225714Y-87701428D01*
X219178095Y-87891904D01*
X219130476Y-87987142D01*
X219082857Y-88034761D01*
X218987619Y-88082380D01*
X218892380Y-88082380D01*
X218797142Y-88034761D01*
X218749523Y-87987142D01*
X218701904Y-87891904D01*
X218654285Y-87701428D01*
X218654285Y-87463333D01*
X218701904Y-87272857D01*
X218749523Y-87177619D01*
X218797142Y-87130000D01*
X218892380Y-87082380D01*
X219559047Y-87082380D02*
X220225714Y-87082380D01*
X219797142Y-88082380D01*
%TO.C,R142*%
X114450952Y-54892380D02*
X114117619Y-54416190D01*
X113879523Y-54892380D02*
X113879523Y-53892380D01*
X114260476Y-53892380D01*
X114355714Y-53940000D01*
X114403333Y-53987619D01*
X114450952Y-54082857D01*
X114450952Y-54225714D01*
X114403333Y-54320952D01*
X114355714Y-54368571D01*
X114260476Y-54416190D01*
X113879523Y-54416190D01*
X115403333Y-54892380D02*
X114831904Y-54892380D01*
X115117619Y-54892380D02*
X115117619Y-53892380D01*
X115022380Y-54035238D01*
X114927142Y-54130476D01*
X114831904Y-54178095D01*
X116260476Y-54225714D02*
X116260476Y-54892380D01*
X116022380Y-53844761D02*
X115784285Y-54559047D01*
X116403333Y-54559047D01*
X116736666Y-53987619D02*
X116784285Y-53940000D01*
X116879523Y-53892380D01*
X117117619Y-53892380D01*
X117212857Y-53940000D01*
X117260476Y-53987619D01*
X117308095Y-54082857D01*
X117308095Y-54178095D01*
X117260476Y-54320952D01*
X116689047Y-54892380D01*
X117308095Y-54892380D01*
%TO.C,R108*%
X207160952Y-47272380D02*
X206827619Y-46796190D01*
X206589523Y-47272380D02*
X206589523Y-46272380D01*
X206970476Y-46272380D01*
X207065714Y-46320000D01*
X207113333Y-46367619D01*
X207160952Y-46462857D01*
X207160952Y-46605714D01*
X207113333Y-46700952D01*
X207065714Y-46748571D01*
X206970476Y-46796190D01*
X206589523Y-46796190D01*
X208113333Y-47272380D02*
X207541904Y-47272380D01*
X207827619Y-47272380D02*
X207827619Y-46272380D01*
X207732380Y-46415238D01*
X207637142Y-46510476D01*
X207541904Y-46558095D01*
X208732380Y-46272380D02*
X208827619Y-46272380D01*
X208922857Y-46320000D01*
X208970476Y-46367619D01*
X209018095Y-46462857D01*
X209065714Y-46653333D01*
X209065714Y-46891428D01*
X209018095Y-47081904D01*
X208970476Y-47177142D01*
X208922857Y-47224761D01*
X208827619Y-47272380D01*
X208732380Y-47272380D01*
X208637142Y-47224761D01*
X208589523Y-47177142D01*
X208541904Y-47081904D01*
X208494285Y-46891428D01*
X208494285Y-46653333D01*
X208541904Y-46462857D01*
X208589523Y-46367619D01*
X208637142Y-46320000D01*
X208732380Y-46272380D01*
X209637142Y-46700952D02*
X209541904Y-46653333D01*
X209494285Y-46605714D01*
X209446666Y-46510476D01*
X209446666Y-46462857D01*
X209494285Y-46367619D01*
X209541904Y-46320000D01*
X209637142Y-46272380D01*
X209827619Y-46272380D01*
X209922857Y-46320000D01*
X209970476Y-46367619D01*
X210018095Y-46462857D01*
X210018095Y-46510476D01*
X209970476Y-46605714D01*
X209922857Y-46653333D01*
X209827619Y-46700952D01*
X209637142Y-46700952D01*
X209541904Y-46748571D01*
X209494285Y-46796190D01*
X209446666Y-46891428D01*
X209446666Y-47081904D01*
X209494285Y-47177142D01*
X209541904Y-47224761D01*
X209637142Y-47272380D01*
X209827619Y-47272380D01*
X209922857Y-47224761D01*
X209970476Y-47177142D01*
X210018095Y-47081904D01*
X210018095Y-46891428D01*
X209970476Y-46796190D01*
X209922857Y-46748571D01*
X209827619Y-46700952D01*
%TO.C,R106*%
X243990952Y-66662380D02*
X243657619Y-66186190D01*
X243419523Y-66662380D02*
X243419523Y-65662380D01*
X243800476Y-65662380D01*
X243895714Y-65710000D01*
X243943333Y-65757619D01*
X243990952Y-65852857D01*
X243990952Y-65995714D01*
X243943333Y-66090952D01*
X243895714Y-66138571D01*
X243800476Y-66186190D01*
X243419523Y-66186190D01*
X244943333Y-66662380D02*
X244371904Y-66662380D01*
X244657619Y-66662380D02*
X244657619Y-65662380D01*
X244562380Y-65805238D01*
X244467142Y-65900476D01*
X244371904Y-65948095D01*
X245562380Y-65662380D02*
X245657619Y-65662380D01*
X245752857Y-65710000D01*
X245800476Y-65757619D01*
X245848095Y-65852857D01*
X245895714Y-66043333D01*
X245895714Y-66281428D01*
X245848095Y-66471904D01*
X245800476Y-66567142D01*
X245752857Y-66614761D01*
X245657619Y-66662380D01*
X245562380Y-66662380D01*
X245467142Y-66614761D01*
X245419523Y-66567142D01*
X245371904Y-66471904D01*
X245324285Y-66281428D01*
X245324285Y-66043333D01*
X245371904Y-65852857D01*
X245419523Y-65757619D01*
X245467142Y-65710000D01*
X245562380Y-65662380D01*
X246752857Y-65662380D02*
X246562380Y-65662380D01*
X246467142Y-65710000D01*
X246419523Y-65757619D01*
X246324285Y-65900476D01*
X246276666Y-66090952D01*
X246276666Y-66471904D01*
X246324285Y-66567142D01*
X246371904Y-66614761D01*
X246467142Y-66662380D01*
X246657619Y-66662380D01*
X246752857Y-66614761D01*
X246800476Y-66567142D01*
X246848095Y-66471904D01*
X246848095Y-66233809D01*
X246800476Y-66138571D01*
X246752857Y-66090952D01*
X246657619Y-66043333D01*
X246467142Y-66043333D01*
X246371904Y-66090952D01*
X246324285Y-66138571D01*
X246276666Y-66233809D01*
%TO.C,R105*%
X243990952Y-75212380D02*
X243657619Y-74736190D01*
X243419523Y-75212380D02*
X243419523Y-74212380D01*
X243800476Y-74212380D01*
X243895714Y-74260000D01*
X243943333Y-74307619D01*
X243990952Y-74402857D01*
X243990952Y-74545714D01*
X243943333Y-74640952D01*
X243895714Y-74688571D01*
X243800476Y-74736190D01*
X243419523Y-74736190D01*
X244943333Y-75212380D02*
X244371904Y-75212380D01*
X244657619Y-75212380D02*
X244657619Y-74212380D01*
X244562380Y-74355238D01*
X244467142Y-74450476D01*
X244371904Y-74498095D01*
X245562380Y-74212380D02*
X245657619Y-74212380D01*
X245752857Y-74260000D01*
X245800476Y-74307619D01*
X245848095Y-74402857D01*
X245895714Y-74593333D01*
X245895714Y-74831428D01*
X245848095Y-75021904D01*
X245800476Y-75117142D01*
X245752857Y-75164761D01*
X245657619Y-75212380D01*
X245562380Y-75212380D01*
X245467142Y-75164761D01*
X245419523Y-75117142D01*
X245371904Y-75021904D01*
X245324285Y-74831428D01*
X245324285Y-74593333D01*
X245371904Y-74402857D01*
X245419523Y-74307619D01*
X245467142Y-74260000D01*
X245562380Y-74212380D01*
X246800476Y-74212380D02*
X246324285Y-74212380D01*
X246276666Y-74688571D01*
X246324285Y-74640952D01*
X246419523Y-74593333D01*
X246657619Y-74593333D01*
X246752857Y-74640952D01*
X246800476Y-74688571D01*
X246848095Y-74783809D01*
X246848095Y-75021904D01*
X246800476Y-75117142D01*
X246752857Y-75164761D01*
X246657619Y-75212380D01*
X246419523Y-75212380D01*
X246324285Y-75164761D01*
X246276666Y-75117142D01*
%TO.C,R104*%
X243990952Y-79022380D02*
X243657619Y-78546190D01*
X243419523Y-79022380D02*
X243419523Y-78022380D01*
X243800476Y-78022380D01*
X243895714Y-78070000D01*
X243943333Y-78117619D01*
X243990952Y-78212857D01*
X243990952Y-78355714D01*
X243943333Y-78450952D01*
X243895714Y-78498571D01*
X243800476Y-78546190D01*
X243419523Y-78546190D01*
X244943333Y-79022380D02*
X244371904Y-79022380D01*
X244657619Y-79022380D02*
X244657619Y-78022380D01*
X244562380Y-78165238D01*
X244467142Y-78260476D01*
X244371904Y-78308095D01*
X245562380Y-78022380D02*
X245657619Y-78022380D01*
X245752857Y-78070000D01*
X245800476Y-78117619D01*
X245848095Y-78212857D01*
X245895714Y-78403333D01*
X245895714Y-78641428D01*
X245848095Y-78831904D01*
X245800476Y-78927142D01*
X245752857Y-78974761D01*
X245657619Y-79022380D01*
X245562380Y-79022380D01*
X245467142Y-78974761D01*
X245419523Y-78927142D01*
X245371904Y-78831904D01*
X245324285Y-78641428D01*
X245324285Y-78403333D01*
X245371904Y-78212857D01*
X245419523Y-78117619D01*
X245467142Y-78070000D01*
X245562380Y-78022380D01*
X246752857Y-78355714D02*
X246752857Y-79022380D01*
X246514761Y-77974761D02*
X246276666Y-78689047D01*
X246895714Y-78689047D01*
%TO.C,R103*%
X243990952Y-62852380D02*
X243657619Y-62376190D01*
X243419523Y-62852380D02*
X243419523Y-61852380D01*
X243800476Y-61852380D01*
X243895714Y-61900000D01*
X243943333Y-61947619D01*
X243990952Y-62042857D01*
X243990952Y-62185714D01*
X243943333Y-62280952D01*
X243895714Y-62328571D01*
X243800476Y-62376190D01*
X243419523Y-62376190D01*
X244943333Y-62852380D02*
X244371904Y-62852380D01*
X244657619Y-62852380D02*
X244657619Y-61852380D01*
X244562380Y-61995238D01*
X244467142Y-62090476D01*
X244371904Y-62138095D01*
X245562380Y-61852380D02*
X245657619Y-61852380D01*
X245752857Y-61900000D01*
X245800476Y-61947619D01*
X245848095Y-62042857D01*
X245895714Y-62233333D01*
X245895714Y-62471428D01*
X245848095Y-62661904D01*
X245800476Y-62757142D01*
X245752857Y-62804761D01*
X245657619Y-62852380D01*
X245562380Y-62852380D01*
X245467142Y-62804761D01*
X245419523Y-62757142D01*
X245371904Y-62661904D01*
X245324285Y-62471428D01*
X245324285Y-62233333D01*
X245371904Y-62042857D01*
X245419523Y-61947619D01*
X245467142Y-61900000D01*
X245562380Y-61852380D01*
X246229047Y-61852380D02*
X246848095Y-61852380D01*
X246514761Y-62233333D01*
X246657619Y-62233333D01*
X246752857Y-62280952D01*
X246800476Y-62328571D01*
X246848095Y-62423809D01*
X246848095Y-62661904D01*
X246800476Y-62757142D01*
X246752857Y-62804761D01*
X246657619Y-62852380D01*
X246371904Y-62852380D01*
X246276666Y-62804761D01*
X246229047Y-62757142D01*
%TO.C,R102*%
X193190952Y-47272380D02*
X192857619Y-46796190D01*
X192619523Y-47272380D02*
X192619523Y-46272380D01*
X193000476Y-46272380D01*
X193095714Y-46320000D01*
X193143333Y-46367619D01*
X193190952Y-46462857D01*
X193190952Y-46605714D01*
X193143333Y-46700952D01*
X193095714Y-46748571D01*
X193000476Y-46796190D01*
X192619523Y-46796190D01*
X194143333Y-47272380D02*
X193571904Y-47272380D01*
X193857619Y-47272380D02*
X193857619Y-46272380D01*
X193762380Y-46415238D01*
X193667142Y-46510476D01*
X193571904Y-46558095D01*
X194762380Y-46272380D02*
X194857619Y-46272380D01*
X194952857Y-46320000D01*
X195000476Y-46367619D01*
X195048095Y-46462857D01*
X195095714Y-46653333D01*
X195095714Y-46891428D01*
X195048095Y-47081904D01*
X195000476Y-47177142D01*
X194952857Y-47224761D01*
X194857619Y-47272380D01*
X194762380Y-47272380D01*
X194667142Y-47224761D01*
X194619523Y-47177142D01*
X194571904Y-47081904D01*
X194524285Y-46891428D01*
X194524285Y-46653333D01*
X194571904Y-46462857D01*
X194619523Y-46367619D01*
X194667142Y-46320000D01*
X194762380Y-46272380D01*
X195476666Y-46367619D02*
X195524285Y-46320000D01*
X195619523Y-46272380D01*
X195857619Y-46272380D01*
X195952857Y-46320000D01*
X196000476Y-46367619D01*
X196048095Y-46462857D01*
X196048095Y-46558095D01*
X196000476Y-46700952D01*
X195429047Y-47272380D01*
X196048095Y-47272380D01*
%TO.C,R101*%
X193190952Y-51082380D02*
X192857619Y-50606190D01*
X192619523Y-51082380D02*
X192619523Y-50082380D01*
X193000476Y-50082380D01*
X193095714Y-50130000D01*
X193143333Y-50177619D01*
X193190952Y-50272857D01*
X193190952Y-50415714D01*
X193143333Y-50510952D01*
X193095714Y-50558571D01*
X193000476Y-50606190D01*
X192619523Y-50606190D01*
X194143333Y-51082380D02*
X193571904Y-51082380D01*
X193857619Y-51082380D02*
X193857619Y-50082380D01*
X193762380Y-50225238D01*
X193667142Y-50320476D01*
X193571904Y-50368095D01*
X194762380Y-50082380D02*
X194857619Y-50082380D01*
X194952857Y-50130000D01*
X195000476Y-50177619D01*
X195048095Y-50272857D01*
X195095714Y-50463333D01*
X195095714Y-50701428D01*
X195048095Y-50891904D01*
X195000476Y-50987142D01*
X194952857Y-51034761D01*
X194857619Y-51082380D01*
X194762380Y-51082380D01*
X194667142Y-51034761D01*
X194619523Y-50987142D01*
X194571904Y-50891904D01*
X194524285Y-50701428D01*
X194524285Y-50463333D01*
X194571904Y-50272857D01*
X194619523Y-50177619D01*
X194667142Y-50130000D01*
X194762380Y-50082380D01*
X196048095Y-51082380D02*
X195476666Y-51082380D01*
X195762380Y-51082380D02*
X195762380Y-50082380D01*
X195667142Y-50225238D01*
X195571904Y-50320476D01*
X195476666Y-50368095D01*
%TO.C,D101*%
X178649523Y-47822380D02*
X178649523Y-46822380D01*
X178887619Y-46822380D01*
X179030476Y-46870000D01*
X179125714Y-46965238D01*
X179173333Y-47060476D01*
X179220952Y-47250952D01*
X179220952Y-47393809D01*
X179173333Y-47584285D01*
X179125714Y-47679523D01*
X179030476Y-47774761D01*
X178887619Y-47822380D01*
X178649523Y-47822380D01*
X180173333Y-47822380D02*
X179601904Y-47822380D01*
X179887619Y-47822380D02*
X179887619Y-46822380D01*
X179792380Y-46965238D01*
X179697142Y-47060476D01*
X179601904Y-47108095D01*
X180792380Y-46822380D02*
X180887619Y-46822380D01*
X180982857Y-46870000D01*
X181030476Y-46917619D01*
X181078095Y-47012857D01*
X181125714Y-47203333D01*
X181125714Y-47441428D01*
X181078095Y-47631904D01*
X181030476Y-47727142D01*
X180982857Y-47774761D01*
X180887619Y-47822380D01*
X180792380Y-47822380D01*
X180697142Y-47774761D01*
X180649523Y-47727142D01*
X180601904Y-47631904D01*
X180554285Y-47441428D01*
X180554285Y-47203333D01*
X180601904Y-47012857D01*
X180649523Y-46917619D01*
X180697142Y-46870000D01*
X180792380Y-46822380D01*
X182078095Y-47822380D02*
X181506666Y-47822380D01*
X181792380Y-47822380D02*
X181792380Y-46822380D01*
X181697142Y-46965238D01*
X181601904Y-47060476D01*
X181506666Y-47108095D01*
X185158095Y-47102380D02*
X185158095Y-46102380D01*
X185729523Y-47102380D02*
X185300952Y-46530952D01*
X185729523Y-46102380D02*
X185158095Y-46673809D01*
%TO.C,CY101*%
X206632380Y-46362142D02*
X206584761Y-46409761D01*
X206441904Y-46457380D01*
X206346666Y-46457380D01*
X206203809Y-46409761D01*
X206108571Y-46314523D01*
X206060952Y-46219285D01*
X206013333Y-46028809D01*
X206013333Y-45885952D01*
X206060952Y-45695476D01*
X206108571Y-45600238D01*
X206203809Y-45505000D01*
X206346666Y-45457380D01*
X206441904Y-45457380D01*
X206584761Y-45505000D01*
X206632380Y-45552619D01*
X207251428Y-45981190D02*
X207251428Y-46457380D01*
X206918095Y-45457380D02*
X207251428Y-45981190D01*
X207584761Y-45457380D01*
X208441904Y-46457380D02*
X207870476Y-46457380D01*
X208156190Y-46457380D02*
X208156190Y-45457380D01*
X208060952Y-45600238D01*
X207965714Y-45695476D01*
X207870476Y-45743095D01*
X209060952Y-45457380D02*
X209156190Y-45457380D01*
X209251428Y-45505000D01*
X209299047Y-45552619D01*
X209346666Y-45647857D01*
X209394285Y-45838333D01*
X209394285Y-46076428D01*
X209346666Y-46266904D01*
X209299047Y-46362142D01*
X209251428Y-46409761D01*
X209156190Y-46457380D01*
X209060952Y-46457380D01*
X208965714Y-46409761D01*
X208918095Y-46362142D01*
X208870476Y-46266904D01*
X208822857Y-46076428D01*
X208822857Y-45838333D01*
X208870476Y-45647857D01*
X208918095Y-45552619D01*
X208965714Y-45505000D01*
X209060952Y-45457380D01*
X210346666Y-46457380D02*
X209775238Y-46457380D01*
X210060952Y-46457380D02*
X210060952Y-45457380D01*
X209965714Y-45600238D01*
X209870476Y-45695476D01*
X209775238Y-45743095D01*
%TO.C,C107*%
X218570952Y-45097142D02*
X218523333Y-45144761D01*
X218380476Y-45192380D01*
X218285238Y-45192380D01*
X218142380Y-45144761D01*
X218047142Y-45049523D01*
X217999523Y-44954285D01*
X217951904Y-44763809D01*
X217951904Y-44620952D01*
X217999523Y-44430476D01*
X218047142Y-44335238D01*
X218142380Y-44240000D01*
X218285238Y-44192380D01*
X218380476Y-44192380D01*
X218523333Y-44240000D01*
X218570952Y-44287619D01*
X219523333Y-45192380D02*
X218951904Y-45192380D01*
X219237619Y-45192380D02*
X219237619Y-44192380D01*
X219142380Y-44335238D01*
X219047142Y-44430476D01*
X218951904Y-44478095D01*
X220142380Y-44192380D02*
X220237619Y-44192380D01*
X220332857Y-44240000D01*
X220380476Y-44287619D01*
X220428095Y-44382857D01*
X220475714Y-44573333D01*
X220475714Y-44811428D01*
X220428095Y-45001904D01*
X220380476Y-45097142D01*
X220332857Y-45144761D01*
X220237619Y-45192380D01*
X220142380Y-45192380D01*
X220047142Y-45144761D01*
X219999523Y-45097142D01*
X219951904Y-45001904D01*
X219904285Y-44811428D01*
X219904285Y-44573333D01*
X219951904Y-44382857D01*
X219999523Y-44287619D01*
X220047142Y-44240000D01*
X220142380Y-44192380D01*
X220809047Y-44192380D02*
X221475714Y-44192380D01*
X221047142Y-45192380D01*
%TO.C,C106*%
X176597142Y-112859047D02*
X176644761Y-112906666D01*
X176692380Y-113049523D01*
X176692380Y-113144761D01*
X176644761Y-113287619D01*
X176549523Y-113382857D01*
X176454285Y-113430476D01*
X176263809Y-113478095D01*
X176120952Y-113478095D01*
X175930476Y-113430476D01*
X175835238Y-113382857D01*
X175740000Y-113287619D01*
X175692380Y-113144761D01*
X175692380Y-113049523D01*
X175740000Y-112906666D01*
X175787619Y-112859047D01*
X176692380Y-111906666D02*
X176692380Y-112478095D01*
X176692380Y-112192380D02*
X175692380Y-112192380D01*
X175835238Y-112287619D01*
X175930476Y-112382857D01*
X175978095Y-112478095D01*
X175692380Y-111287619D02*
X175692380Y-111192380D01*
X175740000Y-111097142D01*
X175787619Y-111049523D01*
X175882857Y-111001904D01*
X176073333Y-110954285D01*
X176311428Y-110954285D01*
X176501904Y-111001904D01*
X176597142Y-111049523D01*
X176644761Y-111097142D01*
X176692380Y-111192380D01*
X176692380Y-111287619D01*
X176644761Y-111382857D01*
X176597142Y-111430476D01*
X176501904Y-111478095D01*
X176311428Y-111525714D01*
X176073333Y-111525714D01*
X175882857Y-111478095D01*
X175787619Y-111430476D01*
X175740000Y-111382857D01*
X175692380Y-111287619D01*
X175692380Y-110097142D02*
X175692380Y-110287619D01*
X175740000Y-110382857D01*
X175787619Y-110430476D01*
X175930476Y-110525714D01*
X176120952Y-110573333D01*
X176501904Y-110573333D01*
X176597142Y-110525714D01*
X176644761Y-110478095D01*
X176692380Y-110382857D01*
X176692380Y-110192380D01*
X176644761Y-110097142D01*
X176597142Y-110049523D01*
X176501904Y-110001904D01*
X176263809Y-110001904D01*
X176168571Y-110049523D01*
X176120952Y-110097142D01*
X176073333Y-110192380D01*
X176073333Y-110382857D01*
X176120952Y-110478095D01*
X176168571Y-110525714D01*
X176263809Y-110573333D01*
%TO.C,C105*%
X239407142Y-82419047D02*
X239454761Y-82466666D01*
X239502380Y-82609523D01*
X239502380Y-82704761D01*
X239454761Y-82847619D01*
X239359523Y-82942857D01*
X239264285Y-82990476D01*
X239073809Y-83038095D01*
X238930952Y-83038095D01*
X238740476Y-82990476D01*
X238645238Y-82942857D01*
X238550000Y-82847619D01*
X238502380Y-82704761D01*
X238502380Y-82609523D01*
X238550000Y-82466666D01*
X238597619Y-82419047D01*
X239502380Y-81466666D02*
X239502380Y-82038095D01*
X239502380Y-81752380D02*
X238502380Y-81752380D01*
X238645238Y-81847619D01*
X238740476Y-81942857D01*
X238788095Y-82038095D01*
X238502380Y-80847619D02*
X238502380Y-80752380D01*
X238550000Y-80657142D01*
X238597619Y-80609523D01*
X238692857Y-80561904D01*
X238883333Y-80514285D01*
X239121428Y-80514285D01*
X239311904Y-80561904D01*
X239407142Y-80609523D01*
X239454761Y-80657142D01*
X239502380Y-80752380D01*
X239502380Y-80847619D01*
X239454761Y-80942857D01*
X239407142Y-80990476D01*
X239311904Y-81038095D01*
X239121428Y-81085714D01*
X238883333Y-81085714D01*
X238692857Y-81038095D01*
X238597619Y-80990476D01*
X238550000Y-80942857D01*
X238502380Y-80847619D01*
X238502380Y-79609523D02*
X238502380Y-80085714D01*
X238978571Y-80133333D01*
X238930952Y-80085714D01*
X238883333Y-79990476D01*
X238883333Y-79752380D01*
X238930952Y-79657142D01*
X238978571Y-79609523D01*
X239073809Y-79561904D01*
X239311904Y-79561904D01*
X239407142Y-79609523D01*
X239454761Y-79657142D01*
X239502380Y-79752380D01*
X239502380Y-79990476D01*
X239454761Y-80085714D01*
X239407142Y-80133333D01*
%TO.C,C104*%
X218570952Y-47637142D02*
X218523333Y-47684761D01*
X218380476Y-47732380D01*
X218285238Y-47732380D01*
X218142380Y-47684761D01*
X218047142Y-47589523D01*
X217999523Y-47494285D01*
X217951904Y-47303809D01*
X217951904Y-47160952D01*
X217999523Y-46970476D01*
X218047142Y-46875238D01*
X218142380Y-46780000D01*
X218285238Y-46732380D01*
X218380476Y-46732380D01*
X218523333Y-46780000D01*
X218570952Y-46827619D01*
X219523333Y-47732380D02*
X218951904Y-47732380D01*
X219237619Y-47732380D02*
X219237619Y-46732380D01*
X219142380Y-46875238D01*
X219047142Y-46970476D01*
X218951904Y-47018095D01*
X220142380Y-46732380D02*
X220237619Y-46732380D01*
X220332857Y-46780000D01*
X220380476Y-46827619D01*
X220428095Y-46922857D01*
X220475714Y-47113333D01*
X220475714Y-47351428D01*
X220428095Y-47541904D01*
X220380476Y-47637142D01*
X220332857Y-47684761D01*
X220237619Y-47732380D01*
X220142380Y-47732380D01*
X220047142Y-47684761D01*
X219999523Y-47637142D01*
X219951904Y-47541904D01*
X219904285Y-47351428D01*
X219904285Y-47113333D01*
X219951904Y-46922857D01*
X219999523Y-46827619D01*
X220047142Y-46780000D01*
X220142380Y-46732380D01*
X221332857Y-47065714D02*
X221332857Y-47732380D01*
X221094761Y-46684761D02*
X220856666Y-47399047D01*
X221475714Y-47399047D01*
%TO.C,C103*%
X241470952Y-106057142D02*
X241423333Y-106104761D01*
X241280476Y-106152380D01*
X241185238Y-106152380D01*
X241042380Y-106104761D01*
X240947142Y-106009523D01*
X240899523Y-105914285D01*
X240851904Y-105723809D01*
X240851904Y-105580952D01*
X240899523Y-105390476D01*
X240947142Y-105295238D01*
X241042380Y-105200000D01*
X241185238Y-105152380D01*
X241280476Y-105152380D01*
X241423333Y-105200000D01*
X241470952Y-105247619D01*
X242423333Y-106152380D02*
X241851904Y-106152380D01*
X242137619Y-106152380D02*
X242137619Y-105152380D01*
X242042380Y-105295238D01*
X241947142Y-105390476D01*
X241851904Y-105438095D01*
X243042380Y-105152380D02*
X243137619Y-105152380D01*
X243232857Y-105200000D01*
X243280476Y-105247619D01*
X243328095Y-105342857D01*
X243375714Y-105533333D01*
X243375714Y-105771428D01*
X243328095Y-105961904D01*
X243280476Y-106057142D01*
X243232857Y-106104761D01*
X243137619Y-106152380D01*
X243042380Y-106152380D01*
X242947142Y-106104761D01*
X242899523Y-106057142D01*
X242851904Y-105961904D01*
X242804285Y-105771428D01*
X242804285Y-105533333D01*
X242851904Y-105342857D01*
X242899523Y-105247619D01*
X242947142Y-105200000D01*
X243042380Y-105152380D01*
X243709047Y-105152380D02*
X244328095Y-105152380D01*
X243994761Y-105533333D01*
X244137619Y-105533333D01*
X244232857Y-105580952D01*
X244280476Y-105628571D01*
X244328095Y-105723809D01*
X244328095Y-105961904D01*
X244280476Y-106057142D01*
X244232857Y-106104761D01*
X244137619Y-106152380D01*
X243851904Y-106152380D01*
X243756666Y-106104761D01*
X243709047Y-106057142D01*
%TO.C,C102*%
X197497142Y-58289047D02*
X197544761Y-58336666D01*
X197592380Y-58479523D01*
X197592380Y-58574761D01*
X197544761Y-58717619D01*
X197449523Y-58812857D01*
X197354285Y-58860476D01*
X197163809Y-58908095D01*
X197020952Y-58908095D01*
X196830476Y-58860476D01*
X196735238Y-58812857D01*
X196640000Y-58717619D01*
X196592380Y-58574761D01*
X196592380Y-58479523D01*
X196640000Y-58336666D01*
X196687619Y-58289047D01*
X197592380Y-57336666D02*
X197592380Y-57908095D01*
X197592380Y-57622380D02*
X196592380Y-57622380D01*
X196735238Y-57717619D01*
X196830476Y-57812857D01*
X196878095Y-57908095D01*
X196592380Y-56717619D02*
X196592380Y-56622380D01*
X196640000Y-56527142D01*
X196687619Y-56479523D01*
X196782857Y-56431904D01*
X196973333Y-56384285D01*
X197211428Y-56384285D01*
X197401904Y-56431904D01*
X197497142Y-56479523D01*
X197544761Y-56527142D01*
X197592380Y-56622380D01*
X197592380Y-56717619D01*
X197544761Y-56812857D01*
X197497142Y-56860476D01*
X197401904Y-56908095D01*
X197211428Y-56955714D01*
X196973333Y-56955714D01*
X196782857Y-56908095D01*
X196687619Y-56860476D01*
X196640000Y-56812857D01*
X196592380Y-56717619D01*
X196687619Y-56003333D02*
X196640000Y-55955714D01*
X196592380Y-55860476D01*
X196592380Y-55622380D01*
X196640000Y-55527142D01*
X196687619Y-55479523D01*
X196782857Y-55431904D01*
X196878095Y-55431904D01*
X197020952Y-55479523D01*
X197592380Y-56050952D01*
X197592380Y-55431904D01*
%TO.C,C101*%
X174410952Y-54407142D02*
X174363333Y-54454761D01*
X174220476Y-54502380D01*
X174125238Y-54502380D01*
X173982380Y-54454761D01*
X173887142Y-54359523D01*
X173839523Y-54264285D01*
X173791904Y-54073809D01*
X173791904Y-53930952D01*
X173839523Y-53740476D01*
X173887142Y-53645238D01*
X173982380Y-53550000D01*
X174125238Y-53502380D01*
X174220476Y-53502380D01*
X174363333Y-53550000D01*
X174410952Y-53597619D01*
X175363333Y-54502380D02*
X174791904Y-54502380D01*
X175077619Y-54502380D02*
X175077619Y-53502380D01*
X174982380Y-53645238D01*
X174887142Y-53740476D01*
X174791904Y-53788095D01*
X175982380Y-53502380D02*
X176077619Y-53502380D01*
X176172857Y-53550000D01*
X176220476Y-53597619D01*
X176268095Y-53692857D01*
X176315714Y-53883333D01*
X176315714Y-54121428D01*
X176268095Y-54311904D01*
X176220476Y-54407142D01*
X176172857Y-54454761D01*
X176077619Y-54502380D01*
X175982380Y-54502380D01*
X175887142Y-54454761D01*
X175839523Y-54407142D01*
X175791904Y-54311904D01*
X175744285Y-54121428D01*
X175744285Y-53883333D01*
X175791904Y-53692857D01*
X175839523Y-53597619D01*
X175887142Y-53550000D01*
X175982380Y-53502380D01*
X177268095Y-54502380D02*
X176696666Y-54502380D01*
X176982380Y-54502380D02*
X176982380Y-53502380D01*
X176887142Y-53645238D01*
X176791904Y-53740476D01*
X176696666Y-53788095D01*
%TO.C,C3*%
X254833333Y-41557142D02*
X254785714Y-41604761D01*
X254642857Y-41652380D01*
X254547619Y-41652380D01*
X254404761Y-41604761D01*
X254309523Y-41509523D01*
X254261904Y-41414285D01*
X254214285Y-41223809D01*
X254214285Y-41080952D01*
X254261904Y-40890476D01*
X254309523Y-40795238D01*
X254404761Y-40700000D01*
X254547619Y-40652380D01*
X254642857Y-40652380D01*
X254785714Y-40700000D01*
X254833333Y-40747619D01*
X255166666Y-40652380D02*
X255785714Y-40652380D01*
X255452380Y-41033333D01*
X255595238Y-41033333D01*
X255690476Y-41080952D01*
X255738095Y-41128571D01*
X255785714Y-41223809D01*
X255785714Y-41461904D01*
X255738095Y-41557142D01*
X255690476Y-41604761D01*
X255595238Y-41652380D01*
X255309523Y-41652380D01*
X255214285Y-41604761D01*
X255166666Y-41557142D01*
%TO.C,C2*%
X169993333Y-42557142D02*
X169945714Y-42604761D01*
X169802857Y-42652380D01*
X169707619Y-42652380D01*
X169564761Y-42604761D01*
X169469523Y-42509523D01*
X169421904Y-42414285D01*
X169374285Y-42223809D01*
X169374285Y-42080952D01*
X169421904Y-41890476D01*
X169469523Y-41795238D01*
X169564761Y-41700000D01*
X169707619Y-41652380D01*
X169802857Y-41652380D01*
X169945714Y-41700000D01*
X169993333Y-41747619D01*
X170374285Y-41747619D02*
X170421904Y-41700000D01*
X170517142Y-41652380D01*
X170755238Y-41652380D01*
X170850476Y-41700000D01*
X170898095Y-41747619D01*
X170945714Y-41842857D01*
X170945714Y-41938095D01*
X170898095Y-42080952D01*
X170326666Y-42652380D01*
X170945714Y-42652380D01*
%TO.C,C1*%
X121483333Y-124107142D02*
X121435714Y-124154761D01*
X121292857Y-124202380D01*
X121197619Y-124202380D01*
X121054761Y-124154761D01*
X120959523Y-124059523D01*
X120911904Y-123964285D01*
X120864285Y-123773809D01*
X120864285Y-123630952D01*
X120911904Y-123440476D01*
X120959523Y-123345238D01*
X121054761Y-123250000D01*
X121197619Y-123202380D01*
X121292857Y-123202380D01*
X121435714Y-123250000D01*
X121483333Y-123297619D01*
X122435714Y-124202380D02*
X121864285Y-124202380D01*
X122150000Y-124202380D02*
X122150000Y-123202380D01*
X122054761Y-123345238D01*
X121959523Y-123440476D01*
X121864285Y-123488095D01*
%TO.C,RA106*%
X137472380Y-80287619D02*
X136996190Y-80620952D01*
X137472380Y-80859047D02*
X136472380Y-80859047D01*
X136472380Y-80478095D01*
X136520000Y-80382857D01*
X136567619Y-80335238D01*
X136662857Y-80287619D01*
X136805714Y-80287619D01*
X136900952Y-80335238D01*
X136948571Y-80382857D01*
X136996190Y-80478095D01*
X136996190Y-80859047D01*
X137186666Y-79906666D02*
X137186666Y-79430476D01*
X137472380Y-80001904D02*
X136472380Y-79668571D01*
X137472380Y-79335238D01*
X137472380Y-78478095D02*
X137472380Y-79049523D01*
X137472380Y-78763809D02*
X136472380Y-78763809D01*
X136615238Y-78859047D01*
X136710476Y-78954285D01*
X136758095Y-79049523D01*
X136472380Y-77859047D02*
X136472380Y-77763809D01*
X136520000Y-77668571D01*
X136567619Y-77620952D01*
X136662857Y-77573333D01*
X136853333Y-77525714D01*
X137091428Y-77525714D01*
X137281904Y-77573333D01*
X137377142Y-77620952D01*
X137424761Y-77668571D01*
X137472380Y-77763809D01*
X137472380Y-77859047D01*
X137424761Y-77954285D01*
X137377142Y-78001904D01*
X137281904Y-78049523D01*
X137091428Y-78097142D01*
X136853333Y-78097142D01*
X136662857Y-78049523D01*
X136567619Y-78001904D01*
X136520000Y-77954285D01*
X136472380Y-77859047D01*
X136472380Y-76668571D02*
X136472380Y-76859047D01*
X136520000Y-76954285D01*
X136567619Y-77001904D01*
X136710476Y-77097142D01*
X136900952Y-77144761D01*
X137281904Y-77144761D01*
X137377142Y-77097142D01*
X137424761Y-77049523D01*
X137472380Y-76954285D01*
X137472380Y-76763809D01*
X137424761Y-76668571D01*
X137377142Y-76620952D01*
X137281904Y-76573333D01*
X137043809Y-76573333D01*
X136948571Y-76620952D01*
X136900952Y-76668571D01*
X136853333Y-76763809D01*
X136853333Y-76954285D01*
X136900952Y-77049523D01*
X136948571Y-77097142D01*
X137043809Y-77144761D01*
%TO.C,RA102*%
X137472380Y-56157619D02*
X136996190Y-56490952D01*
X137472380Y-56729047D02*
X136472380Y-56729047D01*
X136472380Y-56348095D01*
X136520000Y-56252857D01*
X136567619Y-56205238D01*
X136662857Y-56157619D01*
X136805714Y-56157619D01*
X136900952Y-56205238D01*
X136948571Y-56252857D01*
X136996190Y-56348095D01*
X136996190Y-56729047D01*
X137186666Y-55776666D02*
X137186666Y-55300476D01*
X137472380Y-55871904D02*
X136472380Y-55538571D01*
X137472380Y-55205238D01*
X137472380Y-54348095D02*
X137472380Y-54919523D01*
X137472380Y-54633809D02*
X136472380Y-54633809D01*
X136615238Y-54729047D01*
X136710476Y-54824285D01*
X136758095Y-54919523D01*
X136472380Y-53729047D02*
X136472380Y-53633809D01*
X136520000Y-53538571D01*
X136567619Y-53490952D01*
X136662857Y-53443333D01*
X136853333Y-53395714D01*
X137091428Y-53395714D01*
X137281904Y-53443333D01*
X137377142Y-53490952D01*
X137424761Y-53538571D01*
X137472380Y-53633809D01*
X137472380Y-53729047D01*
X137424761Y-53824285D01*
X137377142Y-53871904D01*
X137281904Y-53919523D01*
X137091428Y-53967142D01*
X136853333Y-53967142D01*
X136662857Y-53919523D01*
X136567619Y-53871904D01*
X136520000Y-53824285D01*
X136472380Y-53729047D01*
X136567619Y-53014761D02*
X136520000Y-52967142D01*
X136472380Y-52871904D01*
X136472380Y-52633809D01*
X136520000Y-52538571D01*
X136567619Y-52490952D01*
X136662857Y-52443333D01*
X136758095Y-52443333D01*
X136900952Y-52490952D01*
X137472380Y-53062380D01*
X137472380Y-52443333D01*
%TO.C,RA101*%
X162872380Y-58697619D02*
X162396190Y-59030952D01*
X162872380Y-59269047D02*
X161872380Y-59269047D01*
X161872380Y-58888095D01*
X161920000Y-58792857D01*
X161967619Y-58745238D01*
X162062857Y-58697619D01*
X162205714Y-58697619D01*
X162300952Y-58745238D01*
X162348571Y-58792857D01*
X162396190Y-58888095D01*
X162396190Y-59269047D01*
X162586666Y-58316666D02*
X162586666Y-57840476D01*
X162872380Y-58411904D02*
X161872380Y-58078571D01*
X162872380Y-57745238D01*
X162872380Y-56888095D02*
X162872380Y-57459523D01*
X162872380Y-57173809D02*
X161872380Y-57173809D01*
X162015238Y-57269047D01*
X162110476Y-57364285D01*
X162158095Y-57459523D01*
X161872380Y-56269047D02*
X161872380Y-56173809D01*
X161920000Y-56078571D01*
X161967619Y-56030952D01*
X162062857Y-55983333D01*
X162253333Y-55935714D01*
X162491428Y-55935714D01*
X162681904Y-55983333D01*
X162777142Y-56030952D01*
X162824761Y-56078571D01*
X162872380Y-56173809D01*
X162872380Y-56269047D01*
X162824761Y-56364285D01*
X162777142Y-56411904D01*
X162681904Y-56459523D01*
X162491428Y-56507142D01*
X162253333Y-56507142D01*
X162062857Y-56459523D01*
X161967619Y-56411904D01*
X161920000Y-56364285D01*
X161872380Y-56269047D01*
X162872380Y-54983333D02*
X162872380Y-55554761D01*
X162872380Y-55269047D02*
X161872380Y-55269047D01*
X162015238Y-55364285D01*
X162110476Y-55459523D01*
X162158095Y-55554761D01*
%TO.C,RA3*%
X141282380Y-79335238D02*
X140806190Y-79668571D01*
X141282380Y-79906666D02*
X140282380Y-79906666D01*
X140282380Y-79525714D01*
X140330000Y-79430476D01*
X140377619Y-79382857D01*
X140472857Y-79335238D01*
X140615714Y-79335238D01*
X140710952Y-79382857D01*
X140758571Y-79430476D01*
X140806190Y-79525714D01*
X140806190Y-79906666D01*
X140996666Y-78954285D02*
X140996666Y-78478095D01*
X141282380Y-79049523D02*
X140282380Y-78716190D01*
X141282380Y-78382857D01*
X140282380Y-78144761D02*
X140282380Y-77525714D01*
X140663333Y-77859047D01*
X140663333Y-77716190D01*
X140710952Y-77620952D01*
X140758571Y-77573333D01*
X140853809Y-77525714D01*
X141091904Y-77525714D01*
X141187142Y-77573333D01*
X141234761Y-77620952D01*
X141282380Y-77716190D01*
X141282380Y-78001904D01*
X141234761Y-78097142D01*
X141187142Y-78144761D01*
%TO.C,RA2*%
X133662380Y-123785238D02*
X133186190Y-124118571D01*
X133662380Y-124356666D02*
X132662380Y-124356666D01*
X132662380Y-123975714D01*
X132710000Y-123880476D01*
X132757619Y-123832857D01*
X132852857Y-123785238D01*
X132995714Y-123785238D01*
X133090952Y-123832857D01*
X133138571Y-123880476D01*
X133186190Y-123975714D01*
X133186190Y-124356666D01*
X133376666Y-123404285D02*
X133376666Y-122928095D01*
X133662380Y-123499523D02*
X132662380Y-123166190D01*
X133662380Y-122832857D01*
X132757619Y-122547142D02*
X132710000Y-122499523D01*
X132662380Y-122404285D01*
X132662380Y-122166190D01*
X132710000Y-122070952D01*
X132757619Y-122023333D01*
X132852857Y-121975714D01*
X132948095Y-121975714D01*
X133090952Y-122023333D01*
X133662380Y-122594761D01*
X133662380Y-121975714D01*
%TO.C,RA1*%
X137472380Y-123785238D02*
X136996190Y-124118571D01*
X137472380Y-124356666D02*
X136472380Y-124356666D01*
X136472380Y-123975714D01*
X136520000Y-123880476D01*
X136567619Y-123832857D01*
X136662857Y-123785238D01*
X136805714Y-123785238D01*
X136900952Y-123832857D01*
X136948571Y-123880476D01*
X136996190Y-123975714D01*
X136996190Y-124356666D01*
X137186666Y-123404285D02*
X137186666Y-122928095D01*
X137472380Y-123499523D02*
X136472380Y-123166190D01*
X137472380Y-122832857D01*
X137472380Y-121975714D02*
X137472380Y-122547142D01*
X137472380Y-122261428D02*
X136472380Y-122261428D01*
X136615238Y-122356666D01*
X136710476Y-122451904D01*
X136758095Y-122547142D01*
%TO.C,LSI101*%
X184856666Y-52732380D02*
X184380476Y-52732380D01*
X184380476Y-51732380D01*
X185142380Y-52684761D02*
X185285238Y-52732380D01*
X185523333Y-52732380D01*
X185618571Y-52684761D01*
X185666190Y-52637142D01*
X185713809Y-52541904D01*
X185713809Y-52446666D01*
X185666190Y-52351428D01*
X185618571Y-52303809D01*
X185523333Y-52256190D01*
X185332857Y-52208571D01*
X185237619Y-52160952D01*
X185190000Y-52113333D01*
X185142380Y-52018095D01*
X185142380Y-51922857D01*
X185190000Y-51827619D01*
X185237619Y-51780000D01*
X185332857Y-51732380D01*
X185570952Y-51732380D01*
X185713809Y-51780000D01*
X186142380Y-52732380D02*
X186142380Y-51732380D01*
X187142380Y-52732380D02*
X186570952Y-52732380D01*
X186856666Y-52732380D02*
X186856666Y-51732380D01*
X186761428Y-51875238D01*
X186666190Y-51970476D01*
X186570952Y-52018095D01*
X187761428Y-51732380D02*
X187856666Y-51732380D01*
X187951904Y-51780000D01*
X187999523Y-51827619D01*
X188047142Y-51922857D01*
X188094761Y-52113333D01*
X188094761Y-52351428D01*
X188047142Y-52541904D01*
X187999523Y-52637142D01*
X187951904Y-52684761D01*
X187856666Y-52732380D01*
X187761428Y-52732380D01*
X187666190Y-52684761D01*
X187618571Y-52637142D01*
X187570952Y-52541904D01*
X187523333Y-52351428D01*
X187523333Y-52113333D01*
X187570952Y-51922857D01*
X187618571Y-51827619D01*
X187666190Y-51780000D01*
X187761428Y-51732380D01*
X189047142Y-52732380D02*
X188475714Y-52732380D01*
X188761428Y-52732380D02*
X188761428Y-51732380D01*
X188666190Y-51875238D01*
X188570952Y-51970476D01*
X188475714Y-52018095D01*
%TO.C,JCNB103*%
X110920476Y-56372380D02*
X110920476Y-57086666D01*
X110872857Y-57229523D01*
X110777619Y-57324761D01*
X110634761Y-57372380D01*
X110539523Y-57372380D01*
X111968095Y-57277142D02*
X111920476Y-57324761D01*
X111777619Y-57372380D01*
X111682380Y-57372380D01*
X111539523Y-57324761D01*
X111444285Y-57229523D01*
X111396666Y-57134285D01*
X111349047Y-56943809D01*
X111349047Y-56800952D01*
X111396666Y-56610476D01*
X111444285Y-56515238D01*
X111539523Y-56420000D01*
X111682380Y-56372380D01*
X111777619Y-56372380D01*
X111920476Y-56420000D01*
X111968095Y-56467619D01*
X112396666Y-57372380D02*
X112396666Y-56372380D01*
X112968095Y-57372380D01*
X112968095Y-56372380D01*
X113777619Y-56848571D02*
X113920476Y-56896190D01*
X113968095Y-56943809D01*
X114015714Y-57039047D01*
X114015714Y-57181904D01*
X113968095Y-57277142D01*
X113920476Y-57324761D01*
X113825238Y-57372380D01*
X113444285Y-57372380D01*
X113444285Y-56372380D01*
X113777619Y-56372380D01*
X113872857Y-56420000D01*
X113920476Y-56467619D01*
X113968095Y-56562857D01*
X113968095Y-56658095D01*
X113920476Y-56753333D01*
X113872857Y-56800952D01*
X113777619Y-56848571D01*
X113444285Y-56848571D01*
X114968095Y-57372380D02*
X114396666Y-57372380D01*
X114682380Y-57372380D02*
X114682380Y-56372380D01*
X114587142Y-56515238D01*
X114491904Y-56610476D01*
X114396666Y-56658095D01*
X115587142Y-56372380D02*
X115682380Y-56372380D01*
X115777619Y-56420000D01*
X115825238Y-56467619D01*
X115872857Y-56562857D01*
X115920476Y-56753333D01*
X115920476Y-56991428D01*
X115872857Y-57181904D01*
X115825238Y-57277142D01*
X115777619Y-57324761D01*
X115682380Y-57372380D01*
X115587142Y-57372380D01*
X115491904Y-57324761D01*
X115444285Y-57277142D01*
X115396666Y-57181904D01*
X115349047Y-56991428D01*
X115349047Y-56753333D01*
X115396666Y-56562857D01*
X115444285Y-56467619D01*
X115491904Y-56420000D01*
X115587142Y-56372380D01*
X116253809Y-56372380D02*
X116872857Y-56372380D01*
X116539523Y-56753333D01*
X116682380Y-56753333D01*
X116777619Y-56800952D01*
X116825238Y-56848571D01*
X116872857Y-56943809D01*
X116872857Y-57181904D01*
X116825238Y-57277142D01*
X116777619Y-57324761D01*
X116682380Y-57372380D01*
X116396666Y-57372380D01*
X116301428Y-57324761D01*
X116253809Y-57277142D01*
%TO.C,IC119*%
X183491428Y-111152380D02*
X183491428Y-110152380D01*
X184539047Y-111057142D02*
X184491428Y-111104761D01*
X184348571Y-111152380D01*
X184253333Y-111152380D01*
X184110476Y-111104761D01*
X184015238Y-111009523D01*
X183967619Y-110914285D01*
X183920000Y-110723809D01*
X183920000Y-110580952D01*
X183967619Y-110390476D01*
X184015238Y-110295238D01*
X184110476Y-110200000D01*
X184253333Y-110152380D01*
X184348571Y-110152380D01*
X184491428Y-110200000D01*
X184539047Y-110247619D01*
X185491428Y-111152380D02*
X184920000Y-111152380D01*
X185205714Y-111152380D02*
X185205714Y-110152380D01*
X185110476Y-110295238D01*
X185015238Y-110390476D01*
X184920000Y-110438095D01*
X186443809Y-111152380D02*
X185872380Y-111152380D01*
X186158095Y-111152380D02*
X186158095Y-110152380D01*
X186062857Y-110295238D01*
X185967619Y-110390476D01*
X185872380Y-110438095D01*
X186920000Y-111152380D02*
X187110476Y-111152380D01*
X187205714Y-111104761D01*
X187253333Y-111057142D01*
X187348571Y-110914285D01*
X187396190Y-110723809D01*
X187396190Y-110342857D01*
X187348571Y-110247619D01*
X187300952Y-110200000D01*
X187205714Y-110152380D01*
X187015238Y-110152380D01*
X186920000Y-110200000D01*
X186872380Y-110247619D01*
X186824761Y-110342857D01*
X186824761Y-110580952D01*
X186872380Y-110676190D01*
X186920000Y-110723809D01*
X187015238Y-110771428D01*
X187205714Y-110771428D01*
X187300952Y-110723809D01*
X187348571Y-110676190D01*
X187396190Y-110580952D01*
%TO.C,IC117*%
X202592380Y-99718571D02*
X201592380Y-99718571D01*
X202497142Y-98670952D02*
X202544761Y-98718571D01*
X202592380Y-98861428D01*
X202592380Y-98956666D01*
X202544761Y-99099523D01*
X202449523Y-99194761D01*
X202354285Y-99242380D01*
X202163809Y-99290000D01*
X202020952Y-99290000D01*
X201830476Y-99242380D01*
X201735238Y-99194761D01*
X201640000Y-99099523D01*
X201592380Y-98956666D01*
X201592380Y-98861428D01*
X201640000Y-98718571D01*
X201687619Y-98670952D01*
X202592380Y-97718571D02*
X202592380Y-98290000D01*
X202592380Y-98004285D02*
X201592380Y-98004285D01*
X201735238Y-98099523D01*
X201830476Y-98194761D01*
X201878095Y-98290000D01*
X202592380Y-96766190D02*
X202592380Y-97337619D01*
X202592380Y-97051904D02*
X201592380Y-97051904D01*
X201735238Y-97147142D01*
X201830476Y-97242380D01*
X201878095Y-97337619D01*
X201592380Y-96432857D02*
X201592380Y-95766190D01*
X202592380Y-96194761D01*
%TO.C,IC113*%
X151792380Y-100988571D02*
X150792380Y-100988571D01*
X151697142Y-99940952D02*
X151744761Y-99988571D01*
X151792380Y-100131428D01*
X151792380Y-100226666D01*
X151744761Y-100369523D01*
X151649523Y-100464761D01*
X151554285Y-100512380D01*
X151363809Y-100560000D01*
X151220952Y-100560000D01*
X151030476Y-100512380D01*
X150935238Y-100464761D01*
X150840000Y-100369523D01*
X150792380Y-100226666D01*
X150792380Y-100131428D01*
X150840000Y-99988571D01*
X150887619Y-99940952D01*
X151792380Y-98988571D02*
X151792380Y-99560000D01*
X151792380Y-99274285D02*
X150792380Y-99274285D01*
X150935238Y-99369523D01*
X151030476Y-99464761D01*
X151078095Y-99560000D01*
X151792380Y-98036190D02*
X151792380Y-98607619D01*
X151792380Y-98321904D02*
X150792380Y-98321904D01*
X150935238Y-98417142D01*
X151030476Y-98512380D01*
X151078095Y-98607619D01*
X150792380Y-97702857D02*
X150792380Y-97083809D01*
X151173333Y-97417142D01*
X151173333Y-97274285D01*
X151220952Y-97179047D01*
X151268571Y-97131428D01*
X151363809Y-97083809D01*
X151601904Y-97083809D01*
X151697142Y-97131428D01*
X151744761Y-97179047D01*
X151792380Y-97274285D01*
X151792380Y-97560000D01*
X151744761Y-97655238D01*
X151697142Y-97702857D01*
%TO.C,IC112*%
X239371428Y-111152380D02*
X239371428Y-110152380D01*
X240419047Y-111057142D02*
X240371428Y-111104761D01*
X240228571Y-111152380D01*
X240133333Y-111152380D01*
X239990476Y-111104761D01*
X239895238Y-111009523D01*
X239847619Y-110914285D01*
X239800000Y-110723809D01*
X239800000Y-110580952D01*
X239847619Y-110390476D01*
X239895238Y-110295238D01*
X239990476Y-110200000D01*
X240133333Y-110152380D01*
X240228571Y-110152380D01*
X240371428Y-110200000D01*
X240419047Y-110247619D01*
X241371428Y-111152380D02*
X240800000Y-111152380D01*
X241085714Y-111152380D02*
X241085714Y-110152380D01*
X240990476Y-110295238D01*
X240895238Y-110390476D01*
X240800000Y-110438095D01*
X242323809Y-111152380D02*
X241752380Y-111152380D01*
X242038095Y-111152380D02*
X242038095Y-110152380D01*
X241942857Y-110295238D01*
X241847619Y-110390476D01*
X241752380Y-110438095D01*
X242704761Y-110247619D02*
X242752380Y-110200000D01*
X242847619Y-110152380D01*
X243085714Y-110152380D01*
X243180952Y-110200000D01*
X243228571Y-110247619D01*
X243276190Y-110342857D01*
X243276190Y-110438095D01*
X243228571Y-110580952D01*
X242657142Y-111152380D01*
X243276190Y-111152380D01*
%TO.C,IC110*%
X130202380Y-100988571D02*
X129202380Y-100988571D01*
X130107142Y-99940952D02*
X130154761Y-99988571D01*
X130202380Y-100131428D01*
X130202380Y-100226666D01*
X130154761Y-100369523D01*
X130059523Y-100464761D01*
X129964285Y-100512380D01*
X129773809Y-100560000D01*
X129630952Y-100560000D01*
X129440476Y-100512380D01*
X129345238Y-100464761D01*
X129250000Y-100369523D01*
X129202380Y-100226666D01*
X129202380Y-100131428D01*
X129250000Y-99988571D01*
X129297619Y-99940952D01*
X130202380Y-98988571D02*
X130202380Y-99560000D01*
X130202380Y-99274285D02*
X129202380Y-99274285D01*
X129345238Y-99369523D01*
X129440476Y-99464761D01*
X129488095Y-99560000D01*
X130202380Y-98036190D02*
X130202380Y-98607619D01*
X130202380Y-98321904D02*
X129202380Y-98321904D01*
X129345238Y-98417142D01*
X129440476Y-98512380D01*
X129488095Y-98607619D01*
X129202380Y-97417142D02*
X129202380Y-97321904D01*
X129250000Y-97226666D01*
X129297619Y-97179047D01*
X129392857Y-97131428D01*
X129583333Y-97083809D01*
X129821428Y-97083809D01*
X130011904Y-97131428D01*
X130107142Y-97179047D01*
X130154761Y-97226666D01*
X130202380Y-97321904D01*
X130202380Y-97417142D01*
X130154761Y-97512380D01*
X130107142Y-97560000D01*
X130011904Y-97607619D01*
X129821428Y-97655238D01*
X129583333Y-97655238D01*
X129392857Y-97607619D01*
X129297619Y-97560000D01*
X129250000Y-97512380D01*
X129202380Y-97417142D01*
%TO.C,IC107*%
X150471428Y-41302380D02*
X150471428Y-40302380D01*
X151519047Y-41207142D02*
X151471428Y-41254761D01*
X151328571Y-41302380D01*
X151233333Y-41302380D01*
X151090476Y-41254761D01*
X150995238Y-41159523D01*
X150947619Y-41064285D01*
X150900000Y-40873809D01*
X150900000Y-40730952D01*
X150947619Y-40540476D01*
X150995238Y-40445238D01*
X151090476Y-40350000D01*
X151233333Y-40302380D01*
X151328571Y-40302380D01*
X151471428Y-40350000D01*
X151519047Y-40397619D01*
X152471428Y-41302380D02*
X151900000Y-41302380D01*
X152185714Y-41302380D02*
X152185714Y-40302380D01*
X152090476Y-40445238D01*
X151995238Y-40540476D01*
X151900000Y-40588095D01*
X153090476Y-40302380D02*
X153185714Y-40302380D01*
X153280952Y-40350000D01*
X153328571Y-40397619D01*
X153376190Y-40492857D01*
X153423809Y-40683333D01*
X153423809Y-40921428D01*
X153376190Y-41111904D01*
X153328571Y-41207142D01*
X153280952Y-41254761D01*
X153185714Y-41302380D01*
X153090476Y-41302380D01*
X152995238Y-41254761D01*
X152947619Y-41207142D01*
X152900000Y-41111904D01*
X152852380Y-40921428D01*
X152852380Y-40683333D01*
X152900000Y-40492857D01*
X152947619Y-40397619D01*
X152995238Y-40350000D01*
X153090476Y-40302380D01*
X153757142Y-40302380D02*
X154423809Y-40302380D01*
X153995238Y-41302380D01*
%TO.C,IC106*%
X164441428Y-108612380D02*
X164441428Y-107612380D01*
X165489047Y-108517142D02*
X165441428Y-108564761D01*
X165298571Y-108612380D01*
X165203333Y-108612380D01*
X165060476Y-108564761D01*
X164965238Y-108469523D01*
X164917619Y-108374285D01*
X164870000Y-108183809D01*
X164870000Y-108040952D01*
X164917619Y-107850476D01*
X164965238Y-107755238D01*
X165060476Y-107660000D01*
X165203333Y-107612380D01*
X165298571Y-107612380D01*
X165441428Y-107660000D01*
X165489047Y-107707619D01*
X166441428Y-108612380D02*
X165870000Y-108612380D01*
X166155714Y-108612380D02*
X166155714Y-107612380D01*
X166060476Y-107755238D01*
X165965238Y-107850476D01*
X165870000Y-107898095D01*
X167060476Y-107612380D02*
X167155714Y-107612380D01*
X167250952Y-107660000D01*
X167298571Y-107707619D01*
X167346190Y-107802857D01*
X167393809Y-107993333D01*
X167393809Y-108231428D01*
X167346190Y-108421904D01*
X167298571Y-108517142D01*
X167250952Y-108564761D01*
X167155714Y-108612380D01*
X167060476Y-108612380D01*
X166965238Y-108564761D01*
X166917619Y-108517142D01*
X166870000Y-108421904D01*
X166822380Y-108231428D01*
X166822380Y-107993333D01*
X166870000Y-107802857D01*
X166917619Y-107707619D01*
X166965238Y-107660000D01*
X167060476Y-107612380D01*
X168250952Y-107612380D02*
X168060476Y-107612380D01*
X167965238Y-107660000D01*
X167917619Y-107707619D01*
X167822380Y-107850476D01*
X167774761Y-108040952D01*
X167774761Y-108421904D01*
X167822380Y-108517142D01*
X167870000Y-108564761D01*
X167965238Y-108612380D01*
X168155714Y-108612380D01*
X168250952Y-108564761D01*
X168298571Y-108517142D01*
X168346190Y-108421904D01*
X168346190Y-108183809D01*
X168298571Y-108088571D01*
X168250952Y-108040952D01*
X168155714Y-107993333D01*
X167965238Y-107993333D01*
X167870000Y-108040952D01*
X167822380Y-108088571D01*
X167774761Y-108183809D01*
%TO.C,IC103*%
X222912380Y-99718571D02*
X221912380Y-99718571D01*
X222817142Y-98670952D02*
X222864761Y-98718571D01*
X222912380Y-98861428D01*
X222912380Y-98956666D01*
X222864761Y-99099523D01*
X222769523Y-99194761D01*
X222674285Y-99242380D01*
X222483809Y-99290000D01*
X222340952Y-99290000D01*
X222150476Y-99242380D01*
X222055238Y-99194761D01*
X221960000Y-99099523D01*
X221912380Y-98956666D01*
X221912380Y-98861428D01*
X221960000Y-98718571D01*
X222007619Y-98670952D01*
X222912380Y-97718571D02*
X222912380Y-98290000D01*
X222912380Y-98004285D02*
X221912380Y-98004285D01*
X222055238Y-98099523D01*
X222150476Y-98194761D01*
X222198095Y-98290000D01*
X221912380Y-97099523D02*
X221912380Y-97004285D01*
X221960000Y-96909047D01*
X222007619Y-96861428D01*
X222102857Y-96813809D01*
X222293333Y-96766190D01*
X222531428Y-96766190D01*
X222721904Y-96813809D01*
X222817142Y-96861428D01*
X222864761Y-96909047D01*
X222912380Y-97004285D01*
X222912380Y-97099523D01*
X222864761Y-97194761D01*
X222817142Y-97242380D01*
X222721904Y-97290000D01*
X222531428Y-97337619D01*
X222293333Y-97337619D01*
X222102857Y-97290000D01*
X222007619Y-97242380D01*
X221960000Y-97194761D01*
X221912380Y-97099523D01*
X221912380Y-96432857D02*
X221912380Y-95813809D01*
X222293333Y-96147142D01*
X222293333Y-96004285D01*
X222340952Y-95909047D01*
X222388571Y-95861428D01*
X222483809Y-95813809D01*
X222721904Y-95813809D01*
X222817142Y-95861428D01*
X222864761Y-95909047D01*
X222912380Y-96004285D01*
X222912380Y-96290000D01*
X222864761Y-96385238D01*
X222817142Y-96432857D01*
%TD*%
M02*
