%TF.GenerationSoftware,KiCad,Pcbnew,(5.1.10)-1*%
%TF.CreationDate,2022-02-01T13:34:57+01:00*%
%TF.ProjectId,TA8-FDC,5441382d-4644-4432-9e6b-696361645f70,rev?*%
%TF.SameCoordinates,Original*%
%TF.FileFunction,Other,Fab,Top*%
%FSLAX46Y46*%
G04 Gerber Fmt 4.6, Leading zero omitted, Abs format (unit mm)*
G04 Created by KiCad (PCBNEW (5.1.10)-1) date 2022-02-01 13:34:57*
%MOMM*%
%LPD*%
G01*
G04 APERTURE LIST*
%ADD10C,0.100000*%
%ADD11C,0.150000*%
%ADD12C,0.090000*%
%ADD13C,0.120000*%
G04 APERTURE END LIST*
D10*
%TO.C,R4*%
X258420000Y-138410000D02*
X258420000Y-135910000D01*
X258420000Y-135910000D02*
X252120000Y-135910000D01*
X252120000Y-135910000D02*
X252120000Y-138410000D01*
X252120000Y-138410000D02*
X258420000Y-138410000D01*
X260350000Y-137160000D02*
X258420000Y-137160000D01*
X250190000Y-137160000D02*
X252120000Y-137160000D01*
%TO.C,R3*%
X262230000Y-134600000D02*
X262230000Y-132100000D01*
X262230000Y-132100000D02*
X255930000Y-132100000D01*
X255930000Y-132100000D02*
X255930000Y-134600000D01*
X255930000Y-134600000D02*
X262230000Y-134600000D01*
X264160000Y-133350000D02*
X262230000Y-133350000D01*
X254000000Y-133350000D02*
X255930000Y-133350000D01*
%TO.C,R2*%
X236880000Y-43200000D02*
X236880000Y-45700000D01*
X236880000Y-45700000D02*
X243180000Y-45700000D01*
X243180000Y-45700000D02*
X243180000Y-43200000D01*
X243180000Y-43200000D02*
X236880000Y-43200000D01*
X234950000Y-44450000D02*
X236880000Y-44450000D01*
X245110000Y-44450000D02*
X243180000Y-44450000D01*
%TO.C,R1*%
X236880000Y-39390000D02*
X236880000Y-41890000D01*
X236880000Y-41890000D02*
X243180000Y-41890000D01*
X243180000Y-41890000D02*
X243180000Y-39390000D01*
X243180000Y-39390000D02*
X236880000Y-39390000D01*
X234950000Y-40640000D02*
X236880000Y-40640000D01*
X245110000Y-40640000D02*
X243180000Y-40640000D01*
%TO.C,C7*%
X265680000Y-138160000D02*
X265680000Y-136160000D01*
X265680000Y-136160000D02*
X262680000Y-136160000D01*
X262680000Y-136160000D02*
X262680000Y-138160000D01*
X262680000Y-138160000D02*
X265680000Y-138160000D01*
%TO.C,C6*%
X229620000Y-43450000D02*
X229620000Y-45450000D01*
X229620000Y-45450000D02*
X232620000Y-45450000D01*
X232620000Y-45450000D02*
X232620000Y-43450000D01*
X232620000Y-43450000D02*
X229620000Y-43450000D01*
%TO.C,C5*%
X265680000Y-103870000D02*
X265680000Y-101870000D01*
X265680000Y-101870000D02*
X262680000Y-101870000D01*
X262680000Y-101870000D02*
X262680000Y-103870000D01*
X262680000Y-103870000D02*
X265680000Y-103870000D01*
%TO.C,C4*%
X229620000Y-39640000D02*
X229620000Y-41640000D01*
X229620000Y-41640000D02*
X232620000Y-41640000D01*
X232620000Y-41640000D02*
X232620000Y-39640000D01*
X232620000Y-39640000D02*
X229620000Y-39640000D01*
%TO.C,U4*%
X255905000Y-126730000D02*
X256905000Y-125730000D01*
X255905000Y-130810000D02*
X255905000Y-126730000D01*
X262255000Y-130810000D02*
X255905000Y-130810000D01*
X262255000Y-125730000D02*
X262255000Y-130810000D01*
X256905000Y-125730000D02*
X262255000Y-125730000D01*
%TO.C,U3*%
X255905000Y-120380000D02*
X256905000Y-119380000D01*
X255905000Y-124460000D02*
X255905000Y-120380000D01*
X262255000Y-124460000D02*
X255905000Y-124460000D01*
X262255000Y-119380000D02*
X262255000Y-124460000D01*
X256905000Y-119380000D02*
X262255000Y-119380000D01*
%TO.C,U2*%
X255905000Y-114030000D02*
X256905000Y-113030000D01*
X255905000Y-118110000D02*
X255905000Y-114030000D01*
X262255000Y-118110000D02*
X255905000Y-118110000D01*
X262255000Y-113030000D02*
X262255000Y-118110000D01*
X256905000Y-113030000D02*
X262255000Y-113030000D01*
%TO.C,J2*%
X264160000Y-90170000D02*
X264160000Y-100330000D01*
X259080000Y-90170000D02*
X264160000Y-90170000D01*
X259080000Y-99330000D02*
X259080000Y-90170000D01*
X260080000Y-100330000D02*
X259080000Y-99330000D01*
X264160000Y-100330000D02*
X260080000Y-100330000D01*
%TO.C,U5*%
X255905000Y-107680000D02*
X256905000Y-106680000D01*
X255905000Y-111760000D02*
X255905000Y-107680000D01*
X262255000Y-111760000D02*
X255905000Y-111760000D01*
X262255000Y-106680000D02*
X262255000Y-111760000D01*
X256905000Y-106680000D02*
X262255000Y-106680000D01*
%TO.C,IC105*%
X211455000Y-112760000D02*
X212455000Y-111760000D01*
X211455000Y-129540000D02*
X211455000Y-112760000D01*
X217805000Y-129540000D02*
X211455000Y-129540000D01*
X217805000Y-111760000D02*
X217805000Y-129540000D01*
X212455000Y-111760000D02*
X217805000Y-111760000D01*
%TO.C,IC10*%
X205995000Y-55610000D02*
X206995000Y-54610000D01*
X205995000Y-85090000D02*
X205995000Y-55610000D01*
X220725000Y-85090000D02*
X205995000Y-85090000D01*
X220725000Y-54610000D02*
X220725000Y-85090000D01*
X206995000Y-54610000D02*
X220725000Y-54610000D01*
%TO.C,J1*%
X260350000Y-41910000D02*
X264430000Y-41910000D01*
X264430000Y-41910000D02*
X265430000Y-42910000D01*
X265430000Y-42910000D02*
X265430000Y-85090000D01*
X265430000Y-85090000D02*
X260350000Y-85090000D01*
X260350000Y-85090000D02*
X260350000Y-41910000D01*
%TO.C,IC109*%
X227965000Y-68310000D02*
X228965000Y-67310000D01*
X227965000Y-85090000D02*
X227965000Y-68310000D01*
X234315000Y-85090000D02*
X227965000Y-85090000D01*
X234315000Y-67310000D02*
X234315000Y-85090000D01*
X228965000Y-67310000D02*
X234315000Y-67310000D01*
%TO.C,IC102*%
X227965000Y-47990000D02*
X228965000Y-46990000D01*
X227965000Y-64770000D02*
X227965000Y-47990000D01*
X234315000Y-64770000D02*
X227965000Y-64770000D01*
X234315000Y-46990000D02*
X234315000Y-64770000D01*
X228965000Y-46990000D02*
X234315000Y-46990000D01*
%TO.C,IC108*%
X197485000Y-110220000D02*
X198485000Y-109220000D01*
X197485000Y-129540000D02*
X197485000Y-110220000D01*
X203835000Y-129540000D02*
X197485000Y-129540000D01*
X203835000Y-109220000D02*
X203835000Y-129540000D01*
X198485000Y-109220000D02*
X203835000Y-109220000D01*
%TO.C,U16*%
X146685000Y-110220000D02*
X147685000Y-109220000D01*
X146685000Y-134620000D02*
X146685000Y-110220000D01*
X153035000Y-134620000D02*
X146685000Y-134620000D01*
X153035000Y-109220000D02*
X153035000Y-134620000D01*
X147685000Y-109220000D02*
X153035000Y-109220000D01*
%TO.C,U1*%
X224155000Y-112760000D02*
X225155000Y-111760000D01*
X224155000Y-129540000D02*
X224155000Y-112760000D01*
X230505000Y-129540000D02*
X224155000Y-129540000D01*
X230505000Y-111760000D02*
X230505000Y-129540000D01*
X225155000Y-111760000D02*
X230505000Y-111760000D01*
%TO.C,IC116*%
X149225000Y-72120000D02*
X150225000Y-71120000D01*
X149225000Y-88900000D02*
X149225000Y-72120000D01*
X155575000Y-88900000D02*
X149225000Y-88900000D01*
X155575000Y-71120000D02*
X155575000Y-88900000D01*
X150225000Y-71120000D02*
X155575000Y-71120000D01*
%TO.C,RN1*%
X250170000Y-40620000D02*
X247670000Y-40620000D01*
X247670000Y-40620000D02*
X247670000Y-60980000D01*
X247670000Y-60980000D02*
X250170000Y-60980000D01*
X250170000Y-60980000D02*
X250170000Y-40620000D01*
X250170000Y-43180000D02*
X247670000Y-43180000D01*
%TO.C,R107*%
X223520000Y-87630000D02*
X221590000Y-87630000D01*
X213360000Y-87630000D02*
X215290000Y-87630000D01*
X221590000Y-86380000D02*
X215290000Y-86380000D01*
X221590000Y-88880000D02*
X221590000Y-86380000D01*
X215290000Y-88880000D02*
X221590000Y-88880000D01*
X215290000Y-86380000D02*
X215290000Y-88880000D01*
%TO.C,R142*%
X110490000Y-52070000D02*
X112420000Y-52070000D01*
X120650000Y-52070000D02*
X118720000Y-52070000D01*
X112420000Y-53320000D02*
X118720000Y-53320000D01*
X112420000Y-50820000D02*
X112420000Y-53320000D01*
X118720000Y-50820000D02*
X112420000Y-50820000D01*
X118720000Y-53320000D02*
X118720000Y-50820000D01*
%TO.C,R108*%
X203200000Y-44450000D02*
X205130000Y-44450000D01*
X213360000Y-44450000D02*
X211430000Y-44450000D01*
X205130000Y-45700000D02*
X211430000Y-45700000D01*
X205130000Y-43200000D02*
X205130000Y-45700000D01*
X211430000Y-43200000D02*
X205130000Y-43200000D01*
X211430000Y-45700000D02*
X211430000Y-43200000D01*
%TO.C,R106*%
X250190000Y-68580000D02*
X248260000Y-68580000D01*
X240030000Y-68580000D02*
X241960000Y-68580000D01*
X248260000Y-67330000D02*
X241960000Y-67330000D01*
X248260000Y-69830000D02*
X248260000Y-67330000D01*
X241960000Y-69830000D02*
X248260000Y-69830000D01*
X241960000Y-67330000D02*
X241960000Y-69830000D01*
%TO.C,R105*%
X240030000Y-72390000D02*
X241960000Y-72390000D01*
X250190000Y-72390000D02*
X248260000Y-72390000D01*
X241960000Y-73640000D02*
X248260000Y-73640000D01*
X241960000Y-71140000D02*
X241960000Y-73640000D01*
X248260000Y-71140000D02*
X241960000Y-71140000D01*
X248260000Y-73640000D02*
X248260000Y-71140000D01*
%TO.C,R104*%
X240030000Y-76200000D02*
X241960000Y-76200000D01*
X250190000Y-76200000D02*
X248260000Y-76200000D01*
X241960000Y-77450000D02*
X248260000Y-77450000D01*
X241960000Y-74950000D02*
X241960000Y-77450000D01*
X248260000Y-74950000D02*
X241960000Y-74950000D01*
X248260000Y-77450000D02*
X248260000Y-74950000D01*
%TO.C,R103*%
X250190000Y-64770000D02*
X248260000Y-64770000D01*
X240030000Y-64770000D02*
X241960000Y-64770000D01*
X248260000Y-63520000D02*
X241960000Y-63520000D01*
X248260000Y-66020000D02*
X248260000Y-63520000D01*
X241960000Y-66020000D02*
X248260000Y-66020000D01*
X241960000Y-63520000D02*
X241960000Y-66020000D01*
%TO.C,R102*%
X189230000Y-44450000D02*
X191160000Y-44450000D01*
X199390000Y-44450000D02*
X197460000Y-44450000D01*
X191160000Y-45700000D02*
X197460000Y-45700000D01*
X191160000Y-43200000D02*
X191160000Y-45700000D01*
X197460000Y-43200000D02*
X191160000Y-43200000D01*
X197460000Y-45700000D02*
X197460000Y-43200000D01*
%TO.C,R101*%
X189230000Y-48260000D02*
X191160000Y-48260000D01*
X199390000Y-48260000D02*
X197460000Y-48260000D01*
X191160000Y-49510000D02*
X197460000Y-49510000D01*
X191160000Y-47010000D02*
X191160000Y-49510000D01*
X197460000Y-47010000D02*
X191160000Y-47010000D01*
X197460000Y-49510000D02*
X197460000Y-47010000D01*
%TO.C,D101*%
X183100000Y-46250000D02*
X183100000Y-42650000D01*
X182900000Y-46250000D02*
X182900000Y-42650000D01*
X183000000Y-46250000D02*
X183000000Y-42650000D01*
X175260000Y-44450000D02*
X176540000Y-44450000D01*
X185420000Y-44450000D02*
X184140000Y-44450000D01*
X176540000Y-46250000D02*
X184140000Y-46250000D01*
X176540000Y-42650000D02*
X176540000Y-46250000D01*
X184140000Y-42650000D02*
X176540000Y-42650000D01*
X184140000Y-46250000D02*
X184140000Y-42650000D01*
%TO.C,CY101*%
X205180000Y-51530000D02*
X211180000Y-51530000D01*
X205180000Y-47530000D02*
X211180000Y-47530000D01*
X204980000Y-51855000D02*
X211380000Y-51855000D01*
X204980000Y-47205000D02*
X211380000Y-47205000D01*
X211180000Y-51530000D02*
G75*
G03*
X211180000Y-47530000I0J2000000D01*
G01*
X205180000Y-51530000D02*
G75*
G02*
X205180000Y-47530000I0J2000000D01*
G01*
X211380000Y-51855000D02*
G75*
G03*
X211380000Y-47205000I0J2325000D01*
G01*
X204980000Y-51855000D02*
G75*
G02*
X204980000Y-47205000I0J2325000D01*
G01*
%TO.C,C107*%
X221190000Y-45990000D02*
X218190000Y-45990000D01*
X221190000Y-47990000D02*
X221190000Y-45990000D01*
X218190000Y-47990000D02*
X221190000Y-47990000D01*
X218190000Y-45990000D02*
X218190000Y-47990000D01*
%TO.C,C106*%
X174990000Y-113240000D02*
X174990000Y-110240000D01*
X172990000Y-113240000D02*
X174990000Y-113240000D01*
X172990000Y-110240000D02*
X172990000Y-113240000D01*
X174990000Y-110240000D02*
X172990000Y-110240000D01*
%TO.C,C105*%
X240300000Y-79800000D02*
X240300000Y-82800000D01*
X242300000Y-79800000D02*
X240300000Y-79800000D01*
X242300000Y-82800000D02*
X242300000Y-79800000D01*
X240300000Y-82800000D02*
X242300000Y-82800000D01*
%TO.C,C104*%
X221190000Y-48530000D02*
X218190000Y-48530000D01*
X221190000Y-50530000D02*
X221190000Y-48530000D01*
X218190000Y-50530000D02*
X221190000Y-50530000D01*
X218190000Y-48530000D02*
X218190000Y-50530000D01*
%TO.C,C103*%
X244090000Y-106950000D02*
X241090000Y-106950000D01*
X244090000Y-108950000D02*
X244090000Y-106950000D01*
X241090000Y-108950000D02*
X244090000Y-108950000D01*
X241090000Y-106950000D02*
X241090000Y-108950000D01*
%TO.C,C102*%
X198390000Y-55670000D02*
X198390000Y-58670000D01*
X200390000Y-55670000D02*
X198390000Y-55670000D01*
X200390000Y-58670000D02*
X200390000Y-55670000D01*
X198390000Y-58670000D02*
X200390000Y-58670000D01*
%TO.C,C101*%
X177032554Y-51867500D02*
X177032554Y-51467500D01*
X177232554Y-51667500D02*
X176832554Y-51667500D01*
X177530000Y-50800000D02*
G75*
G03*
X177530000Y-50800000I-2000000J0D01*
G01*
%TO.C,C3*%
X253497446Y-43382500D02*
X253497446Y-43782500D01*
X253297446Y-43582500D02*
X253697446Y-43582500D01*
X257000000Y-44450000D02*
G75*
G03*
X257000000Y-44450000I-2000000J0D01*
G01*
%TO.C,C2*%
X171660000Y-43450000D02*
X168660000Y-43450000D01*
X171660000Y-45450000D02*
X171660000Y-43450000D01*
X168660000Y-45450000D02*
X171660000Y-45450000D01*
X168660000Y-43450000D02*
X168660000Y-45450000D01*
%TO.C,C1*%
X120147446Y-125932500D02*
X120147446Y-126332500D01*
X119947446Y-126132500D02*
X120347446Y-126132500D01*
X123650000Y-127000000D02*
G75*
G03*
X123650000Y-127000000I-2000000J0D01*
G01*
%TO.C,RA106*%
X135870000Y-68580000D02*
X133370000Y-68580000D01*
X135870000Y-88920000D02*
X135870000Y-66020000D01*
X133370000Y-88920000D02*
X135870000Y-88920000D01*
X133370000Y-66020000D02*
X133370000Y-88920000D01*
X135870000Y-66020000D02*
X133370000Y-66020000D01*
%TO.C,RA102*%
X135870000Y-44450000D02*
X133370000Y-44450000D01*
X135870000Y-64790000D02*
X135870000Y-41890000D01*
X133370000Y-64790000D02*
X135870000Y-64790000D01*
X133370000Y-41890000D02*
X133370000Y-64790000D01*
X135870000Y-41890000D02*
X133370000Y-41890000D01*
%TO.C,RA101*%
X161270000Y-46990000D02*
X158770000Y-46990000D01*
X161270000Y-67330000D02*
X161270000Y-44430000D01*
X158770000Y-67330000D02*
X161270000Y-67330000D01*
X158770000Y-44430000D02*
X158770000Y-67330000D01*
X161270000Y-44430000D02*
X158770000Y-44430000D01*
%TO.C,RA3*%
X139680000Y-68580000D02*
X137180000Y-68580000D01*
X139680000Y-88920000D02*
X139680000Y-66020000D01*
X137180000Y-88920000D02*
X139680000Y-88920000D01*
X137180000Y-66020000D02*
X137180000Y-88920000D01*
X139680000Y-66020000D02*
X137180000Y-66020000D01*
%TO.C,RA2*%
X132060000Y-113030000D02*
X129560000Y-113030000D01*
X132060000Y-133370000D02*
X132060000Y-110470000D01*
X129560000Y-133370000D02*
X132060000Y-133370000D01*
X129560000Y-110470000D02*
X129560000Y-133370000D01*
X132060000Y-110470000D02*
X129560000Y-110470000D01*
%TO.C,RA1*%
X135870000Y-113030000D02*
X133370000Y-113030000D01*
X135870000Y-133370000D02*
X135870000Y-110470000D01*
X133370000Y-133370000D02*
X135870000Y-133370000D01*
X133370000Y-110470000D02*
X133370000Y-133370000D01*
X135870000Y-110470000D02*
X133370000Y-110470000D01*
%TO.C,LSI101*%
X179325000Y-54340000D02*
X180325000Y-53340000D01*
X179325000Y-104140000D02*
X179325000Y-54340000D01*
X194055000Y-104140000D02*
X179325000Y-104140000D01*
X194055000Y-53340000D02*
X194055000Y-104140000D01*
X180325000Y-53340000D02*
X194055000Y-53340000D01*
%TO.C,JCNB103*%
X119380000Y-120950000D02*
X119380000Y-120350000D01*
X115320000Y-120950000D02*
X119380000Y-120950000D01*
X119380000Y-120350000D02*
X115320000Y-120350000D01*
X119380000Y-118410000D02*
X119380000Y-117810000D01*
X115320000Y-118410000D02*
X119380000Y-118410000D01*
X119380000Y-117810000D02*
X115320000Y-117810000D01*
X119380000Y-115870000D02*
X119380000Y-115270000D01*
X115320000Y-115870000D02*
X119380000Y-115870000D01*
X119380000Y-115270000D02*
X115320000Y-115270000D01*
X119380000Y-113330000D02*
X119380000Y-112730000D01*
X115320000Y-113330000D02*
X119380000Y-113330000D01*
X119380000Y-112730000D02*
X115320000Y-112730000D01*
X119380000Y-110790000D02*
X119380000Y-110190000D01*
X115320000Y-110790000D02*
X119380000Y-110790000D01*
X119380000Y-110190000D02*
X115320000Y-110190000D01*
X119380000Y-108250000D02*
X119380000Y-107650000D01*
X115320000Y-108250000D02*
X119380000Y-108250000D01*
X119380000Y-107650000D02*
X115320000Y-107650000D01*
X119380000Y-105710000D02*
X119380000Y-105110000D01*
X115320000Y-105710000D02*
X119380000Y-105710000D01*
X119380000Y-105110000D02*
X115320000Y-105110000D01*
X119380000Y-103170000D02*
X119380000Y-102570000D01*
X115320000Y-103170000D02*
X119380000Y-103170000D01*
X119380000Y-102570000D02*
X115320000Y-102570000D01*
X119380000Y-100630000D02*
X119380000Y-100030000D01*
X115320000Y-100630000D02*
X119380000Y-100630000D01*
X119380000Y-100030000D02*
X115320000Y-100030000D01*
X119380000Y-98090000D02*
X119380000Y-97490000D01*
X115320000Y-98090000D02*
X119380000Y-98090000D01*
X119380000Y-97490000D02*
X115320000Y-97490000D01*
X119380000Y-95550000D02*
X119380000Y-94950000D01*
X115320000Y-95550000D02*
X119380000Y-95550000D01*
X119380000Y-94950000D02*
X115320000Y-94950000D01*
X119380000Y-93010000D02*
X119380000Y-92410000D01*
X115320000Y-93010000D02*
X119380000Y-93010000D01*
X119380000Y-92410000D02*
X115320000Y-92410000D01*
X119380000Y-90470000D02*
X119380000Y-89870000D01*
X115320000Y-90470000D02*
X119380000Y-90470000D01*
X119380000Y-89870000D02*
X115320000Y-89870000D01*
X119380000Y-87930000D02*
X119380000Y-87330000D01*
X115320000Y-87930000D02*
X119380000Y-87930000D01*
X119380000Y-87330000D02*
X115320000Y-87330000D01*
X119380000Y-85390000D02*
X119380000Y-84790000D01*
X115320000Y-85390000D02*
X119380000Y-85390000D01*
X119380000Y-84790000D02*
X115320000Y-84790000D01*
X119380000Y-82850000D02*
X119380000Y-82250000D01*
X115320000Y-82850000D02*
X119380000Y-82850000D01*
X119380000Y-82250000D02*
X115320000Y-82250000D01*
X119380000Y-80310000D02*
X119380000Y-79710000D01*
X115320000Y-80310000D02*
X119380000Y-80310000D01*
X119380000Y-79710000D02*
X115320000Y-79710000D01*
X119380000Y-77770000D02*
X119380000Y-77170000D01*
X115320000Y-77770000D02*
X119380000Y-77770000D01*
X119380000Y-77170000D02*
X115320000Y-77170000D01*
X119380000Y-75230000D02*
X119380000Y-74630000D01*
X115320000Y-75230000D02*
X119380000Y-75230000D01*
X119380000Y-74630000D02*
X115320000Y-74630000D01*
X119380000Y-72690000D02*
X119380000Y-72090000D01*
X115320000Y-72690000D02*
X119380000Y-72690000D01*
X119380000Y-72090000D02*
X115320000Y-72090000D01*
X119380000Y-70150000D02*
X119380000Y-69550000D01*
X115320000Y-70150000D02*
X119380000Y-70150000D01*
X119380000Y-69550000D02*
X115320000Y-69550000D01*
X119380000Y-67610000D02*
X119380000Y-67010000D01*
X115320000Y-67610000D02*
X119380000Y-67610000D01*
X119380000Y-67010000D02*
X115320000Y-67010000D01*
X119380000Y-65070000D02*
X119380000Y-64470000D01*
X115320000Y-65070000D02*
X119380000Y-65070000D01*
X119380000Y-64470000D02*
X115320000Y-64470000D01*
X119380000Y-62530000D02*
X119380000Y-61930000D01*
X115320000Y-62530000D02*
X119380000Y-62530000D01*
X119380000Y-61930000D02*
X115320000Y-61930000D01*
X119380000Y-59990000D02*
X119380000Y-59390000D01*
X115320000Y-59990000D02*
X119380000Y-59990000D01*
X119380000Y-59390000D02*
X115320000Y-59390000D01*
X106810000Y-121920000D02*
X106810000Y-58420000D01*
X115320000Y-121920000D02*
X106810000Y-121920000D01*
X115320000Y-59390000D02*
X115320000Y-121920000D01*
X114350000Y-58420000D02*
X115320000Y-59390000D01*
X106810000Y-58420000D02*
X114350000Y-58420000D01*
%TO.C,IC119*%
X182245000Y-112760000D02*
X183245000Y-111760000D01*
X182245000Y-129540000D02*
X182245000Y-112760000D01*
X188595000Y-129540000D02*
X182245000Y-129540000D01*
X188595000Y-111760000D02*
X188595000Y-129540000D01*
X183245000Y-111760000D02*
X188595000Y-111760000D01*
%TO.C,IC117*%
X204200000Y-100965000D02*
X203200000Y-99965000D01*
X220980000Y-100965000D02*
X204200000Y-100965000D01*
X220980000Y-94615000D02*
X220980000Y-100965000D01*
X203200000Y-94615000D02*
X220980000Y-94615000D01*
X203200000Y-99965000D02*
X203200000Y-94615000D01*
%TO.C,IC113*%
X153400000Y-102235000D02*
X152400000Y-101235000D01*
X170180000Y-102235000D02*
X153400000Y-102235000D01*
X170180000Y-95885000D02*
X170180000Y-102235000D01*
X152400000Y-95885000D02*
X170180000Y-95885000D01*
X152400000Y-101235000D02*
X152400000Y-95885000D01*
%TO.C,IC112*%
X238125000Y-112760000D02*
X239125000Y-111760000D01*
X238125000Y-129540000D02*
X238125000Y-112760000D01*
X244475000Y-129540000D02*
X238125000Y-129540000D01*
X244475000Y-111760000D02*
X244475000Y-129540000D01*
X239125000Y-111760000D02*
X244475000Y-111760000D01*
%TO.C,IC110*%
X131810000Y-102235000D02*
X130810000Y-101235000D01*
X148590000Y-102235000D02*
X131810000Y-102235000D01*
X148590000Y-95885000D02*
X148590000Y-102235000D01*
X130810000Y-95885000D02*
X148590000Y-95885000D01*
X130810000Y-101235000D02*
X130810000Y-95885000D01*
%TO.C,IC107*%
X149225000Y-42910000D02*
X150225000Y-41910000D01*
X149225000Y-67310000D02*
X149225000Y-42910000D01*
X155575000Y-67310000D02*
X149225000Y-67310000D01*
X155575000Y-41910000D02*
X155575000Y-67310000D01*
X150225000Y-41910000D02*
X155575000Y-41910000D01*
%TO.C,IC106*%
X163195000Y-110220000D02*
X164195000Y-109220000D01*
X163195000Y-129540000D02*
X163195000Y-110220000D01*
X169545000Y-129540000D02*
X163195000Y-129540000D01*
X169545000Y-109220000D02*
X169545000Y-129540000D01*
X164195000Y-109220000D02*
X169545000Y-109220000D01*
%TO.C,IC103*%
X224520000Y-100965000D02*
X223520000Y-99965000D01*
X241300000Y-100965000D02*
X224520000Y-100965000D01*
X241300000Y-94615000D02*
X241300000Y-100965000D01*
X223520000Y-94615000D02*
X241300000Y-94615000D01*
X223520000Y-99965000D02*
X223520000Y-94615000D01*
%TD*%
%TO.C,R4*%
D11*
X254031904Y-134337619D02*
X254079523Y-134290000D01*
X254174761Y-134242380D01*
X254412857Y-134242380D01*
X254508095Y-134290000D01*
X254555714Y-134337619D01*
X254603333Y-134432857D01*
X254603333Y-134528095D01*
X254555714Y-134670952D01*
X253984285Y-135242380D01*
X254603333Y-135242380D01*
X254984285Y-134337619D02*
X255031904Y-134290000D01*
X255127142Y-134242380D01*
X255365238Y-134242380D01*
X255460476Y-134290000D01*
X255508095Y-134337619D01*
X255555714Y-134432857D01*
X255555714Y-134528095D01*
X255508095Y-134670952D01*
X254936666Y-135242380D01*
X255555714Y-135242380D01*
X256174761Y-134242380D02*
X256270000Y-134242380D01*
X256365238Y-134290000D01*
X256412857Y-134337619D01*
X256460476Y-134432857D01*
X256508095Y-134623333D01*
X256508095Y-134861428D01*
X256460476Y-135051904D01*
X256412857Y-135147142D01*
X256365238Y-135194761D01*
X256270000Y-135242380D01*
X256174761Y-135242380D01*
X256079523Y-135194761D01*
X256031904Y-135147142D01*
X255984285Y-135051904D01*
X255936666Y-134861428D01*
X255936666Y-134623333D01*
X255984285Y-134432857D01*
X256031904Y-134337619D01*
X256079523Y-134290000D01*
X256174761Y-134242380D01*
X255103333Y-137612380D02*
X254770000Y-137136190D01*
X254531904Y-137612380D02*
X254531904Y-136612380D01*
X254912857Y-136612380D01*
X255008095Y-136660000D01*
X255055714Y-136707619D01*
X255103333Y-136802857D01*
X255103333Y-136945714D01*
X255055714Y-137040952D01*
X255008095Y-137088571D01*
X254912857Y-137136190D01*
X254531904Y-137136190D01*
X255960476Y-136945714D02*
X255960476Y-137612380D01*
X255722380Y-136564761D02*
X255484285Y-137279047D01*
X256103333Y-137279047D01*
%TO.C,R3*%
X257841904Y-130527619D02*
X257889523Y-130480000D01*
X257984761Y-130432380D01*
X258222857Y-130432380D01*
X258318095Y-130480000D01*
X258365714Y-130527619D01*
X258413333Y-130622857D01*
X258413333Y-130718095D01*
X258365714Y-130860952D01*
X257794285Y-131432380D01*
X258413333Y-131432380D01*
X258794285Y-130527619D02*
X258841904Y-130480000D01*
X258937142Y-130432380D01*
X259175238Y-130432380D01*
X259270476Y-130480000D01*
X259318095Y-130527619D01*
X259365714Y-130622857D01*
X259365714Y-130718095D01*
X259318095Y-130860952D01*
X258746666Y-131432380D01*
X259365714Y-131432380D01*
X259984761Y-130432380D02*
X260080000Y-130432380D01*
X260175238Y-130480000D01*
X260222857Y-130527619D01*
X260270476Y-130622857D01*
X260318095Y-130813333D01*
X260318095Y-131051428D01*
X260270476Y-131241904D01*
X260222857Y-131337142D01*
X260175238Y-131384761D01*
X260080000Y-131432380D01*
X259984761Y-131432380D01*
X259889523Y-131384761D01*
X259841904Y-131337142D01*
X259794285Y-131241904D01*
X259746666Y-131051428D01*
X259746666Y-130813333D01*
X259794285Y-130622857D01*
X259841904Y-130527619D01*
X259889523Y-130480000D01*
X259984761Y-130432380D01*
X258913333Y-133802380D02*
X258580000Y-133326190D01*
X258341904Y-133802380D02*
X258341904Y-132802380D01*
X258722857Y-132802380D01*
X258818095Y-132850000D01*
X258865714Y-132897619D01*
X258913333Y-132992857D01*
X258913333Y-133135714D01*
X258865714Y-133230952D01*
X258818095Y-133278571D01*
X258722857Y-133326190D01*
X258341904Y-133326190D01*
X259246666Y-132802380D02*
X259865714Y-132802380D01*
X259532380Y-133183333D01*
X259675238Y-133183333D01*
X259770476Y-133230952D01*
X259818095Y-133278571D01*
X259865714Y-133373809D01*
X259865714Y-133611904D01*
X259818095Y-133707142D01*
X259770476Y-133754761D01*
X259675238Y-133802380D01*
X259389523Y-133802380D01*
X259294285Y-133754761D01*
X259246666Y-133707142D01*
%TO.C,R2*%
X238791904Y-46367619D02*
X238839523Y-46320000D01*
X238934761Y-46272380D01*
X239172857Y-46272380D01*
X239268095Y-46320000D01*
X239315714Y-46367619D01*
X239363333Y-46462857D01*
X239363333Y-46558095D01*
X239315714Y-46700952D01*
X238744285Y-47272380D01*
X239363333Y-47272380D01*
X239744285Y-46367619D02*
X239791904Y-46320000D01*
X239887142Y-46272380D01*
X240125238Y-46272380D01*
X240220476Y-46320000D01*
X240268095Y-46367619D01*
X240315714Y-46462857D01*
X240315714Y-46558095D01*
X240268095Y-46700952D01*
X239696666Y-47272380D01*
X240315714Y-47272380D01*
X240934761Y-46272380D02*
X241030000Y-46272380D01*
X241125238Y-46320000D01*
X241172857Y-46367619D01*
X241220476Y-46462857D01*
X241268095Y-46653333D01*
X241268095Y-46891428D01*
X241220476Y-47081904D01*
X241172857Y-47177142D01*
X241125238Y-47224761D01*
X241030000Y-47272380D01*
X240934761Y-47272380D01*
X240839523Y-47224761D01*
X240791904Y-47177142D01*
X240744285Y-47081904D01*
X240696666Y-46891428D01*
X240696666Y-46653333D01*
X240744285Y-46462857D01*
X240791904Y-46367619D01*
X240839523Y-46320000D01*
X240934761Y-46272380D01*
X239863333Y-44902380D02*
X239530000Y-44426190D01*
X239291904Y-44902380D02*
X239291904Y-43902380D01*
X239672857Y-43902380D01*
X239768095Y-43950000D01*
X239815714Y-43997619D01*
X239863333Y-44092857D01*
X239863333Y-44235714D01*
X239815714Y-44330952D01*
X239768095Y-44378571D01*
X239672857Y-44426190D01*
X239291904Y-44426190D01*
X240244285Y-43997619D02*
X240291904Y-43950000D01*
X240387142Y-43902380D01*
X240625238Y-43902380D01*
X240720476Y-43950000D01*
X240768095Y-43997619D01*
X240815714Y-44092857D01*
X240815714Y-44188095D01*
X240768095Y-44330952D01*
X240196666Y-44902380D01*
X240815714Y-44902380D01*
%TO.C,R1*%
X238791904Y-42557619D02*
X238839523Y-42510000D01*
X238934761Y-42462380D01*
X239172857Y-42462380D01*
X239268095Y-42510000D01*
X239315714Y-42557619D01*
X239363333Y-42652857D01*
X239363333Y-42748095D01*
X239315714Y-42890952D01*
X238744285Y-43462380D01*
X239363333Y-43462380D01*
X239744285Y-42557619D02*
X239791904Y-42510000D01*
X239887142Y-42462380D01*
X240125238Y-42462380D01*
X240220476Y-42510000D01*
X240268095Y-42557619D01*
X240315714Y-42652857D01*
X240315714Y-42748095D01*
X240268095Y-42890952D01*
X239696666Y-43462380D01*
X240315714Y-43462380D01*
X240934761Y-42462380D02*
X241030000Y-42462380D01*
X241125238Y-42510000D01*
X241172857Y-42557619D01*
X241220476Y-42652857D01*
X241268095Y-42843333D01*
X241268095Y-43081428D01*
X241220476Y-43271904D01*
X241172857Y-43367142D01*
X241125238Y-43414761D01*
X241030000Y-43462380D01*
X240934761Y-43462380D01*
X240839523Y-43414761D01*
X240791904Y-43367142D01*
X240744285Y-43271904D01*
X240696666Y-43081428D01*
X240696666Y-42843333D01*
X240744285Y-42652857D01*
X240791904Y-42557619D01*
X240839523Y-42510000D01*
X240934761Y-42462380D01*
X239863333Y-41092380D02*
X239530000Y-40616190D01*
X239291904Y-41092380D02*
X239291904Y-40092380D01*
X239672857Y-40092380D01*
X239768095Y-40140000D01*
X239815714Y-40187619D01*
X239863333Y-40282857D01*
X239863333Y-40425714D01*
X239815714Y-40520952D01*
X239768095Y-40568571D01*
X239672857Y-40616190D01*
X239291904Y-40616190D01*
X240815714Y-41092380D02*
X240244285Y-41092380D01*
X240530000Y-41092380D02*
X240530000Y-40092380D01*
X240434761Y-40235238D01*
X240339523Y-40330476D01*
X240244285Y-40378095D01*
%TO.C,C7*%
X262632380Y-135362380D02*
X262060952Y-135362380D01*
X262346666Y-135362380D02*
X262346666Y-134362380D01*
X262251428Y-134505238D01*
X262156190Y-134600476D01*
X262060952Y-134648095D01*
X263251428Y-134362380D02*
X263346666Y-134362380D01*
X263441904Y-134410000D01*
X263489523Y-134457619D01*
X263537142Y-134552857D01*
X263584761Y-134743333D01*
X263584761Y-134981428D01*
X263537142Y-135171904D01*
X263489523Y-135267142D01*
X263441904Y-135314761D01*
X263346666Y-135362380D01*
X263251428Y-135362380D01*
X263156190Y-135314761D01*
X263108571Y-135267142D01*
X263060952Y-135171904D01*
X263013333Y-134981428D01*
X263013333Y-134743333D01*
X263060952Y-134552857D01*
X263108571Y-134457619D01*
X263156190Y-134410000D01*
X263251428Y-134362380D01*
X264203809Y-134362380D02*
X264299047Y-134362380D01*
X264394285Y-134410000D01*
X264441904Y-134457619D01*
X264489523Y-134552857D01*
X264537142Y-134743333D01*
X264537142Y-134981428D01*
X264489523Y-135171904D01*
X264441904Y-135267142D01*
X264394285Y-135314761D01*
X264299047Y-135362380D01*
X264203809Y-135362380D01*
X264108571Y-135314761D01*
X264060952Y-135267142D01*
X264013333Y-135171904D01*
X263965714Y-134981428D01*
X263965714Y-134743333D01*
X264013333Y-134552857D01*
X264060952Y-134457619D01*
X264108571Y-134410000D01*
X264203809Y-134362380D01*
X264965714Y-134695714D02*
X264965714Y-135362380D01*
X264965714Y-134790952D02*
X265013333Y-134743333D01*
X265108571Y-134695714D01*
X265251428Y-134695714D01*
X265346666Y-134743333D01*
X265394285Y-134838571D01*
X265394285Y-135362380D01*
X266203809Y-134838571D02*
X265870476Y-134838571D01*
X265870476Y-135362380D02*
X265870476Y-134362380D01*
X266346666Y-134362380D01*
D12*
X264080000Y-137374285D02*
X264051428Y-137402857D01*
X263965714Y-137431428D01*
X263908571Y-137431428D01*
X263822857Y-137402857D01*
X263765714Y-137345714D01*
X263737142Y-137288571D01*
X263708571Y-137174285D01*
X263708571Y-137088571D01*
X263737142Y-136974285D01*
X263765714Y-136917142D01*
X263822857Y-136860000D01*
X263908571Y-136831428D01*
X263965714Y-136831428D01*
X264051428Y-136860000D01*
X264080000Y-136888571D01*
X264280000Y-136831428D02*
X264680000Y-136831428D01*
X264422857Y-137431428D01*
%TO.C,C6*%
D11*
X229572380Y-47152380D02*
X229000952Y-47152380D01*
X229286666Y-47152380D02*
X229286666Y-46152380D01*
X229191428Y-46295238D01*
X229096190Y-46390476D01*
X229000952Y-46438095D01*
X230191428Y-46152380D02*
X230286666Y-46152380D01*
X230381904Y-46200000D01*
X230429523Y-46247619D01*
X230477142Y-46342857D01*
X230524761Y-46533333D01*
X230524761Y-46771428D01*
X230477142Y-46961904D01*
X230429523Y-47057142D01*
X230381904Y-47104761D01*
X230286666Y-47152380D01*
X230191428Y-47152380D01*
X230096190Y-47104761D01*
X230048571Y-47057142D01*
X230000952Y-46961904D01*
X229953333Y-46771428D01*
X229953333Y-46533333D01*
X230000952Y-46342857D01*
X230048571Y-46247619D01*
X230096190Y-46200000D01*
X230191428Y-46152380D01*
X231143809Y-46152380D02*
X231239047Y-46152380D01*
X231334285Y-46200000D01*
X231381904Y-46247619D01*
X231429523Y-46342857D01*
X231477142Y-46533333D01*
X231477142Y-46771428D01*
X231429523Y-46961904D01*
X231381904Y-47057142D01*
X231334285Y-47104761D01*
X231239047Y-47152380D01*
X231143809Y-47152380D01*
X231048571Y-47104761D01*
X231000952Y-47057142D01*
X230953333Y-46961904D01*
X230905714Y-46771428D01*
X230905714Y-46533333D01*
X230953333Y-46342857D01*
X231000952Y-46247619D01*
X231048571Y-46200000D01*
X231143809Y-46152380D01*
X231905714Y-46485714D02*
X231905714Y-47152380D01*
X231905714Y-46580952D02*
X231953333Y-46533333D01*
X232048571Y-46485714D01*
X232191428Y-46485714D01*
X232286666Y-46533333D01*
X232334285Y-46628571D01*
X232334285Y-47152380D01*
X233143809Y-46628571D02*
X232810476Y-46628571D01*
X232810476Y-47152380D02*
X232810476Y-46152380D01*
X233286666Y-46152380D01*
D12*
X231020000Y-44664285D02*
X230991428Y-44692857D01*
X230905714Y-44721428D01*
X230848571Y-44721428D01*
X230762857Y-44692857D01*
X230705714Y-44635714D01*
X230677142Y-44578571D01*
X230648571Y-44464285D01*
X230648571Y-44378571D01*
X230677142Y-44264285D01*
X230705714Y-44207142D01*
X230762857Y-44150000D01*
X230848571Y-44121428D01*
X230905714Y-44121428D01*
X230991428Y-44150000D01*
X231020000Y-44178571D01*
X231534285Y-44121428D02*
X231420000Y-44121428D01*
X231362857Y-44150000D01*
X231334285Y-44178571D01*
X231277142Y-44264285D01*
X231248571Y-44378571D01*
X231248571Y-44607142D01*
X231277142Y-44664285D01*
X231305714Y-44692857D01*
X231362857Y-44721428D01*
X231477142Y-44721428D01*
X231534285Y-44692857D01*
X231562857Y-44664285D01*
X231591428Y-44607142D01*
X231591428Y-44464285D01*
X231562857Y-44407142D01*
X231534285Y-44378571D01*
X231477142Y-44350000D01*
X231362857Y-44350000D01*
X231305714Y-44378571D01*
X231277142Y-44407142D01*
X231248571Y-44464285D01*
%TO.C,C5*%
D11*
X262632380Y-101072380D02*
X262060952Y-101072380D01*
X262346666Y-101072380D02*
X262346666Y-100072380D01*
X262251428Y-100215238D01*
X262156190Y-100310476D01*
X262060952Y-100358095D01*
X263251428Y-100072380D02*
X263346666Y-100072380D01*
X263441904Y-100120000D01*
X263489523Y-100167619D01*
X263537142Y-100262857D01*
X263584761Y-100453333D01*
X263584761Y-100691428D01*
X263537142Y-100881904D01*
X263489523Y-100977142D01*
X263441904Y-101024761D01*
X263346666Y-101072380D01*
X263251428Y-101072380D01*
X263156190Y-101024761D01*
X263108571Y-100977142D01*
X263060952Y-100881904D01*
X263013333Y-100691428D01*
X263013333Y-100453333D01*
X263060952Y-100262857D01*
X263108571Y-100167619D01*
X263156190Y-100120000D01*
X263251428Y-100072380D01*
X264203809Y-100072380D02*
X264299047Y-100072380D01*
X264394285Y-100120000D01*
X264441904Y-100167619D01*
X264489523Y-100262857D01*
X264537142Y-100453333D01*
X264537142Y-100691428D01*
X264489523Y-100881904D01*
X264441904Y-100977142D01*
X264394285Y-101024761D01*
X264299047Y-101072380D01*
X264203809Y-101072380D01*
X264108571Y-101024761D01*
X264060952Y-100977142D01*
X264013333Y-100881904D01*
X263965714Y-100691428D01*
X263965714Y-100453333D01*
X264013333Y-100262857D01*
X264060952Y-100167619D01*
X264108571Y-100120000D01*
X264203809Y-100072380D01*
X264965714Y-100405714D02*
X264965714Y-101072380D01*
X264965714Y-100500952D02*
X265013333Y-100453333D01*
X265108571Y-100405714D01*
X265251428Y-100405714D01*
X265346666Y-100453333D01*
X265394285Y-100548571D01*
X265394285Y-101072380D01*
X266203809Y-100548571D02*
X265870476Y-100548571D01*
X265870476Y-101072380D02*
X265870476Y-100072380D01*
X266346666Y-100072380D01*
D12*
X264080000Y-103084285D02*
X264051428Y-103112857D01*
X263965714Y-103141428D01*
X263908571Y-103141428D01*
X263822857Y-103112857D01*
X263765714Y-103055714D01*
X263737142Y-102998571D01*
X263708571Y-102884285D01*
X263708571Y-102798571D01*
X263737142Y-102684285D01*
X263765714Y-102627142D01*
X263822857Y-102570000D01*
X263908571Y-102541428D01*
X263965714Y-102541428D01*
X264051428Y-102570000D01*
X264080000Y-102598571D01*
X264622857Y-102541428D02*
X264337142Y-102541428D01*
X264308571Y-102827142D01*
X264337142Y-102798571D01*
X264394285Y-102770000D01*
X264537142Y-102770000D01*
X264594285Y-102798571D01*
X264622857Y-102827142D01*
X264651428Y-102884285D01*
X264651428Y-103027142D01*
X264622857Y-103084285D01*
X264594285Y-103112857D01*
X264537142Y-103141428D01*
X264394285Y-103141428D01*
X264337142Y-103112857D01*
X264308571Y-103084285D01*
%TO.C,C4*%
D11*
X229572380Y-43342380D02*
X229000952Y-43342380D01*
X229286666Y-43342380D02*
X229286666Y-42342380D01*
X229191428Y-42485238D01*
X229096190Y-42580476D01*
X229000952Y-42628095D01*
X230191428Y-42342380D02*
X230286666Y-42342380D01*
X230381904Y-42390000D01*
X230429523Y-42437619D01*
X230477142Y-42532857D01*
X230524761Y-42723333D01*
X230524761Y-42961428D01*
X230477142Y-43151904D01*
X230429523Y-43247142D01*
X230381904Y-43294761D01*
X230286666Y-43342380D01*
X230191428Y-43342380D01*
X230096190Y-43294761D01*
X230048571Y-43247142D01*
X230000952Y-43151904D01*
X229953333Y-42961428D01*
X229953333Y-42723333D01*
X230000952Y-42532857D01*
X230048571Y-42437619D01*
X230096190Y-42390000D01*
X230191428Y-42342380D01*
X231143809Y-42342380D02*
X231239047Y-42342380D01*
X231334285Y-42390000D01*
X231381904Y-42437619D01*
X231429523Y-42532857D01*
X231477142Y-42723333D01*
X231477142Y-42961428D01*
X231429523Y-43151904D01*
X231381904Y-43247142D01*
X231334285Y-43294761D01*
X231239047Y-43342380D01*
X231143809Y-43342380D01*
X231048571Y-43294761D01*
X231000952Y-43247142D01*
X230953333Y-43151904D01*
X230905714Y-42961428D01*
X230905714Y-42723333D01*
X230953333Y-42532857D01*
X231000952Y-42437619D01*
X231048571Y-42390000D01*
X231143809Y-42342380D01*
X231905714Y-42675714D02*
X231905714Y-43342380D01*
X231905714Y-42770952D02*
X231953333Y-42723333D01*
X232048571Y-42675714D01*
X232191428Y-42675714D01*
X232286666Y-42723333D01*
X232334285Y-42818571D01*
X232334285Y-43342380D01*
X233143809Y-42818571D02*
X232810476Y-42818571D01*
X232810476Y-43342380D02*
X232810476Y-42342380D01*
X233286666Y-42342380D01*
D12*
X231020000Y-40854285D02*
X230991428Y-40882857D01*
X230905714Y-40911428D01*
X230848571Y-40911428D01*
X230762857Y-40882857D01*
X230705714Y-40825714D01*
X230677142Y-40768571D01*
X230648571Y-40654285D01*
X230648571Y-40568571D01*
X230677142Y-40454285D01*
X230705714Y-40397142D01*
X230762857Y-40340000D01*
X230848571Y-40311428D01*
X230905714Y-40311428D01*
X230991428Y-40340000D01*
X231020000Y-40368571D01*
X231534285Y-40511428D02*
X231534285Y-40911428D01*
X231391428Y-40282857D02*
X231248571Y-40711428D01*
X231620000Y-40711428D01*
%TO.C,U4*%
D11*
X257413333Y-132036666D02*
X257889523Y-132036666D01*
X257318095Y-132322380D02*
X257651428Y-131322380D01*
X257984761Y-132322380D01*
X258222857Y-131322380D02*
X258841904Y-131322380D01*
X258508571Y-131703333D01*
X258651428Y-131703333D01*
X258746666Y-131750952D01*
X258794285Y-131798571D01*
X258841904Y-131893809D01*
X258841904Y-132131904D01*
X258794285Y-132227142D01*
X258746666Y-132274761D01*
X258651428Y-132322380D01*
X258365714Y-132322380D01*
X258270476Y-132274761D01*
X258222857Y-132227142D01*
X259460952Y-131322380D02*
X259556190Y-131322380D01*
X259651428Y-131370000D01*
X259699047Y-131417619D01*
X259746666Y-131512857D01*
X259794285Y-131703333D01*
X259794285Y-131941428D01*
X259746666Y-132131904D01*
X259699047Y-132227142D01*
X259651428Y-132274761D01*
X259556190Y-132322380D01*
X259460952Y-132322380D01*
X259365714Y-132274761D01*
X259318095Y-132227142D01*
X259270476Y-132131904D01*
X259222857Y-131941428D01*
X259222857Y-131703333D01*
X259270476Y-131512857D01*
X259318095Y-131417619D01*
X259365714Y-131370000D01*
X259460952Y-131322380D01*
X260175238Y-131417619D02*
X260222857Y-131370000D01*
X260318095Y-131322380D01*
X260556190Y-131322380D01*
X260651428Y-131370000D01*
X260699047Y-131417619D01*
X260746666Y-131512857D01*
X260746666Y-131608095D01*
X260699047Y-131750952D01*
X260127619Y-132322380D01*
X260746666Y-132322380D01*
X258318095Y-127722380D02*
X258318095Y-128531904D01*
X258365714Y-128627142D01*
X258413333Y-128674761D01*
X258508571Y-128722380D01*
X258699047Y-128722380D01*
X258794285Y-128674761D01*
X258841904Y-128627142D01*
X258889523Y-128531904D01*
X258889523Y-127722380D01*
X259794285Y-128055714D02*
X259794285Y-128722380D01*
X259556190Y-127674761D02*
X259318095Y-128389047D01*
X259937142Y-128389047D01*
%TO.C,U3*%
X257413333Y-125686666D02*
X257889523Y-125686666D01*
X257318095Y-125972380D02*
X257651428Y-124972380D01*
X257984761Y-125972380D01*
X258222857Y-124972380D02*
X258841904Y-124972380D01*
X258508571Y-125353333D01*
X258651428Y-125353333D01*
X258746666Y-125400952D01*
X258794285Y-125448571D01*
X258841904Y-125543809D01*
X258841904Y-125781904D01*
X258794285Y-125877142D01*
X258746666Y-125924761D01*
X258651428Y-125972380D01*
X258365714Y-125972380D01*
X258270476Y-125924761D01*
X258222857Y-125877142D01*
X259460952Y-124972380D02*
X259556190Y-124972380D01*
X259651428Y-125020000D01*
X259699047Y-125067619D01*
X259746666Y-125162857D01*
X259794285Y-125353333D01*
X259794285Y-125591428D01*
X259746666Y-125781904D01*
X259699047Y-125877142D01*
X259651428Y-125924761D01*
X259556190Y-125972380D01*
X259460952Y-125972380D01*
X259365714Y-125924761D01*
X259318095Y-125877142D01*
X259270476Y-125781904D01*
X259222857Y-125591428D01*
X259222857Y-125353333D01*
X259270476Y-125162857D01*
X259318095Y-125067619D01*
X259365714Y-125020000D01*
X259460952Y-124972380D01*
X260175238Y-125067619D02*
X260222857Y-125020000D01*
X260318095Y-124972380D01*
X260556190Y-124972380D01*
X260651428Y-125020000D01*
X260699047Y-125067619D01*
X260746666Y-125162857D01*
X260746666Y-125258095D01*
X260699047Y-125400952D01*
X260127619Y-125972380D01*
X260746666Y-125972380D01*
X258318095Y-121372380D02*
X258318095Y-122181904D01*
X258365714Y-122277142D01*
X258413333Y-122324761D01*
X258508571Y-122372380D01*
X258699047Y-122372380D01*
X258794285Y-122324761D01*
X258841904Y-122277142D01*
X258889523Y-122181904D01*
X258889523Y-121372380D01*
X259270476Y-121372380D02*
X259889523Y-121372380D01*
X259556190Y-121753333D01*
X259699047Y-121753333D01*
X259794285Y-121800952D01*
X259841904Y-121848571D01*
X259889523Y-121943809D01*
X259889523Y-122181904D01*
X259841904Y-122277142D01*
X259794285Y-122324761D01*
X259699047Y-122372380D01*
X259413333Y-122372380D01*
X259318095Y-122324761D01*
X259270476Y-122277142D01*
%TO.C,U2*%
X257413333Y-119336666D02*
X257889523Y-119336666D01*
X257318095Y-119622380D02*
X257651428Y-118622380D01*
X257984761Y-119622380D01*
X258222857Y-118622380D02*
X258841904Y-118622380D01*
X258508571Y-119003333D01*
X258651428Y-119003333D01*
X258746666Y-119050952D01*
X258794285Y-119098571D01*
X258841904Y-119193809D01*
X258841904Y-119431904D01*
X258794285Y-119527142D01*
X258746666Y-119574761D01*
X258651428Y-119622380D01*
X258365714Y-119622380D01*
X258270476Y-119574761D01*
X258222857Y-119527142D01*
X259460952Y-118622380D02*
X259556190Y-118622380D01*
X259651428Y-118670000D01*
X259699047Y-118717619D01*
X259746666Y-118812857D01*
X259794285Y-119003333D01*
X259794285Y-119241428D01*
X259746666Y-119431904D01*
X259699047Y-119527142D01*
X259651428Y-119574761D01*
X259556190Y-119622380D01*
X259460952Y-119622380D01*
X259365714Y-119574761D01*
X259318095Y-119527142D01*
X259270476Y-119431904D01*
X259222857Y-119241428D01*
X259222857Y-119003333D01*
X259270476Y-118812857D01*
X259318095Y-118717619D01*
X259365714Y-118670000D01*
X259460952Y-118622380D01*
X260175238Y-118717619D02*
X260222857Y-118670000D01*
X260318095Y-118622380D01*
X260556190Y-118622380D01*
X260651428Y-118670000D01*
X260699047Y-118717619D01*
X260746666Y-118812857D01*
X260746666Y-118908095D01*
X260699047Y-119050952D01*
X260127619Y-119622380D01*
X260746666Y-119622380D01*
X258318095Y-114672380D02*
X258318095Y-115481904D01*
X258365714Y-115577142D01*
X258413333Y-115624761D01*
X258508571Y-115672380D01*
X258699047Y-115672380D01*
X258794285Y-115624761D01*
X258841904Y-115577142D01*
X258889523Y-115481904D01*
X258889523Y-114672380D01*
X259318095Y-114767619D02*
X259365714Y-114720000D01*
X259460952Y-114672380D01*
X259699047Y-114672380D01*
X259794285Y-114720000D01*
X259841904Y-114767619D01*
X259889523Y-114862857D01*
X259889523Y-114958095D01*
X259841904Y-115100952D01*
X259270476Y-115672380D01*
X259889523Y-115672380D01*
%TO.C,J2*%
X253977142Y-89027142D02*
X253929523Y-89074761D01*
X253786666Y-89122380D01*
X253691428Y-89122380D01*
X253548571Y-89074761D01*
X253453333Y-88979523D01*
X253405714Y-88884285D01*
X253358095Y-88693809D01*
X253358095Y-88550952D01*
X253405714Y-88360476D01*
X253453333Y-88265238D01*
X253548571Y-88170000D01*
X253691428Y-88122380D01*
X253786666Y-88122380D01*
X253929523Y-88170000D01*
X253977142Y-88217619D01*
X254548571Y-89122380D02*
X254453333Y-89074761D01*
X254405714Y-89027142D01*
X254358095Y-88931904D01*
X254358095Y-88646190D01*
X254405714Y-88550952D01*
X254453333Y-88503333D01*
X254548571Y-88455714D01*
X254691428Y-88455714D01*
X254786666Y-88503333D01*
X254834285Y-88550952D01*
X254881904Y-88646190D01*
X254881904Y-88931904D01*
X254834285Y-89027142D01*
X254786666Y-89074761D01*
X254691428Y-89122380D01*
X254548571Y-89122380D01*
X255310476Y-88455714D02*
X255310476Y-89122380D01*
X255310476Y-88550952D02*
X255358095Y-88503333D01*
X255453333Y-88455714D01*
X255596190Y-88455714D01*
X255691428Y-88503333D01*
X255739047Y-88598571D01*
X255739047Y-89122380D01*
X256215238Y-88455714D02*
X256215238Y-89122380D01*
X256215238Y-88550952D02*
X256262857Y-88503333D01*
X256358095Y-88455714D01*
X256500952Y-88455714D01*
X256596190Y-88503333D01*
X256643809Y-88598571D01*
X256643809Y-89122380D01*
X256881904Y-89217619D02*
X257643809Y-89217619D01*
X258072380Y-88122380D02*
X258167619Y-88122380D01*
X258262857Y-88170000D01*
X258310476Y-88217619D01*
X258358095Y-88312857D01*
X258405714Y-88503333D01*
X258405714Y-88741428D01*
X258358095Y-88931904D01*
X258310476Y-89027142D01*
X258262857Y-89074761D01*
X258167619Y-89122380D01*
X258072380Y-89122380D01*
X257977142Y-89074761D01*
X257929523Y-89027142D01*
X257881904Y-88931904D01*
X257834285Y-88741428D01*
X257834285Y-88503333D01*
X257881904Y-88312857D01*
X257929523Y-88217619D01*
X257977142Y-88170000D01*
X258072380Y-88122380D01*
X258786666Y-88217619D02*
X258834285Y-88170000D01*
X258929523Y-88122380D01*
X259167619Y-88122380D01*
X259262857Y-88170000D01*
X259310476Y-88217619D01*
X259358095Y-88312857D01*
X259358095Y-88408095D01*
X259310476Y-88550952D01*
X258739047Y-89122380D01*
X259358095Y-89122380D01*
X259691428Y-89122380D02*
X260215238Y-88455714D01*
X259691428Y-88455714D02*
X260215238Y-89122380D01*
X260786666Y-88122380D02*
X260881904Y-88122380D01*
X260977142Y-88170000D01*
X261024761Y-88217619D01*
X261072380Y-88312857D01*
X261120000Y-88503333D01*
X261120000Y-88741428D01*
X261072380Y-88931904D01*
X261024761Y-89027142D01*
X260977142Y-89074761D01*
X260881904Y-89122380D01*
X260786666Y-89122380D01*
X260691428Y-89074761D01*
X260643809Y-89027142D01*
X260596190Y-88931904D01*
X260548571Y-88741428D01*
X260548571Y-88503333D01*
X260596190Y-88312857D01*
X260643809Y-88217619D01*
X260691428Y-88170000D01*
X260786666Y-88122380D01*
X261977142Y-88455714D02*
X261977142Y-89122380D01*
X261739047Y-88074761D02*
X261500952Y-88789047D01*
X262120000Y-88789047D01*
X262262857Y-89217619D02*
X263024761Y-89217619D01*
X263453333Y-88122380D02*
X263643809Y-88122380D01*
X263739047Y-88170000D01*
X263834285Y-88265238D01*
X263881904Y-88455714D01*
X263881904Y-88789047D01*
X263834285Y-88979523D01*
X263739047Y-89074761D01*
X263643809Y-89122380D01*
X263453333Y-89122380D01*
X263358095Y-89074761D01*
X263262857Y-88979523D01*
X263215238Y-88789047D01*
X263215238Y-88455714D01*
X263262857Y-88265238D01*
X263358095Y-88170000D01*
X263453333Y-88122380D01*
X264739047Y-89122380D02*
X264739047Y-88122380D01*
X264739047Y-89074761D02*
X264643809Y-89122380D01*
X264453333Y-89122380D01*
X264358095Y-89074761D01*
X264310476Y-89027142D01*
X264262857Y-88931904D01*
X264262857Y-88646190D01*
X264310476Y-88550952D01*
X264358095Y-88503333D01*
X264453333Y-88455714D01*
X264643809Y-88455714D01*
X264739047Y-88503333D01*
X265643809Y-89122380D02*
X265643809Y-88122380D01*
X265643809Y-89074761D02*
X265548571Y-89122380D01*
X265358095Y-89122380D01*
X265262857Y-89074761D01*
X265215238Y-89027142D01*
X265167619Y-88931904D01*
X265167619Y-88646190D01*
X265215238Y-88550952D01*
X265262857Y-88503333D01*
X265358095Y-88455714D01*
X265548571Y-88455714D01*
X265643809Y-88503333D01*
X265881904Y-89217619D02*
X266643809Y-89217619D01*
X266881904Y-88598571D02*
X267215238Y-88598571D01*
X267358095Y-89122380D02*
X266881904Y-89122380D01*
X266881904Y-88122380D01*
X267358095Y-88122380D01*
X267691428Y-88455714D02*
X267929523Y-89122380D01*
X268167619Y-88455714D01*
X268929523Y-89074761D02*
X268834285Y-89122380D01*
X268643809Y-89122380D01*
X268548571Y-89074761D01*
X268500952Y-88979523D01*
X268500952Y-88598571D01*
X268548571Y-88503333D01*
X268643809Y-88455714D01*
X268834285Y-88455714D01*
X268929523Y-88503333D01*
X268977142Y-88598571D01*
X268977142Y-88693809D01*
X268500952Y-88789047D01*
X269405714Y-88455714D02*
X269405714Y-89122380D01*
X269405714Y-88550952D02*
X269453333Y-88503333D01*
X269548571Y-88455714D01*
X269691428Y-88455714D01*
X269786666Y-88503333D01*
X269834285Y-88598571D01*
X269834285Y-89122380D01*
X261072380Y-95583333D02*
X261786666Y-95583333D01*
X261929523Y-95630952D01*
X262024761Y-95726190D01*
X262072380Y-95869047D01*
X262072380Y-95964285D01*
X261167619Y-95154761D02*
X261120000Y-95107142D01*
X261072380Y-95011904D01*
X261072380Y-94773809D01*
X261120000Y-94678571D01*
X261167619Y-94630952D01*
X261262857Y-94583333D01*
X261358095Y-94583333D01*
X261500952Y-94630952D01*
X262072380Y-95202380D01*
X262072380Y-94583333D01*
%TO.C,U5*%
X257413333Y-112986666D02*
X257889523Y-112986666D01*
X257318095Y-113272380D02*
X257651428Y-112272380D01*
X257984761Y-113272380D01*
X258222857Y-112272380D02*
X258841904Y-112272380D01*
X258508571Y-112653333D01*
X258651428Y-112653333D01*
X258746666Y-112700952D01*
X258794285Y-112748571D01*
X258841904Y-112843809D01*
X258841904Y-113081904D01*
X258794285Y-113177142D01*
X258746666Y-113224761D01*
X258651428Y-113272380D01*
X258365714Y-113272380D01*
X258270476Y-113224761D01*
X258222857Y-113177142D01*
X259460952Y-112272380D02*
X259556190Y-112272380D01*
X259651428Y-112320000D01*
X259699047Y-112367619D01*
X259746666Y-112462857D01*
X259794285Y-112653333D01*
X259794285Y-112891428D01*
X259746666Y-113081904D01*
X259699047Y-113177142D01*
X259651428Y-113224761D01*
X259556190Y-113272380D01*
X259460952Y-113272380D01*
X259365714Y-113224761D01*
X259318095Y-113177142D01*
X259270476Y-113081904D01*
X259222857Y-112891428D01*
X259222857Y-112653333D01*
X259270476Y-112462857D01*
X259318095Y-112367619D01*
X259365714Y-112320000D01*
X259460952Y-112272380D01*
X260175238Y-112367619D02*
X260222857Y-112320000D01*
X260318095Y-112272380D01*
X260556190Y-112272380D01*
X260651428Y-112320000D01*
X260699047Y-112367619D01*
X260746666Y-112462857D01*
X260746666Y-112558095D01*
X260699047Y-112700952D01*
X260127619Y-113272380D01*
X260746666Y-113272380D01*
X258318095Y-108672380D02*
X258318095Y-109481904D01*
X258365714Y-109577142D01*
X258413333Y-109624761D01*
X258508571Y-109672380D01*
X258699047Y-109672380D01*
X258794285Y-109624761D01*
X258841904Y-109577142D01*
X258889523Y-109481904D01*
X258889523Y-108672380D01*
X259841904Y-108672380D02*
X259365714Y-108672380D01*
X259318095Y-109148571D01*
X259365714Y-109100952D01*
X259460952Y-109053333D01*
X259699047Y-109053333D01*
X259794285Y-109100952D01*
X259841904Y-109148571D01*
X259889523Y-109243809D01*
X259889523Y-109481904D01*
X259841904Y-109577142D01*
X259794285Y-109624761D01*
X259699047Y-109672380D01*
X259460952Y-109672380D01*
X259365714Y-109624761D01*
X259318095Y-109577142D01*
%TO.C,IC105*%
X213510952Y-131052380D02*
X213034761Y-131052380D01*
X213034761Y-130052380D01*
X213796666Y-131004761D02*
X213939523Y-131052380D01*
X214177619Y-131052380D01*
X214272857Y-131004761D01*
X214320476Y-130957142D01*
X214368095Y-130861904D01*
X214368095Y-130766666D01*
X214320476Y-130671428D01*
X214272857Y-130623809D01*
X214177619Y-130576190D01*
X213987142Y-130528571D01*
X213891904Y-130480952D01*
X213844285Y-130433333D01*
X213796666Y-130338095D01*
X213796666Y-130242857D01*
X213844285Y-130147619D01*
X213891904Y-130100000D01*
X213987142Y-130052380D01*
X214225238Y-130052380D01*
X214368095Y-130100000D01*
X215320476Y-131052380D02*
X214749047Y-131052380D01*
X215034761Y-131052380D02*
X215034761Y-130052380D01*
X214939523Y-130195238D01*
X214844285Y-130290476D01*
X214749047Y-130338095D01*
X215939523Y-130052380D02*
X216034761Y-130052380D01*
X216130000Y-130100000D01*
X216177619Y-130147619D01*
X216225238Y-130242857D01*
X216272857Y-130433333D01*
X216272857Y-130671428D01*
X216225238Y-130861904D01*
X216177619Y-130957142D01*
X216130000Y-131004761D01*
X216034761Y-131052380D01*
X215939523Y-131052380D01*
X215844285Y-131004761D01*
X215796666Y-130957142D01*
X215749047Y-130861904D01*
X215701428Y-130671428D01*
X215701428Y-130433333D01*
X215749047Y-130242857D01*
X215796666Y-130147619D01*
X215844285Y-130100000D01*
X215939523Y-130052380D01*
X212701428Y-121102380D02*
X212701428Y-120102380D01*
X213749047Y-121007142D02*
X213701428Y-121054761D01*
X213558571Y-121102380D01*
X213463333Y-121102380D01*
X213320476Y-121054761D01*
X213225238Y-120959523D01*
X213177619Y-120864285D01*
X213130000Y-120673809D01*
X213130000Y-120530952D01*
X213177619Y-120340476D01*
X213225238Y-120245238D01*
X213320476Y-120150000D01*
X213463333Y-120102380D01*
X213558571Y-120102380D01*
X213701428Y-120150000D01*
X213749047Y-120197619D01*
X214701428Y-121102380D02*
X214130000Y-121102380D01*
X214415714Y-121102380D02*
X214415714Y-120102380D01*
X214320476Y-120245238D01*
X214225238Y-120340476D01*
X214130000Y-120388095D01*
X215320476Y-120102380D02*
X215415714Y-120102380D01*
X215510952Y-120150000D01*
X215558571Y-120197619D01*
X215606190Y-120292857D01*
X215653809Y-120483333D01*
X215653809Y-120721428D01*
X215606190Y-120911904D01*
X215558571Y-121007142D01*
X215510952Y-121054761D01*
X215415714Y-121102380D01*
X215320476Y-121102380D01*
X215225238Y-121054761D01*
X215177619Y-121007142D01*
X215130000Y-120911904D01*
X215082380Y-120721428D01*
X215082380Y-120483333D01*
X215130000Y-120292857D01*
X215177619Y-120197619D01*
X215225238Y-120150000D01*
X215320476Y-120102380D01*
X216558571Y-120102380D02*
X216082380Y-120102380D01*
X216034761Y-120578571D01*
X216082380Y-120530952D01*
X216177619Y-120483333D01*
X216415714Y-120483333D01*
X216510952Y-120530952D01*
X216558571Y-120578571D01*
X216606190Y-120673809D01*
X216606190Y-120911904D01*
X216558571Y-121007142D01*
X216510952Y-121054761D01*
X216415714Y-121102380D01*
X216177619Y-121102380D01*
X216082380Y-121054761D01*
X216034761Y-121007142D01*
%TO.C,IC10*%
X212240952Y-86602380D02*
X211764761Y-86602380D01*
X211764761Y-85602380D01*
X212526666Y-86554761D02*
X212669523Y-86602380D01*
X212907619Y-86602380D01*
X213002857Y-86554761D01*
X213050476Y-86507142D01*
X213098095Y-86411904D01*
X213098095Y-86316666D01*
X213050476Y-86221428D01*
X213002857Y-86173809D01*
X212907619Y-86126190D01*
X212717142Y-86078571D01*
X212621904Y-86030952D01*
X212574285Y-85983333D01*
X212526666Y-85888095D01*
X212526666Y-85792857D01*
X212574285Y-85697619D01*
X212621904Y-85650000D01*
X212717142Y-85602380D01*
X212955238Y-85602380D01*
X213098095Y-85650000D01*
X213431428Y-85602380D02*
X214098095Y-85602380D01*
X213669523Y-86602380D01*
X214907619Y-85935714D02*
X214907619Y-86602380D01*
X214669523Y-85554761D02*
X214431428Y-86269047D01*
X215050476Y-86269047D01*
X211907619Y-70302380D02*
X211907619Y-69302380D01*
X212955238Y-70207142D02*
X212907619Y-70254761D01*
X212764761Y-70302380D01*
X212669523Y-70302380D01*
X212526666Y-70254761D01*
X212431428Y-70159523D01*
X212383809Y-70064285D01*
X212336190Y-69873809D01*
X212336190Y-69730952D01*
X212383809Y-69540476D01*
X212431428Y-69445238D01*
X212526666Y-69350000D01*
X212669523Y-69302380D01*
X212764761Y-69302380D01*
X212907619Y-69350000D01*
X212955238Y-69397619D01*
X213907619Y-70302380D02*
X213336190Y-70302380D01*
X213621904Y-70302380D02*
X213621904Y-69302380D01*
X213526666Y-69445238D01*
X213431428Y-69540476D01*
X213336190Y-69588095D01*
X214526666Y-69302380D02*
X214621904Y-69302380D01*
X214717142Y-69350000D01*
X214764761Y-69397619D01*
X214812380Y-69492857D01*
X214860000Y-69683333D01*
X214860000Y-69921428D01*
X214812380Y-70111904D01*
X214764761Y-70207142D01*
X214717142Y-70254761D01*
X214621904Y-70302380D01*
X214526666Y-70302380D01*
X214431428Y-70254761D01*
X214383809Y-70207142D01*
X214336190Y-70111904D01*
X214288571Y-69921428D01*
X214288571Y-69683333D01*
X214336190Y-69492857D01*
X214383809Y-69397619D01*
X214431428Y-69350000D01*
X214526666Y-69302380D01*
%TO.C,J1*%
X255247142Y-86947142D02*
X255199523Y-86994761D01*
X255056666Y-87042380D01*
X254961428Y-87042380D01*
X254818571Y-86994761D01*
X254723333Y-86899523D01*
X254675714Y-86804285D01*
X254628095Y-86613809D01*
X254628095Y-86470952D01*
X254675714Y-86280476D01*
X254723333Y-86185238D01*
X254818571Y-86090000D01*
X254961428Y-86042380D01*
X255056666Y-86042380D01*
X255199523Y-86090000D01*
X255247142Y-86137619D01*
X255818571Y-87042380D02*
X255723333Y-86994761D01*
X255675714Y-86947142D01*
X255628095Y-86851904D01*
X255628095Y-86566190D01*
X255675714Y-86470952D01*
X255723333Y-86423333D01*
X255818571Y-86375714D01*
X255961428Y-86375714D01*
X256056666Y-86423333D01*
X256104285Y-86470952D01*
X256151904Y-86566190D01*
X256151904Y-86851904D01*
X256104285Y-86947142D01*
X256056666Y-86994761D01*
X255961428Y-87042380D01*
X255818571Y-87042380D01*
X256580476Y-86375714D02*
X256580476Y-87042380D01*
X256580476Y-86470952D02*
X256628095Y-86423333D01*
X256723333Y-86375714D01*
X256866190Y-86375714D01*
X256961428Y-86423333D01*
X257009047Y-86518571D01*
X257009047Y-87042380D01*
X257485238Y-86375714D02*
X257485238Y-87042380D01*
X257485238Y-86470952D02*
X257532857Y-86423333D01*
X257628095Y-86375714D01*
X257770952Y-86375714D01*
X257866190Y-86423333D01*
X257913809Y-86518571D01*
X257913809Y-87042380D01*
X258151904Y-87137619D02*
X258913809Y-87137619D01*
X259342380Y-86042380D02*
X259437619Y-86042380D01*
X259532857Y-86090000D01*
X259580476Y-86137619D01*
X259628095Y-86232857D01*
X259675714Y-86423333D01*
X259675714Y-86661428D01*
X259628095Y-86851904D01*
X259580476Y-86947142D01*
X259532857Y-86994761D01*
X259437619Y-87042380D01*
X259342380Y-87042380D01*
X259247142Y-86994761D01*
X259199523Y-86947142D01*
X259151904Y-86851904D01*
X259104285Y-86661428D01*
X259104285Y-86423333D01*
X259151904Y-86232857D01*
X259199523Y-86137619D01*
X259247142Y-86090000D01*
X259342380Y-86042380D01*
X260056666Y-86137619D02*
X260104285Y-86090000D01*
X260199523Y-86042380D01*
X260437619Y-86042380D01*
X260532857Y-86090000D01*
X260580476Y-86137619D01*
X260628095Y-86232857D01*
X260628095Y-86328095D01*
X260580476Y-86470952D01*
X260009047Y-87042380D01*
X260628095Y-87042380D01*
X260961428Y-87042380D02*
X261485238Y-86375714D01*
X260961428Y-86375714D02*
X261485238Y-87042380D01*
X262390000Y-87042380D02*
X261818571Y-87042380D01*
X262104285Y-87042380D02*
X262104285Y-86042380D01*
X262009047Y-86185238D01*
X261913809Y-86280476D01*
X261818571Y-86328095D01*
X262723333Y-86042380D02*
X263390000Y-86042380D01*
X262961428Y-87042380D01*
X263532857Y-87137619D02*
X264294761Y-87137619D01*
X264723333Y-86042380D02*
X264913809Y-86042380D01*
X265009047Y-86090000D01*
X265104285Y-86185238D01*
X265151904Y-86375714D01*
X265151904Y-86709047D01*
X265104285Y-86899523D01*
X265009047Y-86994761D01*
X264913809Y-87042380D01*
X264723333Y-87042380D01*
X264628095Y-86994761D01*
X264532857Y-86899523D01*
X264485238Y-86709047D01*
X264485238Y-86375714D01*
X264532857Y-86185238D01*
X264628095Y-86090000D01*
X264723333Y-86042380D01*
X266009047Y-87042380D02*
X266009047Y-86042380D01*
X266009047Y-86994761D02*
X265913809Y-87042380D01*
X265723333Y-87042380D01*
X265628095Y-86994761D01*
X265580476Y-86947142D01*
X265532857Y-86851904D01*
X265532857Y-86566190D01*
X265580476Y-86470952D01*
X265628095Y-86423333D01*
X265723333Y-86375714D01*
X265913809Y-86375714D01*
X266009047Y-86423333D01*
X266913809Y-87042380D02*
X266913809Y-86042380D01*
X266913809Y-86994761D02*
X266818571Y-87042380D01*
X266628095Y-87042380D01*
X266532857Y-86994761D01*
X266485238Y-86947142D01*
X266437619Y-86851904D01*
X266437619Y-86566190D01*
X266485238Y-86470952D01*
X266532857Y-86423333D01*
X266628095Y-86375714D01*
X266818571Y-86375714D01*
X266913809Y-86423333D01*
X267151904Y-87137619D02*
X267913809Y-87137619D01*
X268151904Y-86518571D02*
X268485238Y-86518571D01*
X268628095Y-87042380D02*
X268151904Y-87042380D01*
X268151904Y-86042380D01*
X268628095Y-86042380D01*
X268961428Y-86375714D02*
X269199523Y-87042380D01*
X269437619Y-86375714D01*
X270199523Y-86994761D02*
X270104285Y-87042380D01*
X269913809Y-87042380D01*
X269818571Y-86994761D01*
X269770952Y-86899523D01*
X269770952Y-86518571D01*
X269818571Y-86423333D01*
X269913809Y-86375714D01*
X270104285Y-86375714D01*
X270199523Y-86423333D01*
X270247142Y-86518571D01*
X270247142Y-86613809D01*
X269770952Y-86709047D01*
X270675714Y-86375714D02*
X270675714Y-87042380D01*
X270675714Y-86470952D02*
X270723333Y-86423333D01*
X270818571Y-86375714D01*
X270961428Y-86375714D01*
X271056666Y-86423333D01*
X271104285Y-86518571D01*
X271104285Y-87042380D01*
X262342380Y-63833333D02*
X263056666Y-63833333D01*
X263199523Y-63880952D01*
X263294761Y-63976190D01*
X263342380Y-64119047D01*
X263342380Y-64214285D01*
X263342380Y-62833333D02*
X263342380Y-63404761D01*
X263342380Y-63119047D02*
X262342380Y-63119047D01*
X262485238Y-63214285D01*
X262580476Y-63309523D01*
X262628095Y-63404761D01*
%TO.C,IC109*%
X230020952Y-86602380D02*
X229544761Y-86602380D01*
X229544761Y-85602380D01*
X230306666Y-86554761D02*
X230449523Y-86602380D01*
X230687619Y-86602380D01*
X230782857Y-86554761D01*
X230830476Y-86507142D01*
X230878095Y-86411904D01*
X230878095Y-86316666D01*
X230830476Y-86221428D01*
X230782857Y-86173809D01*
X230687619Y-86126190D01*
X230497142Y-86078571D01*
X230401904Y-86030952D01*
X230354285Y-85983333D01*
X230306666Y-85888095D01*
X230306666Y-85792857D01*
X230354285Y-85697619D01*
X230401904Y-85650000D01*
X230497142Y-85602380D01*
X230735238Y-85602380D01*
X230878095Y-85650000D01*
X231497142Y-85602380D02*
X231592380Y-85602380D01*
X231687619Y-85650000D01*
X231735238Y-85697619D01*
X231782857Y-85792857D01*
X231830476Y-85983333D01*
X231830476Y-86221428D01*
X231782857Y-86411904D01*
X231735238Y-86507142D01*
X231687619Y-86554761D01*
X231592380Y-86602380D01*
X231497142Y-86602380D01*
X231401904Y-86554761D01*
X231354285Y-86507142D01*
X231306666Y-86411904D01*
X231259047Y-86221428D01*
X231259047Y-85983333D01*
X231306666Y-85792857D01*
X231354285Y-85697619D01*
X231401904Y-85650000D01*
X231497142Y-85602380D01*
X232401904Y-86030952D02*
X232306666Y-85983333D01*
X232259047Y-85935714D01*
X232211428Y-85840476D01*
X232211428Y-85792857D01*
X232259047Y-85697619D01*
X232306666Y-85650000D01*
X232401904Y-85602380D01*
X232592380Y-85602380D01*
X232687619Y-85650000D01*
X232735238Y-85697619D01*
X232782857Y-85792857D01*
X232782857Y-85840476D01*
X232735238Y-85935714D01*
X232687619Y-85983333D01*
X232592380Y-86030952D01*
X232401904Y-86030952D01*
X232306666Y-86078571D01*
X232259047Y-86126190D01*
X232211428Y-86221428D01*
X232211428Y-86411904D01*
X232259047Y-86507142D01*
X232306666Y-86554761D01*
X232401904Y-86602380D01*
X232592380Y-86602380D01*
X232687619Y-86554761D01*
X232735238Y-86507142D01*
X232782857Y-86411904D01*
X232782857Y-86221428D01*
X232735238Y-86126190D01*
X232687619Y-86078571D01*
X232592380Y-86030952D01*
X229211428Y-76652380D02*
X229211428Y-75652380D01*
X230259047Y-76557142D02*
X230211428Y-76604761D01*
X230068571Y-76652380D01*
X229973333Y-76652380D01*
X229830476Y-76604761D01*
X229735238Y-76509523D01*
X229687619Y-76414285D01*
X229640000Y-76223809D01*
X229640000Y-76080952D01*
X229687619Y-75890476D01*
X229735238Y-75795238D01*
X229830476Y-75700000D01*
X229973333Y-75652380D01*
X230068571Y-75652380D01*
X230211428Y-75700000D01*
X230259047Y-75747619D01*
X231211428Y-76652380D02*
X230640000Y-76652380D01*
X230925714Y-76652380D02*
X230925714Y-75652380D01*
X230830476Y-75795238D01*
X230735238Y-75890476D01*
X230640000Y-75938095D01*
X231830476Y-75652380D02*
X231925714Y-75652380D01*
X232020952Y-75700000D01*
X232068571Y-75747619D01*
X232116190Y-75842857D01*
X232163809Y-76033333D01*
X232163809Y-76271428D01*
X232116190Y-76461904D01*
X232068571Y-76557142D01*
X232020952Y-76604761D01*
X231925714Y-76652380D01*
X231830476Y-76652380D01*
X231735238Y-76604761D01*
X231687619Y-76557142D01*
X231640000Y-76461904D01*
X231592380Y-76271428D01*
X231592380Y-76033333D01*
X231640000Y-75842857D01*
X231687619Y-75747619D01*
X231735238Y-75700000D01*
X231830476Y-75652380D01*
X232640000Y-76652380D02*
X232830476Y-76652380D01*
X232925714Y-76604761D01*
X232973333Y-76557142D01*
X233068571Y-76414285D01*
X233116190Y-76223809D01*
X233116190Y-75842857D01*
X233068571Y-75747619D01*
X233020952Y-75700000D01*
X232925714Y-75652380D01*
X232735238Y-75652380D01*
X232640000Y-75700000D01*
X232592380Y-75747619D01*
X232544761Y-75842857D01*
X232544761Y-76080952D01*
X232592380Y-76176190D01*
X232640000Y-76223809D01*
X232735238Y-76271428D01*
X232925714Y-76271428D01*
X233020952Y-76223809D01*
X233068571Y-76176190D01*
X233116190Y-76080952D01*
%TO.C,IC102*%
X230020952Y-66282380D02*
X229544761Y-66282380D01*
X229544761Y-65282380D01*
X230306666Y-66234761D02*
X230449523Y-66282380D01*
X230687619Y-66282380D01*
X230782857Y-66234761D01*
X230830476Y-66187142D01*
X230878095Y-66091904D01*
X230878095Y-65996666D01*
X230830476Y-65901428D01*
X230782857Y-65853809D01*
X230687619Y-65806190D01*
X230497142Y-65758571D01*
X230401904Y-65710952D01*
X230354285Y-65663333D01*
X230306666Y-65568095D01*
X230306666Y-65472857D01*
X230354285Y-65377619D01*
X230401904Y-65330000D01*
X230497142Y-65282380D01*
X230735238Y-65282380D01*
X230878095Y-65330000D01*
X231211428Y-65282380D02*
X231878095Y-65282380D01*
X231449523Y-66282380D01*
X232687619Y-65615714D02*
X232687619Y-66282380D01*
X232449523Y-65234761D02*
X232211428Y-65949047D01*
X232830476Y-65949047D01*
X229211428Y-56332380D02*
X229211428Y-55332380D01*
X230259047Y-56237142D02*
X230211428Y-56284761D01*
X230068571Y-56332380D01*
X229973333Y-56332380D01*
X229830476Y-56284761D01*
X229735238Y-56189523D01*
X229687619Y-56094285D01*
X229640000Y-55903809D01*
X229640000Y-55760952D01*
X229687619Y-55570476D01*
X229735238Y-55475238D01*
X229830476Y-55380000D01*
X229973333Y-55332380D01*
X230068571Y-55332380D01*
X230211428Y-55380000D01*
X230259047Y-55427619D01*
X231211428Y-56332380D02*
X230640000Y-56332380D01*
X230925714Y-56332380D02*
X230925714Y-55332380D01*
X230830476Y-55475238D01*
X230735238Y-55570476D01*
X230640000Y-55618095D01*
X231830476Y-55332380D02*
X231925714Y-55332380D01*
X232020952Y-55380000D01*
X232068571Y-55427619D01*
X232116190Y-55522857D01*
X232163809Y-55713333D01*
X232163809Y-55951428D01*
X232116190Y-56141904D01*
X232068571Y-56237142D01*
X232020952Y-56284761D01*
X231925714Y-56332380D01*
X231830476Y-56332380D01*
X231735238Y-56284761D01*
X231687619Y-56237142D01*
X231640000Y-56141904D01*
X231592380Y-55951428D01*
X231592380Y-55713333D01*
X231640000Y-55522857D01*
X231687619Y-55427619D01*
X231735238Y-55380000D01*
X231830476Y-55332380D01*
X232544761Y-55427619D02*
X232592380Y-55380000D01*
X232687619Y-55332380D01*
X232925714Y-55332380D01*
X233020952Y-55380000D01*
X233068571Y-55427619D01*
X233116190Y-55522857D01*
X233116190Y-55618095D01*
X233068571Y-55760952D01*
X232497142Y-56332380D01*
X233116190Y-56332380D01*
%TO.C,IC108*%
X197540952Y-130052380D02*
X198207619Y-130052380D01*
X197779047Y-131052380D01*
X199017142Y-130385714D02*
X199017142Y-131052380D01*
X198779047Y-130004761D02*
X198540952Y-130719047D01*
X199160000Y-130719047D01*
X200017142Y-131052380D02*
X199540952Y-131052380D01*
X199540952Y-130052380D01*
X200302857Y-131004761D02*
X200445714Y-131052380D01*
X200683809Y-131052380D01*
X200779047Y-131004761D01*
X200826666Y-130957142D01*
X200874285Y-130861904D01*
X200874285Y-130766666D01*
X200826666Y-130671428D01*
X200779047Y-130623809D01*
X200683809Y-130576190D01*
X200493333Y-130528571D01*
X200398095Y-130480952D01*
X200350476Y-130433333D01*
X200302857Y-130338095D01*
X200302857Y-130242857D01*
X200350476Y-130147619D01*
X200398095Y-130100000D01*
X200493333Y-130052380D01*
X200731428Y-130052380D01*
X200874285Y-130100000D01*
X201207619Y-130052380D02*
X201826666Y-130052380D01*
X201493333Y-130433333D01*
X201636190Y-130433333D01*
X201731428Y-130480952D01*
X201779047Y-130528571D01*
X201826666Y-130623809D01*
X201826666Y-130861904D01*
X201779047Y-130957142D01*
X201731428Y-131004761D01*
X201636190Y-131052380D01*
X201350476Y-131052380D01*
X201255238Y-131004761D01*
X201207619Y-130957142D01*
X202683809Y-130052380D02*
X202493333Y-130052380D01*
X202398095Y-130100000D01*
X202350476Y-130147619D01*
X202255238Y-130290476D01*
X202207619Y-130480952D01*
X202207619Y-130861904D01*
X202255238Y-130957142D01*
X202302857Y-131004761D01*
X202398095Y-131052380D01*
X202588571Y-131052380D01*
X202683809Y-131004761D01*
X202731428Y-130957142D01*
X202779047Y-130861904D01*
X202779047Y-130623809D01*
X202731428Y-130528571D01*
X202683809Y-130480952D01*
X202588571Y-130433333D01*
X202398095Y-130433333D01*
X202302857Y-130480952D01*
X202255238Y-130528571D01*
X202207619Y-130623809D01*
X203350476Y-130480952D02*
X203255238Y-130433333D01*
X203207619Y-130385714D01*
X203160000Y-130290476D01*
X203160000Y-130242857D01*
X203207619Y-130147619D01*
X203255238Y-130100000D01*
X203350476Y-130052380D01*
X203540952Y-130052380D01*
X203636190Y-130100000D01*
X203683809Y-130147619D01*
X203731428Y-130242857D01*
X203731428Y-130290476D01*
X203683809Y-130385714D01*
X203636190Y-130433333D01*
X203540952Y-130480952D01*
X203350476Y-130480952D01*
X203255238Y-130528571D01*
X203207619Y-130576190D01*
X203160000Y-130671428D01*
X203160000Y-130861904D01*
X203207619Y-130957142D01*
X203255238Y-131004761D01*
X203350476Y-131052380D01*
X203540952Y-131052380D01*
X203636190Y-131004761D01*
X203683809Y-130957142D01*
X203731428Y-130861904D01*
X203731428Y-130671428D01*
X203683809Y-130576190D01*
X203636190Y-130528571D01*
X203540952Y-130480952D01*
X198731428Y-119832380D02*
X198731428Y-118832380D01*
X199779047Y-119737142D02*
X199731428Y-119784761D01*
X199588571Y-119832380D01*
X199493333Y-119832380D01*
X199350476Y-119784761D01*
X199255238Y-119689523D01*
X199207619Y-119594285D01*
X199160000Y-119403809D01*
X199160000Y-119260952D01*
X199207619Y-119070476D01*
X199255238Y-118975238D01*
X199350476Y-118880000D01*
X199493333Y-118832380D01*
X199588571Y-118832380D01*
X199731428Y-118880000D01*
X199779047Y-118927619D01*
X200731428Y-119832380D02*
X200160000Y-119832380D01*
X200445714Y-119832380D02*
X200445714Y-118832380D01*
X200350476Y-118975238D01*
X200255238Y-119070476D01*
X200160000Y-119118095D01*
X201350476Y-118832380D02*
X201445714Y-118832380D01*
X201540952Y-118880000D01*
X201588571Y-118927619D01*
X201636190Y-119022857D01*
X201683809Y-119213333D01*
X201683809Y-119451428D01*
X201636190Y-119641904D01*
X201588571Y-119737142D01*
X201540952Y-119784761D01*
X201445714Y-119832380D01*
X201350476Y-119832380D01*
X201255238Y-119784761D01*
X201207619Y-119737142D01*
X201160000Y-119641904D01*
X201112380Y-119451428D01*
X201112380Y-119213333D01*
X201160000Y-119022857D01*
X201207619Y-118927619D01*
X201255238Y-118880000D01*
X201350476Y-118832380D01*
X202255238Y-119260952D02*
X202160000Y-119213333D01*
X202112380Y-119165714D01*
X202064761Y-119070476D01*
X202064761Y-119022857D01*
X202112380Y-118927619D01*
X202160000Y-118880000D01*
X202255238Y-118832380D01*
X202445714Y-118832380D01*
X202540952Y-118880000D01*
X202588571Y-118927619D01*
X202636190Y-119022857D01*
X202636190Y-119070476D01*
X202588571Y-119165714D01*
X202540952Y-119213333D01*
X202445714Y-119260952D01*
X202255238Y-119260952D01*
X202160000Y-119308571D01*
X202112380Y-119356190D01*
X202064761Y-119451428D01*
X202064761Y-119641904D01*
X202112380Y-119737142D01*
X202160000Y-119784761D01*
X202255238Y-119832380D01*
X202445714Y-119832380D01*
X202540952Y-119784761D01*
X202588571Y-119737142D01*
X202636190Y-119641904D01*
X202636190Y-119451428D01*
X202588571Y-119356190D01*
X202540952Y-119308571D01*
X202445714Y-119260952D01*
%TO.C,U16*%
X144645714Y-135132380D02*
X145312380Y-135132380D01*
X144883809Y-136132380D01*
X146121904Y-135465714D02*
X146121904Y-136132380D01*
X145883809Y-135084761D02*
X145645714Y-135799047D01*
X146264761Y-135799047D01*
X147121904Y-136132380D02*
X146645714Y-136132380D01*
X146645714Y-135132380D01*
X147407619Y-136084761D02*
X147550476Y-136132380D01*
X147788571Y-136132380D01*
X147883809Y-136084761D01*
X147931428Y-136037142D01*
X147979047Y-135941904D01*
X147979047Y-135846666D01*
X147931428Y-135751428D01*
X147883809Y-135703809D01*
X147788571Y-135656190D01*
X147598095Y-135608571D01*
X147502857Y-135560952D01*
X147455238Y-135513333D01*
X147407619Y-135418095D01*
X147407619Y-135322857D01*
X147455238Y-135227619D01*
X147502857Y-135180000D01*
X147598095Y-135132380D01*
X147836190Y-135132380D01*
X147979047Y-135180000D01*
X148360000Y-135227619D02*
X148407619Y-135180000D01*
X148502857Y-135132380D01*
X148740952Y-135132380D01*
X148836190Y-135180000D01*
X148883809Y-135227619D01*
X148931428Y-135322857D01*
X148931428Y-135418095D01*
X148883809Y-135560952D01*
X148312380Y-136132380D01*
X148931428Y-136132380D01*
X149788571Y-135465714D02*
X149788571Y-136132380D01*
X149550476Y-135084761D02*
X149312380Y-135799047D01*
X149931428Y-135799047D01*
X150740952Y-135465714D02*
X150740952Y-136132380D01*
X150502857Y-135084761D02*
X150264761Y-135799047D01*
X150883809Y-135799047D01*
X151026666Y-136227619D02*
X151788571Y-136227619D01*
X151979047Y-136084761D02*
X152121904Y-136132380D01*
X152360000Y-136132380D01*
X152455238Y-136084761D01*
X152502857Y-136037142D01*
X152550476Y-135941904D01*
X152550476Y-135846666D01*
X152502857Y-135751428D01*
X152455238Y-135703809D01*
X152360000Y-135656190D01*
X152169523Y-135608571D01*
X152074285Y-135560952D01*
X152026666Y-135513333D01*
X151979047Y-135418095D01*
X151979047Y-135322857D01*
X152026666Y-135227619D01*
X152074285Y-135180000D01*
X152169523Y-135132380D01*
X152407619Y-135132380D01*
X152550476Y-135180000D01*
X152979047Y-135465714D02*
X152979047Y-136465714D01*
X152979047Y-135513333D02*
X153074285Y-135465714D01*
X153264761Y-135465714D01*
X153360000Y-135513333D01*
X153407619Y-135560952D01*
X153455238Y-135656190D01*
X153455238Y-135941904D01*
X153407619Y-136037142D01*
X153360000Y-136084761D01*
X153264761Y-136132380D01*
X153074285Y-136132380D01*
X152979047Y-136084761D01*
X154026666Y-136132380D02*
X153931428Y-136084761D01*
X153883809Y-135989523D01*
X153883809Y-135132380D01*
X154407619Y-136132380D02*
X154407619Y-135465714D01*
X154407619Y-135132380D02*
X154360000Y-135180000D01*
X154407619Y-135227619D01*
X154455238Y-135180000D01*
X154407619Y-135132380D01*
X154407619Y-135227619D01*
X154740952Y-135465714D02*
X155121904Y-135465714D01*
X154883809Y-135132380D02*
X154883809Y-135989523D01*
X154931428Y-136084761D01*
X155026666Y-136132380D01*
X155121904Y-136132380D01*
X148621904Y-121372380D02*
X148621904Y-122181904D01*
X148669523Y-122277142D01*
X148717142Y-122324761D01*
X148812380Y-122372380D01*
X149002857Y-122372380D01*
X149098095Y-122324761D01*
X149145714Y-122277142D01*
X149193333Y-122181904D01*
X149193333Y-121372380D01*
X150193333Y-122372380D02*
X149621904Y-122372380D01*
X149907619Y-122372380D02*
X149907619Y-121372380D01*
X149812380Y-121515238D01*
X149717142Y-121610476D01*
X149621904Y-121658095D01*
X151050476Y-121372380D02*
X150860000Y-121372380D01*
X150764761Y-121420000D01*
X150717142Y-121467619D01*
X150621904Y-121610476D01*
X150574285Y-121800952D01*
X150574285Y-122181904D01*
X150621904Y-122277142D01*
X150669523Y-122324761D01*
X150764761Y-122372380D01*
X150955238Y-122372380D01*
X151050476Y-122324761D01*
X151098095Y-122277142D01*
X151145714Y-122181904D01*
X151145714Y-121943809D01*
X151098095Y-121848571D01*
X151050476Y-121800952D01*
X150955238Y-121753333D01*
X150764761Y-121753333D01*
X150669523Y-121800952D01*
X150621904Y-121848571D01*
X150574285Y-121943809D01*
%TO.C,U1*%
X224687142Y-130052380D02*
X225353809Y-130052380D01*
X224925238Y-131052380D01*
X226163333Y-130385714D02*
X226163333Y-131052380D01*
X225925238Y-130004761D02*
X225687142Y-130719047D01*
X226306190Y-130719047D01*
X227163333Y-131052380D02*
X226687142Y-131052380D01*
X226687142Y-130052380D01*
X227449047Y-131004761D02*
X227591904Y-131052380D01*
X227830000Y-131052380D01*
X227925238Y-131004761D01*
X227972857Y-130957142D01*
X228020476Y-130861904D01*
X228020476Y-130766666D01*
X227972857Y-130671428D01*
X227925238Y-130623809D01*
X227830000Y-130576190D01*
X227639523Y-130528571D01*
X227544285Y-130480952D01*
X227496666Y-130433333D01*
X227449047Y-130338095D01*
X227449047Y-130242857D01*
X227496666Y-130147619D01*
X227544285Y-130100000D01*
X227639523Y-130052380D01*
X227877619Y-130052380D01*
X228020476Y-130100000D01*
X228496666Y-131052380D02*
X228687142Y-131052380D01*
X228782380Y-131004761D01*
X228830000Y-130957142D01*
X228925238Y-130814285D01*
X228972857Y-130623809D01*
X228972857Y-130242857D01*
X228925238Y-130147619D01*
X228877619Y-130100000D01*
X228782380Y-130052380D01*
X228591904Y-130052380D01*
X228496666Y-130100000D01*
X228449047Y-130147619D01*
X228401428Y-130242857D01*
X228401428Y-130480952D01*
X228449047Y-130576190D01*
X228496666Y-130623809D01*
X228591904Y-130671428D01*
X228782380Y-130671428D01*
X228877619Y-130623809D01*
X228925238Y-130576190D01*
X228972857Y-130480952D01*
X229877619Y-130052380D02*
X229401428Y-130052380D01*
X229353809Y-130528571D01*
X229401428Y-130480952D01*
X229496666Y-130433333D01*
X229734761Y-130433333D01*
X229830000Y-130480952D01*
X229877619Y-130528571D01*
X229925238Y-130623809D01*
X229925238Y-130861904D01*
X229877619Y-130957142D01*
X229830000Y-131004761D01*
X229734761Y-131052380D01*
X229496666Y-131052380D01*
X229401428Y-131004761D01*
X229353809Y-130957142D01*
X226568095Y-120102380D02*
X226568095Y-120911904D01*
X226615714Y-121007142D01*
X226663333Y-121054761D01*
X226758571Y-121102380D01*
X226949047Y-121102380D01*
X227044285Y-121054761D01*
X227091904Y-121007142D01*
X227139523Y-120911904D01*
X227139523Y-120102380D01*
X228139523Y-121102380D02*
X227568095Y-121102380D01*
X227853809Y-121102380D02*
X227853809Y-120102380D01*
X227758571Y-120245238D01*
X227663333Y-120340476D01*
X227568095Y-120388095D01*
%TO.C,IC116*%
X149757142Y-89412380D02*
X150423809Y-89412380D01*
X149995238Y-90412380D01*
X151233333Y-89745714D02*
X151233333Y-90412380D01*
X150995238Y-89364761D02*
X150757142Y-90079047D01*
X151376190Y-90079047D01*
X152233333Y-90412380D02*
X151757142Y-90412380D01*
X151757142Y-89412380D01*
X152519047Y-90364761D02*
X152661904Y-90412380D01*
X152900000Y-90412380D01*
X152995238Y-90364761D01*
X153042857Y-90317142D01*
X153090476Y-90221904D01*
X153090476Y-90126666D01*
X153042857Y-90031428D01*
X152995238Y-89983809D01*
X152900000Y-89936190D01*
X152709523Y-89888571D01*
X152614285Y-89840952D01*
X152566666Y-89793333D01*
X152519047Y-89698095D01*
X152519047Y-89602857D01*
X152566666Y-89507619D01*
X152614285Y-89460000D01*
X152709523Y-89412380D01*
X152947619Y-89412380D01*
X153090476Y-89460000D01*
X154042857Y-90412380D02*
X153471428Y-90412380D01*
X153757142Y-90412380D02*
X153757142Y-89412380D01*
X153661904Y-89555238D01*
X153566666Y-89650476D01*
X153471428Y-89698095D01*
X154900000Y-89745714D02*
X154900000Y-90412380D01*
X154661904Y-89364761D02*
X154423809Y-90079047D01*
X155042857Y-90079047D01*
X150471428Y-80462380D02*
X150471428Y-79462380D01*
X151519047Y-80367142D02*
X151471428Y-80414761D01*
X151328571Y-80462380D01*
X151233333Y-80462380D01*
X151090476Y-80414761D01*
X150995238Y-80319523D01*
X150947619Y-80224285D01*
X150900000Y-80033809D01*
X150900000Y-79890952D01*
X150947619Y-79700476D01*
X150995238Y-79605238D01*
X151090476Y-79510000D01*
X151233333Y-79462380D01*
X151328571Y-79462380D01*
X151471428Y-79510000D01*
X151519047Y-79557619D01*
X152471428Y-80462380D02*
X151900000Y-80462380D01*
X152185714Y-80462380D02*
X152185714Y-79462380D01*
X152090476Y-79605238D01*
X151995238Y-79700476D01*
X151900000Y-79748095D01*
X153423809Y-80462380D02*
X152852380Y-80462380D01*
X153138095Y-80462380D02*
X153138095Y-79462380D01*
X153042857Y-79605238D01*
X152947619Y-79700476D01*
X152852380Y-79748095D01*
X154280952Y-79462380D02*
X154090476Y-79462380D01*
X153995238Y-79510000D01*
X153947619Y-79557619D01*
X153852380Y-79700476D01*
X153804761Y-79890952D01*
X153804761Y-80271904D01*
X153852380Y-80367142D01*
X153900000Y-80414761D01*
X153995238Y-80462380D01*
X154185714Y-80462380D01*
X154280952Y-80414761D01*
X154328571Y-80367142D01*
X154376190Y-80271904D01*
X154376190Y-80033809D01*
X154328571Y-79938571D01*
X154280952Y-79890952D01*
X154185714Y-79843333D01*
X153995238Y-79843333D01*
X153900000Y-79890952D01*
X153852380Y-79938571D01*
X153804761Y-80033809D01*
%TO.C,RN1*%
X246972380Y-52284285D02*
X246972380Y-52855714D01*
X246972380Y-52570000D02*
X245972380Y-52570000D01*
X246115238Y-52665238D01*
X246210476Y-52760476D01*
X246258095Y-52855714D01*
X246972380Y-51855714D02*
X245972380Y-51855714D01*
X246972380Y-51284285D02*
X246400952Y-51712857D01*
X245972380Y-51284285D02*
X246543809Y-51855714D01*
X249372380Y-51490476D02*
X248896190Y-51823809D01*
X249372380Y-52061904D02*
X248372380Y-52061904D01*
X248372380Y-51680952D01*
X248420000Y-51585714D01*
X248467619Y-51538095D01*
X248562857Y-51490476D01*
X248705714Y-51490476D01*
X248800952Y-51538095D01*
X248848571Y-51585714D01*
X248896190Y-51680952D01*
X248896190Y-52061904D01*
X249372380Y-51061904D02*
X248372380Y-51061904D01*
X249372380Y-50490476D01*
X248372380Y-50490476D01*
X249372380Y-49490476D02*
X249372380Y-50061904D01*
X249372380Y-49776190D02*
X248372380Y-49776190D01*
X248515238Y-49871428D01*
X248610476Y-49966666D01*
X248658095Y-50061904D01*
%TO.C,R107*%
X217130476Y-89452380D02*
X217749523Y-89452380D01*
X217416190Y-89833333D01*
X217559047Y-89833333D01*
X217654285Y-89880952D01*
X217701904Y-89928571D01*
X217749523Y-90023809D01*
X217749523Y-90261904D01*
X217701904Y-90357142D01*
X217654285Y-90404761D01*
X217559047Y-90452380D01*
X217273333Y-90452380D01*
X217178095Y-90404761D01*
X217130476Y-90357142D01*
X218178095Y-90452380D02*
X218178095Y-89452380D01*
X218749523Y-90452380D02*
X218320952Y-89880952D01*
X218749523Y-89452380D02*
X218178095Y-90023809D01*
X219082857Y-89452380D02*
X219701904Y-89452380D01*
X219368571Y-89833333D01*
X219511428Y-89833333D01*
X219606666Y-89880952D01*
X219654285Y-89928571D01*
X219701904Y-90023809D01*
X219701904Y-90261904D01*
X219654285Y-90357142D01*
X219606666Y-90404761D01*
X219511428Y-90452380D01*
X219225714Y-90452380D01*
X219130476Y-90404761D01*
X219082857Y-90357142D01*
X217320952Y-88082380D02*
X216987619Y-87606190D01*
X216749523Y-88082380D02*
X216749523Y-87082380D01*
X217130476Y-87082380D01*
X217225714Y-87130000D01*
X217273333Y-87177619D01*
X217320952Y-87272857D01*
X217320952Y-87415714D01*
X217273333Y-87510952D01*
X217225714Y-87558571D01*
X217130476Y-87606190D01*
X216749523Y-87606190D01*
X218273333Y-88082380D02*
X217701904Y-88082380D01*
X217987619Y-88082380D02*
X217987619Y-87082380D01*
X217892380Y-87225238D01*
X217797142Y-87320476D01*
X217701904Y-87368095D01*
X218892380Y-87082380D02*
X218987619Y-87082380D01*
X219082857Y-87130000D01*
X219130476Y-87177619D01*
X219178095Y-87272857D01*
X219225714Y-87463333D01*
X219225714Y-87701428D01*
X219178095Y-87891904D01*
X219130476Y-87987142D01*
X219082857Y-88034761D01*
X218987619Y-88082380D01*
X218892380Y-88082380D01*
X218797142Y-88034761D01*
X218749523Y-87987142D01*
X218701904Y-87891904D01*
X218654285Y-87701428D01*
X218654285Y-87463333D01*
X218701904Y-87272857D01*
X218749523Y-87177619D01*
X218797142Y-87130000D01*
X218892380Y-87082380D01*
X219559047Y-87082380D02*
X220225714Y-87082380D01*
X219797142Y-88082380D01*
%TO.C,R142*%
X114879523Y-49485714D02*
X114879523Y-50152380D01*
X114641428Y-49104761D02*
X114403333Y-49819047D01*
X115022380Y-49819047D01*
X115403333Y-50152380D02*
X115403333Y-49152380D01*
X115498571Y-49771428D02*
X115784285Y-50152380D01*
X115784285Y-49485714D02*
X115403333Y-49866666D01*
X116117619Y-49152380D02*
X116784285Y-49152380D01*
X116355714Y-50152380D01*
X114450952Y-52522380D02*
X114117619Y-52046190D01*
X113879523Y-52522380D02*
X113879523Y-51522380D01*
X114260476Y-51522380D01*
X114355714Y-51570000D01*
X114403333Y-51617619D01*
X114450952Y-51712857D01*
X114450952Y-51855714D01*
X114403333Y-51950952D01*
X114355714Y-51998571D01*
X114260476Y-52046190D01*
X113879523Y-52046190D01*
X115403333Y-52522380D02*
X114831904Y-52522380D01*
X115117619Y-52522380D02*
X115117619Y-51522380D01*
X115022380Y-51665238D01*
X114927142Y-51760476D01*
X114831904Y-51808095D01*
X116260476Y-51855714D02*
X116260476Y-52522380D01*
X116022380Y-51474761D02*
X115784285Y-52189047D01*
X116403333Y-52189047D01*
X116736666Y-51617619D02*
X116784285Y-51570000D01*
X116879523Y-51522380D01*
X117117619Y-51522380D01*
X117212857Y-51570000D01*
X117260476Y-51617619D01*
X117308095Y-51712857D01*
X117308095Y-51808095D01*
X117260476Y-51950952D01*
X116689047Y-52522380D01*
X117308095Y-52522380D01*
%TO.C,R108*%
X207994285Y-42532380D02*
X207422857Y-42532380D01*
X207708571Y-42532380D02*
X207708571Y-41532380D01*
X207613333Y-41675238D01*
X207518095Y-41770476D01*
X207422857Y-41818095D01*
X208422857Y-42532380D02*
X208422857Y-41532380D01*
X208756190Y-42246666D01*
X209089523Y-41532380D01*
X209089523Y-42532380D01*
X207160952Y-44902380D02*
X206827619Y-44426190D01*
X206589523Y-44902380D02*
X206589523Y-43902380D01*
X206970476Y-43902380D01*
X207065714Y-43950000D01*
X207113333Y-43997619D01*
X207160952Y-44092857D01*
X207160952Y-44235714D01*
X207113333Y-44330952D01*
X207065714Y-44378571D01*
X206970476Y-44426190D01*
X206589523Y-44426190D01*
X208113333Y-44902380D02*
X207541904Y-44902380D01*
X207827619Y-44902380D02*
X207827619Y-43902380D01*
X207732380Y-44045238D01*
X207637142Y-44140476D01*
X207541904Y-44188095D01*
X208732380Y-43902380D02*
X208827619Y-43902380D01*
X208922857Y-43950000D01*
X208970476Y-43997619D01*
X209018095Y-44092857D01*
X209065714Y-44283333D01*
X209065714Y-44521428D01*
X209018095Y-44711904D01*
X208970476Y-44807142D01*
X208922857Y-44854761D01*
X208827619Y-44902380D01*
X208732380Y-44902380D01*
X208637142Y-44854761D01*
X208589523Y-44807142D01*
X208541904Y-44711904D01*
X208494285Y-44521428D01*
X208494285Y-44283333D01*
X208541904Y-44092857D01*
X208589523Y-43997619D01*
X208637142Y-43950000D01*
X208732380Y-43902380D01*
X209637142Y-44330952D02*
X209541904Y-44283333D01*
X209494285Y-44235714D01*
X209446666Y-44140476D01*
X209446666Y-44092857D01*
X209494285Y-43997619D01*
X209541904Y-43950000D01*
X209637142Y-43902380D01*
X209827619Y-43902380D01*
X209922857Y-43950000D01*
X209970476Y-43997619D01*
X210018095Y-44092857D01*
X210018095Y-44140476D01*
X209970476Y-44235714D01*
X209922857Y-44283333D01*
X209827619Y-44330952D01*
X209637142Y-44330952D01*
X209541904Y-44378571D01*
X209494285Y-44426190D01*
X209446666Y-44521428D01*
X209446666Y-44711904D01*
X209494285Y-44807142D01*
X209541904Y-44854761D01*
X209637142Y-44902380D01*
X209827619Y-44902380D01*
X209922857Y-44854761D01*
X209970476Y-44807142D01*
X210018095Y-44711904D01*
X210018095Y-44521428D01*
X209970476Y-44426190D01*
X209922857Y-44378571D01*
X209827619Y-44330952D01*
%TO.C,R106*%
X243848095Y-70497619D02*
X243895714Y-70450000D01*
X243990952Y-70402380D01*
X244229047Y-70402380D01*
X244324285Y-70450000D01*
X244371904Y-70497619D01*
X244419523Y-70592857D01*
X244419523Y-70688095D01*
X244371904Y-70830952D01*
X243800476Y-71402380D01*
X244419523Y-71402380D01*
X244848095Y-71402380D02*
X244848095Y-70402380D01*
X245419523Y-71402380D02*
X244990952Y-70830952D01*
X245419523Y-70402380D02*
X244848095Y-70973809D01*
X245800476Y-70497619D02*
X245848095Y-70450000D01*
X245943333Y-70402380D01*
X246181428Y-70402380D01*
X246276666Y-70450000D01*
X246324285Y-70497619D01*
X246371904Y-70592857D01*
X246371904Y-70688095D01*
X246324285Y-70830952D01*
X245752857Y-71402380D01*
X246371904Y-71402380D01*
X243990952Y-69032380D02*
X243657619Y-68556190D01*
X243419523Y-69032380D02*
X243419523Y-68032380D01*
X243800476Y-68032380D01*
X243895714Y-68080000D01*
X243943333Y-68127619D01*
X243990952Y-68222857D01*
X243990952Y-68365714D01*
X243943333Y-68460952D01*
X243895714Y-68508571D01*
X243800476Y-68556190D01*
X243419523Y-68556190D01*
X244943333Y-69032380D02*
X244371904Y-69032380D01*
X244657619Y-69032380D02*
X244657619Y-68032380D01*
X244562380Y-68175238D01*
X244467142Y-68270476D01*
X244371904Y-68318095D01*
X245562380Y-68032380D02*
X245657619Y-68032380D01*
X245752857Y-68080000D01*
X245800476Y-68127619D01*
X245848095Y-68222857D01*
X245895714Y-68413333D01*
X245895714Y-68651428D01*
X245848095Y-68841904D01*
X245800476Y-68937142D01*
X245752857Y-68984761D01*
X245657619Y-69032380D01*
X245562380Y-69032380D01*
X245467142Y-68984761D01*
X245419523Y-68937142D01*
X245371904Y-68841904D01*
X245324285Y-68651428D01*
X245324285Y-68413333D01*
X245371904Y-68222857D01*
X245419523Y-68127619D01*
X245467142Y-68080000D01*
X245562380Y-68032380D01*
X246752857Y-68032380D02*
X246562380Y-68032380D01*
X246467142Y-68080000D01*
X246419523Y-68127619D01*
X246324285Y-68270476D01*
X246276666Y-68460952D01*
X246276666Y-68841904D01*
X246324285Y-68937142D01*
X246371904Y-68984761D01*
X246467142Y-69032380D01*
X246657619Y-69032380D01*
X246752857Y-68984761D01*
X246800476Y-68937142D01*
X246848095Y-68841904D01*
X246848095Y-68603809D01*
X246800476Y-68508571D01*
X246752857Y-68460952D01*
X246657619Y-68413333D01*
X246467142Y-68413333D01*
X246371904Y-68460952D01*
X246324285Y-68508571D01*
X246276666Y-68603809D01*
%TO.C,R105*%
X243943333Y-70472380D02*
X243371904Y-70472380D01*
X243657619Y-70472380D02*
X243657619Y-69472380D01*
X243562380Y-69615238D01*
X243467142Y-69710476D01*
X243371904Y-69758095D01*
X244848095Y-69472380D02*
X244371904Y-69472380D01*
X244324285Y-69948571D01*
X244371904Y-69900952D01*
X244467142Y-69853333D01*
X244705238Y-69853333D01*
X244800476Y-69900952D01*
X244848095Y-69948571D01*
X244895714Y-70043809D01*
X244895714Y-70281904D01*
X244848095Y-70377142D01*
X244800476Y-70424761D01*
X244705238Y-70472380D01*
X244467142Y-70472380D01*
X244371904Y-70424761D01*
X244324285Y-70377142D01*
X245514761Y-69472380D02*
X245610000Y-69472380D01*
X245705238Y-69520000D01*
X245752857Y-69567619D01*
X245800476Y-69662857D01*
X245848095Y-69853333D01*
X245848095Y-70091428D01*
X245800476Y-70281904D01*
X245752857Y-70377142D01*
X245705238Y-70424761D01*
X245610000Y-70472380D01*
X245514761Y-70472380D01*
X245419523Y-70424761D01*
X245371904Y-70377142D01*
X245324285Y-70281904D01*
X245276666Y-70091428D01*
X245276666Y-69853333D01*
X245324285Y-69662857D01*
X245371904Y-69567619D01*
X245419523Y-69520000D01*
X245514761Y-69472380D01*
X246276666Y-70472380D02*
X246276666Y-69472380D01*
X246848095Y-70472380D02*
X246419523Y-69900952D01*
X246848095Y-69472380D02*
X246276666Y-70043809D01*
X243990952Y-72842380D02*
X243657619Y-72366190D01*
X243419523Y-72842380D02*
X243419523Y-71842380D01*
X243800476Y-71842380D01*
X243895714Y-71890000D01*
X243943333Y-71937619D01*
X243990952Y-72032857D01*
X243990952Y-72175714D01*
X243943333Y-72270952D01*
X243895714Y-72318571D01*
X243800476Y-72366190D01*
X243419523Y-72366190D01*
X244943333Y-72842380D02*
X244371904Y-72842380D01*
X244657619Y-72842380D02*
X244657619Y-71842380D01*
X244562380Y-71985238D01*
X244467142Y-72080476D01*
X244371904Y-72128095D01*
X245562380Y-71842380D02*
X245657619Y-71842380D01*
X245752857Y-71890000D01*
X245800476Y-71937619D01*
X245848095Y-72032857D01*
X245895714Y-72223333D01*
X245895714Y-72461428D01*
X245848095Y-72651904D01*
X245800476Y-72747142D01*
X245752857Y-72794761D01*
X245657619Y-72842380D01*
X245562380Y-72842380D01*
X245467142Y-72794761D01*
X245419523Y-72747142D01*
X245371904Y-72651904D01*
X245324285Y-72461428D01*
X245324285Y-72223333D01*
X245371904Y-72032857D01*
X245419523Y-71937619D01*
X245467142Y-71890000D01*
X245562380Y-71842380D01*
X246800476Y-71842380D02*
X246324285Y-71842380D01*
X246276666Y-72318571D01*
X246324285Y-72270952D01*
X246419523Y-72223333D01*
X246657619Y-72223333D01*
X246752857Y-72270952D01*
X246800476Y-72318571D01*
X246848095Y-72413809D01*
X246848095Y-72651904D01*
X246800476Y-72747142D01*
X246752857Y-72794761D01*
X246657619Y-72842380D01*
X246419523Y-72842380D01*
X246324285Y-72794761D01*
X246276666Y-72747142D01*
%TO.C,R104*%
X243800476Y-73282380D02*
X244419523Y-73282380D01*
X244086190Y-73663333D01*
X244229047Y-73663333D01*
X244324285Y-73710952D01*
X244371904Y-73758571D01*
X244419523Y-73853809D01*
X244419523Y-74091904D01*
X244371904Y-74187142D01*
X244324285Y-74234761D01*
X244229047Y-74282380D01*
X243943333Y-74282380D01*
X243848095Y-74234761D01*
X243800476Y-74187142D01*
X244752857Y-73282380D02*
X245371904Y-73282380D01*
X245038571Y-73663333D01*
X245181428Y-73663333D01*
X245276666Y-73710952D01*
X245324285Y-73758571D01*
X245371904Y-73853809D01*
X245371904Y-74091904D01*
X245324285Y-74187142D01*
X245276666Y-74234761D01*
X245181428Y-74282380D01*
X244895714Y-74282380D01*
X244800476Y-74234761D01*
X244752857Y-74187142D01*
X245800476Y-74282380D02*
X245800476Y-73282380D01*
X246371904Y-74282380D02*
X245943333Y-73710952D01*
X246371904Y-73282380D02*
X245800476Y-73853809D01*
X243990952Y-76652380D02*
X243657619Y-76176190D01*
X243419523Y-76652380D02*
X243419523Y-75652380D01*
X243800476Y-75652380D01*
X243895714Y-75700000D01*
X243943333Y-75747619D01*
X243990952Y-75842857D01*
X243990952Y-75985714D01*
X243943333Y-76080952D01*
X243895714Y-76128571D01*
X243800476Y-76176190D01*
X243419523Y-76176190D01*
X244943333Y-76652380D02*
X244371904Y-76652380D01*
X244657619Y-76652380D02*
X244657619Y-75652380D01*
X244562380Y-75795238D01*
X244467142Y-75890476D01*
X244371904Y-75938095D01*
X245562380Y-75652380D02*
X245657619Y-75652380D01*
X245752857Y-75700000D01*
X245800476Y-75747619D01*
X245848095Y-75842857D01*
X245895714Y-76033333D01*
X245895714Y-76271428D01*
X245848095Y-76461904D01*
X245800476Y-76557142D01*
X245752857Y-76604761D01*
X245657619Y-76652380D01*
X245562380Y-76652380D01*
X245467142Y-76604761D01*
X245419523Y-76557142D01*
X245371904Y-76461904D01*
X245324285Y-76271428D01*
X245324285Y-76033333D01*
X245371904Y-75842857D01*
X245419523Y-75747619D01*
X245467142Y-75700000D01*
X245562380Y-75652380D01*
X246752857Y-75985714D02*
X246752857Y-76652380D01*
X246514761Y-75604761D02*
X246276666Y-76319047D01*
X246895714Y-76319047D01*
%TO.C,R103*%
X244824285Y-67592380D02*
X244252857Y-67592380D01*
X244538571Y-67592380D02*
X244538571Y-66592380D01*
X244443333Y-66735238D01*
X244348095Y-66830476D01*
X244252857Y-66878095D01*
X245252857Y-67592380D02*
X245252857Y-66592380D01*
X245586190Y-67306666D01*
X245919523Y-66592380D01*
X245919523Y-67592380D01*
X243990952Y-65222380D02*
X243657619Y-64746190D01*
X243419523Y-65222380D02*
X243419523Y-64222380D01*
X243800476Y-64222380D01*
X243895714Y-64270000D01*
X243943333Y-64317619D01*
X243990952Y-64412857D01*
X243990952Y-64555714D01*
X243943333Y-64650952D01*
X243895714Y-64698571D01*
X243800476Y-64746190D01*
X243419523Y-64746190D01*
X244943333Y-65222380D02*
X244371904Y-65222380D01*
X244657619Y-65222380D02*
X244657619Y-64222380D01*
X244562380Y-64365238D01*
X244467142Y-64460476D01*
X244371904Y-64508095D01*
X245562380Y-64222380D02*
X245657619Y-64222380D01*
X245752857Y-64270000D01*
X245800476Y-64317619D01*
X245848095Y-64412857D01*
X245895714Y-64603333D01*
X245895714Y-64841428D01*
X245848095Y-65031904D01*
X245800476Y-65127142D01*
X245752857Y-65174761D01*
X245657619Y-65222380D01*
X245562380Y-65222380D01*
X245467142Y-65174761D01*
X245419523Y-65127142D01*
X245371904Y-65031904D01*
X245324285Y-64841428D01*
X245324285Y-64603333D01*
X245371904Y-64412857D01*
X245419523Y-64317619D01*
X245467142Y-64270000D01*
X245562380Y-64222380D01*
X246229047Y-64222380D02*
X246848095Y-64222380D01*
X246514761Y-64603333D01*
X246657619Y-64603333D01*
X246752857Y-64650952D01*
X246800476Y-64698571D01*
X246848095Y-64793809D01*
X246848095Y-65031904D01*
X246800476Y-65127142D01*
X246752857Y-65174761D01*
X246657619Y-65222380D01*
X246371904Y-65222380D01*
X246276666Y-65174761D01*
X246229047Y-65127142D01*
%TO.C,R102*%
X193095714Y-41532380D02*
X192619523Y-41532380D01*
X192571904Y-42008571D01*
X192619523Y-41960952D01*
X192714761Y-41913333D01*
X192952857Y-41913333D01*
X193048095Y-41960952D01*
X193095714Y-42008571D01*
X193143333Y-42103809D01*
X193143333Y-42341904D01*
X193095714Y-42437142D01*
X193048095Y-42484761D01*
X192952857Y-42532380D01*
X192714761Y-42532380D01*
X192619523Y-42484761D01*
X192571904Y-42437142D01*
X194000476Y-41532380D02*
X193810000Y-41532380D01*
X193714761Y-41580000D01*
X193667142Y-41627619D01*
X193571904Y-41770476D01*
X193524285Y-41960952D01*
X193524285Y-42341904D01*
X193571904Y-42437142D01*
X193619523Y-42484761D01*
X193714761Y-42532380D01*
X193905238Y-42532380D01*
X194000476Y-42484761D01*
X194048095Y-42437142D01*
X194095714Y-42341904D01*
X194095714Y-42103809D01*
X194048095Y-42008571D01*
X194000476Y-41960952D01*
X193905238Y-41913333D01*
X193714761Y-41913333D01*
X193619523Y-41960952D01*
X193571904Y-42008571D01*
X193524285Y-42103809D01*
X194714761Y-41532380D02*
X194810000Y-41532380D01*
X194905238Y-41580000D01*
X194952857Y-41627619D01*
X195000476Y-41722857D01*
X195048095Y-41913333D01*
X195048095Y-42151428D01*
X195000476Y-42341904D01*
X194952857Y-42437142D01*
X194905238Y-42484761D01*
X194810000Y-42532380D01*
X194714761Y-42532380D01*
X194619523Y-42484761D01*
X194571904Y-42437142D01*
X194524285Y-42341904D01*
X194476666Y-42151428D01*
X194476666Y-41913333D01*
X194524285Y-41722857D01*
X194571904Y-41627619D01*
X194619523Y-41580000D01*
X194714761Y-41532380D01*
X195476666Y-42532380D02*
X195476666Y-41532380D01*
X196048095Y-42532380D02*
X195619523Y-41960952D01*
X196048095Y-41532380D02*
X195476666Y-42103809D01*
X193190952Y-44902380D02*
X192857619Y-44426190D01*
X192619523Y-44902380D02*
X192619523Y-43902380D01*
X193000476Y-43902380D01*
X193095714Y-43950000D01*
X193143333Y-43997619D01*
X193190952Y-44092857D01*
X193190952Y-44235714D01*
X193143333Y-44330952D01*
X193095714Y-44378571D01*
X193000476Y-44426190D01*
X192619523Y-44426190D01*
X194143333Y-44902380D02*
X193571904Y-44902380D01*
X193857619Y-44902380D02*
X193857619Y-43902380D01*
X193762380Y-44045238D01*
X193667142Y-44140476D01*
X193571904Y-44188095D01*
X194762380Y-43902380D02*
X194857619Y-43902380D01*
X194952857Y-43950000D01*
X195000476Y-43997619D01*
X195048095Y-44092857D01*
X195095714Y-44283333D01*
X195095714Y-44521428D01*
X195048095Y-44711904D01*
X195000476Y-44807142D01*
X194952857Y-44854761D01*
X194857619Y-44902380D01*
X194762380Y-44902380D01*
X194667142Y-44854761D01*
X194619523Y-44807142D01*
X194571904Y-44711904D01*
X194524285Y-44521428D01*
X194524285Y-44283333D01*
X194571904Y-44092857D01*
X194619523Y-43997619D01*
X194667142Y-43950000D01*
X194762380Y-43902380D01*
X195476666Y-43997619D02*
X195524285Y-43950000D01*
X195619523Y-43902380D01*
X195857619Y-43902380D01*
X195952857Y-43950000D01*
X196000476Y-43997619D01*
X196048095Y-44092857D01*
X196048095Y-44188095D01*
X196000476Y-44330952D01*
X195429047Y-44902380D01*
X196048095Y-44902380D01*
%TO.C,R101*%
X193095714Y-45342380D02*
X193714761Y-45342380D01*
X193381428Y-45723333D01*
X193524285Y-45723333D01*
X193619523Y-45770952D01*
X193667142Y-45818571D01*
X193714761Y-45913809D01*
X193714761Y-46151904D01*
X193667142Y-46247142D01*
X193619523Y-46294761D01*
X193524285Y-46342380D01*
X193238571Y-46342380D01*
X193143333Y-46294761D01*
X193095714Y-46247142D01*
X194143333Y-46342380D02*
X194143333Y-45342380D01*
X194238571Y-45961428D02*
X194524285Y-46342380D01*
X194524285Y-45675714D02*
X194143333Y-46056666D01*
X194857619Y-45342380D02*
X195476666Y-45342380D01*
X195143333Y-45723333D01*
X195286190Y-45723333D01*
X195381428Y-45770952D01*
X195429047Y-45818571D01*
X195476666Y-45913809D01*
X195476666Y-46151904D01*
X195429047Y-46247142D01*
X195381428Y-46294761D01*
X195286190Y-46342380D01*
X195000476Y-46342380D01*
X194905238Y-46294761D01*
X194857619Y-46247142D01*
X193190952Y-48712380D02*
X192857619Y-48236190D01*
X192619523Y-48712380D02*
X192619523Y-47712380D01*
X193000476Y-47712380D01*
X193095714Y-47760000D01*
X193143333Y-47807619D01*
X193190952Y-47902857D01*
X193190952Y-48045714D01*
X193143333Y-48140952D01*
X193095714Y-48188571D01*
X193000476Y-48236190D01*
X192619523Y-48236190D01*
X194143333Y-48712380D02*
X193571904Y-48712380D01*
X193857619Y-48712380D02*
X193857619Y-47712380D01*
X193762380Y-47855238D01*
X193667142Y-47950476D01*
X193571904Y-47998095D01*
X194762380Y-47712380D02*
X194857619Y-47712380D01*
X194952857Y-47760000D01*
X195000476Y-47807619D01*
X195048095Y-47902857D01*
X195095714Y-48093333D01*
X195095714Y-48331428D01*
X195048095Y-48521904D01*
X195000476Y-48617142D01*
X194952857Y-48664761D01*
X194857619Y-48712380D01*
X194762380Y-48712380D01*
X194667142Y-48664761D01*
X194619523Y-48617142D01*
X194571904Y-48521904D01*
X194524285Y-48331428D01*
X194524285Y-48093333D01*
X194571904Y-47902857D01*
X194619523Y-47807619D01*
X194667142Y-47760000D01*
X194762380Y-47712380D01*
X196048095Y-48712380D02*
X195476666Y-48712380D01*
X195762380Y-48712380D02*
X195762380Y-47712380D01*
X195667142Y-47855238D01*
X195571904Y-47950476D01*
X195476666Y-47998095D01*
%TO.C,D101*%
X178173333Y-41982380D02*
X178173333Y-40982380D01*
X178411428Y-40982380D01*
X178554285Y-41030000D01*
X178649523Y-41125238D01*
X178697142Y-41220476D01*
X178744761Y-41410952D01*
X178744761Y-41553809D01*
X178697142Y-41744285D01*
X178649523Y-41839523D01*
X178554285Y-41934761D01*
X178411428Y-41982380D01*
X178173333Y-41982380D01*
X179173333Y-41601428D02*
X179935238Y-41601428D01*
X180554285Y-41887142D02*
X180601904Y-41934761D01*
X180554285Y-41982380D01*
X180506666Y-41934761D01*
X180554285Y-41887142D01*
X180554285Y-41982380D01*
X180363809Y-41030000D02*
X180459047Y-40982380D01*
X180697142Y-40982380D01*
X180792380Y-41030000D01*
X180840000Y-41125238D01*
X180840000Y-41220476D01*
X180792380Y-41315714D01*
X180744761Y-41363333D01*
X180649523Y-41410952D01*
X180601904Y-41458571D01*
X180554285Y-41553809D01*
X180554285Y-41601428D01*
X181411428Y-41887142D02*
X181459047Y-41934761D01*
X181411428Y-41982380D01*
X181363809Y-41934761D01*
X181411428Y-41887142D01*
X181411428Y-41982380D01*
X181220952Y-41030000D02*
X181316190Y-40982380D01*
X181554285Y-40982380D01*
X181649523Y-41030000D01*
X181697142Y-41125238D01*
X181697142Y-41220476D01*
X181649523Y-41315714D01*
X181601904Y-41363333D01*
X181506666Y-41410952D01*
X181459047Y-41458571D01*
X181411428Y-41553809D01*
X181411428Y-41601428D01*
X182268571Y-41887142D02*
X182316190Y-41934761D01*
X182268571Y-41982380D01*
X182220952Y-41934761D01*
X182268571Y-41887142D01*
X182268571Y-41982380D01*
X182078095Y-41030000D02*
X182173333Y-40982380D01*
X182411428Y-40982380D01*
X182506666Y-41030000D01*
X182554285Y-41125238D01*
X182554285Y-41220476D01*
X182506666Y-41315714D01*
X182459047Y-41363333D01*
X182363809Y-41410952D01*
X182316190Y-41458571D01*
X182268571Y-41553809D01*
X182268571Y-41601428D01*
X185158095Y-47102380D02*
X185158095Y-46102380D01*
X185729523Y-47102380D02*
X185300952Y-46530952D01*
X185729523Y-46102380D02*
X185158095Y-46673809D01*
X178079523Y-44902380D02*
X178079523Y-43902380D01*
X178317619Y-43902380D01*
X178460476Y-43950000D01*
X178555714Y-44045238D01*
X178603333Y-44140476D01*
X178650952Y-44330952D01*
X178650952Y-44473809D01*
X178603333Y-44664285D01*
X178555714Y-44759523D01*
X178460476Y-44854761D01*
X178317619Y-44902380D01*
X178079523Y-44902380D01*
X179603333Y-44902380D02*
X179031904Y-44902380D01*
X179317619Y-44902380D02*
X179317619Y-43902380D01*
X179222380Y-44045238D01*
X179127142Y-44140476D01*
X179031904Y-44188095D01*
X180222380Y-43902380D02*
X180317619Y-43902380D01*
X180412857Y-43950000D01*
X180460476Y-43997619D01*
X180508095Y-44092857D01*
X180555714Y-44283333D01*
X180555714Y-44521428D01*
X180508095Y-44711904D01*
X180460476Y-44807142D01*
X180412857Y-44854761D01*
X180317619Y-44902380D01*
X180222380Y-44902380D01*
X180127142Y-44854761D01*
X180079523Y-44807142D01*
X180031904Y-44711904D01*
X179984285Y-44521428D01*
X179984285Y-44283333D01*
X180031904Y-44092857D01*
X180079523Y-43997619D01*
X180127142Y-43950000D01*
X180222380Y-43902380D01*
X181508095Y-44902380D02*
X180936666Y-44902380D01*
X181222380Y-44902380D02*
X181222380Y-43902380D01*
X181127142Y-44045238D01*
X181031904Y-44140476D01*
X180936666Y-44188095D01*
%TO.C,CY101*%
X206965714Y-53507380D02*
X206394285Y-53507380D01*
X206680000Y-53507380D02*
X206680000Y-52507380D01*
X206584761Y-52650238D01*
X206489523Y-52745476D01*
X206394285Y-52793095D01*
X207394285Y-53507380D02*
X207394285Y-52507380D01*
X207727619Y-53221666D01*
X208060952Y-52507380D01*
X208060952Y-53507380D01*
X208537142Y-53507380D02*
X208537142Y-52507380D01*
X208537142Y-52983571D02*
X209108571Y-52983571D01*
X209108571Y-53507380D02*
X209108571Y-52507380D01*
X209489523Y-52840714D02*
X210013333Y-52840714D01*
X209489523Y-53507380D01*
X210013333Y-53507380D01*
X206632380Y-49887142D02*
X206584761Y-49934761D01*
X206441904Y-49982380D01*
X206346666Y-49982380D01*
X206203809Y-49934761D01*
X206108571Y-49839523D01*
X206060952Y-49744285D01*
X206013333Y-49553809D01*
X206013333Y-49410952D01*
X206060952Y-49220476D01*
X206108571Y-49125238D01*
X206203809Y-49030000D01*
X206346666Y-48982380D01*
X206441904Y-48982380D01*
X206584761Y-49030000D01*
X206632380Y-49077619D01*
X207251428Y-49506190D02*
X207251428Y-49982380D01*
X206918095Y-48982380D02*
X207251428Y-49506190D01*
X207584761Y-48982380D01*
X208441904Y-49982380D02*
X207870476Y-49982380D01*
X208156190Y-49982380D02*
X208156190Y-48982380D01*
X208060952Y-49125238D01*
X207965714Y-49220476D01*
X207870476Y-49268095D01*
X209060952Y-48982380D02*
X209156190Y-48982380D01*
X209251428Y-49030000D01*
X209299047Y-49077619D01*
X209346666Y-49172857D01*
X209394285Y-49363333D01*
X209394285Y-49601428D01*
X209346666Y-49791904D01*
X209299047Y-49887142D01*
X209251428Y-49934761D01*
X209156190Y-49982380D01*
X209060952Y-49982380D01*
X208965714Y-49934761D01*
X208918095Y-49887142D01*
X208870476Y-49791904D01*
X208822857Y-49601428D01*
X208822857Y-49363333D01*
X208870476Y-49172857D01*
X208918095Y-49077619D01*
X208965714Y-49030000D01*
X209060952Y-48982380D01*
X210346666Y-49982380D02*
X209775238Y-49982380D01*
X210060952Y-49982380D02*
X210060952Y-48982380D01*
X209965714Y-49125238D01*
X209870476Y-49220476D01*
X209775238Y-49268095D01*
%TO.C,C107*%
X218475714Y-48787619D02*
X218523333Y-48740000D01*
X218618571Y-48692380D01*
X218856666Y-48692380D01*
X218951904Y-48740000D01*
X218999523Y-48787619D01*
X219047142Y-48882857D01*
X219047142Y-48978095D01*
X218999523Y-49120952D01*
X218428095Y-49692380D01*
X219047142Y-49692380D01*
X219428095Y-48787619D02*
X219475714Y-48740000D01*
X219570952Y-48692380D01*
X219809047Y-48692380D01*
X219904285Y-48740000D01*
X219951904Y-48787619D01*
X219999523Y-48882857D01*
X219999523Y-48978095D01*
X219951904Y-49120952D01*
X219380476Y-49692380D01*
X219999523Y-49692380D01*
X220428095Y-49025714D02*
X220428095Y-50025714D01*
X220428095Y-49073333D02*
X220523333Y-49025714D01*
X220713809Y-49025714D01*
X220809047Y-49073333D01*
X220856666Y-49120952D01*
X220904285Y-49216190D01*
X220904285Y-49501904D01*
X220856666Y-49597142D01*
X220809047Y-49644761D01*
X220713809Y-49692380D01*
X220523333Y-49692380D01*
X220428095Y-49644761D01*
D12*
X219018571Y-47204285D02*
X218990000Y-47232857D01*
X218904285Y-47261428D01*
X218847142Y-47261428D01*
X218761428Y-47232857D01*
X218704285Y-47175714D01*
X218675714Y-47118571D01*
X218647142Y-47004285D01*
X218647142Y-46918571D01*
X218675714Y-46804285D01*
X218704285Y-46747142D01*
X218761428Y-46690000D01*
X218847142Y-46661428D01*
X218904285Y-46661428D01*
X218990000Y-46690000D01*
X219018571Y-46718571D01*
X219590000Y-47261428D02*
X219247142Y-47261428D01*
X219418571Y-47261428D02*
X219418571Y-46661428D01*
X219361428Y-46747142D01*
X219304285Y-46804285D01*
X219247142Y-46832857D01*
X219961428Y-46661428D02*
X220018571Y-46661428D01*
X220075714Y-46690000D01*
X220104285Y-46718571D01*
X220132857Y-46775714D01*
X220161428Y-46890000D01*
X220161428Y-47032857D01*
X220132857Y-47147142D01*
X220104285Y-47204285D01*
X220075714Y-47232857D01*
X220018571Y-47261428D01*
X219961428Y-47261428D01*
X219904285Y-47232857D01*
X219875714Y-47204285D01*
X219847142Y-47147142D01*
X219818571Y-47032857D01*
X219818571Y-46890000D01*
X219847142Y-46775714D01*
X219875714Y-46718571D01*
X219904285Y-46690000D01*
X219961428Y-46661428D01*
X220361428Y-46661428D02*
X220761428Y-46661428D01*
X220504285Y-47261428D01*
%TO.C,C106*%
D11*
X172192380Y-113287619D02*
X172192380Y-113859047D01*
X172192380Y-113573333D02*
X171192380Y-113573333D01*
X171335238Y-113668571D01*
X171430476Y-113763809D01*
X171478095Y-113859047D01*
X171192380Y-112668571D02*
X171192380Y-112573333D01*
X171240000Y-112478095D01*
X171287619Y-112430476D01*
X171382857Y-112382857D01*
X171573333Y-112335238D01*
X171811428Y-112335238D01*
X172001904Y-112382857D01*
X172097142Y-112430476D01*
X172144761Y-112478095D01*
X172192380Y-112573333D01*
X172192380Y-112668571D01*
X172144761Y-112763809D01*
X172097142Y-112811428D01*
X172001904Y-112859047D01*
X171811428Y-112906666D01*
X171573333Y-112906666D01*
X171382857Y-112859047D01*
X171287619Y-112811428D01*
X171240000Y-112763809D01*
X171192380Y-112668571D01*
X171192380Y-111716190D02*
X171192380Y-111620952D01*
X171240000Y-111525714D01*
X171287619Y-111478095D01*
X171382857Y-111430476D01*
X171573333Y-111382857D01*
X171811428Y-111382857D01*
X172001904Y-111430476D01*
X172097142Y-111478095D01*
X172144761Y-111525714D01*
X172192380Y-111620952D01*
X172192380Y-111716190D01*
X172144761Y-111811428D01*
X172097142Y-111859047D01*
X172001904Y-111906666D01*
X171811428Y-111954285D01*
X171573333Y-111954285D01*
X171382857Y-111906666D01*
X171287619Y-111859047D01*
X171240000Y-111811428D01*
X171192380Y-111716190D01*
X171525714Y-110954285D02*
X172192380Y-110954285D01*
X171620952Y-110954285D02*
X171573333Y-110906666D01*
X171525714Y-110811428D01*
X171525714Y-110668571D01*
X171573333Y-110573333D01*
X171668571Y-110525714D01*
X172192380Y-110525714D01*
X171668571Y-109716190D02*
X171668571Y-110049523D01*
X172192380Y-110049523D02*
X171192380Y-110049523D01*
X171192380Y-109573333D01*
D12*
X174204285Y-112411428D02*
X174232857Y-112440000D01*
X174261428Y-112525714D01*
X174261428Y-112582857D01*
X174232857Y-112668571D01*
X174175714Y-112725714D01*
X174118571Y-112754285D01*
X174004285Y-112782857D01*
X173918571Y-112782857D01*
X173804285Y-112754285D01*
X173747142Y-112725714D01*
X173690000Y-112668571D01*
X173661428Y-112582857D01*
X173661428Y-112525714D01*
X173690000Y-112440000D01*
X173718571Y-112411428D01*
X174261428Y-111840000D02*
X174261428Y-112182857D01*
X174261428Y-112011428D02*
X173661428Y-112011428D01*
X173747142Y-112068571D01*
X173804285Y-112125714D01*
X173832857Y-112182857D01*
X173661428Y-111468571D02*
X173661428Y-111411428D01*
X173690000Y-111354285D01*
X173718571Y-111325714D01*
X173775714Y-111297142D01*
X173890000Y-111268571D01*
X174032857Y-111268571D01*
X174147142Y-111297142D01*
X174204285Y-111325714D01*
X174232857Y-111354285D01*
X174261428Y-111411428D01*
X174261428Y-111468571D01*
X174232857Y-111525714D01*
X174204285Y-111554285D01*
X174147142Y-111582857D01*
X174032857Y-111611428D01*
X173890000Y-111611428D01*
X173775714Y-111582857D01*
X173718571Y-111554285D01*
X173690000Y-111525714D01*
X173661428Y-111468571D01*
X173661428Y-110754285D02*
X173661428Y-110868571D01*
X173690000Y-110925714D01*
X173718571Y-110954285D01*
X173804285Y-111011428D01*
X173918571Y-111040000D01*
X174147142Y-111040000D01*
X174204285Y-111011428D01*
X174232857Y-110982857D01*
X174261428Y-110925714D01*
X174261428Y-110811428D01*
X174232857Y-110754285D01*
X174204285Y-110725714D01*
X174147142Y-110697142D01*
X174004285Y-110697142D01*
X173947142Y-110725714D01*
X173918571Y-110754285D01*
X173890000Y-110811428D01*
X173890000Y-110925714D01*
X173918571Y-110982857D01*
X173947142Y-111011428D01*
X174004285Y-111040000D01*
%TO.C,C105*%
D11*
X243335714Y-82514285D02*
X244002380Y-82514285D01*
X242954761Y-82752380D02*
X243669047Y-82990476D01*
X243669047Y-82371428D01*
X243002380Y-82085714D02*
X243002380Y-81419047D01*
X244002380Y-81847619D01*
X243002380Y-80847619D02*
X243002380Y-80752380D01*
X243050000Y-80657142D01*
X243097619Y-80609523D01*
X243192857Y-80561904D01*
X243383333Y-80514285D01*
X243621428Y-80514285D01*
X243811904Y-80561904D01*
X243907142Y-80609523D01*
X243954761Y-80657142D01*
X244002380Y-80752380D01*
X244002380Y-80847619D01*
X243954761Y-80942857D01*
X243907142Y-80990476D01*
X243811904Y-81038095D01*
X243621428Y-81085714D01*
X243383333Y-81085714D01*
X243192857Y-81038095D01*
X243097619Y-80990476D01*
X243050000Y-80942857D01*
X243002380Y-80847619D01*
X243335714Y-80085714D02*
X244335714Y-80085714D01*
X243383333Y-80085714D02*
X243335714Y-79990476D01*
X243335714Y-79800000D01*
X243383333Y-79704761D01*
X243430952Y-79657142D01*
X243526190Y-79609523D01*
X243811904Y-79609523D01*
X243907142Y-79657142D01*
X243954761Y-79704761D01*
X244002380Y-79800000D01*
X244002380Y-79990476D01*
X243954761Y-80085714D01*
D12*
X241514285Y-81971428D02*
X241542857Y-82000000D01*
X241571428Y-82085714D01*
X241571428Y-82142857D01*
X241542857Y-82228571D01*
X241485714Y-82285714D01*
X241428571Y-82314285D01*
X241314285Y-82342857D01*
X241228571Y-82342857D01*
X241114285Y-82314285D01*
X241057142Y-82285714D01*
X241000000Y-82228571D01*
X240971428Y-82142857D01*
X240971428Y-82085714D01*
X241000000Y-82000000D01*
X241028571Y-81971428D01*
X241571428Y-81400000D02*
X241571428Y-81742857D01*
X241571428Y-81571428D02*
X240971428Y-81571428D01*
X241057142Y-81628571D01*
X241114285Y-81685714D01*
X241142857Y-81742857D01*
X240971428Y-81028571D02*
X240971428Y-80971428D01*
X241000000Y-80914285D01*
X241028571Y-80885714D01*
X241085714Y-80857142D01*
X241200000Y-80828571D01*
X241342857Y-80828571D01*
X241457142Y-80857142D01*
X241514285Y-80885714D01*
X241542857Y-80914285D01*
X241571428Y-80971428D01*
X241571428Y-81028571D01*
X241542857Y-81085714D01*
X241514285Y-81114285D01*
X241457142Y-81142857D01*
X241342857Y-81171428D01*
X241200000Y-81171428D01*
X241085714Y-81142857D01*
X241028571Y-81114285D01*
X241000000Y-81085714D01*
X240971428Y-81028571D01*
X240971428Y-80285714D02*
X240971428Y-80571428D01*
X241257142Y-80600000D01*
X241228571Y-80571428D01*
X241200000Y-80514285D01*
X241200000Y-80371428D01*
X241228571Y-80314285D01*
X241257142Y-80285714D01*
X241314285Y-80257142D01*
X241457142Y-80257142D01*
X241514285Y-80285714D01*
X241542857Y-80314285D01*
X241571428Y-80371428D01*
X241571428Y-80514285D01*
X241542857Y-80571428D01*
X241514285Y-80600000D01*
%TO.C,C104*%
D11*
X218475714Y-51327619D02*
X218523333Y-51280000D01*
X218618571Y-51232380D01*
X218856666Y-51232380D01*
X218951904Y-51280000D01*
X218999523Y-51327619D01*
X219047142Y-51422857D01*
X219047142Y-51518095D01*
X218999523Y-51660952D01*
X218428095Y-52232380D01*
X219047142Y-52232380D01*
X219428095Y-51327619D02*
X219475714Y-51280000D01*
X219570952Y-51232380D01*
X219809047Y-51232380D01*
X219904285Y-51280000D01*
X219951904Y-51327619D01*
X219999523Y-51422857D01*
X219999523Y-51518095D01*
X219951904Y-51660952D01*
X219380476Y-52232380D01*
X219999523Y-52232380D01*
X220428095Y-51565714D02*
X220428095Y-52565714D01*
X220428095Y-51613333D02*
X220523333Y-51565714D01*
X220713809Y-51565714D01*
X220809047Y-51613333D01*
X220856666Y-51660952D01*
X220904285Y-51756190D01*
X220904285Y-52041904D01*
X220856666Y-52137142D01*
X220809047Y-52184761D01*
X220713809Y-52232380D01*
X220523333Y-52232380D01*
X220428095Y-52184761D01*
D12*
X219018571Y-49744285D02*
X218990000Y-49772857D01*
X218904285Y-49801428D01*
X218847142Y-49801428D01*
X218761428Y-49772857D01*
X218704285Y-49715714D01*
X218675714Y-49658571D01*
X218647142Y-49544285D01*
X218647142Y-49458571D01*
X218675714Y-49344285D01*
X218704285Y-49287142D01*
X218761428Y-49230000D01*
X218847142Y-49201428D01*
X218904285Y-49201428D01*
X218990000Y-49230000D01*
X219018571Y-49258571D01*
X219590000Y-49801428D02*
X219247142Y-49801428D01*
X219418571Y-49801428D02*
X219418571Y-49201428D01*
X219361428Y-49287142D01*
X219304285Y-49344285D01*
X219247142Y-49372857D01*
X219961428Y-49201428D02*
X220018571Y-49201428D01*
X220075714Y-49230000D01*
X220104285Y-49258571D01*
X220132857Y-49315714D01*
X220161428Y-49430000D01*
X220161428Y-49572857D01*
X220132857Y-49687142D01*
X220104285Y-49744285D01*
X220075714Y-49772857D01*
X220018571Y-49801428D01*
X219961428Y-49801428D01*
X219904285Y-49772857D01*
X219875714Y-49744285D01*
X219847142Y-49687142D01*
X219818571Y-49572857D01*
X219818571Y-49430000D01*
X219847142Y-49315714D01*
X219875714Y-49258571D01*
X219904285Y-49230000D01*
X219961428Y-49201428D01*
X220675714Y-49401428D02*
X220675714Y-49801428D01*
X220532857Y-49172857D02*
X220390000Y-49601428D01*
X220761428Y-49601428D01*
%TO.C,C103*%
D11*
X241351904Y-109652380D02*
X241447142Y-109652380D01*
X241542380Y-109700000D01*
X241590000Y-109747619D01*
X241637619Y-109842857D01*
X241685238Y-110033333D01*
X241685238Y-110271428D01*
X241637619Y-110461904D01*
X241590000Y-110557142D01*
X241542380Y-110604761D01*
X241447142Y-110652380D01*
X241351904Y-110652380D01*
X241256666Y-110604761D01*
X241209047Y-110557142D01*
X241161428Y-110461904D01*
X241113809Y-110271428D01*
X241113809Y-110033333D01*
X241161428Y-109842857D01*
X241209047Y-109747619D01*
X241256666Y-109700000D01*
X241351904Y-109652380D01*
X242113809Y-110557142D02*
X242161428Y-110604761D01*
X242113809Y-110652380D01*
X242066190Y-110604761D01*
X242113809Y-110557142D01*
X242113809Y-110652380D01*
X242780476Y-109652380D02*
X242875714Y-109652380D01*
X242970952Y-109700000D01*
X243018571Y-109747619D01*
X243066190Y-109842857D01*
X243113809Y-110033333D01*
X243113809Y-110271428D01*
X243066190Y-110461904D01*
X243018571Y-110557142D01*
X242970952Y-110604761D01*
X242875714Y-110652380D01*
X242780476Y-110652380D01*
X242685238Y-110604761D01*
X242637619Y-110557142D01*
X242590000Y-110461904D01*
X242542380Y-110271428D01*
X242542380Y-110033333D01*
X242590000Y-109842857D01*
X242637619Y-109747619D01*
X242685238Y-109700000D01*
X242780476Y-109652380D01*
X244066190Y-110652380D02*
X243494761Y-110652380D01*
X243780476Y-110652380D02*
X243780476Y-109652380D01*
X243685238Y-109795238D01*
X243590000Y-109890476D01*
X243494761Y-109938095D01*
D12*
X241918571Y-108164285D02*
X241890000Y-108192857D01*
X241804285Y-108221428D01*
X241747142Y-108221428D01*
X241661428Y-108192857D01*
X241604285Y-108135714D01*
X241575714Y-108078571D01*
X241547142Y-107964285D01*
X241547142Y-107878571D01*
X241575714Y-107764285D01*
X241604285Y-107707142D01*
X241661428Y-107650000D01*
X241747142Y-107621428D01*
X241804285Y-107621428D01*
X241890000Y-107650000D01*
X241918571Y-107678571D01*
X242490000Y-108221428D02*
X242147142Y-108221428D01*
X242318571Y-108221428D02*
X242318571Y-107621428D01*
X242261428Y-107707142D01*
X242204285Y-107764285D01*
X242147142Y-107792857D01*
X242861428Y-107621428D02*
X242918571Y-107621428D01*
X242975714Y-107650000D01*
X243004285Y-107678571D01*
X243032857Y-107735714D01*
X243061428Y-107850000D01*
X243061428Y-107992857D01*
X243032857Y-108107142D01*
X243004285Y-108164285D01*
X242975714Y-108192857D01*
X242918571Y-108221428D01*
X242861428Y-108221428D01*
X242804285Y-108192857D01*
X242775714Y-108164285D01*
X242747142Y-108107142D01*
X242718571Y-107992857D01*
X242718571Y-107850000D01*
X242747142Y-107735714D01*
X242775714Y-107678571D01*
X242804285Y-107650000D01*
X242861428Y-107621428D01*
X243261428Y-107621428D02*
X243632857Y-107621428D01*
X243432857Y-107850000D01*
X243518571Y-107850000D01*
X243575714Y-107878571D01*
X243604285Y-107907142D01*
X243632857Y-107964285D01*
X243632857Y-108107142D01*
X243604285Y-108164285D01*
X243575714Y-108192857D01*
X243518571Y-108221428D01*
X243347142Y-108221428D01*
X243290000Y-108192857D01*
X243261428Y-108164285D01*
%TO.C,C102*%
D11*
X201425714Y-58860476D02*
X202092380Y-58860476D01*
X201044761Y-59098571D02*
X201759047Y-59336666D01*
X201759047Y-58717619D01*
X201092380Y-58431904D02*
X201092380Y-57765238D01*
X202092380Y-58193809D01*
X201092380Y-57193809D02*
X201092380Y-57098571D01*
X201140000Y-57003333D01*
X201187619Y-56955714D01*
X201282857Y-56908095D01*
X201473333Y-56860476D01*
X201711428Y-56860476D01*
X201901904Y-56908095D01*
X201997142Y-56955714D01*
X202044761Y-57003333D01*
X202092380Y-57098571D01*
X202092380Y-57193809D01*
X202044761Y-57289047D01*
X201997142Y-57336666D01*
X201901904Y-57384285D01*
X201711428Y-57431904D01*
X201473333Y-57431904D01*
X201282857Y-57384285D01*
X201187619Y-57336666D01*
X201140000Y-57289047D01*
X201092380Y-57193809D01*
X201092380Y-56241428D02*
X201092380Y-56146190D01*
X201140000Y-56050952D01*
X201187619Y-56003333D01*
X201282857Y-55955714D01*
X201473333Y-55908095D01*
X201711428Y-55908095D01*
X201901904Y-55955714D01*
X201997142Y-56003333D01*
X202044761Y-56050952D01*
X202092380Y-56146190D01*
X202092380Y-56241428D01*
X202044761Y-56336666D01*
X201997142Y-56384285D01*
X201901904Y-56431904D01*
X201711428Y-56479523D01*
X201473333Y-56479523D01*
X201282857Y-56431904D01*
X201187619Y-56384285D01*
X201140000Y-56336666D01*
X201092380Y-56241428D01*
X201425714Y-55479523D02*
X202425714Y-55479523D01*
X201473333Y-55479523D02*
X201425714Y-55384285D01*
X201425714Y-55193809D01*
X201473333Y-55098571D01*
X201520952Y-55050952D01*
X201616190Y-55003333D01*
X201901904Y-55003333D01*
X201997142Y-55050952D01*
X202044761Y-55098571D01*
X202092380Y-55193809D01*
X202092380Y-55384285D01*
X202044761Y-55479523D01*
D12*
X199604285Y-57841428D02*
X199632857Y-57870000D01*
X199661428Y-57955714D01*
X199661428Y-58012857D01*
X199632857Y-58098571D01*
X199575714Y-58155714D01*
X199518571Y-58184285D01*
X199404285Y-58212857D01*
X199318571Y-58212857D01*
X199204285Y-58184285D01*
X199147142Y-58155714D01*
X199090000Y-58098571D01*
X199061428Y-58012857D01*
X199061428Y-57955714D01*
X199090000Y-57870000D01*
X199118571Y-57841428D01*
X199661428Y-57270000D02*
X199661428Y-57612857D01*
X199661428Y-57441428D02*
X199061428Y-57441428D01*
X199147142Y-57498571D01*
X199204285Y-57555714D01*
X199232857Y-57612857D01*
X199061428Y-56898571D02*
X199061428Y-56841428D01*
X199090000Y-56784285D01*
X199118571Y-56755714D01*
X199175714Y-56727142D01*
X199290000Y-56698571D01*
X199432857Y-56698571D01*
X199547142Y-56727142D01*
X199604285Y-56755714D01*
X199632857Y-56784285D01*
X199661428Y-56841428D01*
X199661428Y-56898571D01*
X199632857Y-56955714D01*
X199604285Y-56984285D01*
X199547142Y-57012857D01*
X199432857Y-57041428D01*
X199290000Y-57041428D01*
X199175714Y-57012857D01*
X199118571Y-56984285D01*
X199090000Y-56955714D01*
X199061428Y-56898571D01*
X199118571Y-56470000D02*
X199090000Y-56441428D01*
X199061428Y-56384285D01*
X199061428Y-56241428D01*
X199090000Y-56184285D01*
X199118571Y-56155714D01*
X199175714Y-56127142D01*
X199232857Y-56127142D01*
X199318571Y-56155714D01*
X199661428Y-56498571D01*
X199661428Y-56127142D01*
%TO.C,C101*%
D11*
X174387142Y-48002380D02*
X173815714Y-48002380D01*
X174101428Y-48002380D02*
X174101428Y-47002380D01*
X174006190Y-47145238D01*
X173910952Y-47240476D01*
X173815714Y-47288095D01*
X175006190Y-47002380D02*
X175101428Y-47002380D01*
X175196666Y-47050000D01*
X175244285Y-47097619D01*
X175291904Y-47192857D01*
X175339523Y-47383333D01*
X175339523Y-47621428D01*
X175291904Y-47811904D01*
X175244285Y-47907142D01*
X175196666Y-47954761D01*
X175101428Y-48002380D01*
X175006190Y-48002380D01*
X174910952Y-47954761D01*
X174863333Y-47907142D01*
X174815714Y-47811904D01*
X174768095Y-47621428D01*
X174768095Y-47383333D01*
X174815714Y-47192857D01*
X174863333Y-47097619D01*
X174910952Y-47050000D01*
X175006190Y-47002380D01*
X175768095Y-47335714D02*
X175768095Y-48335714D01*
X176244285Y-47859523D02*
X176291904Y-47954761D01*
X176387142Y-48002380D01*
X175768095Y-47859523D02*
X175815714Y-47954761D01*
X175910952Y-48002380D01*
X176101428Y-48002380D01*
X176196666Y-47954761D01*
X176244285Y-47859523D01*
X176244285Y-47335714D01*
X177149047Y-47478571D02*
X176815714Y-47478571D01*
X176815714Y-48002380D02*
X176815714Y-47002380D01*
X177291904Y-47002380D01*
D13*
X174634761Y-51085714D02*
X174596666Y-51123809D01*
X174482380Y-51161904D01*
X174406190Y-51161904D01*
X174291904Y-51123809D01*
X174215714Y-51047619D01*
X174177619Y-50971428D01*
X174139523Y-50819047D01*
X174139523Y-50704761D01*
X174177619Y-50552380D01*
X174215714Y-50476190D01*
X174291904Y-50400000D01*
X174406190Y-50361904D01*
X174482380Y-50361904D01*
X174596666Y-50400000D01*
X174634761Y-50438095D01*
X175396666Y-51161904D02*
X174939523Y-51161904D01*
X175168095Y-51161904D02*
X175168095Y-50361904D01*
X175091904Y-50476190D01*
X175015714Y-50552380D01*
X174939523Y-50590476D01*
X175891904Y-50361904D02*
X175968095Y-50361904D01*
X176044285Y-50400000D01*
X176082380Y-50438095D01*
X176120476Y-50514285D01*
X176158571Y-50666666D01*
X176158571Y-50857142D01*
X176120476Y-51009523D01*
X176082380Y-51085714D01*
X176044285Y-51123809D01*
X175968095Y-51161904D01*
X175891904Y-51161904D01*
X175815714Y-51123809D01*
X175777619Y-51085714D01*
X175739523Y-51009523D01*
X175701428Y-50857142D01*
X175701428Y-50666666D01*
X175739523Y-50514285D01*
X175777619Y-50438095D01*
X175815714Y-50400000D01*
X175891904Y-50361904D01*
X176920476Y-51161904D02*
X176463333Y-51161904D01*
X176691904Y-51161904D02*
X176691904Y-50361904D01*
X176615714Y-50476190D01*
X176539523Y-50552380D01*
X176463333Y-50590476D01*
%TO.C,C3*%
D11*
X253857142Y-48152380D02*
X253285714Y-48152380D01*
X253571428Y-48152380D02*
X253571428Y-47152380D01*
X253476190Y-47295238D01*
X253380952Y-47390476D01*
X253285714Y-47438095D01*
X254476190Y-47152380D02*
X254571428Y-47152380D01*
X254666666Y-47200000D01*
X254714285Y-47247619D01*
X254761904Y-47342857D01*
X254809523Y-47533333D01*
X254809523Y-47771428D01*
X254761904Y-47961904D01*
X254714285Y-48057142D01*
X254666666Y-48104761D01*
X254571428Y-48152380D01*
X254476190Y-48152380D01*
X254380952Y-48104761D01*
X254333333Y-48057142D01*
X254285714Y-47961904D01*
X254238095Y-47771428D01*
X254238095Y-47533333D01*
X254285714Y-47342857D01*
X254333333Y-47247619D01*
X254380952Y-47200000D01*
X254476190Y-47152380D01*
X255238095Y-47485714D02*
X255238095Y-48485714D01*
X255714285Y-48009523D02*
X255761904Y-48104761D01*
X255857142Y-48152380D01*
X255238095Y-48009523D02*
X255285714Y-48104761D01*
X255380952Y-48152380D01*
X255571428Y-48152380D01*
X255666666Y-48104761D01*
X255714285Y-48009523D01*
X255714285Y-47485714D01*
X256619047Y-47628571D02*
X256285714Y-47628571D01*
X256285714Y-48152380D02*
X256285714Y-47152380D01*
X256761904Y-47152380D01*
D13*
X254866666Y-44735714D02*
X254828571Y-44773809D01*
X254714285Y-44811904D01*
X254638095Y-44811904D01*
X254523809Y-44773809D01*
X254447619Y-44697619D01*
X254409523Y-44621428D01*
X254371428Y-44469047D01*
X254371428Y-44354761D01*
X254409523Y-44202380D01*
X254447619Y-44126190D01*
X254523809Y-44050000D01*
X254638095Y-44011904D01*
X254714285Y-44011904D01*
X254828571Y-44050000D01*
X254866666Y-44088095D01*
X255133333Y-44011904D02*
X255628571Y-44011904D01*
X255361904Y-44316666D01*
X255476190Y-44316666D01*
X255552380Y-44354761D01*
X255590476Y-44392857D01*
X255628571Y-44469047D01*
X255628571Y-44659523D01*
X255590476Y-44735714D01*
X255552380Y-44773809D01*
X255476190Y-44811904D01*
X255247619Y-44811904D01*
X255171428Y-44773809D01*
X255133333Y-44735714D01*
%TO.C,C2*%
D11*
X168612380Y-47152380D02*
X168040952Y-47152380D01*
X168326666Y-47152380D02*
X168326666Y-46152380D01*
X168231428Y-46295238D01*
X168136190Y-46390476D01*
X168040952Y-46438095D01*
X169231428Y-46152380D02*
X169326666Y-46152380D01*
X169421904Y-46200000D01*
X169469523Y-46247619D01*
X169517142Y-46342857D01*
X169564761Y-46533333D01*
X169564761Y-46771428D01*
X169517142Y-46961904D01*
X169469523Y-47057142D01*
X169421904Y-47104761D01*
X169326666Y-47152380D01*
X169231428Y-47152380D01*
X169136190Y-47104761D01*
X169088571Y-47057142D01*
X169040952Y-46961904D01*
X168993333Y-46771428D01*
X168993333Y-46533333D01*
X169040952Y-46342857D01*
X169088571Y-46247619D01*
X169136190Y-46200000D01*
X169231428Y-46152380D01*
X170183809Y-46152380D02*
X170279047Y-46152380D01*
X170374285Y-46200000D01*
X170421904Y-46247619D01*
X170469523Y-46342857D01*
X170517142Y-46533333D01*
X170517142Y-46771428D01*
X170469523Y-46961904D01*
X170421904Y-47057142D01*
X170374285Y-47104761D01*
X170279047Y-47152380D01*
X170183809Y-47152380D01*
X170088571Y-47104761D01*
X170040952Y-47057142D01*
X169993333Y-46961904D01*
X169945714Y-46771428D01*
X169945714Y-46533333D01*
X169993333Y-46342857D01*
X170040952Y-46247619D01*
X170088571Y-46200000D01*
X170183809Y-46152380D01*
X170945714Y-46485714D02*
X170945714Y-47152380D01*
X170945714Y-46580952D02*
X170993333Y-46533333D01*
X171088571Y-46485714D01*
X171231428Y-46485714D01*
X171326666Y-46533333D01*
X171374285Y-46628571D01*
X171374285Y-47152380D01*
X172183809Y-46628571D02*
X171850476Y-46628571D01*
X171850476Y-47152380D02*
X171850476Y-46152380D01*
X172326666Y-46152380D01*
D12*
X170060000Y-44664285D02*
X170031428Y-44692857D01*
X169945714Y-44721428D01*
X169888571Y-44721428D01*
X169802857Y-44692857D01*
X169745714Y-44635714D01*
X169717142Y-44578571D01*
X169688571Y-44464285D01*
X169688571Y-44378571D01*
X169717142Y-44264285D01*
X169745714Y-44207142D01*
X169802857Y-44150000D01*
X169888571Y-44121428D01*
X169945714Y-44121428D01*
X170031428Y-44150000D01*
X170060000Y-44178571D01*
X170288571Y-44178571D02*
X170317142Y-44150000D01*
X170374285Y-44121428D01*
X170517142Y-44121428D01*
X170574285Y-44150000D01*
X170602857Y-44178571D01*
X170631428Y-44235714D01*
X170631428Y-44292857D01*
X170602857Y-44378571D01*
X170260000Y-44721428D01*
X170631428Y-44721428D01*
%TO.C,C1*%
D11*
X121959523Y-130607142D02*
X121911904Y-130654761D01*
X121769047Y-130702380D01*
X121673809Y-130702380D01*
X121530952Y-130654761D01*
X121435714Y-130559523D01*
X121388095Y-130464285D01*
X121340476Y-130273809D01*
X121340476Y-130130952D01*
X121388095Y-129940476D01*
X121435714Y-129845238D01*
X121530952Y-129750000D01*
X121673809Y-129702380D01*
X121769047Y-129702380D01*
X121911904Y-129750000D01*
X121959523Y-129797619D01*
D13*
X121516666Y-127285714D02*
X121478571Y-127323809D01*
X121364285Y-127361904D01*
X121288095Y-127361904D01*
X121173809Y-127323809D01*
X121097619Y-127247619D01*
X121059523Y-127171428D01*
X121021428Y-127019047D01*
X121021428Y-126904761D01*
X121059523Y-126752380D01*
X121097619Y-126676190D01*
X121173809Y-126600000D01*
X121288095Y-126561904D01*
X121364285Y-126561904D01*
X121478571Y-126600000D01*
X121516666Y-126638095D01*
X122278571Y-127361904D02*
X121821428Y-127361904D01*
X122050000Y-127361904D02*
X122050000Y-126561904D01*
X121973809Y-126676190D01*
X121897619Y-126752380D01*
X121821428Y-126790476D01*
%TO.C,RA106*%
D11*
X132100952Y-81549523D02*
X132053333Y-81644761D01*
X132005714Y-81692380D01*
X131910476Y-81740000D01*
X131862857Y-81740000D01*
X131767619Y-81692380D01*
X131720000Y-81644761D01*
X131672380Y-81549523D01*
X131672380Y-81359047D01*
X131720000Y-81263809D01*
X131767619Y-81216190D01*
X131862857Y-81168571D01*
X131910476Y-81168571D01*
X132005714Y-81216190D01*
X132053333Y-81263809D01*
X132100952Y-81359047D01*
X132100952Y-81549523D01*
X132148571Y-81644761D01*
X132196190Y-81692380D01*
X132291428Y-81740000D01*
X132481904Y-81740000D01*
X132577142Y-81692380D01*
X132624761Y-81644761D01*
X132672380Y-81549523D01*
X132672380Y-81359047D01*
X132624761Y-81263809D01*
X132577142Y-81216190D01*
X132481904Y-81168571D01*
X132291428Y-81168571D01*
X132196190Y-81216190D01*
X132148571Y-81263809D01*
X132100952Y-81359047D01*
X132672380Y-80835238D02*
X132005714Y-80311428D01*
X132005714Y-80835238D02*
X132672380Y-80311428D01*
X131672380Y-79263809D02*
X131672380Y-78644761D01*
X132053333Y-78978095D01*
X132053333Y-78835238D01*
X132100952Y-78740000D01*
X132148571Y-78692380D01*
X132243809Y-78644761D01*
X132481904Y-78644761D01*
X132577142Y-78692380D01*
X132624761Y-78740000D01*
X132672380Y-78835238D01*
X132672380Y-79120952D01*
X132624761Y-79216190D01*
X132577142Y-79263809D01*
X131672380Y-78311428D02*
X131672380Y-77692380D01*
X132053333Y-78025714D01*
X132053333Y-77882857D01*
X132100952Y-77787619D01*
X132148571Y-77740000D01*
X132243809Y-77692380D01*
X132481904Y-77692380D01*
X132577142Y-77740000D01*
X132624761Y-77787619D01*
X132672380Y-77882857D01*
X132672380Y-78168571D01*
X132624761Y-78263809D01*
X132577142Y-78311428D01*
X131672380Y-77073333D02*
X131672380Y-76978095D01*
X131720000Y-76882857D01*
X131767619Y-76835238D01*
X131862857Y-76787619D01*
X132053333Y-76740000D01*
X132291428Y-76740000D01*
X132481904Y-76787619D01*
X132577142Y-76835238D01*
X132624761Y-76882857D01*
X132672380Y-76978095D01*
X132672380Y-77073333D01*
X132624761Y-77168571D01*
X132577142Y-77216190D01*
X132481904Y-77263809D01*
X132291428Y-77311428D01*
X132053333Y-77311428D01*
X131862857Y-77263809D01*
X131767619Y-77216190D01*
X131720000Y-77168571D01*
X131672380Y-77073333D01*
X132672380Y-75740000D02*
X132196190Y-76073333D01*
X132672380Y-76311428D02*
X131672380Y-76311428D01*
X131672380Y-75930476D01*
X131720000Y-75835238D01*
X131767619Y-75787619D01*
X131862857Y-75740000D01*
X132005714Y-75740000D01*
X132100952Y-75787619D01*
X132148571Y-75835238D01*
X132196190Y-75930476D01*
X132196190Y-76311428D01*
X135072380Y-79017619D02*
X134596190Y-79350952D01*
X135072380Y-79589047D02*
X134072380Y-79589047D01*
X134072380Y-79208095D01*
X134120000Y-79112857D01*
X134167619Y-79065238D01*
X134262857Y-79017619D01*
X134405714Y-79017619D01*
X134500952Y-79065238D01*
X134548571Y-79112857D01*
X134596190Y-79208095D01*
X134596190Y-79589047D01*
X134786666Y-78636666D02*
X134786666Y-78160476D01*
X135072380Y-78731904D02*
X134072380Y-78398571D01*
X135072380Y-78065238D01*
X135072380Y-77208095D02*
X135072380Y-77779523D01*
X135072380Y-77493809D02*
X134072380Y-77493809D01*
X134215238Y-77589047D01*
X134310476Y-77684285D01*
X134358095Y-77779523D01*
X134072380Y-76589047D02*
X134072380Y-76493809D01*
X134120000Y-76398571D01*
X134167619Y-76350952D01*
X134262857Y-76303333D01*
X134453333Y-76255714D01*
X134691428Y-76255714D01*
X134881904Y-76303333D01*
X134977142Y-76350952D01*
X135024761Y-76398571D01*
X135072380Y-76493809D01*
X135072380Y-76589047D01*
X135024761Y-76684285D01*
X134977142Y-76731904D01*
X134881904Y-76779523D01*
X134691428Y-76827142D01*
X134453333Y-76827142D01*
X134262857Y-76779523D01*
X134167619Y-76731904D01*
X134120000Y-76684285D01*
X134072380Y-76589047D01*
X134072380Y-75398571D02*
X134072380Y-75589047D01*
X134120000Y-75684285D01*
X134167619Y-75731904D01*
X134310476Y-75827142D01*
X134500952Y-75874761D01*
X134881904Y-75874761D01*
X134977142Y-75827142D01*
X135024761Y-75779523D01*
X135072380Y-75684285D01*
X135072380Y-75493809D01*
X135024761Y-75398571D01*
X134977142Y-75350952D01*
X134881904Y-75303333D01*
X134643809Y-75303333D01*
X134548571Y-75350952D01*
X134500952Y-75398571D01*
X134453333Y-75493809D01*
X134453333Y-75684285D01*
X134500952Y-75779523D01*
X134548571Y-75827142D01*
X134643809Y-75874761D01*
%TO.C,RA102*%
X132100952Y-57419523D02*
X132053333Y-57514761D01*
X132005714Y-57562380D01*
X131910476Y-57610000D01*
X131862857Y-57610000D01*
X131767619Y-57562380D01*
X131720000Y-57514761D01*
X131672380Y-57419523D01*
X131672380Y-57229047D01*
X131720000Y-57133809D01*
X131767619Y-57086190D01*
X131862857Y-57038571D01*
X131910476Y-57038571D01*
X132005714Y-57086190D01*
X132053333Y-57133809D01*
X132100952Y-57229047D01*
X132100952Y-57419523D01*
X132148571Y-57514761D01*
X132196190Y-57562380D01*
X132291428Y-57610000D01*
X132481904Y-57610000D01*
X132577142Y-57562380D01*
X132624761Y-57514761D01*
X132672380Y-57419523D01*
X132672380Y-57229047D01*
X132624761Y-57133809D01*
X132577142Y-57086190D01*
X132481904Y-57038571D01*
X132291428Y-57038571D01*
X132196190Y-57086190D01*
X132148571Y-57133809D01*
X132100952Y-57229047D01*
X132672380Y-56705238D02*
X132005714Y-56181428D01*
X132005714Y-56705238D02*
X132672380Y-56181428D01*
X131767619Y-55086190D02*
X131720000Y-55038571D01*
X131672380Y-54943333D01*
X131672380Y-54705238D01*
X131720000Y-54610000D01*
X131767619Y-54562380D01*
X131862857Y-54514761D01*
X131958095Y-54514761D01*
X132100952Y-54562380D01*
X132672380Y-55133809D01*
X132672380Y-54514761D01*
X131767619Y-54133809D02*
X131720000Y-54086190D01*
X131672380Y-53990952D01*
X131672380Y-53752857D01*
X131720000Y-53657619D01*
X131767619Y-53610000D01*
X131862857Y-53562380D01*
X131958095Y-53562380D01*
X132100952Y-53610000D01*
X132672380Y-54181428D01*
X132672380Y-53562380D01*
X131672380Y-52943333D02*
X131672380Y-52848095D01*
X131720000Y-52752857D01*
X131767619Y-52705238D01*
X131862857Y-52657619D01*
X132053333Y-52610000D01*
X132291428Y-52610000D01*
X132481904Y-52657619D01*
X132577142Y-52705238D01*
X132624761Y-52752857D01*
X132672380Y-52848095D01*
X132672380Y-52943333D01*
X132624761Y-53038571D01*
X132577142Y-53086190D01*
X132481904Y-53133809D01*
X132291428Y-53181428D01*
X132053333Y-53181428D01*
X131862857Y-53133809D01*
X131767619Y-53086190D01*
X131720000Y-53038571D01*
X131672380Y-52943333D01*
X132672380Y-51610000D02*
X132196190Y-51943333D01*
X132672380Y-52181428D02*
X131672380Y-52181428D01*
X131672380Y-51800476D01*
X131720000Y-51705238D01*
X131767619Y-51657619D01*
X131862857Y-51610000D01*
X132005714Y-51610000D01*
X132100952Y-51657619D01*
X132148571Y-51705238D01*
X132196190Y-51800476D01*
X132196190Y-52181428D01*
X135072380Y-54887619D02*
X134596190Y-55220952D01*
X135072380Y-55459047D02*
X134072380Y-55459047D01*
X134072380Y-55078095D01*
X134120000Y-54982857D01*
X134167619Y-54935238D01*
X134262857Y-54887619D01*
X134405714Y-54887619D01*
X134500952Y-54935238D01*
X134548571Y-54982857D01*
X134596190Y-55078095D01*
X134596190Y-55459047D01*
X134786666Y-54506666D02*
X134786666Y-54030476D01*
X135072380Y-54601904D02*
X134072380Y-54268571D01*
X135072380Y-53935238D01*
X135072380Y-53078095D02*
X135072380Y-53649523D01*
X135072380Y-53363809D02*
X134072380Y-53363809D01*
X134215238Y-53459047D01*
X134310476Y-53554285D01*
X134358095Y-53649523D01*
X134072380Y-52459047D02*
X134072380Y-52363809D01*
X134120000Y-52268571D01*
X134167619Y-52220952D01*
X134262857Y-52173333D01*
X134453333Y-52125714D01*
X134691428Y-52125714D01*
X134881904Y-52173333D01*
X134977142Y-52220952D01*
X135024761Y-52268571D01*
X135072380Y-52363809D01*
X135072380Y-52459047D01*
X135024761Y-52554285D01*
X134977142Y-52601904D01*
X134881904Y-52649523D01*
X134691428Y-52697142D01*
X134453333Y-52697142D01*
X134262857Y-52649523D01*
X134167619Y-52601904D01*
X134120000Y-52554285D01*
X134072380Y-52459047D01*
X134167619Y-51744761D02*
X134120000Y-51697142D01*
X134072380Y-51601904D01*
X134072380Y-51363809D01*
X134120000Y-51268571D01*
X134167619Y-51220952D01*
X134262857Y-51173333D01*
X134358095Y-51173333D01*
X134500952Y-51220952D01*
X135072380Y-51792380D01*
X135072380Y-51173333D01*
%TO.C,RA101*%
X157500952Y-59388095D02*
X157453333Y-59483333D01*
X157405714Y-59530952D01*
X157310476Y-59578571D01*
X157262857Y-59578571D01*
X157167619Y-59530952D01*
X157120000Y-59483333D01*
X157072380Y-59388095D01*
X157072380Y-59197619D01*
X157120000Y-59102380D01*
X157167619Y-59054761D01*
X157262857Y-59007142D01*
X157310476Y-59007142D01*
X157405714Y-59054761D01*
X157453333Y-59102380D01*
X157500952Y-59197619D01*
X157500952Y-59388095D01*
X157548571Y-59483333D01*
X157596190Y-59530952D01*
X157691428Y-59578571D01*
X157881904Y-59578571D01*
X157977142Y-59530952D01*
X158024761Y-59483333D01*
X158072380Y-59388095D01*
X158072380Y-59197619D01*
X158024761Y-59102380D01*
X157977142Y-59054761D01*
X157881904Y-59007142D01*
X157691428Y-59007142D01*
X157596190Y-59054761D01*
X157548571Y-59102380D01*
X157500952Y-59197619D01*
X158072380Y-58673809D02*
X157405714Y-58150000D01*
X157405714Y-58673809D02*
X158072380Y-58150000D01*
X157405714Y-56578571D02*
X158072380Y-56578571D01*
X157024761Y-56816666D02*
X157739047Y-57054761D01*
X157739047Y-56435714D01*
X158072380Y-56054761D02*
X157072380Y-56054761D01*
X157691428Y-55959523D02*
X158072380Y-55673809D01*
X157405714Y-55673809D02*
X157786666Y-56054761D01*
X157072380Y-55340476D02*
X157072380Y-54673809D01*
X158072380Y-55102380D01*
X160472380Y-57427619D02*
X159996190Y-57760952D01*
X160472380Y-57999047D02*
X159472380Y-57999047D01*
X159472380Y-57618095D01*
X159520000Y-57522857D01*
X159567619Y-57475238D01*
X159662857Y-57427619D01*
X159805714Y-57427619D01*
X159900952Y-57475238D01*
X159948571Y-57522857D01*
X159996190Y-57618095D01*
X159996190Y-57999047D01*
X160186666Y-57046666D02*
X160186666Y-56570476D01*
X160472380Y-57141904D02*
X159472380Y-56808571D01*
X160472380Y-56475238D01*
X160472380Y-55618095D02*
X160472380Y-56189523D01*
X160472380Y-55903809D02*
X159472380Y-55903809D01*
X159615238Y-55999047D01*
X159710476Y-56094285D01*
X159758095Y-56189523D01*
X159472380Y-54999047D02*
X159472380Y-54903809D01*
X159520000Y-54808571D01*
X159567619Y-54760952D01*
X159662857Y-54713333D01*
X159853333Y-54665714D01*
X160091428Y-54665714D01*
X160281904Y-54713333D01*
X160377142Y-54760952D01*
X160424761Y-54808571D01*
X160472380Y-54903809D01*
X160472380Y-54999047D01*
X160424761Y-55094285D01*
X160377142Y-55141904D01*
X160281904Y-55189523D01*
X160091428Y-55237142D01*
X159853333Y-55237142D01*
X159662857Y-55189523D01*
X159567619Y-55141904D01*
X159520000Y-55094285D01*
X159472380Y-54999047D01*
X160472380Y-53713333D02*
X160472380Y-54284761D01*
X160472380Y-53999047D02*
X159472380Y-53999047D01*
X159615238Y-54094285D01*
X159710476Y-54189523D01*
X159758095Y-54284761D01*
%TO.C,RA3*%
X135910952Y-81549523D02*
X135863333Y-81644761D01*
X135815714Y-81692380D01*
X135720476Y-81740000D01*
X135672857Y-81740000D01*
X135577619Y-81692380D01*
X135530000Y-81644761D01*
X135482380Y-81549523D01*
X135482380Y-81359047D01*
X135530000Y-81263809D01*
X135577619Y-81216190D01*
X135672857Y-81168571D01*
X135720476Y-81168571D01*
X135815714Y-81216190D01*
X135863333Y-81263809D01*
X135910952Y-81359047D01*
X135910952Y-81549523D01*
X135958571Y-81644761D01*
X136006190Y-81692380D01*
X136101428Y-81740000D01*
X136291904Y-81740000D01*
X136387142Y-81692380D01*
X136434761Y-81644761D01*
X136482380Y-81549523D01*
X136482380Y-81359047D01*
X136434761Y-81263809D01*
X136387142Y-81216190D01*
X136291904Y-81168571D01*
X136101428Y-81168571D01*
X136006190Y-81216190D01*
X135958571Y-81263809D01*
X135910952Y-81359047D01*
X136482380Y-80835238D02*
X135815714Y-80311428D01*
X135815714Y-80835238D02*
X136482380Y-80311428D01*
X135577619Y-79216190D02*
X135530000Y-79168571D01*
X135482380Y-79073333D01*
X135482380Y-78835238D01*
X135530000Y-78740000D01*
X135577619Y-78692380D01*
X135672857Y-78644761D01*
X135768095Y-78644761D01*
X135910952Y-78692380D01*
X136482380Y-79263809D01*
X136482380Y-78644761D01*
X135577619Y-78263809D02*
X135530000Y-78216190D01*
X135482380Y-78120952D01*
X135482380Y-77882857D01*
X135530000Y-77787619D01*
X135577619Y-77740000D01*
X135672857Y-77692380D01*
X135768095Y-77692380D01*
X135910952Y-77740000D01*
X136482380Y-78311428D01*
X136482380Y-77692380D01*
X135482380Y-77073333D02*
X135482380Y-76978095D01*
X135530000Y-76882857D01*
X135577619Y-76835238D01*
X135672857Y-76787619D01*
X135863333Y-76740000D01*
X136101428Y-76740000D01*
X136291904Y-76787619D01*
X136387142Y-76835238D01*
X136434761Y-76882857D01*
X136482380Y-76978095D01*
X136482380Y-77073333D01*
X136434761Y-77168571D01*
X136387142Y-77216190D01*
X136291904Y-77263809D01*
X136101428Y-77311428D01*
X135863333Y-77311428D01*
X135672857Y-77263809D01*
X135577619Y-77216190D01*
X135530000Y-77168571D01*
X135482380Y-77073333D01*
X136482380Y-75740000D02*
X136006190Y-76073333D01*
X136482380Y-76311428D02*
X135482380Y-76311428D01*
X135482380Y-75930476D01*
X135530000Y-75835238D01*
X135577619Y-75787619D01*
X135672857Y-75740000D01*
X135815714Y-75740000D01*
X135910952Y-75787619D01*
X135958571Y-75835238D01*
X136006190Y-75930476D01*
X136006190Y-76311428D01*
X138882380Y-78065238D02*
X138406190Y-78398571D01*
X138882380Y-78636666D02*
X137882380Y-78636666D01*
X137882380Y-78255714D01*
X137930000Y-78160476D01*
X137977619Y-78112857D01*
X138072857Y-78065238D01*
X138215714Y-78065238D01*
X138310952Y-78112857D01*
X138358571Y-78160476D01*
X138406190Y-78255714D01*
X138406190Y-78636666D01*
X138596666Y-77684285D02*
X138596666Y-77208095D01*
X138882380Y-77779523D02*
X137882380Y-77446190D01*
X138882380Y-77112857D01*
X137882380Y-76874761D02*
X137882380Y-76255714D01*
X138263333Y-76589047D01*
X138263333Y-76446190D01*
X138310952Y-76350952D01*
X138358571Y-76303333D01*
X138453809Y-76255714D01*
X138691904Y-76255714D01*
X138787142Y-76303333D01*
X138834761Y-76350952D01*
X138882380Y-76446190D01*
X138882380Y-76731904D01*
X138834761Y-76827142D01*
X138787142Y-76874761D01*
%TO.C,RA2*%
X128290952Y-125999523D02*
X128243333Y-126094761D01*
X128195714Y-126142380D01*
X128100476Y-126190000D01*
X128052857Y-126190000D01*
X127957619Y-126142380D01*
X127910000Y-126094761D01*
X127862380Y-125999523D01*
X127862380Y-125809047D01*
X127910000Y-125713809D01*
X127957619Y-125666190D01*
X128052857Y-125618571D01*
X128100476Y-125618571D01*
X128195714Y-125666190D01*
X128243333Y-125713809D01*
X128290952Y-125809047D01*
X128290952Y-125999523D01*
X128338571Y-126094761D01*
X128386190Y-126142380D01*
X128481428Y-126190000D01*
X128671904Y-126190000D01*
X128767142Y-126142380D01*
X128814761Y-126094761D01*
X128862380Y-125999523D01*
X128862380Y-125809047D01*
X128814761Y-125713809D01*
X128767142Y-125666190D01*
X128671904Y-125618571D01*
X128481428Y-125618571D01*
X128386190Y-125666190D01*
X128338571Y-125713809D01*
X128290952Y-125809047D01*
X128862380Y-125285238D02*
X128195714Y-124761428D01*
X128195714Y-125285238D02*
X128862380Y-124761428D01*
X127957619Y-123666190D02*
X127910000Y-123618571D01*
X127862380Y-123523333D01*
X127862380Y-123285238D01*
X127910000Y-123190000D01*
X127957619Y-123142380D01*
X128052857Y-123094761D01*
X128148095Y-123094761D01*
X128290952Y-123142380D01*
X128862380Y-123713809D01*
X128862380Y-123094761D01*
X127957619Y-122713809D02*
X127910000Y-122666190D01*
X127862380Y-122570952D01*
X127862380Y-122332857D01*
X127910000Y-122237619D01*
X127957619Y-122190000D01*
X128052857Y-122142380D01*
X128148095Y-122142380D01*
X128290952Y-122190000D01*
X128862380Y-122761428D01*
X128862380Y-122142380D01*
X127862380Y-121523333D02*
X127862380Y-121428095D01*
X127910000Y-121332857D01*
X127957619Y-121285238D01*
X128052857Y-121237619D01*
X128243333Y-121190000D01*
X128481428Y-121190000D01*
X128671904Y-121237619D01*
X128767142Y-121285238D01*
X128814761Y-121332857D01*
X128862380Y-121428095D01*
X128862380Y-121523333D01*
X128814761Y-121618571D01*
X128767142Y-121666190D01*
X128671904Y-121713809D01*
X128481428Y-121761428D01*
X128243333Y-121761428D01*
X128052857Y-121713809D01*
X127957619Y-121666190D01*
X127910000Y-121618571D01*
X127862380Y-121523333D01*
X128862380Y-120190000D02*
X128386190Y-120523333D01*
X128862380Y-120761428D02*
X127862380Y-120761428D01*
X127862380Y-120380476D01*
X127910000Y-120285238D01*
X127957619Y-120237619D01*
X128052857Y-120190000D01*
X128195714Y-120190000D01*
X128290952Y-120237619D01*
X128338571Y-120285238D01*
X128386190Y-120380476D01*
X128386190Y-120761428D01*
X131262380Y-122515238D02*
X130786190Y-122848571D01*
X131262380Y-123086666D02*
X130262380Y-123086666D01*
X130262380Y-122705714D01*
X130310000Y-122610476D01*
X130357619Y-122562857D01*
X130452857Y-122515238D01*
X130595714Y-122515238D01*
X130690952Y-122562857D01*
X130738571Y-122610476D01*
X130786190Y-122705714D01*
X130786190Y-123086666D01*
X130976666Y-122134285D02*
X130976666Y-121658095D01*
X131262380Y-122229523D02*
X130262380Y-121896190D01*
X131262380Y-121562857D01*
X130357619Y-121277142D02*
X130310000Y-121229523D01*
X130262380Y-121134285D01*
X130262380Y-120896190D01*
X130310000Y-120800952D01*
X130357619Y-120753333D01*
X130452857Y-120705714D01*
X130548095Y-120705714D01*
X130690952Y-120753333D01*
X131262380Y-121324761D01*
X131262380Y-120705714D01*
%TO.C,RA1*%
X132100952Y-125999523D02*
X132053333Y-126094761D01*
X132005714Y-126142380D01*
X131910476Y-126190000D01*
X131862857Y-126190000D01*
X131767619Y-126142380D01*
X131720000Y-126094761D01*
X131672380Y-125999523D01*
X131672380Y-125809047D01*
X131720000Y-125713809D01*
X131767619Y-125666190D01*
X131862857Y-125618571D01*
X131910476Y-125618571D01*
X132005714Y-125666190D01*
X132053333Y-125713809D01*
X132100952Y-125809047D01*
X132100952Y-125999523D01*
X132148571Y-126094761D01*
X132196190Y-126142380D01*
X132291428Y-126190000D01*
X132481904Y-126190000D01*
X132577142Y-126142380D01*
X132624761Y-126094761D01*
X132672380Y-125999523D01*
X132672380Y-125809047D01*
X132624761Y-125713809D01*
X132577142Y-125666190D01*
X132481904Y-125618571D01*
X132291428Y-125618571D01*
X132196190Y-125666190D01*
X132148571Y-125713809D01*
X132100952Y-125809047D01*
X132672380Y-125285238D02*
X132005714Y-124761428D01*
X132005714Y-125285238D02*
X132672380Y-124761428D01*
X131672380Y-123713809D02*
X131672380Y-123094761D01*
X132053333Y-123428095D01*
X132053333Y-123285238D01*
X132100952Y-123190000D01*
X132148571Y-123142380D01*
X132243809Y-123094761D01*
X132481904Y-123094761D01*
X132577142Y-123142380D01*
X132624761Y-123190000D01*
X132672380Y-123285238D01*
X132672380Y-123570952D01*
X132624761Y-123666190D01*
X132577142Y-123713809D01*
X131672380Y-122761428D02*
X131672380Y-122142380D01*
X132053333Y-122475714D01*
X132053333Y-122332857D01*
X132100952Y-122237619D01*
X132148571Y-122190000D01*
X132243809Y-122142380D01*
X132481904Y-122142380D01*
X132577142Y-122190000D01*
X132624761Y-122237619D01*
X132672380Y-122332857D01*
X132672380Y-122618571D01*
X132624761Y-122713809D01*
X132577142Y-122761428D01*
X131672380Y-121523333D02*
X131672380Y-121428095D01*
X131720000Y-121332857D01*
X131767619Y-121285238D01*
X131862857Y-121237619D01*
X132053333Y-121190000D01*
X132291428Y-121190000D01*
X132481904Y-121237619D01*
X132577142Y-121285238D01*
X132624761Y-121332857D01*
X132672380Y-121428095D01*
X132672380Y-121523333D01*
X132624761Y-121618571D01*
X132577142Y-121666190D01*
X132481904Y-121713809D01*
X132291428Y-121761428D01*
X132053333Y-121761428D01*
X131862857Y-121713809D01*
X131767619Y-121666190D01*
X131720000Y-121618571D01*
X131672380Y-121523333D01*
X132672380Y-120190000D02*
X132196190Y-120523333D01*
X132672380Y-120761428D02*
X131672380Y-120761428D01*
X131672380Y-120380476D01*
X131720000Y-120285238D01*
X131767619Y-120237619D01*
X131862857Y-120190000D01*
X132005714Y-120190000D01*
X132100952Y-120237619D01*
X132148571Y-120285238D01*
X132196190Y-120380476D01*
X132196190Y-120761428D01*
X135072380Y-122515238D02*
X134596190Y-122848571D01*
X135072380Y-123086666D02*
X134072380Y-123086666D01*
X134072380Y-122705714D01*
X134120000Y-122610476D01*
X134167619Y-122562857D01*
X134262857Y-122515238D01*
X134405714Y-122515238D01*
X134500952Y-122562857D01*
X134548571Y-122610476D01*
X134596190Y-122705714D01*
X134596190Y-123086666D01*
X134786666Y-122134285D02*
X134786666Y-121658095D01*
X135072380Y-122229523D02*
X134072380Y-121896190D01*
X135072380Y-121562857D01*
X135072380Y-120705714D02*
X135072380Y-121277142D01*
X135072380Y-120991428D02*
X134072380Y-120991428D01*
X134215238Y-121086666D01*
X134310476Y-121181904D01*
X134358095Y-121277142D01*
%TO.C,LSI101*%
X183547142Y-104985714D02*
X183547142Y-105985714D01*
X184023333Y-105509523D02*
X184070952Y-105604761D01*
X184166190Y-105652380D01*
X183547142Y-105509523D02*
X183594761Y-105604761D01*
X183690000Y-105652380D01*
X183880476Y-105652380D01*
X183975714Y-105604761D01*
X184023333Y-105509523D01*
X184023333Y-104985714D01*
X184594761Y-105652380D02*
X184594761Y-104652380D01*
X184975714Y-104652380D01*
X185070952Y-104700000D01*
X185118571Y-104747619D01*
X185166190Y-104842857D01*
X185166190Y-104985714D01*
X185118571Y-105080952D01*
X185070952Y-105128571D01*
X184975714Y-105176190D01*
X184594761Y-105176190D01*
X185594761Y-105652380D02*
X185594761Y-104652380D01*
X185832857Y-104652380D01*
X185975714Y-104700000D01*
X186070952Y-104795238D01*
X186118571Y-104890476D01*
X186166190Y-105080952D01*
X186166190Y-105223809D01*
X186118571Y-105414285D01*
X186070952Y-105509523D01*
X185975714Y-105604761D01*
X185832857Y-105652380D01*
X185594761Y-105652380D01*
X186499523Y-104652380D02*
X187166190Y-104652380D01*
X186737619Y-105652380D01*
X187975714Y-104652380D02*
X187785238Y-104652380D01*
X187690000Y-104700000D01*
X187642380Y-104747619D01*
X187547142Y-104890476D01*
X187499523Y-105080952D01*
X187499523Y-105461904D01*
X187547142Y-105557142D01*
X187594761Y-105604761D01*
X187690000Y-105652380D01*
X187880476Y-105652380D01*
X187975714Y-105604761D01*
X188023333Y-105557142D01*
X188070952Y-105461904D01*
X188070952Y-105223809D01*
X188023333Y-105128571D01*
X187975714Y-105080952D01*
X187880476Y-105033333D01*
X187690000Y-105033333D01*
X187594761Y-105080952D01*
X187547142Y-105128571D01*
X187499523Y-105223809D01*
X188975714Y-104652380D02*
X188499523Y-104652380D01*
X188451904Y-105128571D01*
X188499523Y-105080952D01*
X188594761Y-105033333D01*
X188832857Y-105033333D01*
X188928095Y-105080952D01*
X188975714Y-105128571D01*
X189023333Y-105223809D01*
X189023333Y-105461904D01*
X188975714Y-105557142D01*
X188928095Y-105604761D01*
X188832857Y-105652380D01*
X188594761Y-105652380D01*
X188499523Y-105604761D01*
X188451904Y-105557142D01*
X189404285Y-105366666D02*
X189880476Y-105366666D01*
X189309047Y-105652380D02*
X189642380Y-104652380D01*
X189975714Y-105652380D01*
X184856666Y-79192380D02*
X184380476Y-79192380D01*
X184380476Y-78192380D01*
X185142380Y-79144761D02*
X185285238Y-79192380D01*
X185523333Y-79192380D01*
X185618571Y-79144761D01*
X185666190Y-79097142D01*
X185713809Y-79001904D01*
X185713809Y-78906666D01*
X185666190Y-78811428D01*
X185618571Y-78763809D01*
X185523333Y-78716190D01*
X185332857Y-78668571D01*
X185237619Y-78620952D01*
X185190000Y-78573333D01*
X185142380Y-78478095D01*
X185142380Y-78382857D01*
X185190000Y-78287619D01*
X185237619Y-78240000D01*
X185332857Y-78192380D01*
X185570952Y-78192380D01*
X185713809Y-78240000D01*
X186142380Y-79192380D02*
X186142380Y-78192380D01*
X187142380Y-79192380D02*
X186570952Y-79192380D01*
X186856666Y-79192380D02*
X186856666Y-78192380D01*
X186761428Y-78335238D01*
X186666190Y-78430476D01*
X186570952Y-78478095D01*
X187761428Y-78192380D02*
X187856666Y-78192380D01*
X187951904Y-78240000D01*
X187999523Y-78287619D01*
X188047142Y-78382857D01*
X188094761Y-78573333D01*
X188094761Y-78811428D01*
X188047142Y-79001904D01*
X187999523Y-79097142D01*
X187951904Y-79144761D01*
X187856666Y-79192380D01*
X187761428Y-79192380D01*
X187666190Y-79144761D01*
X187618571Y-79097142D01*
X187570952Y-79001904D01*
X187523333Y-78811428D01*
X187523333Y-78573333D01*
X187570952Y-78382857D01*
X187618571Y-78287619D01*
X187666190Y-78240000D01*
X187761428Y-78192380D01*
X189047142Y-79192380D02*
X188475714Y-79192380D01*
X188761428Y-79192380D02*
X188761428Y-78192380D01*
X188666190Y-78335238D01*
X188570952Y-78430476D01*
X188475714Y-78478095D01*
%TO.C,JCNB103*%
X111277619Y-123824761D02*
X111420476Y-123872380D01*
X111658571Y-123872380D01*
X111753809Y-123824761D01*
X111801428Y-123777142D01*
X111849047Y-123681904D01*
X111849047Y-123586666D01*
X111801428Y-123491428D01*
X111753809Y-123443809D01*
X111658571Y-123396190D01*
X111468095Y-123348571D01*
X111372857Y-123300952D01*
X111325238Y-123253333D01*
X111277619Y-123158095D01*
X111277619Y-123062857D01*
X111325238Y-122967619D01*
X111372857Y-122920000D01*
X111468095Y-122872380D01*
X111706190Y-122872380D01*
X111849047Y-122920000D01*
X112182380Y-123205714D02*
X112420476Y-123872380D01*
X112658571Y-123205714D02*
X112420476Y-123872380D01*
X112325238Y-124110476D01*
X112277619Y-124158095D01*
X112182380Y-124205714D01*
X112991904Y-123824761D02*
X113087142Y-123872380D01*
X113277619Y-123872380D01*
X113372857Y-123824761D01*
X113420476Y-123729523D01*
X113420476Y-123681904D01*
X113372857Y-123586666D01*
X113277619Y-123539047D01*
X113134761Y-123539047D01*
X113039523Y-123491428D01*
X112991904Y-123396190D01*
X112991904Y-123348571D01*
X113039523Y-123253333D01*
X113134761Y-123205714D01*
X113277619Y-123205714D01*
X113372857Y-123253333D01*
X113706190Y-123205714D02*
X114087142Y-123205714D01*
X113849047Y-122872380D02*
X113849047Y-123729523D01*
X113896666Y-123824761D01*
X113991904Y-123872380D01*
X114087142Y-123872380D01*
X114801428Y-123824761D02*
X114706190Y-123872380D01*
X114515714Y-123872380D01*
X114420476Y-123824761D01*
X114372857Y-123729523D01*
X114372857Y-123348571D01*
X114420476Y-123253333D01*
X114515714Y-123205714D01*
X114706190Y-123205714D01*
X114801428Y-123253333D01*
X114849047Y-123348571D01*
X114849047Y-123443809D01*
X114372857Y-123539047D01*
X115277619Y-123872380D02*
X115277619Y-123205714D01*
X115277619Y-123300952D02*
X115325238Y-123253333D01*
X115420476Y-123205714D01*
X115563333Y-123205714D01*
X115658571Y-123253333D01*
X115706190Y-123348571D01*
X115706190Y-123872380D01*
X115706190Y-123348571D02*
X115753809Y-123253333D01*
X115849047Y-123205714D01*
X115991904Y-123205714D01*
X116087142Y-123253333D01*
X116134761Y-123348571D01*
X116134761Y-123872380D01*
X110517380Y-92979523D02*
X111231666Y-92979523D01*
X111374523Y-93027142D01*
X111469761Y-93122380D01*
X111517380Y-93265238D01*
X111517380Y-93360476D01*
X111422142Y-91931904D02*
X111469761Y-91979523D01*
X111517380Y-92122380D01*
X111517380Y-92217619D01*
X111469761Y-92360476D01*
X111374523Y-92455714D01*
X111279285Y-92503333D01*
X111088809Y-92550952D01*
X110945952Y-92550952D01*
X110755476Y-92503333D01*
X110660238Y-92455714D01*
X110565000Y-92360476D01*
X110517380Y-92217619D01*
X110517380Y-92122380D01*
X110565000Y-91979523D01*
X110612619Y-91931904D01*
X111517380Y-91503333D02*
X110517380Y-91503333D01*
X111517380Y-90931904D01*
X110517380Y-90931904D01*
X110993571Y-90122380D02*
X111041190Y-89979523D01*
X111088809Y-89931904D01*
X111184047Y-89884285D01*
X111326904Y-89884285D01*
X111422142Y-89931904D01*
X111469761Y-89979523D01*
X111517380Y-90074761D01*
X111517380Y-90455714D01*
X110517380Y-90455714D01*
X110517380Y-90122380D01*
X110565000Y-90027142D01*
X110612619Y-89979523D01*
X110707857Y-89931904D01*
X110803095Y-89931904D01*
X110898333Y-89979523D01*
X110945952Y-90027142D01*
X110993571Y-90122380D01*
X110993571Y-90455714D01*
X111517380Y-88931904D02*
X111517380Y-89503333D01*
X111517380Y-89217619D02*
X110517380Y-89217619D01*
X110660238Y-89312857D01*
X110755476Y-89408095D01*
X110803095Y-89503333D01*
X110517380Y-88312857D02*
X110517380Y-88217619D01*
X110565000Y-88122380D01*
X110612619Y-88074761D01*
X110707857Y-88027142D01*
X110898333Y-87979523D01*
X111136428Y-87979523D01*
X111326904Y-88027142D01*
X111422142Y-88074761D01*
X111469761Y-88122380D01*
X111517380Y-88217619D01*
X111517380Y-88312857D01*
X111469761Y-88408095D01*
X111422142Y-88455714D01*
X111326904Y-88503333D01*
X111136428Y-88550952D01*
X110898333Y-88550952D01*
X110707857Y-88503333D01*
X110612619Y-88455714D01*
X110565000Y-88408095D01*
X110517380Y-88312857D01*
X110517380Y-87646190D02*
X110517380Y-87027142D01*
X110898333Y-87360476D01*
X110898333Y-87217619D01*
X110945952Y-87122380D01*
X110993571Y-87074761D01*
X111088809Y-87027142D01*
X111326904Y-87027142D01*
X111422142Y-87074761D01*
X111469761Y-87122380D01*
X111517380Y-87217619D01*
X111517380Y-87503333D01*
X111469761Y-87598571D01*
X111422142Y-87646190D01*
%TO.C,IC119*%
X184300952Y-131052380D02*
X183824761Y-131052380D01*
X183824761Y-130052380D01*
X184586666Y-131004761D02*
X184729523Y-131052380D01*
X184967619Y-131052380D01*
X185062857Y-131004761D01*
X185110476Y-130957142D01*
X185158095Y-130861904D01*
X185158095Y-130766666D01*
X185110476Y-130671428D01*
X185062857Y-130623809D01*
X184967619Y-130576190D01*
X184777142Y-130528571D01*
X184681904Y-130480952D01*
X184634285Y-130433333D01*
X184586666Y-130338095D01*
X184586666Y-130242857D01*
X184634285Y-130147619D01*
X184681904Y-130100000D01*
X184777142Y-130052380D01*
X185015238Y-130052380D01*
X185158095Y-130100000D01*
X185777142Y-130052380D02*
X185872380Y-130052380D01*
X185967619Y-130100000D01*
X186015238Y-130147619D01*
X186062857Y-130242857D01*
X186110476Y-130433333D01*
X186110476Y-130671428D01*
X186062857Y-130861904D01*
X186015238Y-130957142D01*
X185967619Y-131004761D01*
X185872380Y-131052380D01*
X185777142Y-131052380D01*
X185681904Y-131004761D01*
X185634285Y-130957142D01*
X185586666Y-130861904D01*
X185539047Y-130671428D01*
X185539047Y-130433333D01*
X185586666Y-130242857D01*
X185634285Y-130147619D01*
X185681904Y-130100000D01*
X185777142Y-130052380D01*
X186443809Y-130052380D02*
X187110476Y-130052380D01*
X186681904Y-131052380D01*
X183491428Y-121102380D02*
X183491428Y-120102380D01*
X184539047Y-121007142D02*
X184491428Y-121054761D01*
X184348571Y-121102380D01*
X184253333Y-121102380D01*
X184110476Y-121054761D01*
X184015238Y-120959523D01*
X183967619Y-120864285D01*
X183920000Y-120673809D01*
X183920000Y-120530952D01*
X183967619Y-120340476D01*
X184015238Y-120245238D01*
X184110476Y-120150000D01*
X184253333Y-120102380D01*
X184348571Y-120102380D01*
X184491428Y-120150000D01*
X184539047Y-120197619D01*
X185491428Y-121102380D02*
X184920000Y-121102380D01*
X185205714Y-121102380D02*
X185205714Y-120102380D01*
X185110476Y-120245238D01*
X185015238Y-120340476D01*
X184920000Y-120388095D01*
X186443809Y-121102380D02*
X185872380Y-121102380D01*
X186158095Y-121102380D02*
X186158095Y-120102380D01*
X186062857Y-120245238D01*
X185967619Y-120340476D01*
X185872380Y-120388095D01*
X186920000Y-121102380D02*
X187110476Y-121102380D01*
X187205714Y-121054761D01*
X187253333Y-121007142D01*
X187348571Y-120864285D01*
X187396190Y-120673809D01*
X187396190Y-120292857D01*
X187348571Y-120197619D01*
X187300952Y-120150000D01*
X187205714Y-120102380D01*
X187015238Y-120102380D01*
X186920000Y-120150000D01*
X186872380Y-120197619D01*
X186824761Y-120292857D01*
X186824761Y-120530952D01*
X186872380Y-120626190D01*
X186920000Y-120673809D01*
X187015238Y-120721428D01*
X187205714Y-120721428D01*
X187300952Y-120673809D01*
X187348571Y-120626190D01*
X187396190Y-120530952D01*
%TO.C,IC117*%
X222492380Y-98909047D02*
X222492380Y-99385238D01*
X221492380Y-99385238D01*
X222444761Y-98623333D02*
X222492380Y-98480476D01*
X222492380Y-98242380D01*
X222444761Y-98147142D01*
X222397142Y-98099523D01*
X222301904Y-98051904D01*
X222206666Y-98051904D01*
X222111428Y-98099523D01*
X222063809Y-98147142D01*
X222016190Y-98242380D01*
X221968571Y-98432857D01*
X221920952Y-98528095D01*
X221873333Y-98575714D01*
X221778095Y-98623333D01*
X221682857Y-98623333D01*
X221587619Y-98575714D01*
X221540000Y-98528095D01*
X221492380Y-98432857D01*
X221492380Y-98194761D01*
X221540000Y-98051904D01*
X221492380Y-97432857D02*
X221492380Y-97337619D01*
X221540000Y-97242380D01*
X221587619Y-97194761D01*
X221682857Y-97147142D01*
X221873333Y-97099523D01*
X222111428Y-97099523D01*
X222301904Y-97147142D01*
X222397142Y-97194761D01*
X222444761Y-97242380D01*
X222492380Y-97337619D01*
X222492380Y-97432857D01*
X222444761Y-97528095D01*
X222397142Y-97575714D01*
X222301904Y-97623333D01*
X222111428Y-97670952D01*
X221873333Y-97670952D01*
X221682857Y-97623333D01*
X221587619Y-97575714D01*
X221540000Y-97528095D01*
X221492380Y-97432857D01*
X221492380Y-96242380D02*
X221492380Y-96432857D01*
X221540000Y-96528095D01*
X221587619Y-96575714D01*
X221730476Y-96670952D01*
X221920952Y-96718571D01*
X222301904Y-96718571D01*
X222397142Y-96670952D01*
X222444761Y-96623333D01*
X222492380Y-96528095D01*
X222492380Y-96337619D01*
X222444761Y-96242380D01*
X222397142Y-96194761D01*
X222301904Y-96147142D01*
X222063809Y-96147142D01*
X221968571Y-96194761D01*
X221920952Y-96242380D01*
X221873333Y-96337619D01*
X221873333Y-96528095D01*
X221920952Y-96623333D01*
X221968571Y-96670952D01*
X222063809Y-96718571D01*
X212542380Y-99718571D02*
X211542380Y-99718571D01*
X212447142Y-98670952D02*
X212494761Y-98718571D01*
X212542380Y-98861428D01*
X212542380Y-98956666D01*
X212494761Y-99099523D01*
X212399523Y-99194761D01*
X212304285Y-99242380D01*
X212113809Y-99290000D01*
X211970952Y-99290000D01*
X211780476Y-99242380D01*
X211685238Y-99194761D01*
X211590000Y-99099523D01*
X211542380Y-98956666D01*
X211542380Y-98861428D01*
X211590000Y-98718571D01*
X211637619Y-98670952D01*
X212542380Y-97718571D02*
X212542380Y-98290000D01*
X212542380Y-98004285D02*
X211542380Y-98004285D01*
X211685238Y-98099523D01*
X211780476Y-98194761D01*
X211828095Y-98290000D01*
X212542380Y-96766190D02*
X212542380Y-97337619D01*
X212542380Y-97051904D02*
X211542380Y-97051904D01*
X211685238Y-97147142D01*
X211780476Y-97242380D01*
X211828095Y-97337619D01*
X211542380Y-96432857D02*
X211542380Y-95766190D01*
X212542380Y-96194761D01*
%TO.C,IC113*%
X171692380Y-100179047D02*
X171692380Y-100655238D01*
X170692380Y-100655238D01*
X171644761Y-99893333D02*
X171692380Y-99750476D01*
X171692380Y-99512380D01*
X171644761Y-99417142D01*
X171597142Y-99369523D01*
X171501904Y-99321904D01*
X171406666Y-99321904D01*
X171311428Y-99369523D01*
X171263809Y-99417142D01*
X171216190Y-99512380D01*
X171168571Y-99702857D01*
X171120952Y-99798095D01*
X171073333Y-99845714D01*
X170978095Y-99893333D01*
X170882857Y-99893333D01*
X170787619Y-99845714D01*
X170740000Y-99798095D01*
X170692380Y-99702857D01*
X170692380Y-99464761D01*
X170740000Y-99321904D01*
X171692380Y-98369523D02*
X171692380Y-98940952D01*
X171692380Y-98655238D02*
X170692380Y-98655238D01*
X170835238Y-98750476D01*
X170930476Y-98845714D01*
X170978095Y-98940952D01*
X171025714Y-97512380D02*
X171692380Y-97512380D01*
X170644761Y-97750476D02*
X171359047Y-97988571D01*
X171359047Y-97369523D01*
X161742380Y-100988571D02*
X160742380Y-100988571D01*
X161647142Y-99940952D02*
X161694761Y-99988571D01*
X161742380Y-100131428D01*
X161742380Y-100226666D01*
X161694761Y-100369523D01*
X161599523Y-100464761D01*
X161504285Y-100512380D01*
X161313809Y-100560000D01*
X161170952Y-100560000D01*
X160980476Y-100512380D01*
X160885238Y-100464761D01*
X160790000Y-100369523D01*
X160742380Y-100226666D01*
X160742380Y-100131428D01*
X160790000Y-99988571D01*
X160837619Y-99940952D01*
X161742380Y-98988571D02*
X161742380Y-99560000D01*
X161742380Y-99274285D02*
X160742380Y-99274285D01*
X160885238Y-99369523D01*
X160980476Y-99464761D01*
X161028095Y-99560000D01*
X161742380Y-98036190D02*
X161742380Y-98607619D01*
X161742380Y-98321904D02*
X160742380Y-98321904D01*
X160885238Y-98417142D01*
X160980476Y-98512380D01*
X161028095Y-98607619D01*
X160742380Y-97702857D02*
X160742380Y-97083809D01*
X161123333Y-97417142D01*
X161123333Y-97274285D01*
X161170952Y-97179047D01*
X161218571Y-97131428D01*
X161313809Y-97083809D01*
X161551904Y-97083809D01*
X161647142Y-97131428D01*
X161694761Y-97179047D01*
X161742380Y-97274285D01*
X161742380Y-97560000D01*
X161694761Y-97655238D01*
X161647142Y-97702857D01*
%TO.C,IC112*%
X240180952Y-131052380D02*
X239704761Y-131052380D01*
X239704761Y-130052380D01*
X240466666Y-131004761D02*
X240609523Y-131052380D01*
X240847619Y-131052380D01*
X240942857Y-131004761D01*
X240990476Y-130957142D01*
X241038095Y-130861904D01*
X241038095Y-130766666D01*
X240990476Y-130671428D01*
X240942857Y-130623809D01*
X240847619Y-130576190D01*
X240657142Y-130528571D01*
X240561904Y-130480952D01*
X240514285Y-130433333D01*
X240466666Y-130338095D01*
X240466666Y-130242857D01*
X240514285Y-130147619D01*
X240561904Y-130100000D01*
X240657142Y-130052380D01*
X240895238Y-130052380D01*
X241038095Y-130100000D01*
X241657142Y-130052380D02*
X241752380Y-130052380D01*
X241847619Y-130100000D01*
X241895238Y-130147619D01*
X241942857Y-130242857D01*
X241990476Y-130433333D01*
X241990476Y-130671428D01*
X241942857Y-130861904D01*
X241895238Y-130957142D01*
X241847619Y-131004761D01*
X241752380Y-131052380D01*
X241657142Y-131052380D01*
X241561904Y-131004761D01*
X241514285Y-130957142D01*
X241466666Y-130861904D01*
X241419047Y-130671428D01*
X241419047Y-130433333D01*
X241466666Y-130242857D01*
X241514285Y-130147619D01*
X241561904Y-130100000D01*
X241657142Y-130052380D01*
X242561904Y-130480952D02*
X242466666Y-130433333D01*
X242419047Y-130385714D01*
X242371428Y-130290476D01*
X242371428Y-130242857D01*
X242419047Y-130147619D01*
X242466666Y-130100000D01*
X242561904Y-130052380D01*
X242752380Y-130052380D01*
X242847619Y-130100000D01*
X242895238Y-130147619D01*
X242942857Y-130242857D01*
X242942857Y-130290476D01*
X242895238Y-130385714D01*
X242847619Y-130433333D01*
X242752380Y-130480952D01*
X242561904Y-130480952D01*
X242466666Y-130528571D01*
X242419047Y-130576190D01*
X242371428Y-130671428D01*
X242371428Y-130861904D01*
X242419047Y-130957142D01*
X242466666Y-131004761D01*
X242561904Y-131052380D01*
X242752380Y-131052380D01*
X242847619Y-131004761D01*
X242895238Y-130957142D01*
X242942857Y-130861904D01*
X242942857Y-130671428D01*
X242895238Y-130576190D01*
X242847619Y-130528571D01*
X242752380Y-130480952D01*
X239371428Y-121102380D02*
X239371428Y-120102380D01*
X240419047Y-121007142D02*
X240371428Y-121054761D01*
X240228571Y-121102380D01*
X240133333Y-121102380D01*
X239990476Y-121054761D01*
X239895238Y-120959523D01*
X239847619Y-120864285D01*
X239800000Y-120673809D01*
X239800000Y-120530952D01*
X239847619Y-120340476D01*
X239895238Y-120245238D01*
X239990476Y-120150000D01*
X240133333Y-120102380D01*
X240228571Y-120102380D01*
X240371428Y-120150000D01*
X240419047Y-120197619D01*
X241371428Y-121102380D02*
X240800000Y-121102380D01*
X241085714Y-121102380D02*
X241085714Y-120102380D01*
X240990476Y-120245238D01*
X240895238Y-120340476D01*
X240800000Y-120388095D01*
X242323809Y-121102380D02*
X241752380Y-121102380D01*
X242038095Y-121102380D02*
X242038095Y-120102380D01*
X241942857Y-120245238D01*
X241847619Y-120340476D01*
X241752380Y-120388095D01*
X242704761Y-120197619D02*
X242752380Y-120150000D01*
X242847619Y-120102380D01*
X243085714Y-120102380D01*
X243180952Y-120150000D01*
X243228571Y-120197619D01*
X243276190Y-120292857D01*
X243276190Y-120388095D01*
X243228571Y-120530952D01*
X242657142Y-121102380D01*
X243276190Y-121102380D01*
%TO.C,IC110*%
X150102380Y-100179047D02*
X150102380Y-100655238D01*
X149102380Y-100655238D01*
X150054761Y-99893333D02*
X150102380Y-99750476D01*
X150102380Y-99512380D01*
X150054761Y-99417142D01*
X150007142Y-99369523D01*
X149911904Y-99321904D01*
X149816666Y-99321904D01*
X149721428Y-99369523D01*
X149673809Y-99417142D01*
X149626190Y-99512380D01*
X149578571Y-99702857D01*
X149530952Y-99798095D01*
X149483333Y-99845714D01*
X149388095Y-99893333D01*
X149292857Y-99893333D01*
X149197619Y-99845714D01*
X149150000Y-99798095D01*
X149102380Y-99702857D01*
X149102380Y-99464761D01*
X149150000Y-99321904D01*
X149102380Y-98702857D02*
X149102380Y-98607619D01*
X149150000Y-98512380D01*
X149197619Y-98464761D01*
X149292857Y-98417142D01*
X149483333Y-98369523D01*
X149721428Y-98369523D01*
X149911904Y-98417142D01*
X150007142Y-98464761D01*
X150054761Y-98512380D01*
X150102380Y-98607619D01*
X150102380Y-98702857D01*
X150054761Y-98798095D01*
X150007142Y-98845714D01*
X149911904Y-98893333D01*
X149721428Y-98940952D01*
X149483333Y-98940952D01*
X149292857Y-98893333D01*
X149197619Y-98845714D01*
X149150000Y-98798095D01*
X149102380Y-98702857D01*
X149197619Y-97988571D02*
X149150000Y-97940952D01*
X149102380Y-97845714D01*
X149102380Y-97607619D01*
X149150000Y-97512380D01*
X149197619Y-97464761D01*
X149292857Y-97417142D01*
X149388095Y-97417142D01*
X149530952Y-97464761D01*
X150102380Y-98036190D01*
X150102380Y-97417142D01*
X140152380Y-100988571D02*
X139152380Y-100988571D01*
X140057142Y-99940952D02*
X140104761Y-99988571D01*
X140152380Y-100131428D01*
X140152380Y-100226666D01*
X140104761Y-100369523D01*
X140009523Y-100464761D01*
X139914285Y-100512380D01*
X139723809Y-100560000D01*
X139580952Y-100560000D01*
X139390476Y-100512380D01*
X139295238Y-100464761D01*
X139200000Y-100369523D01*
X139152380Y-100226666D01*
X139152380Y-100131428D01*
X139200000Y-99988571D01*
X139247619Y-99940952D01*
X140152380Y-98988571D02*
X140152380Y-99560000D01*
X140152380Y-99274285D02*
X139152380Y-99274285D01*
X139295238Y-99369523D01*
X139390476Y-99464761D01*
X139438095Y-99560000D01*
X140152380Y-98036190D02*
X140152380Y-98607619D01*
X140152380Y-98321904D02*
X139152380Y-98321904D01*
X139295238Y-98417142D01*
X139390476Y-98512380D01*
X139438095Y-98607619D01*
X139152380Y-97417142D02*
X139152380Y-97321904D01*
X139200000Y-97226666D01*
X139247619Y-97179047D01*
X139342857Y-97131428D01*
X139533333Y-97083809D01*
X139771428Y-97083809D01*
X139961904Y-97131428D01*
X140057142Y-97179047D01*
X140104761Y-97226666D01*
X140152380Y-97321904D01*
X140152380Y-97417142D01*
X140104761Y-97512380D01*
X140057142Y-97560000D01*
X139961904Y-97607619D01*
X139771428Y-97655238D01*
X139533333Y-97655238D01*
X139342857Y-97607619D01*
X139247619Y-97560000D01*
X139200000Y-97512380D01*
X139152380Y-97417142D01*
%TO.C,IC107*%
X149280952Y-67822380D02*
X149947619Y-67822380D01*
X149519047Y-68822380D01*
X150757142Y-68155714D02*
X150757142Y-68822380D01*
X150519047Y-67774761D02*
X150280952Y-68489047D01*
X150900000Y-68489047D01*
X151757142Y-68822380D02*
X151280952Y-68822380D01*
X151280952Y-67822380D01*
X152042857Y-68774761D02*
X152185714Y-68822380D01*
X152423809Y-68822380D01*
X152519047Y-68774761D01*
X152566666Y-68727142D01*
X152614285Y-68631904D01*
X152614285Y-68536666D01*
X152566666Y-68441428D01*
X152519047Y-68393809D01*
X152423809Y-68346190D01*
X152233333Y-68298571D01*
X152138095Y-68250952D01*
X152090476Y-68203333D01*
X152042857Y-68108095D01*
X152042857Y-68012857D01*
X152090476Y-67917619D01*
X152138095Y-67870000D01*
X152233333Y-67822380D01*
X152471428Y-67822380D01*
X152614285Y-67870000D01*
X153471428Y-67822380D02*
X153280952Y-67822380D01*
X153185714Y-67870000D01*
X153138095Y-67917619D01*
X153042857Y-68060476D01*
X152995238Y-68250952D01*
X152995238Y-68631904D01*
X153042857Y-68727142D01*
X153090476Y-68774761D01*
X153185714Y-68822380D01*
X153376190Y-68822380D01*
X153471428Y-68774761D01*
X153519047Y-68727142D01*
X153566666Y-68631904D01*
X153566666Y-68393809D01*
X153519047Y-68298571D01*
X153471428Y-68250952D01*
X153376190Y-68203333D01*
X153185714Y-68203333D01*
X153090476Y-68250952D01*
X153042857Y-68298571D01*
X152995238Y-68393809D01*
X153947619Y-67917619D02*
X153995238Y-67870000D01*
X154090476Y-67822380D01*
X154328571Y-67822380D01*
X154423809Y-67870000D01*
X154471428Y-67917619D01*
X154519047Y-68012857D01*
X154519047Y-68108095D01*
X154471428Y-68250952D01*
X153900000Y-68822380D01*
X154519047Y-68822380D01*
X155471428Y-68822380D02*
X154900000Y-68822380D01*
X155185714Y-68822380D02*
X155185714Y-67822380D01*
X155090476Y-67965238D01*
X154995238Y-68060476D01*
X154900000Y-68108095D01*
X150471428Y-55062380D02*
X150471428Y-54062380D01*
X151519047Y-54967142D02*
X151471428Y-55014761D01*
X151328571Y-55062380D01*
X151233333Y-55062380D01*
X151090476Y-55014761D01*
X150995238Y-54919523D01*
X150947619Y-54824285D01*
X150900000Y-54633809D01*
X150900000Y-54490952D01*
X150947619Y-54300476D01*
X150995238Y-54205238D01*
X151090476Y-54110000D01*
X151233333Y-54062380D01*
X151328571Y-54062380D01*
X151471428Y-54110000D01*
X151519047Y-54157619D01*
X152471428Y-55062380D02*
X151900000Y-55062380D01*
X152185714Y-55062380D02*
X152185714Y-54062380D01*
X152090476Y-54205238D01*
X151995238Y-54300476D01*
X151900000Y-54348095D01*
X153090476Y-54062380D02*
X153185714Y-54062380D01*
X153280952Y-54110000D01*
X153328571Y-54157619D01*
X153376190Y-54252857D01*
X153423809Y-54443333D01*
X153423809Y-54681428D01*
X153376190Y-54871904D01*
X153328571Y-54967142D01*
X153280952Y-55014761D01*
X153185714Y-55062380D01*
X153090476Y-55062380D01*
X152995238Y-55014761D01*
X152947619Y-54967142D01*
X152900000Y-54871904D01*
X152852380Y-54681428D01*
X152852380Y-54443333D01*
X152900000Y-54252857D01*
X152947619Y-54157619D01*
X152995238Y-54110000D01*
X153090476Y-54062380D01*
X153757142Y-54062380D02*
X154423809Y-54062380D01*
X153995238Y-55062380D01*
%TO.C,IC106*%
X164774761Y-131052380D02*
X164298571Y-131052380D01*
X164298571Y-130052380D01*
X165060476Y-131004761D02*
X165203333Y-131052380D01*
X165441428Y-131052380D01*
X165536666Y-131004761D01*
X165584285Y-130957142D01*
X165631904Y-130861904D01*
X165631904Y-130766666D01*
X165584285Y-130671428D01*
X165536666Y-130623809D01*
X165441428Y-130576190D01*
X165250952Y-130528571D01*
X165155714Y-130480952D01*
X165108095Y-130433333D01*
X165060476Y-130338095D01*
X165060476Y-130242857D01*
X165108095Y-130147619D01*
X165155714Y-130100000D01*
X165250952Y-130052380D01*
X165489047Y-130052380D01*
X165631904Y-130100000D01*
X166584285Y-131052380D02*
X166012857Y-131052380D01*
X166298571Y-131052380D02*
X166298571Y-130052380D01*
X166203333Y-130195238D01*
X166108095Y-130290476D01*
X166012857Y-130338095D01*
X166917619Y-130052380D02*
X167536666Y-130052380D01*
X167203333Y-130433333D01*
X167346190Y-130433333D01*
X167441428Y-130480952D01*
X167489047Y-130528571D01*
X167536666Y-130623809D01*
X167536666Y-130861904D01*
X167489047Y-130957142D01*
X167441428Y-131004761D01*
X167346190Y-131052380D01*
X167060476Y-131052380D01*
X166965238Y-131004761D01*
X166917619Y-130957142D01*
X168012857Y-131052380D02*
X168203333Y-131052380D01*
X168298571Y-131004761D01*
X168346190Y-130957142D01*
X168441428Y-130814285D01*
X168489047Y-130623809D01*
X168489047Y-130242857D01*
X168441428Y-130147619D01*
X168393809Y-130100000D01*
X168298571Y-130052380D01*
X168108095Y-130052380D01*
X168012857Y-130100000D01*
X167965238Y-130147619D01*
X167917619Y-130242857D01*
X167917619Y-130480952D01*
X167965238Y-130576190D01*
X168012857Y-130623809D01*
X168108095Y-130671428D01*
X168298571Y-130671428D01*
X168393809Y-130623809D01*
X168441428Y-130576190D01*
X168489047Y-130480952D01*
X164321428Y-116402380D02*
X164321428Y-115402380D01*
X165369047Y-116307142D02*
X165321428Y-116354761D01*
X165178571Y-116402380D01*
X165083333Y-116402380D01*
X164940476Y-116354761D01*
X164845238Y-116259523D01*
X164797619Y-116164285D01*
X164750000Y-115973809D01*
X164750000Y-115830952D01*
X164797619Y-115640476D01*
X164845238Y-115545238D01*
X164940476Y-115450000D01*
X165083333Y-115402380D01*
X165178571Y-115402380D01*
X165321428Y-115450000D01*
X165369047Y-115497619D01*
X166321428Y-116402380D02*
X165750000Y-116402380D01*
X166035714Y-116402380D02*
X166035714Y-115402380D01*
X165940476Y-115545238D01*
X165845238Y-115640476D01*
X165750000Y-115688095D01*
X166940476Y-115402380D02*
X167035714Y-115402380D01*
X167130952Y-115450000D01*
X167178571Y-115497619D01*
X167226190Y-115592857D01*
X167273809Y-115783333D01*
X167273809Y-116021428D01*
X167226190Y-116211904D01*
X167178571Y-116307142D01*
X167130952Y-116354761D01*
X167035714Y-116402380D01*
X166940476Y-116402380D01*
X166845238Y-116354761D01*
X166797619Y-116307142D01*
X166750000Y-116211904D01*
X166702380Y-116021428D01*
X166702380Y-115783333D01*
X166750000Y-115592857D01*
X166797619Y-115497619D01*
X166845238Y-115450000D01*
X166940476Y-115402380D01*
X168130952Y-115402380D02*
X167940476Y-115402380D01*
X167845238Y-115450000D01*
X167797619Y-115497619D01*
X167702380Y-115640476D01*
X167654761Y-115830952D01*
X167654761Y-116211904D01*
X167702380Y-116307142D01*
X167750000Y-116354761D01*
X167845238Y-116402380D01*
X168035714Y-116402380D01*
X168130952Y-116354761D01*
X168178571Y-116307142D01*
X168226190Y-116211904D01*
X168226190Y-115973809D01*
X168178571Y-115878571D01*
X168130952Y-115830952D01*
X168035714Y-115783333D01*
X167845238Y-115783333D01*
X167750000Y-115830952D01*
X167702380Y-115878571D01*
X167654761Y-115973809D01*
%TO.C,IC103*%
X242812380Y-98909047D02*
X242812380Y-99385238D01*
X241812380Y-99385238D01*
X242764761Y-98623333D02*
X242812380Y-98480476D01*
X242812380Y-98242380D01*
X242764761Y-98147142D01*
X242717142Y-98099523D01*
X242621904Y-98051904D01*
X242526666Y-98051904D01*
X242431428Y-98099523D01*
X242383809Y-98147142D01*
X242336190Y-98242380D01*
X242288571Y-98432857D01*
X242240952Y-98528095D01*
X242193333Y-98575714D01*
X242098095Y-98623333D01*
X242002857Y-98623333D01*
X241907619Y-98575714D01*
X241860000Y-98528095D01*
X241812380Y-98432857D01*
X241812380Y-98194761D01*
X241860000Y-98051904D01*
X241812380Y-97718571D02*
X241812380Y-97099523D01*
X242193333Y-97432857D01*
X242193333Y-97290000D01*
X242240952Y-97194761D01*
X242288571Y-97147142D01*
X242383809Y-97099523D01*
X242621904Y-97099523D01*
X242717142Y-97147142D01*
X242764761Y-97194761D01*
X242812380Y-97290000D01*
X242812380Y-97575714D01*
X242764761Y-97670952D01*
X242717142Y-97718571D01*
X241907619Y-96718571D02*
X241860000Y-96670952D01*
X241812380Y-96575714D01*
X241812380Y-96337619D01*
X241860000Y-96242380D01*
X241907619Y-96194761D01*
X242002857Y-96147142D01*
X242098095Y-96147142D01*
X242240952Y-96194761D01*
X242812380Y-96766190D01*
X242812380Y-96147142D01*
X232862380Y-99718571D02*
X231862380Y-99718571D01*
X232767142Y-98670952D02*
X232814761Y-98718571D01*
X232862380Y-98861428D01*
X232862380Y-98956666D01*
X232814761Y-99099523D01*
X232719523Y-99194761D01*
X232624285Y-99242380D01*
X232433809Y-99290000D01*
X232290952Y-99290000D01*
X232100476Y-99242380D01*
X232005238Y-99194761D01*
X231910000Y-99099523D01*
X231862380Y-98956666D01*
X231862380Y-98861428D01*
X231910000Y-98718571D01*
X231957619Y-98670952D01*
X232862380Y-97718571D02*
X232862380Y-98290000D01*
X232862380Y-98004285D02*
X231862380Y-98004285D01*
X232005238Y-98099523D01*
X232100476Y-98194761D01*
X232148095Y-98290000D01*
X231862380Y-97099523D02*
X231862380Y-97004285D01*
X231910000Y-96909047D01*
X231957619Y-96861428D01*
X232052857Y-96813809D01*
X232243333Y-96766190D01*
X232481428Y-96766190D01*
X232671904Y-96813809D01*
X232767142Y-96861428D01*
X232814761Y-96909047D01*
X232862380Y-97004285D01*
X232862380Y-97099523D01*
X232814761Y-97194761D01*
X232767142Y-97242380D01*
X232671904Y-97290000D01*
X232481428Y-97337619D01*
X232243333Y-97337619D01*
X232052857Y-97290000D01*
X231957619Y-97242380D01*
X231910000Y-97194761D01*
X231862380Y-97099523D01*
X231862380Y-96432857D02*
X231862380Y-95813809D01*
X232243333Y-96147142D01*
X232243333Y-96004285D01*
X232290952Y-95909047D01*
X232338571Y-95861428D01*
X232433809Y-95813809D01*
X232671904Y-95813809D01*
X232767142Y-95861428D01*
X232814761Y-95909047D01*
X232862380Y-96004285D01*
X232862380Y-96290000D01*
X232814761Y-96385238D01*
X232767142Y-96432857D01*
%TD*%
M02*
