%TF.GenerationSoftware,KiCad,Pcbnew,(5.1.10)-1*%
%TF.CreationDate,2022-02-01T13:34:57+01:00*%
%TF.ProjectId,TA8-FDC,5441382d-4644-4432-9e6b-696361645f70,rev?*%
%TF.SameCoordinates,Original*%
%TF.FileFunction,Other,User*%
%FSLAX46Y46*%
G04 Gerber Fmt 4.6, Leading zero omitted, Abs format (unit mm)*
G04 Created by KiCad (PCBNEW (5.1.10)-1) date 2022-02-01 13:34:57*
%MOMM*%
%LPD*%
G01*
G04 APERTURE LIST*
%ADD10C,0.050000*%
G04 APERTURE END LIST*
D10*
%TO.C,R4*%
X261400000Y-138660000D02*
X261400000Y-135660000D01*
X261400000Y-135660000D02*
X249140000Y-135660000D01*
X249140000Y-135660000D02*
X249140000Y-138660000D01*
X249140000Y-138660000D02*
X261400000Y-138660000D01*
%TO.C,R3*%
X265210000Y-134850000D02*
X265210000Y-131850000D01*
X265210000Y-131850000D02*
X252950000Y-131850000D01*
X252950000Y-131850000D02*
X252950000Y-134850000D01*
X252950000Y-134850000D02*
X265210000Y-134850000D01*
%TO.C,R2*%
X233900000Y-42950000D02*
X233900000Y-45950000D01*
X233900000Y-45950000D02*
X246160000Y-45950000D01*
X246160000Y-45950000D02*
X246160000Y-42950000D01*
X246160000Y-42950000D02*
X233900000Y-42950000D01*
%TO.C,R1*%
X233900000Y-39140000D02*
X233900000Y-42140000D01*
X233900000Y-42140000D02*
X246160000Y-42140000D01*
X246160000Y-42140000D02*
X246160000Y-39140000D01*
X246160000Y-39140000D02*
X233900000Y-39140000D01*
%TO.C,C7*%
X266480000Y-138410000D02*
X266480000Y-135910000D01*
X266480000Y-135910000D02*
X261880000Y-135910000D01*
X261880000Y-135910000D02*
X261880000Y-138410000D01*
X261880000Y-138410000D02*
X266480000Y-138410000D01*
%TO.C,C6*%
X228820000Y-43200000D02*
X228820000Y-45700000D01*
X228820000Y-45700000D02*
X233420000Y-45700000D01*
X233420000Y-45700000D02*
X233420000Y-43200000D01*
X233420000Y-43200000D02*
X228820000Y-43200000D01*
%TO.C,C5*%
X266480000Y-104120000D02*
X266480000Y-101620000D01*
X266480000Y-101620000D02*
X261880000Y-101620000D01*
X261880000Y-101620000D02*
X261880000Y-104120000D01*
X261880000Y-104120000D02*
X266480000Y-104120000D01*
%TO.C,C4*%
X228820000Y-39390000D02*
X228820000Y-41890000D01*
X228820000Y-41890000D02*
X233420000Y-41890000D01*
X233420000Y-41890000D02*
X233420000Y-39390000D01*
X233420000Y-39390000D02*
X228820000Y-39390000D01*
%TO.C,U4*%
X264370000Y-125450000D02*
X253820000Y-125450000D01*
X264370000Y-131100000D02*
X264370000Y-125450000D01*
X253820000Y-131100000D02*
X264370000Y-131100000D01*
X253820000Y-125450000D02*
X253820000Y-131100000D01*
%TO.C,U3*%
X264370000Y-119100000D02*
X253820000Y-119100000D01*
X264370000Y-124750000D02*
X264370000Y-119100000D01*
X253820000Y-124750000D02*
X264370000Y-124750000D01*
X253820000Y-119100000D02*
X253820000Y-124750000D01*
%TO.C,U2*%
X264370000Y-112750000D02*
X253820000Y-112750000D01*
X264370000Y-118400000D02*
X264370000Y-112750000D01*
X253820000Y-118400000D02*
X264370000Y-118400000D01*
X253820000Y-112750000D02*
X253820000Y-118400000D01*
%TO.C,J2*%
X264690000Y-89660000D02*
X264690000Y-100860000D01*
X258590000Y-89660000D02*
X264690000Y-89660000D01*
X258590000Y-100860000D02*
X258590000Y-89660000D01*
X264690000Y-100860000D02*
X258590000Y-100860000D01*
%TO.C,U5*%
X264370000Y-106400000D02*
X253820000Y-106400000D01*
X264370000Y-112050000D02*
X264370000Y-106400000D01*
X253820000Y-112050000D02*
X264370000Y-112050000D01*
X253820000Y-106400000D02*
X253820000Y-112050000D01*
%TO.C,IC105*%
X219920000Y-111480000D02*
X209370000Y-111480000D01*
X219920000Y-129830000D02*
X219920000Y-111480000D01*
X209370000Y-129830000D02*
X219920000Y-129830000D01*
X209370000Y-111480000D02*
X209370000Y-129830000D01*
%TO.C,IC10*%
X222440000Y-54330000D02*
X204240000Y-54330000D01*
X222440000Y-85380000D02*
X222440000Y-54330000D01*
X204240000Y-85380000D02*
X222440000Y-85380000D01*
X204240000Y-54330000D02*
X204240000Y-85380000D01*
%TO.C,J1*%
X259820000Y-41380000D02*
X265920000Y-41380000D01*
X265920000Y-41380000D02*
X265920000Y-85580000D01*
X265920000Y-85580000D02*
X259820000Y-85580000D01*
X259820000Y-85580000D02*
X259820000Y-41380000D01*
%TO.C,IC109*%
X236430000Y-67030000D02*
X225880000Y-67030000D01*
X236430000Y-85380000D02*
X236430000Y-67030000D01*
X225880000Y-85380000D02*
X236430000Y-85380000D01*
X225880000Y-67030000D02*
X225880000Y-85380000D01*
%TO.C,IC102*%
X236430000Y-46710000D02*
X225880000Y-46710000D01*
X236430000Y-65060000D02*
X236430000Y-46710000D01*
X225880000Y-65060000D02*
X236430000Y-65060000D01*
X225880000Y-46710000D02*
X225880000Y-65060000D01*
%TO.C,IC108*%
X205950000Y-108940000D02*
X195400000Y-108940000D01*
X205950000Y-129790000D02*
X205950000Y-108940000D01*
X195400000Y-129790000D02*
X205950000Y-129790000D01*
X195400000Y-108940000D02*
X195400000Y-129790000D01*
%TO.C,U16*%
X155150000Y-108940000D02*
X144600000Y-108940000D01*
X155150000Y-134890000D02*
X155150000Y-108940000D01*
X144600000Y-134890000D02*
X155150000Y-134890000D01*
X144600000Y-108940000D02*
X144600000Y-134890000D01*
%TO.C,U1*%
X232620000Y-111480000D02*
X222070000Y-111480000D01*
X232620000Y-129830000D02*
X232620000Y-111480000D01*
X222070000Y-129830000D02*
X232620000Y-129830000D01*
X222070000Y-111480000D02*
X222070000Y-129830000D01*
%TO.C,IC116*%
X157690000Y-70840000D02*
X147140000Y-70840000D01*
X157690000Y-89190000D02*
X157690000Y-70840000D01*
X147140000Y-89190000D02*
X157690000Y-89190000D01*
X147140000Y-70840000D02*
X147140000Y-89190000D01*
%TO.C,RN1*%
X250570000Y-40210000D02*
X247270000Y-40210000D01*
X247270000Y-40210000D02*
X247270000Y-61410000D01*
X247270000Y-61410000D02*
X250570000Y-61410000D01*
X250570000Y-61410000D02*
X250570000Y-40210000D01*
%TO.C,R107*%
X224570000Y-86130000D02*
X212310000Y-86130000D01*
X224570000Y-89130000D02*
X224570000Y-86130000D01*
X212310000Y-89130000D02*
X224570000Y-89130000D01*
X212310000Y-86130000D02*
X212310000Y-89130000D01*
%TO.C,R142*%
X109440000Y-53570000D02*
X121700000Y-53570000D01*
X109440000Y-50570000D02*
X109440000Y-53570000D01*
X121700000Y-50570000D02*
X109440000Y-50570000D01*
X121700000Y-53570000D02*
X121700000Y-50570000D01*
%TO.C,R108*%
X202150000Y-45950000D02*
X214410000Y-45950000D01*
X202150000Y-42950000D02*
X202150000Y-45950000D01*
X214410000Y-42950000D02*
X202150000Y-42950000D01*
X214410000Y-45950000D02*
X214410000Y-42950000D01*
%TO.C,R106*%
X251240000Y-67080000D02*
X238980000Y-67080000D01*
X251240000Y-70080000D02*
X251240000Y-67080000D01*
X238980000Y-70080000D02*
X251240000Y-70080000D01*
X238980000Y-67080000D02*
X238980000Y-70080000D01*
%TO.C,R105*%
X238980000Y-73890000D02*
X251240000Y-73890000D01*
X238980000Y-70890000D02*
X238980000Y-73890000D01*
X251240000Y-70890000D02*
X238980000Y-70890000D01*
X251240000Y-73890000D02*
X251240000Y-70890000D01*
%TO.C,R104*%
X238980000Y-77700000D02*
X251240000Y-77700000D01*
X238980000Y-74700000D02*
X238980000Y-77700000D01*
X251240000Y-74700000D02*
X238980000Y-74700000D01*
X251240000Y-77700000D02*
X251240000Y-74700000D01*
%TO.C,R103*%
X251240000Y-63270000D02*
X238980000Y-63270000D01*
X251240000Y-66270000D02*
X251240000Y-63270000D01*
X238980000Y-66270000D02*
X251240000Y-66270000D01*
X238980000Y-63270000D02*
X238980000Y-66270000D01*
%TO.C,R102*%
X188180000Y-45950000D02*
X200440000Y-45950000D01*
X188180000Y-42950000D02*
X188180000Y-45950000D01*
X200440000Y-42950000D02*
X188180000Y-42950000D01*
X200440000Y-45950000D02*
X200440000Y-42950000D01*
%TO.C,R101*%
X188180000Y-49760000D02*
X200440000Y-49760000D01*
X188180000Y-46760000D02*
X188180000Y-49760000D01*
X200440000Y-46760000D02*
X188180000Y-46760000D01*
X200440000Y-49760000D02*
X200440000Y-46760000D01*
%TO.C,D101*%
X173810000Y-46500000D02*
X186870000Y-46500000D01*
X173810000Y-42400000D02*
X173810000Y-46500000D01*
X186870000Y-42400000D02*
X173810000Y-42400000D01*
X186870000Y-46500000D02*
X186870000Y-42400000D01*
%TO.C,CY101*%
X214240000Y-46730000D02*
X202140000Y-46730000D01*
X214240000Y-52330000D02*
X214240000Y-46730000D01*
X202140000Y-52330000D02*
X214240000Y-52330000D01*
X202140000Y-46730000D02*
X202140000Y-52330000D01*
%TO.C,C107*%
X221990000Y-45740000D02*
X217390000Y-45740000D01*
X221990000Y-48240000D02*
X221990000Y-45740000D01*
X217390000Y-48240000D02*
X221990000Y-48240000D01*
X217390000Y-45740000D02*
X217390000Y-48240000D01*
%TO.C,C106*%
X175240000Y-114040000D02*
X175240000Y-109440000D01*
X172740000Y-114040000D02*
X175240000Y-114040000D01*
X172740000Y-109440000D02*
X172740000Y-114040000D01*
X175240000Y-109440000D02*
X172740000Y-109440000D01*
%TO.C,C105*%
X240050000Y-79000000D02*
X240050000Y-83600000D01*
X242550000Y-79000000D02*
X240050000Y-79000000D01*
X242550000Y-83600000D02*
X242550000Y-79000000D01*
X240050000Y-83600000D02*
X242550000Y-83600000D01*
%TO.C,C104*%
X221990000Y-48280000D02*
X217390000Y-48280000D01*
X221990000Y-50780000D02*
X221990000Y-48280000D01*
X217390000Y-50780000D02*
X221990000Y-50780000D01*
X217390000Y-48280000D02*
X217390000Y-50780000D01*
%TO.C,C103*%
X244890000Y-106700000D02*
X240290000Y-106700000D01*
X244890000Y-109200000D02*
X244890000Y-106700000D01*
X240290000Y-109200000D02*
X244890000Y-109200000D01*
X240290000Y-106700000D02*
X240290000Y-109200000D01*
%TO.C,C102*%
X198140000Y-54870000D02*
X198140000Y-59470000D01*
X200640000Y-54870000D02*
X198140000Y-54870000D01*
X200640000Y-59470000D02*
X200640000Y-54870000D01*
X198140000Y-59470000D02*
X200640000Y-59470000D01*
%TO.C,C101*%
X177780000Y-50800000D02*
G75*
G03*
X177780000Y-50800000I-2250000J0D01*
G01*
%TO.C,C3*%
X257250000Y-44450000D02*
G75*
G03*
X257250000Y-44450000I-2250000J0D01*
G01*
%TO.C,C2*%
X172460000Y-43200000D02*
X167860000Y-43200000D01*
X172460000Y-45700000D02*
X172460000Y-43200000D01*
X167860000Y-45700000D02*
X172460000Y-45700000D01*
X167860000Y-43200000D02*
X167860000Y-45700000D01*
%TO.C,C1*%
X123900000Y-127000000D02*
G75*
G03*
X123900000Y-127000000I-2250000J0D01*
G01*
%TO.C,RA106*%
X136270000Y-89360000D02*
X136270000Y-65610000D01*
X132970000Y-89360000D02*
X136270000Y-89360000D01*
X132970000Y-65610000D02*
X132970000Y-89360000D01*
X136270000Y-65610000D02*
X132970000Y-65610000D01*
%TO.C,RA102*%
X136270000Y-65230000D02*
X136270000Y-41480000D01*
X132970000Y-65230000D02*
X136270000Y-65230000D01*
X132970000Y-41480000D02*
X132970000Y-65230000D01*
X136270000Y-41480000D02*
X132970000Y-41480000D01*
%TO.C,RA101*%
X161670000Y-67770000D02*
X161670000Y-44020000D01*
X158370000Y-67770000D02*
X161670000Y-67770000D01*
X158370000Y-44020000D02*
X158370000Y-67770000D01*
X161670000Y-44020000D02*
X158370000Y-44020000D01*
%TO.C,RA3*%
X140080000Y-89360000D02*
X140080000Y-65610000D01*
X136780000Y-89360000D02*
X140080000Y-89360000D01*
X136780000Y-65610000D02*
X136780000Y-89360000D01*
X140080000Y-65610000D02*
X136780000Y-65610000D01*
%TO.C,RA2*%
X132460000Y-133810000D02*
X132460000Y-110060000D01*
X129160000Y-133810000D02*
X132460000Y-133810000D01*
X129160000Y-110060000D02*
X129160000Y-133810000D01*
X132460000Y-110060000D02*
X129160000Y-110060000D01*
%TO.C,RA1*%
X136270000Y-133810000D02*
X136270000Y-110060000D01*
X132970000Y-133810000D02*
X136270000Y-133810000D01*
X132970000Y-110060000D02*
X132970000Y-133810000D01*
X136270000Y-110060000D02*
X132970000Y-110060000D01*
%TO.C,LSI101*%
X195770000Y-53060000D02*
X177570000Y-53060000D01*
X195770000Y-104410000D02*
X195770000Y-53060000D01*
X177570000Y-104410000D02*
X195770000Y-104410000D01*
X177570000Y-53060000D02*
X177570000Y-104410000D01*
%TO.C,JCNB103*%
X121180000Y-122440000D02*
X121180000Y-57940000D01*
X106330000Y-122440000D02*
X121180000Y-122440000D01*
X106330000Y-57940000D02*
X106330000Y-122440000D01*
X121180000Y-57940000D02*
X106330000Y-57940000D01*
%TO.C,IC119*%
X190710000Y-111480000D02*
X180160000Y-111480000D01*
X190710000Y-129830000D02*
X190710000Y-111480000D01*
X180160000Y-129830000D02*
X190710000Y-129830000D01*
X180160000Y-111480000D02*
X180160000Y-129830000D01*
%TO.C,IC117*%
X202920000Y-92500000D02*
X202920000Y-103050000D01*
X221270000Y-92500000D02*
X202920000Y-92500000D01*
X221270000Y-103050000D02*
X221270000Y-92500000D01*
X202920000Y-103050000D02*
X221270000Y-103050000D01*
%TO.C,IC113*%
X152120000Y-93770000D02*
X152120000Y-104320000D01*
X170470000Y-93770000D02*
X152120000Y-93770000D01*
X170470000Y-104320000D02*
X170470000Y-93770000D01*
X152120000Y-104320000D02*
X170470000Y-104320000D01*
%TO.C,IC112*%
X246590000Y-111480000D02*
X236040000Y-111480000D01*
X246590000Y-129830000D02*
X246590000Y-111480000D01*
X236040000Y-129830000D02*
X246590000Y-129830000D01*
X236040000Y-111480000D02*
X236040000Y-129830000D01*
%TO.C,IC110*%
X130530000Y-93770000D02*
X130530000Y-104320000D01*
X148880000Y-93770000D02*
X130530000Y-93770000D01*
X148880000Y-104320000D02*
X148880000Y-93770000D01*
X130530000Y-104320000D02*
X148880000Y-104320000D01*
%TO.C,IC107*%
X157690000Y-41630000D02*
X147140000Y-41630000D01*
X157690000Y-67580000D02*
X157690000Y-41630000D01*
X147140000Y-67580000D02*
X157690000Y-67580000D01*
X147140000Y-41630000D02*
X147140000Y-67580000D01*
%TO.C,IC106*%
X171660000Y-108940000D02*
X161110000Y-108940000D01*
X171660000Y-129790000D02*
X171660000Y-108940000D01*
X161110000Y-129790000D02*
X171660000Y-129790000D01*
X161110000Y-108940000D02*
X161110000Y-129790000D01*
%TO.C,IC103*%
X223240000Y-92500000D02*
X223240000Y-103050000D01*
X241590000Y-92500000D02*
X223240000Y-92500000D01*
X241590000Y-103050000D02*
X241590000Y-92500000D01*
X223240000Y-103050000D02*
X241590000Y-103050000D01*
%TD*%
M02*
